<svg width="100%" height="100%" viewBox="0 0 24 24" fill="none" xmlns="http://www.w3.org/2000/svg">
<path d="M15.0281 10.7697L20.6881 6.97973C21.2581 6.59973 21.4081 5.81973 21.0281 5.25973L19.2081 2.54971C18.8281 1.97971 18.0481 1.82971 17.4881 2.20971L11.8281 5.99972L15.0281 10.7697Z" stroke="current" stroke-width="1.5" stroke-linecap="round" stroke-linejoin="round"/>
<path d="M12.1761 6.47981L7.39844 9.67969L9.95834 13.5018L14.736 10.302L12.1761 6.47981Z" stroke="current" stroke-width="1.5" stroke-linecap="round" stroke-linejoin="round"/>
<path d="M5.83053 15.8999L9.78053 13.2599L7.54053 9.91992L3.59053 12.5599C3.13053 12.8699 3.01053 13.4899 3.32053 13.9499L4.45053 15.6299C4.75053 16.0799 5.37053 16.1999 5.83053 15.8999Z" stroke="current" stroke-width="1.5" stroke-linecap="round" stroke-linejoin="round"/>
<path d="M12.0525 12.1992L7.5625 21.9992" stroke="current" stroke-width="1.5" stroke-linecap="round" stroke-linejoin="round"/>
<path d="M12 12.1992L16.44 21.9992" stroke="current" stroke-width="1.5" stroke-linecap="round" stroke-linejoin="round"/>
</svg>
