<svg width="12" height="12" viewBox="0 0 12 12" fill="none" xmlns="http://www.w3.org/2000/svg">
<path d="M4.33594 7.16492C4.33594 7.80992 4.83094 8.32992 5.44594 8.32992H6.70094C7.23594 8.32992 7.67094 7.87492 7.67094 7.31492C7.67094 6.70492 7.40594 6.48992 7.01094 6.34992L4.99594 5.64992C4.60094 5.50992 4.33594 5.29492 4.33594 4.68492C4.33594 4.12492 4.77094 3.66992 5.30594 3.66992H6.56094C7.17594 3.66992 7.67094 4.18992 7.67094 4.83492" stroke="#9747FF" stroke-linecap="round" stroke-linejoin="round"/>
<path d="M6 3V9" stroke="#9747FF" stroke-linecap="round" stroke-linejoin="round"/>
<path d="M6 11C8.76142 11 11 8.76142 11 6C11 3.23858 8.76142 1 6 1C3.23858 1 1 3.23858 1 6C1 8.76142 3.23858 11 6 11Z" stroke="#9747FF" stroke-linecap="round" stroke-linejoin="round"/>
</svg>
