<svg width="21" height="22" viewBox="0 0 21 22" fill="none" xmlns="http://www.w3.org/2000/svg">
<mask id="mask0_288_1497" style="mask-type:luminance" maskUnits="userSpaceOnUse" x="0" y="0" width="21" height="22">
<path d="M20.2674 9.13967H10.7326V13.0932H16.2209C15.7093 15.6048 13.5698 17.0466 10.7326 17.0466C7.38372 17.0466 4.68605 14.349 4.68605 11.0001C4.68605 7.6513 7.38372 4.95362 10.7326 4.95362C12.1744 4.95362 13.4767 5.46526 14.5 6.30247L17.4767 3.32572C15.6628 1.74432 13.3372 0.767578 10.7326 0.767578C5.05814 0.767578 0.5 5.32572 0.5 11.0001C0.5 16.6746 5.05814 21.2327 10.7326 21.2327C15.8488 21.2327 20.5 17.5118 20.5 11.0001C20.5 10.3955 20.407 9.74432 20.2674 9.13967Z" fill="white"/>
</mask>
<g mask="url(#mask0_288_1497)">
<path d="M-0.430176 17.0461V4.95312L7.4768 10.9996L-0.430176 17.0461Z" fill="#FBBC05"/>
</g>
<mask id="mask1_288_1497" style="mask-type:luminance" maskUnits="userSpaceOnUse" x="0" y="0" width="21" height="22">
<path d="M20.2674 9.13967H10.7326V13.0932H16.2209C15.7093 15.6048 13.5698 17.0466 10.7326 17.0466C7.38372 17.0466 4.68605 14.349 4.68605 11.0001C4.68605 7.6513 7.38372 4.95362 10.7326 4.95362C12.1744 4.95362 13.4767 5.46526 14.5 6.30247L17.4767 3.32572C15.6628 1.74432 13.3372 0.767578 10.7326 0.767578C5.05814 0.767578 0.5 5.32572 0.5 11.0001C0.5 16.6746 5.05814 21.2327 10.7326 21.2327C15.8488 21.2327 20.5 17.5118 20.5 11.0001C20.5 10.3955 20.407 9.74432 20.2674 9.13967Z" fill="white"/>
</mask>
<g mask="url(#mask1_288_1497)">
<path d="M-0.430176 4.95368L7.4768 11.0002L10.7326 8.16299L21.8954 6.34903V-0.162598H-0.430176V4.95368Z" fill="#EA4335"/>
</g>
<mask id="mask2_288_1497" style="mask-type:luminance" maskUnits="userSpaceOnUse" x="0" y="0" width="21" height="22">
<path d="M20.2674 9.13967H10.7326V13.0932H16.2209C15.7093 15.6048 13.5698 17.0466 10.7326 17.0466C7.38372 17.0466 4.68605 14.349 4.68605 11.0001C4.68605 7.6513 7.38372 4.95362 10.7326 4.95362C12.1744 4.95362 13.4767 5.46526 14.5 6.30247L17.4767 3.32572C15.6628 1.74432 13.3372 0.767578 10.7326 0.767578C5.05814 0.767578 0.5 5.32572 0.5 11.0001C0.5 16.6746 5.05814 21.2327 10.7326 21.2327C15.8488 21.2327 20.5 17.5118 20.5 11.0001C20.5 10.3955 20.407 9.74432 20.2674 9.13967Z" fill="white"/>
</mask>
<g mask="url(#mask2_288_1497)">
<path d="M-0.430176 17.0467L13.5233 6.34903L17.1977 6.81415L21.8954 -0.162598V22.163H-0.430176V17.0467Z" fill="#34A853"/>
</g>
<mask id="mask3_288_1497" style="mask-type:luminance" maskUnits="userSpaceOnUse" x="0" y="0" width="21" height="22">
<path d="M20.2674 9.13967H10.7326V13.0932H16.2209C15.7093 15.6048 13.5698 17.0466 10.7326 17.0466C7.38372 17.0466 4.68605 14.349 4.68605 11.0001C4.68605 7.6513 7.38372 4.95362 10.7326 4.95362C12.1744 4.95362 13.4767 5.46526 14.5 6.30247L17.4767 3.32572C15.6628 1.74432 13.3372 0.767578 10.7326 0.767578C5.05814 0.767578 0.5 5.32572 0.5 11.0001C0.5 16.6746 5.05814 21.2327 10.7326 21.2327C15.8488 21.2327 20.5 17.5118 20.5 11.0001C20.5 10.3955 20.407 9.74432 20.2674 9.13967Z" fill="white"/>
</mask>
<g mask="url(#mask3_288_1497)">
<path d="M21.8953 22.1624L7.47668 10.9996L5.61621 9.60429L21.8953 4.95312V22.1624Z" fill="#4285F4"/>
</g>
</svg>
