<?xml version="1.0" standalone="no"?>
<!DOCTYPE svg PUBLIC "-//W3C//DTD SVG 20010904//EN"
 "http://www.w3.org/TR/2001/REC-SVG-20010904/DTD/svg10.dtd">
<svg version="1.0" xmlns="http://www.w3.org/2000/svg"
 width="500.000000pt" height="500.000000pt" viewBox="0 0 500.000000 500.000000"
 preserveAspectRatio="xMidYMid meet">

<g transform="translate(0.000000,500.000000) scale(0.100000,-0.100000)"
fill="#000000" stroke="none">
<path d="M3308 4314 c-214 -33 -420 -131 -570 -273 l-61 -57 -81 27 c-45 15
-116 35 -158 43 -100 21 -292 21 -378 0 l-65 -15 -95 50 c-52 27 -135 62 -185
77 -83 26 -104 28 -260 28 -202 1 -279 -15 -440 -94 -273 -132 -466 -364 -519
-622 -65 -314 86 -623 270 -553 24 9 53 28 64 42 43 54 34 152 -17 193 -17 13
-31 39 -39 72 -85 328 271 688 679 688 73 0 229 -29 245 -45 3 -3 -17 -28 -44
-57 -129 -137 -185 -269 -185 -432 0 -139 51 -262 151 -369 85 -91 161 -130
265 -135 110 -5 176 20 254 97 67 66 104 126 137 223 59 175 53 360 -17 517
-16 35 -29 65 -29 67 0 18 244 -19 281 -41 4 -3 -3 -34 -16 -68 -110 -294 -51
-569 143 -664 218 -107 463 100 462 391 -1 118 -63 283 -141 370 l-43 49 49
44 c63 56 207 127 310 154 135 35 309 27 388 -18 4 -2 -19 -24 -50 -47 -187
-138 -311 -361 -321 -581 -9 -202 61 -346 204 -416 59 -29 69 -31 146 -27 72
4 93 9 154 42 122 64 239 196 309 350 50 110 68 195 69 324 0 61 3 112 6 112
4 0 31 -7 61 -16 134 -40 249 -125 295 -219 23 -47 26 -64 22 -127 -6 -116
-61 -219 -208 -388 -81 -93 -90 -109 -90 -160 0 -81 57 -140 135 -140 56 0 85
21 178 129 195 227 268 383 269 571 0 123 -25 205 -95 308 -126 184 -354 305
-643 341 -73 9 -77 11 -133 64 -113 108 -252 175 -405 196 -96 14 -148 13
-258 -5z m581 -609 c22 -122 -24 -275 -117 -392 -44 -55 -120 -107 -149 -101
-28 5 -53 66 -53 129 0 144 98 317 225 398 72 46 81 43 94 -34z m-1894 -86
c63 -122 46 -323 -36 -422 -39 -48 -67 -48 -121 1 -84 76 -109 186 -67 297 16
42 40 77 95 133 85 87 80 87 129 -9z m795 -101 c31 -70 33 -169 5 -215 -10
-18 -25 -33 -33 -33 -19 0 -42 62 -42 115 0 54 28 185 40 185 4 0 18 -24 30
-52z"/>
<path d="M470 2719 c-125 -21 -237 -108 -293 -226 -29 -62 -32 -77 -32 -163 1
-75 5 -107 24 -153 45 -114 181 -225 296 -243 l44 -6 45 -117 c25 -64 83 -214
130 -334 46 -120 94 -230 107 -243 83 -88 240 -20 239 103 -1 15 -56 172 -125
348 l-123 320 44 48 c25 26 58 76 74 110 135 288 -114 609 -430 556z m148
-309 c37 -36 46 -72 32 -116 -34 -101 -170 -113 -215 -18 -19 40 -19 67 0 104
22 42 53 60 106 60 39 0 53 -5 77 -30z"/>
<path d="M4232 2430 c-159 -33 -279 -154 -312 -314 -21 -102 8 -222 75 -310
l35 -45 -225 -246 c-124 -135 -237 -261 -250 -281 -68 -100 10 -225 130 -212
57 7 46 -4 384 364 l246 269 54 7 c116 17 236 110 287 222 36 78 45 200 19
279 -58 184 -260 305 -443 267z m156 -315 c14 -17 22 -39 22 -61 0 -69 -41
-113 -106 -114 -127 0 -150 175 -27 209 38 11 83 -3 111 -34z"/>
<path d="M2072 2330 c-33 -15 -47 -29 -62 -62 -11 -24 -20 -52 -20 -62 0 -34
38 -101 69 -119 39 -23 108 -22 148 3 99 60 76 219 -36 250 -47 13 -49 13 -99
-10z"/>
<path d="M2842 2120 c-40 -25 -72 -75 -72 -115 0 -44 30 -96 70 -123 29 -20
44 -23 89 -19 47 3 59 9 87 40 38 42 49 73 40 121 -18 95 -132 146 -214 96z"/>
<path d="M1710 1712 c-90 -40 -111 -117 -65 -239 171 -455 735 -679 1179 -468
185 87 340 256 321 348 -15 69 -71 117 -138 117 -52 0 -69 -11 -156 -100 -115
-117 -220 -160 -390 -160 -112 0 -192 19 -285 68 -130 68 -232 185 -276 316
-11 35 -31 72 -43 84 -39 37 -106 52 -147 34z"/>
</g>
</svg>
