<svg width="218" height="502" viewBox="0 0 218 502" fill="none" xmlns="http://www.w3.org/2000/svg">
<path d="M30.8939 0C17.5893 0 6.76587 10.8234 6.76587 24.128V61.8937C6.76587 75.1983 17.5893 86.0217 30.8939 86.0217H68.6595C81.9641 86.0217 92.7875 75.1983 92.7875 61.8937V24.128C92.7875 10.8234 81.9641 0 68.6595 0H30.8939Z" fill="current"/>
<path d="M155.228 105.539C141.923 105.539 131.1 116.362 131.1 129.667V167.433C131.1 180.737 141.923 191.561 155.228 191.561H192.993C206.298 191.561 217.121 180.737 217.121 167.433V129.667C217.121 116.362 206.298 105.539 192.993 105.539H155.228Z" fill="current"/>
<path d="M101.174 485.665L93.5017 485.6L90.1055 455.317L101.429 455.413L101.174 485.665Z" fill="#A0616A"/>
<path d="M76.5993 497.866C76.5826 499.754 78.1048 501.309 80 501.326L95.2541 501.453L97.9245 496.04L98.9053 501.481L104.661 501.533L103.208 482.129L101.205 481.995L93.0373 481.432L90.4021 481.256L90.3559 486.746L78.1023 495.057C77.17 495.691 76.6086 496.74 76.5993 497.866Z" fill="#2F2E41"/>
<path d="M140.209 485.665L132.537 485.6L129.141 455.317L140.464 455.413L140.209 485.665Z" fill="#A0616A"/>
<path d="M115.634 497.866C115.617 499.754 117.139 501.309 119.034 501.326L134.289 501.453L136.959 496.04L137.94 501.481L143.695 501.533L142.242 482.129L140.24 481.995L132.072 481.432L129.437 481.256L129.39 486.746L117.137 495.057C116.204 495.691 115.643 496.74 115.634 497.866Z" fill="#2F2E41"/>
<path d="M71.0671 240.832L102.166 241.814L131.628 248.361C131.628 248.361 128.682 251.962 138.503 261.783C138.503 261.783 151.597 284.698 142.431 306.958L138.503 395.999C138.503 395.999 149.956 458.768 141.205 478.744L129.639 479.467L110.068 396.724L100.529 307.613L95.9462 395.345C95.9462 395.345 113.479 455.562 102.408 479.467L89.8813 478.745L68.4482 395.345C68.4482 395.345 59.2822 299.102 60.5917 280.77C61.9011 262.438 71.0671 240.832 71.0671 240.832Z" fill="#2F2E41"/>
<path d="M175.505 100.133C171.253 101.234 168.699 105.572 169.8 109.824C170.305 111.772 171.493 113.356 173.037 114.403L173.037 114.414L172.434 129.022L183.613 134.195L184.505 111.716L184.427 111.719C185.396 109.992 185.731 107.906 185.196 105.837C184.095 101.586 179.756 99.0319 175.505 100.133Z" fill="#A0616A"/>
<path d="M113.026 152.269C110.678 149.941 109.316 146.785 109.265 143.353C109.196 138.749 111.503 134.571 115.436 132.176C119.965 129.417 125.628 129.697 129.864 132.886L164.967 159.316L171.222 121.241L184.651 125.564L181.447 175.143C181.223 178.611 179.263 181.666 176.204 183.315C173.145 184.964 169.515 184.923 166.495 183.205L115.765 154.343C114.746 153.763 113.828 153.064 113.026 152.269Z" fill="#3F3D56"/>
<path d="M59.5004 78.834C61.7445 82.6089 60.5035 87.4882 56.7286 89.7322C54.9989 90.7605 53.039 91.0491 51.2054 90.7054L51.198 90.7134L41.3415 101.512L29.7607 97.3151L44.9536 80.7234L45.0072 80.7799C45.5347 78.8712 46.7656 77.1539 48.6022 76.0621C52.3771 73.818 57.2564 75.0591 59.5004 78.834Z" fill="#A0616A"/>
<path d="M63.7574 159.391L7.41158 144.17C4.05666 143.264 1.45038 140.738 0.439136 137.413C-0.572105 134.088 0.187127 130.539 2.46939 127.918L35.1002 90.4541L47.6802 96.8389L25.3154 128.281L68.8521 134.227C74.1056 134.944 78.3239 138.733 79.5981 143.881C80.7046 148.35 79.4011 152.942 76.1112 156.163C73.6588 158.564 70.4694 159.846 67.1628 159.846C66.0333 159.846 64.8893 159.696 63.7574 159.391Z" fill="#3F3D56"/>
<path d="M144.089 253.93L65.2958 257.545C63.1318 254.258 63.7179 249.317 66.7485 243.129C78.1911 219.766 69.5008 175.568 63.6549 152.553C62.0147 146.096 66.4178 139.677 73.047 139.014L80.4761 138.271L87.3434 117.308H111.395L121.372 128.707L138.306 138.994C135.224 170.742 122.091 215.573 140.8 238.056C144.892 242.973 146.052 248.291 144.089 253.93Z" fill="#3F3D56"/>
<path d="M96.3098 117.793C109.248 117.793 119.736 107.304 119.736 94.366C119.736 81.4279 109.248 70.9395 96.3098 70.9395C83.3717 70.9395 72.8833 81.4279 72.8833 94.366C72.8833 107.304 83.3717 117.793 96.3098 117.793Z" fill="#A0616A"/>
<path d="M122.819 79.3708C126.078 67.4875 90.5546 57.2974 83.6514 66.867C82.6915 65.5065 79.144 64.6801 77.5163 65.0974C75.8887 65.5148 74.5198 66.5582 73.1843 67.5682C71.3479 68.9788 69.4449 70.4395 68.3181 72.4678C67.1828 74.4878 67.0076 77.2423 68.535 78.9951C69.7454 80.3891 71.8721 87.7964 73.6918 88.1637C74.9605 88.4224 76.0289 88.6311 76.947 88.7813C77.7651 87.5877 79.851 86.0884 79.7008 84.6443C80.9361 85.4623 80.4848 86.9015 80.2358 88.3723C79.4064 93.2702 60.7212 131.185 71.4231 120.012C72.4832 120.638 73.7937 121.222 75.3045 121.757C77.8669 117.892 79.9704 113.334 81.356 108.568L81.3658 108.656C81.8429 112.798 84.8697 116.197 88.8743 117.357C104.939 122.011 117.933 115.182 122.403 102.867C120.767 99.5449 120.054 99.9058 120.2 99.807C122.243 98.4302 125.051 99.3306 125.929 101.632C126.187 102.311 126.423 102.89 126.627 103.326C128.955 94.9958 131.725 96.1982 122.819 79.3708Z" fill="#2F2E41"/>
<path d="M111.737 70.7501L110.096 62.361C109.958 61.6558 109.827 60.8906 110.145 60.2463C110.553 59.4183 111.604 59.0752 112.517 59.2072C113.431 59.3391 114.115 60.1738 115.024 60.3345C118.185 60.8933 122.363 57.7711 123.496 65.6697C123.968 68.963 129.223 69.3108 130.978 72.1372C132.733 74.9635 132.948 79.0431 130.553 81.3522C128.64 83.1963 125.568 83.4092 123.084 82.4671C120.599 81.5251 118.606 79.6223 116.864 77.6157C115.122 75.6091 113.545 73.4378 111.536 71.6988" fill="#2F2E41"/>
<path d="M124.07 83.51C117.66 82.6145 113.291 80.2832 111.084 76.5813C108.195 71.7354 110.13 66.3996 110.214 66.1748L111.569 66.6785C111.551 66.7276 109.795 71.6119 112.333 75.8535C114.307 79.153 118.324 81.2475 124.27 82.0783L124.07 83.51Z" fill="current"/>
</svg>
