<svg width="470" height="349" viewBox="0 0 470 349" fill="none" xmlns="http://www.w3.org/2000/svg">
<g clip-path="url(#clip0_1689_17000)">
<g clip-path="url(#clip1_1689_17000)">
<path d="M426.008 266.795H76.7567C74.3727 266.793 72.087 265.845 70.4012 264.159C68.7154 262.473 67.7671 260.188 67.7644 257.804V42.4759C67.7663 40.7295 68.461 39.0552 69.6961 37.8203C70.9311 36.5854 72.6056 35.8907 74.3522 35.8887H428.298C430.075 35.8907 431.779 36.5974 433.035 37.8536C434.291 39.1099 434.998 40.8132 435 42.5898V257.804C434.997 260.188 434.049 262.473 432.363 264.159C430.677 265.845 428.392 266.793 426.008 266.795Z" fill="#F2F2F2"/>
<path d="M414.716 255.444H89.223C84.4516 255.444 80.5698 251.809 80.5698 247.342V59.8311C80.5698 56.5179 83.4463 53.8223 86.982 53.8223H416.85C420.445 53.8223 423.369 56.5623 423.369 59.93V247.342C423.369 251.809 419.487 255.444 414.716 255.444Z" fill="white"/>
<path d="M434.875 43.5959H67.6382V39.0184C67.6416 36.6266 68.5938 34.334 70.2857 32.6433C71.9776 30.9526 74.2712 30.002 76.6632 30H425.85C428.242 30.002 430.535 30.9526 432.227 32.6432C433.919 34.3339 434.871 36.6266 434.875 39.0184V43.5959Z" fill="#3F3D56"/>
<path d="M84.04 39.1448C85.3293 39.1448 86.3744 38.0998 86.3744 36.8107C86.3744 35.5216 85.3293 34.4766 84.04 34.4766C82.7507 34.4766 81.7056 35.5216 81.7056 36.8107C81.7056 38.0998 82.7507 39.1448 84.04 39.1448Z" fill="white"/>
<path d="M92.9008 39.1448C94.1901 39.1448 95.2352 38.0998 95.2352 36.8107C95.2352 35.5216 94.1901 34.4766 92.9008 34.4766C91.6116 34.4766 90.5664 35.5216 90.5664 36.8107C90.5664 38.0998 91.6116 39.1448 92.9008 39.1448Z" fill="white"/>
<path d="M101.762 39.1448C103.051 39.1448 104.096 38.0998 104.096 36.8107C104.096 35.5216 103.051 34.4766 101.762 34.4766C100.472 34.4766 99.4272 35.5216 99.4272 36.8107C99.4272 38.0998 100.472 39.1448 101.762 39.1448Z" fill="white"/>
<path d="M244.247 94.8201H180.588C179.639 94.8201 178.729 94.4432 178.058 93.7722C177.387 93.1011 177.01 92.1911 177.01 91.2421C177.01 90.2931 177.387 89.3831 178.058 88.7121C178.729 88.041 179.639 87.6641 180.588 87.6641H244.247C245.196 87.6641 246.107 88.041 246.778 88.7121C247.449 89.3831 247.826 90.2931 247.826 91.2421C247.826 92.1911 247.449 93.1011 246.778 93.7722C246.107 94.4432 245.196 94.8201 244.247 94.8201Z" fill="#CCCCCC"/>
<path d="M323.351 94.8201H259.691C258.742 94.8201 257.832 94.4432 257.161 93.7722C256.49 93.1011 256.113 92.1911 256.113 91.2421C256.113 90.2931 256.49 89.3831 257.161 88.7121C257.832 88.041 258.742 87.6641 259.691 87.6641H323.351C324.3 87.6641 325.21 88.041 325.881 88.7121C326.552 89.3831 326.929 90.2931 326.929 91.2421C326.929 92.1911 326.552 93.1011 325.881 93.7722C325.21 94.4432 324.3 94.8201 323.351 94.8201Z" fill="#CCCCCC"/>
<path d="M323.35 108.381H212.606C211.657 108.381 210.747 108.004 210.075 107.333C209.404 106.662 209.027 105.752 209.027 104.803C209.027 103.854 209.404 102.944 210.075 102.273C210.747 101.602 211.657 101.225 212.606 101.225H323.35C324.3 101.225 325.21 101.602 325.881 102.273C326.552 102.944 326.929 103.854 326.929 104.803C326.929 105.752 326.552 106.662 325.881 107.333C325.21 108.004 324.3 108.381 323.35 108.381Z" fill="#CCCCCC"/>
<path d="M244.247 81.074H180.588C179.64 81.0729 178.731 80.6954 178.06 80.0245C177.39 79.3536 177.014 78.4442 177.014 77.496C177.014 76.5478 177.39 75.6384 178.06 74.9675C178.731 74.2966 179.64 73.9191 180.588 73.918H244.247C244.718 73.9174 245.183 74.0095 245.618 74.1891C246.053 74.3686 246.448 74.6321 246.781 74.9644C247.113 75.2967 247.377 75.6913 247.557 76.1257C247.737 76.5601 247.83 77.0258 247.83 77.496C247.83 77.9663 247.737 78.4319 247.557 78.8663C247.377 79.3007 247.113 79.6953 246.781 80.0276C246.448 80.3599 246.053 80.6234 245.618 80.803C245.183 80.9825 244.718 81.0746 244.247 81.074Z" fill="#CCCCCC"/>
<path d="M279.279 81.2615H261.198C260.249 81.2615 259.339 80.8846 258.667 80.2136C257.996 79.5425 257.619 78.6325 257.619 77.6835C257.619 76.7345 257.996 75.8245 258.667 75.1534C259.339 74.4824 260.249 74.1055 261.198 74.1055H279.279C280.228 74.1055 281.138 74.4824 281.809 75.1534C282.48 75.8245 282.857 76.7345 282.857 77.6835C282.857 78.6325 282.48 79.5425 281.809 80.2136C281.138 80.8846 280.228 81.2615 279.279 81.2615Z" fill="#CCCCCC"/>
<path d="M198.669 108.381H180.588C179.64 108.38 178.731 108.002 178.06 107.331C177.39 106.66 177.014 105.751 177.014 104.803C177.014 103.854 177.39 102.945 178.06 102.274C178.731 101.603 179.64 101.226 180.588 101.225H198.669C199.139 101.224 199.605 101.316 200.04 101.496C200.474 101.675 200.869 101.939 201.202 102.271C201.535 102.603 201.799 102.998 201.979 103.432C202.159 103.867 202.252 104.332 202.252 104.803C202.252 105.273 202.159 105.739 201.979 106.173C201.799 106.607 201.535 107.002 201.202 107.334C200.869 107.667 200.474 107.93 200.04 108.11C199.605 108.289 199.139 108.381 198.669 108.381Z" fill="#CCCCCC"/>
<path d="M244.247 221.789H180.588C179.639 221.789 178.729 221.412 178.058 220.741C177.387 220.07 177.01 219.16 177.01 218.211C177.01 217.262 177.387 216.352 178.058 215.681C178.729 215.01 179.639 214.633 180.588 214.633H244.247C244.717 214.633 245.183 214.725 245.617 214.905C246.051 215.085 246.445 215.349 246.778 215.681C247.11 216.013 247.374 216.407 247.553 216.842C247.733 217.276 247.826 217.741 247.826 218.211C247.826 218.681 247.733 219.146 247.553 219.58C247.374 220.014 247.11 220.409 246.778 220.741C246.445 221.073 246.051 221.337 245.617 221.517C245.183 221.696 244.717 221.789 244.247 221.789Z" fill="#CCCCCC"/>
<path d="M323.351 221.789H259.691C258.742 221.789 257.832 221.412 257.161 220.741C256.49 220.07 256.113 219.16 256.113 218.211C256.113 217.262 256.49 216.352 257.161 215.681C257.832 215.01 258.742 214.633 259.691 214.633H323.351C323.821 214.633 324.286 214.725 324.72 214.905C325.154 215.085 325.549 215.349 325.881 215.681C326.213 216.013 326.477 216.407 326.657 216.842C326.837 217.276 326.929 217.741 326.929 218.211C326.929 218.681 326.837 219.146 326.657 219.58C326.477 220.014 326.213 220.409 325.881 220.741C325.549 221.073 325.154 221.337 324.72 221.517C324.286 221.696 323.821 221.789 323.351 221.789Z" fill="#CCCCCC"/>
<path d="M323.35 235.347H212.606C211.657 235.347 210.747 234.971 210.075 234.3C209.404 233.628 209.027 232.718 209.027 231.769C209.027 230.82 209.404 229.91 210.075 229.239C210.747 228.568 211.657 228.191 212.606 228.191H323.35C323.821 228.191 324.287 228.283 324.721 228.463C325.156 228.642 325.551 228.906 325.884 229.238C326.216 229.57 326.48 229.965 326.661 230.399C326.841 230.834 326.933 231.299 326.933 231.769C326.933 232.24 326.841 232.705 326.661 233.14C326.48 233.574 326.216 233.969 325.884 234.301C325.551 234.633 325.156 234.897 324.721 235.076C324.287 235.256 323.821 235.348 323.35 235.347Z" fill="#CCCCCC"/>
<path d="M244.247 208.041H180.588C179.639 208.041 178.729 207.664 178.058 206.993C177.387 206.322 177.01 205.412 177.01 204.463C177.01 203.514 177.387 202.604 178.058 201.933C178.729 201.262 179.639 200.885 180.588 200.885H244.247C245.196 200.885 246.107 201.262 246.778 201.933C247.449 202.604 247.826 203.514 247.826 204.463C247.826 205.412 247.449 206.322 246.778 206.993C246.107 207.664 245.196 208.041 244.247 208.041Z" fill="#CCCCCC"/>
<path d="M279.279 208.228H261.198C260.249 208.228 259.339 207.851 258.667 207.18C257.996 206.509 257.619 205.599 257.619 204.65C257.619 203.701 257.996 202.791 258.667 202.12C259.339 201.449 260.249 201.072 261.198 201.072H279.279C280.228 201.072 281.138 201.449 281.809 202.12C282.48 202.791 282.857 203.701 282.857 204.65C282.857 205.599 282.48 206.509 281.809 207.18C281.138 207.851 280.228 208.228 279.279 208.228Z" fill="#CCCCCC"/>
<path d="M198.669 235.347H180.588C179.639 235.347 178.729 234.971 178.058 234.3C177.387 233.628 177.01 232.718 177.01 231.769C177.01 230.82 177.387 229.91 178.058 229.239C178.729 228.568 179.639 228.191 180.588 228.191H198.669C199.139 228.191 199.605 228.283 200.04 228.463C200.474 228.642 200.869 228.906 201.202 229.238C201.535 229.57 201.799 229.965 201.979 230.399C202.159 230.834 202.252 231.299 202.252 231.769C202.252 232.24 202.159 232.705 201.979 233.14C201.799 233.574 201.535 233.969 201.202 234.301C200.869 234.633 200.474 234.897 200.04 235.076C199.605 235.256 199.139 235.348 198.669 235.347Z" fill="#CCCCCC"/>
<path d="M227.621 183.374C226.271 183.377 224.973 182.846 224.012 181.897L200.082 158.27C199.612 157.806 199.239 157.253 198.985 156.644C198.73 156.035 198.599 155.382 198.599 154.721C198.599 154.061 198.73 153.408 198.985 152.799C199.239 152.189 199.612 151.637 200.082 151.173L223.915 127.641C224.908 126.665 226.246 126.121 227.638 126.125C229.03 126.129 230.364 126.683 231.351 127.664C232.338 128.654 232.893 129.995 232.893 131.393C232.893 132.792 232.338 134.133 231.351 135.123L213.641 152.831C213.089 153.384 212.779 154.133 212.779 154.914C212.779 155.695 213.089 156.444 213.641 156.997L231.255 174.609C231.974 175.327 232.464 176.242 232.663 177.239C232.861 178.235 232.76 179.268 232.37 180.207C231.981 181.146 231.322 181.948 230.477 182.512C229.631 183.075 228.638 183.376 227.621 183.374Z" fill="#2F2E41"/>
<path d="M265.752 183.374C264.736 183.376 263.742 183.075 262.897 182.512C262.051 181.948 261.392 181.146 261.003 180.207C260.614 179.268 260.512 178.235 260.711 177.239C260.91 176.242 261.4 175.327 262.119 174.61L279.733 156.998C280.285 156.445 280.595 155.695 280.595 154.914C280.595 154.133 280.285 153.384 279.733 152.831L262.023 135.123C261.533 134.633 261.145 134.052 260.879 133.412C260.614 132.772 260.478 132.086 260.478 131.393C260.478 130.701 260.614 130.015 260.88 129.375C261.145 128.735 261.533 128.154 262.023 127.664C263.01 126.683 264.344 126.129 265.736 126.125C267.128 126.121 268.466 126.665 269.459 127.641L293.292 151.173C293.761 151.637 294.134 152.189 294.389 152.799C294.644 153.408 294.775 154.061 294.775 154.721C294.775 155.382 294.644 156.035 294.389 156.644C294.134 157.253 293.761 157.806 293.292 158.27L269.362 181.897C268.4 182.846 267.103 183.377 265.752 183.374Z" fill="#171717"/>
<path d="M118.69 100.822C129.385 100.822 138.055 92.1526 138.055 81.4587C138.055 70.7648 129.385 62.0957 118.69 62.0957C107.995 62.0957 99.3245 70.7648 99.3245 81.4587C99.3245 92.1526 107.995 100.822 118.69 100.822Z" fill="#FFB8B8"/>
<path d="M53.2546 313.493L58.1581 321.822L92.6233 306.875L85.386 294.582L53.2546 313.493Z" fill="#FFB8B8"/>
<path d="M54.724 309.768L64.3806 326.171C65.1887 327.544 65.7189 329.063 65.94 330.64C66.1612 332.218 66.0695 333.824 65.6701 335.366C65.2706 336.908 64.5714 338.356 63.6121 339.628C62.6529 340.9 61.4525 341.97 60.0795 342.778L59.7397 342.978L43.9292 316.121L54.724 309.768Z" fill="#2F2E41"/>
<path d="M110.069 343.5L119.736 343.499L124.334 306.219L110.068 306.22L110.069 343.5Z" fill="#FFB8B8"/>
<path d="M107.604 340.346L126.64 340.346C128.233 340.346 129.812 340.659 131.284 341.269C132.755 341.879 134.093 342.772 135.219 343.898C136.346 345.025 137.24 346.362 137.849 347.834C138.459 349.305 138.773 350.883 138.773 352.476V352.87L107.604 352.871L107.604 340.346Z" fill="#2F2E41"/>
<path d="M71.2069 320.913C70.6506 320.914 70.102 320.783 69.6056 320.532C69.1092 320.281 68.6789 319.917 68.3495 319.468L59.0269 306.808C58.7425 306.422 58.5394 305.982 58.4298 305.516C58.3202 305.049 58.3064 304.564 58.3893 304.092C58.4722 303.62 58.65 303.169 58.912 302.767C59.174 302.366 59.5147 302.021 59.9136 301.755L101.398 274.051L76.3667 208.242L129.895 212.659L131.698 269.211C131.867 274.361 130.632 279.46 128.126 283.963C125.62 288.466 121.936 292.202 117.47 294.773L72.9796 320.437C72.4409 320.749 71.8294 320.913 71.2069 320.913Z" fill="#2F2E41"/>
<path d="M110.361 335.934C109.443 335.932 108.561 335.575 107.901 334.937C107.241 334.299 106.854 333.43 106.822 332.512L104.86 277.42L129.151 276.141L127.217 331.629C127.188 332.508 126.833 333.345 126.221 333.976C125.609 334.608 124.783 334.989 123.906 335.045L110.602 335.926C110.521 335.932 110.441 335.934 110.361 335.934Z" fill="#2F2E41"/>
<path d="M136.089 223.6C129.909 223.6 108.323 216.649 100.828 214.172C99.7074 215.069 93.5485 219.673 86.3594 218.832C81.9235 218.311 78.0183 215.801 74.7525 211.369C67.5404 201.583 76.4481 159.612 85.1909 126.127C86.9436 119.358 91.2525 113.533 97.2118 109.875C103.171 106.217 110.316 105.012 117.146 106.512C122.096 107.605 126.643 110.056 130.277 113.59C133.91 117.125 136.486 121.602 137.715 126.519C139.361 133.219 137.945 141.1 136.911 146.854C136.425 149.56 136.041 151.697 136.173 152.747C136.68 156.806 139.499 220.461 137.686 223.179C137.493 223.469 136.935 223.6 136.089 223.6Z" fill="#FFCB47"/>
<path d="M113.481 223.711C114.474 222.972 115.293 222.023 115.88 220.933C116.468 219.843 116.809 218.638 116.879 217.402C116.95 216.165 116.749 214.929 116.29 213.779C115.831 212.629 115.126 211.594 114.223 210.746L114.606 133.609L96.436 136.635L101.773 211.506C100.449 213.116 99.7619 215.156 99.8416 217.239C99.9212 219.322 100.762 221.303 102.205 222.808C103.648 224.312 105.593 225.235 107.671 225.402C109.75 225.568 111.817 224.966 113.481 223.711Z" fill="#FFB8B8"/>
<path d="M117.683 183.147H98.1119C97.1773 183.145 96.2813 182.774 95.6174 182.117C94.9535 181.459 94.5751 180.566 94.5638 179.632L94.0833 126.582C94.0667 124.747 94.414 122.928 95.105 121.228C95.7961 119.529 96.8173 117.984 98.1095 116.681C99.4017 115.379 100.939 114.346 102.633 113.642C104.327 112.937 106.144 112.576 107.979 112.578C109.814 112.58 111.63 112.946 113.322 113.655C115.014 114.363 116.549 115.4 117.838 116.705C119.127 118.011 120.145 119.559 120.832 121.26C121.519 122.961 121.862 124.781 121.84 126.615L121.231 179.641C121.217 180.573 120.837 181.463 120.174 182.119C119.51 182.775 118.616 183.144 117.683 183.147Z" fill="#FFCB47"/>
<path d="M113.759 100.74C104.893 100.756 96.5282 93.7484 94.9917 85.0171C94.4416 81.587 94.6896 78.0763 95.7165 74.7576C96.8314 70.9796 98.7435 67.4845 101.324 64.508C103.904 61.5314 107.092 59.1425 110.674 57.5024C114.256 55.8622 118.148 55.009 122.087 55.0001C126.027 54.9912 129.923 55.8269 133.512 57.4508C135.884 58.524 138.22 60.0654 139.306 62.4312C140.392 64.7971 139.712 68.1037 137.336 69.1683C135.784 69.864 133.836 69.5223 132.458 70.5209C130.48 71.9552 130.989 75.0077 131.872 77.2859C132.756 79.5642 133.755 82.3212 132.274 84.2648C130.894 86.076 128.136 86.0198 125.963 85.3381C123.79 84.6564 121.646 83.5148 119.38 83.747C116.076 84.0857 113.702 87.3717 113.263 90.6634C112.823 93.9551 113.858 97.2454 114.879 100.405L113.759 100.74Z" fill="#2F2E41"/>
</g>
</g>
<defs>
<clipPath id="clip0_1689_17000">
<rect width="470" height="348.083" fill="white"/>
</clipPath>
<clipPath id="clip1_1689_17000">
<rect width="505" height="327" fill="white" transform="translate(-70 30)"/>
</clipPath>
</defs>
</svg>
