<svg viewBox="0 0 470 348" fill="none" xmlns="http://www.w3.org/2000/svg">
<path d="M297.586 256.391V335.94H97.9642C75.22 335.94 56.7151 318.097 56.7151 296.165C56.7151 274.234 75.22 256.391 97.9642 256.391H297.586Z" fill="#F2F2F2"/>
<path d="M302.489 335.328C302.489 336.14 302.166 336.918 301.591 337.491C301.017 338.065 300.237 338.387 299.425 338.388H94.4087C83.2739 338.388 72.5951 333.972 64.7216 326.111C56.8481 318.25 52.4248 307.588 52.4248 296.471C52.4248 285.354 56.8481 274.693 64.7216 266.832C72.5951 258.971 83.2739 254.555 94.4087 254.555H299.425C300.238 254.555 301.017 254.877 301.592 255.451C302.166 256.025 302.489 256.803 302.489 257.614C302.489 258.426 302.166 259.204 301.592 259.778C301.017 260.352 300.238 260.674 299.425 260.674H94.4087C84.8994 260.674 75.7796 264.445 69.0555 271.159C62.3314 277.872 58.5538 286.977 58.5538 296.471C58.5538 305.965 62.3314 315.07 69.0555 321.784C75.7796 328.497 84.8994 332.269 94.4087 332.269H299.425C300.237 332.269 301.017 332.591 301.591 333.165C302.166 333.739 302.489 334.517 302.489 335.328Z" fill="#FFCB47"/>
<path d="M297.586 274.749H83.0699C82.9074 274.749 82.7515 274.685 82.6366 274.57C82.5216 274.455 82.457 274.3 82.457 274.137C82.457 273.975 82.5216 273.819 82.6366 273.705C82.7515 273.59 82.9074 273.525 83.0699 273.525H297.586C297.749 273.525 297.905 273.59 298.019 273.705C298.134 273.819 298.199 273.975 298.199 274.137C298.199 274.3 298.134 274.455 298.019 274.57C297.905 274.685 297.749 274.749 297.586 274.749Z" fill="#CCCCCC"/>
<path d="M297.586 289.435H83.0699C82.9074 289.435 82.7515 289.37 82.6366 289.256C82.5216 289.141 82.457 288.985 82.457 288.823C82.457 288.661 82.5216 288.505 82.6366 288.39C82.7515 288.275 82.9074 288.211 83.0699 288.211H297.586C297.749 288.211 297.905 288.275 298.019 288.39C298.134 288.505 298.199 288.661 298.199 288.823C298.199 288.985 298.134 289.141 298.019 289.256C297.905 289.37 297.749 289.435 297.586 289.435Z" fill="#CCCCCC"/>
<path d="M297.586 304.12H83.0699C82.9074 304.12 82.7515 304.056 82.6366 303.941C82.5216 303.826 82.457 303.671 82.457 303.508C82.457 303.346 82.5216 303.19 82.6366 303.076C82.7515 302.961 82.9074 302.896 83.0699 302.896H297.586C297.749 302.896 297.905 302.961 298.019 303.076C298.134 303.19 298.199 303.346 298.199 303.508C298.199 303.671 298.134 303.826 298.019 303.941C297.905 304.056 297.749 304.12 297.586 304.12Z" fill="#CCCCCC"/>
<path d="M297.586 318.806H83.0699C82.9074 318.806 82.7515 318.741 82.6366 318.627C82.5216 318.512 82.457 318.356 82.457 318.194C82.457 318.032 82.5216 317.876 82.6366 317.761C82.7515 317.647 82.9074 317.582 83.0699 317.582H297.586C297.749 317.582 297.905 317.647 298.019 317.761C298.134 317.876 298.199 318.032 298.199 318.194C298.199 318.356 298.134 318.512 298.019 318.627C297.905 318.741 297.749 318.806 297.586 318.806Z" fill="#CCCCCC"/>
<path d="M451.865 271.364L401.873 333.308L246.432 208.262C228.721 194.015 225.525 168.528 239.308 151.451C253.09 134.373 278.713 132.071 296.423 146.318L451.865 271.364Z" fill="#F2F2F2"/>
<path d="M406.076 335.903C405.566 336.535 404.825 336.938 404.017 337.025C403.209 337.112 402.4 336.875 401.767 336.366L242.125 207.941C233.454 200.966 227.914 190.838 226.723 179.785C225.532 168.732 228.788 157.659 235.774 149.002C242.761 140.346 252.905 134.814 263.976 133.625C275.047 132.436 286.138 135.687 294.808 142.662L454.45 271.087C454.764 271.339 455.024 271.65 455.218 272.003C455.411 272.356 455.532 272.743 455.576 273.142C455.619 273.542 455.583 273.946 455.469 274.332C455.356 274.718 455.168 275.077 454.915 275.39C454.662 275.703 454.35 275.963 453.997 276.156C453.644 276.349 453.256 276.47 452.856 276.513C452.455 276.556 452.05 276.519 451.664 276.406C451.278 276.293 450.918 276.104 450.605 275.852L290.963 147.427C287.296 144.475 283.084 142.273 278.565 140.948C274.046 139.622 269.31 139.198 264.628 139.7C259.945 140.202 255.407 141.62 251.273 143.873C247.14 146.127 243.491 149.171 240.536 152.833C237.581 156.494 235.378 160.701 234.051 165.213C232.725 169.725 232.302 174.453 232.807 179.128C233.312 183.803 234.734 188.333 236.993 192.46C239.251 196.586 242.302 200.227 245.97 203.176L405.612 331.601C406.245 332.111 406.649 332.85 406.736 333.656C406.823 334.463 406.586 335.271 406.076 335.903Z" fill="#CCCCCC"/>
<path d="M440.328 285.66L273.289 151.284C273.226 151.233 273.174 151.171 273.135 151.101C273.097 151.03 273.072 150.953 273.064 150.873C273.055 150.793 273.062 150.712 273.085 150.635C273.108 150.558 273.145 150.486 273.196 150.423C273.246 150.361 273.309 150.309 273.379 150.27C273.45 150.232 273.528 150.207 273.608 150.199C273.688 150.19 273.769 150.197 273.846 150.22C273.923 150.243 273.995 150.28 274.058 150.331L441.097 284.707C441.16 284.757 441.212 284.819 441.251 284.89C441.29 284.961 441.314 285.038 441.323 285.118C441.331 285.198 441.324 285.279 441.301 285.356C441.279 285.433 441.241 285.505 441.191 285.568C441.14 285.63 441.078 285.682 441.007 285.721C440.936 285.759 440.859 285.784 440.778 285.792C440.698 285.801 440.617 285.793 440.54 285.771C440.463 285.748 440.391 285.71 440.328 285.66Z" fill="#CCCCCC"/>
<path d="M431.099 297.095L264.059 162.719C263.933 162.617 263.852 162.469 263.835 162.308C263.818 162.147 263.865 161.985 263.967 161.859C264.069 161.733 264.217 161.652 264.379 161.634C264.54 161.617 264.702 161.664 264.828 161.766L431.868 296.142C431.931 296.192 431.983 296.254 432.022 296.325C432.06 296.396 432.085 296.473 432.093 296.553C432.102 296.633 432.095 296.714 432.072 296.791C432.049 296.868 432.012 296.94 431.961 297.003C431.911 297.065 431.848 297.117 431.778 297.156C431.707 297.195 431.629 297.219 431.549 297.227C431.469 297.236 431.388 297.229 431.311 297.206C431.233 297.183 431.161 297.145 431.099 297.095Z" fill="#CCCCCC"/>
<path d="M421.87 308.531L254.83 174.155C254.704 174.053 254.623 173.905 254.605 173.744C254.588 173.582 254.635 173.421 254.737 173.294C254.839 173.168 254.988 173.087 255.149 173.07C255.311 173.053 255.473 173.1 255.599 173.202L422.639 307.578C422.701 307.628 422.754 307.691 422.792 307.761C422.831 307.832 422.855 307.909 422.864 307.989C422.872 308.069 422.865 308.15 422.842 308.227C422.82 308.304 422.782 308.376 422.731 308.438C422.681 308.501 422.619 308.553 422.548 308.591C422.477 308.63 422.4 308.654 422.32 308.663C422.24 308.671 422.159 308.664 422.082 308.642C422.004 308.619 421.932 308.581 421.87 308.531Z" fill="#CCCCCC"/>
<path d="M412.641 319.966L245.601 185.59C245.539 185.54 245.486 185.478 245.448 185.407C245.409 185.337 245.385 185.259 245.376 185.179C245.368 185.099 245.375 185.019 245.398 184.942C245.42 184.864 245.458 184.793 245.508 184.73C245.559 184.667 245.621 184.615 245.692 184.577C245.763 184.538 245.84 184.514 245.92 184.505C246 184.497 246.081 184.504 246.158 184.527C246.236 184.549 246.308 184.587 246.37 184.637L413.41 319.013C413.473 319.064 413.525 319.126 413.563 319.197C413.602 319.267 413.626 319.345 413.635 319.425C413.644 319.505 413.637 319.585 413.614 319.663C413.591 319.74 413.554 319.812 413.503 319.874C413.452 319.937 413.39 319.989 413.319 320.028C413.249 320.066 413.171 320.09 413.091 320.099C413.011 320.107 412.93 320.1 412.853 320.077C412.775 320.055 412.703 320.017 412.641 319.966Z" fill="#CCCCCC"/>
<path d="M462.387 338.999H7.6129C7.45035 338.999 7.29446 338.935 7.17951 338.82C7.06457 338.705 7 338.55 7 338.387C7 338.225 7.06457 338.069 7.17951 337.955C7.29446 337.84 7.45035 337.775 7.6129 337.775H462.387C462.55 337.775 462.706 337.84 462.82 337.955C462.935 338.069 463 338.225 463 338.387C463 338.55 462.935 338.705 462.82 338.82C462.706 338.935 462.55 338.999 462.387 338.999Z" fill="#CCCCCC"/>
<path d="M214.211 248.029L207.204 248.028L203.872 221.045L214.213 221.046L214.211 248.029Z" fill="#FFB8B8"/>
<path d="M202.199 246.029H215.712V254.524H193.691C193.691 253.408 193.911 252.304 194.338 251.273C194.766 250.243 195.393 249.306 196.183 248.517C196.973 247.729 197.911 247.103 198.943 246.676C199.975 246.249 201.082 246.029 202.199 246.029Z" fill="#2F2E41"/>
<path d="M142.627 248.029L135.62 248.028L132.288 221.045L142.629 221.046L142.627 248.029Z" fill="#FFB8B8"/>
<path d="M130.615 246.029H144.128V254.524H122.107C122.107 253.408 122.327 252.304 122.755 251.273C123.182 250.243 123.809 249.306 124.599 248.517C125.389 247.729 126.327 247.103 127.359 246.676C128.392 246.249 129.498 246.029 130.615 246.029Z" fill="#2F2E41"/>
<path d="M185.797 63.1564C194.111 63.1564 200.85 56.4276 200.85 48.127C200.85 39.8265 194.111 33.0977 185.797 33.0977C177.483 33.0977 170.743 39.8265 170.743 48.127C170.743 56.4276 177.483 63.1564 185.797 63.1564Z" fill="#FFB8B8"/>
<path d="M103.915 99.7809C104.526 99.2049 105.256 98.7698 106.054 98.506C106.851 98.2422 107.697 98.1562 108.531 98.254C109.366 98.3519 110.169 98.6312 110.883 99.0724C111.598 99.5135 112.207 100.106 112.668 100.807L125.572 98.3702L128.968 105.838L110.696 109.025C109.464 109.719 108.02 109.938 106.637 109.64C105.255 109.343 104.029 108.549 103.193 107.41C102.357 106.27 101.969 104.864 102.102 103.458C102.235 102.052 102.88 100.744 103.915 99.7809Z" fill="#FFB8B8"/>
<path d="M174.229 72.8772L153.068 86.7949L117.362 98.1787C116.888 98.3305 116.482 98.6414 116.213 99.0585C115.943 99.4756 115.827 99.973 115.883 100.466L116.662 107.165C116.697 107.461 116.793 107.747 116.945 108.004C117.096 108.261 117.3 108.484 117.543 108.658C117.786 108.832 118.063 108.953 118.356 109.014C118.648 109.075 118.95 109.074 119.243 109.012L152.848 101.82C154.474 101.474 156.012 100.798 157.366 99.834L181.139 82.9469C182.001 82.3314 182.689 81.5036 183.135 80.5442C183.582 79.5848 183.772 78.5264 183.688 77.4717C183.601 76.4157 183.24 75.4005 182.64 74.526C182.041 73.6515 181.224 72.9479 180.27 72.4843C179.315 72.0207 178.256 71.8132 177.197 71.8821C176.138 71.9509 175.115 72.2939 174.229 72.8772Z" fill="#CCCCCC"/>
<path d="M207.329 240.373C206.791 240.373 206.265 240.216 205.815 239.923C205.365 239.629 205.01 239.211 204.793 238.72L172.671 159.475C172.596 159.304 172.47 159.159 172.31 159.06C172.15 158.962 171.964 158.915 171.777 158.926C171.589 158.936 171.409 159.004 171.262 159.119C171.114 159.235 171.005 159.393 170.95 159.572L144.743 236.719C144.632 237.078 144.449 237.411 144.205 237.697C143.961 237.983 143.661 238.215 143.323 238.381C142.986 238.547 142.618 238.642 142.242 238.66C141.866 238.679 141.49 238.62 141.138 238.488L132.35 235.198C131.873 235.021 131.455 234.716 131.141 234.315C130.828 233.915 130.632 233.436 130.575 232.931C126.621 198.546 161.097 111.753 161.446 110.88L161.542 110.639L192.97 117.58L193.036 117.651C205.574 131.307 215.881 217.444 217.82 234.573C217.892 235.191 217.751 235.816 217.42 236.344C217.089 236.872 216.587 237.272 215.998 237.477L208.241 240.216C207.949 240.32 207.64 240.373 207.329 240.373Z" fill="#2F2E41"/>
<path d="M180.251 120.373C172.636 120.373 164.147 118.858 161.534 112.601L161.474 112.458L161.555 112.325C163.618 108.946 166.344 103.182 164.879 102.1C161.992 99.9696 160.592 96.4645 160.716 91.6821C160.986 81.3003 168.071 72.083 178.347 68.7458C181.215 67.8294 184.134 67.0791 187.089 66.4986C189.243 66.0646 191.467 66.1124 193.6 66.6384C195.734 67.1644 197.724 68.1556 199.428 69.5409C201.154 70.9352 202.549 72.6938 203.512 74.6904C204.476 76.6869 204.985 78.8719 205.003 81.0882C205.111 92.1828 203.4 107.635 194.637 118.244C194.227 118.736 193.655 119.068 193.024 119.181C188.808 119.942 184.535 120.341 180.251 120.373Z" fill="#CCCCCC"/>
<path d="M177.418 119.957C177.833 118.473 178.817 117.212 180.157 116.449C181.498 115.685 183.086 115.48 184.576 115.879C184.88 115.964 185.177 116.074 185.464 116.207L195.262 107.305L202.076 111.888L188.064 124.268C187.431 125.407 186.435 126.302 185.234 126.81C184.033 127.319 182.697 127.412 181.437 127.074C180.703 126.874 180.016 126.53 179.416 126.063C178.816 125.596 178.314 125.014 177.941 124.353C177.567 123.691 177.328 122.962 177.239 122.207C177.149 121.453 177.21 120.688 177.418 119.957Z" fill="#FFB8B8"/>
<path d="M193.71 120.07C193.074 120.071 192.458 119.851 191.966 119.449L188.102 116.297C187.78 116.034 187.521 115.702 187.346 115.325C187.171 114.949 187.083 114.537 187.089 114.122C187.096 113.707 187.196 113.298 187.383 112.927C187.57 112.556 187.839 112.232 188.169 111.98L204.375 99.57C204.567 99.4221 204.693 99.2047 204.726 98.9647C204.758 98.7247 204.695 98.4816 204.549 98.2882L194.546 85.0853C193.384 83.5564 192.801 81.6664 192.9 79.7497C193 77.833 193.776 76.0133 195.09 74.6127C196.474 73.1201 198.37 72.2017 200.4 72.0395C202.431 71.8773 204.449 72.4833 206.053 73.7372L206.117 73.8039L216.562 88.7362C217.691 89.6203 218.601 90.7532 219.219 92.0463C219.837 93.3394 220.148 94.7578 220.127 96.1906C220.105 97.6234 219.753 99.0319 219.096 100.306C218.439 101.58 217.496 102.686 216.341 103.536L195.352 119.531C194.876 119.881 194.301 120.07 193.71 120.07Z" fill="#CCCCCC"/>
<path d="M101.151 70.8542C92.1966 70.7956 83.3544 68.8621 75.1954 65.1787C74.7097 64.9626 74.2975 64.6102 74.0089 64.1643C73.7203 63.7184 73.5679 63.1983 73.5701 62.6674V40.3825C73.5709 39.6525 73.8617 38.9526 74.3788 38.4363C74.8959 37.9201 75.5969 37.6297 76.3282 37.6289H125.973C126.705 37.6297 127.406 37.9201 127.923 38.4363C128.44 38.9526 128.731 39.6525 128.731 40.3825V62.6675C128.734 63.1983 128.581 63.7184 128.293 64.1643C128.004 64.6102 127.592 64.9627 127.106 65.1788C118.947 68.8621 110.105 70.7956 101.151 70.8542Z" fill="#2F2E41"/>
<path d="M101.144 52.8011C100.776 52.8014 100.411 52.7282 100.072 52.5859L60.704 36.0031C60.1963 35.7893 59.7644 35.4286 59.464 34.9674C59.1636 34.5062 59.0084 33.9658 59.0185 33.4158C59.0286 32.8657 59.2035 32.3313 59.5207 31.8815C59.8378 31.4316 60.2826 31.0869 60.7978 30.8918L100.166 15.9807C100.8 15.7394 101.501 15.7409 102.135 15.9848L140.975 30.8959C141.488 31.0926 141.93 31.4374 142.244 31.8862C142.559 32.335 142.733 32.8674 142.743 33.4152C142.753 33.9631 142.599 34.5015 142.301 34.9616C142.003 35.4217 141.575 35.7826 141.07 35.998L102.229 52.5806C101.886 52.7264 101.517 52.8014 101.144 52.8011Z" fill="#3F3D56"/>
<path d="M78.1667 66.6946C80.1977 66.6946 81.8441 65.0508 81.8441 63.0231C81.8441 60.9954 80.1977 59.3516 78.1667 59.3516C76.1357 59.3516 74.4893 60.9954 74.4893 63.0231C74.4893 65.0508 76.1357 66.6946 78.1667 66.6946Z" fill="#3F3D56"/>
<path opacity="0.2" d="M141.204 33.645L102.363 50.2275C102.06 50.3568 101.734 50.4238 101.405 50.4246C101.075 50.4254 100.749 50.3599 100.446 50.2321L61.078 33.6498C60.5836 33.4465 60.1711 33.0846 59.9057 32.6211C59.7321 32.9217 59.6246 33.2556 59.5902 33.6008C59.5558 33.946 59.5953 34.2946 59.7062 34.6234C59.817 34.9522 59.9967 35.2537 60.2332 35.5078C60.4697 35.762 60.7577 35.963 61.078 36.0975L100.446 52.6798C100.749 52.8076 101.075 52.8731 101.405 52.8723C101.734 52.8715 102.06 52.8045 102.363 52.6752L141.204 36.0927C141.523 35.9569 141.809 35.7553 142.044 35.501C142.279 35.2468 142.457 34.9457 142.567 34.6176C142.677 34.2895 142.715 33.9419 142.681 33.5978C142.646 33.2536 142.538 32.9207 142.365 32.6211C142.102 33.0808 141.694 33.4408 141.204 33.645Z" fill="#FFCB47"/>
<path d="M78.4757 63.0095C78.6383 63.0095 78.7942 62.945 78.9091 62.8303C79.024 62.7155 79.0886 62.5599 79.0886 62.3976V41.9219L99.3029 34.5695C99.4654 34.572 99.6223 34.5098 99.7389 34.3968C99.8556 34.2837 99.9225 34.129 99.9249 33.9667C99.9273 33.8044 99.8651 33.6478 99.7519 33.5314C99.6386 33.4149 99.4837 33.3481 99.3211 33.3457L79.1069 40.698C78.9442 40.6943 78.7825 40.7235 78.6315 40.784C78.4804 40.8445 78.3433 40.935 78.2284 41.05C78.1122 41.1636 78.02 41.2992 77.9572 41.449C77.8944 41.5987 77.8623 41.7595 77.8628 41.9219V62.3976C77.8628 62.5599 77.9274 62.7155 78.0423 62.8302C78.1573 62.945 78.3132 63.0095 78.4757 63.0095Z" fill="#3F3D56"/>
<path d="M180.314 33.2521C184.81 29.6357 188.77 29.0849 192.022 30.1105C192.444 29.3479 193.035 28.7339 193.733 28.3345C196.269 20.8595 203.989 16.3705 210.615 18.5527C217.283 20.749 221.883 29.3866 220.629 37.3538C219.851 42.2923 217.193 46.5687 216.124 51.4321C214.055 60.8468 219.103 71.6312 227 74.6661C219.523 76.4217 211.293 71.0809 208.61 62.7324C207.308 58.6775 207.229 54.2502 207.063 49.9228C207.02 46.9358 206.707 43.9626 206.13 41.0524C205.843 39.7468 205.439 38.4806 204.923 37.2754C203.799 34.6263 201.932 32.5081 199.633 31.2743C199.839 32.0187 199.891 32.8096 199.783 33.5819C199.676 34.3541 199.414 35.0855 199.017 35.7156C200.771 38.2844 201.725 41.0623 201.725 42.7259C205.368 50.5114 200.159 57.1988 193.501 61.4584C190.846 63.1663 187.78 63.7915 184.787 63.2351L184.508 61.8447L184.131 63.0972L182.871 67.2962C181.418 68.1183 179.977 69.0195 178.549 69.9998C179.091 67.0203 179.53 64.0462 179.832 61.1384C180.251 57.1807 178.793 51.2887 177.741 47.7056C177.089 45.4973 176.755 43.1779 176.751 40.8417V40.7396L175.727 44.5854L172 42.726C172.693 38.0745 172 32.7941 180.314 33.2521Z" fill="#2F2E41"/>
</svg>
