<svg width="470" height="348" viewBox="0 0 470 348" fill="none" xmlns="http://www.w3.org/2000/svg">
<g clip-path="url(#clip0_1675_16034)">
<path d="M397.922 235.76C398.102 244.258 396.926 252.73 394.438 260.86C394.351 261.156 394.247 261.451 394.142 261.746H342.86C343.593 258.146 344.757 254.647 346.326 251.324C350.594 242.291 357.562 234.561 364.442 226.883C373.918 216.304 383.168 205.812 384.631 192.055C388.387 197.765 391.385 203.937 393.55 210.416C390.9 211.395 388.468 212.882 386.391 214.793C385.816 215.331 385.206 216.113 385.502 216.86C385.781 217.485 386.547 217.694 387.227 217.833C388.864 218.146 390.502 218.458 392.139 218.754C393.428 219.014 394.734 219.257 396.041 219.5C397.189 224.847 397.819 230.292 397.922 235.76Z" fill="#F2F2F2"/>
<path d="M441 230.13C432.778 235.116 427.552 242.828 423.285 251.462C419.571 252.306 416.142 254.102 413.338 256.673C412.746 257.211 412.136 257.993 412.45 258.74C412.711 259.365 413.495 259.574 414.174 259.713C415.794 260.025 417.449 260.338 419.069 260.633C418.912 260.998 418.756 261.38 418.599 261.745H364.251C366.718 258.427 369.45 255.313 372.42 252.434C373.065 251.792 373.727 251.184 374.406 250.558C381.334 244.315 389.289 239.308 397.922 235.758C411.522 230.089 426.394 228.146 441 230.13Z" fill="#F2F2F2"/>
<path d="M373.309 261.745H324.918C324.654 257.881 324.677 254.002 324.988 250.141C326.921 226.291 339.933 203.57 359.565 189.812C357.057 198.724 358.346 207.583 360.958 216.477C360.593 216.598 360.227 216.703 359.896 216.841C357.246 217.82 354.814 219.308 352.737 221.219C352.162 221.757 351.552 222.539 351.848 223.286C352.109 223.911 352.893 224.12 353.573 224.259C355.21 224.571 356.848 224.884 358.468 225.179C359.774 225.44 361.08 225.683 362.387 225.944C362.996 226.048 363.606 226.17 364.216 226.291C364.303 226.5 364.355 226.691 364.442 226.882C367.508 235.307 370.853 243.801 372.42 252.434C372.808 254.601 373.076 256.787 373.222 258.983C373.274 259.904 373.309 260.824 373.309 261.745Z" fill="#F2F2F2"/>
<path d="M109.575 235.76C109.754 244.258 108.578 252.73 106.091 260.86C106.004 261.156 105.899 261.451 105.795 261.746H54.5122C55.2453 258.146 56.4091 254.647 57.9787 251.324C62.2464 242.291 69.2141 234.561 76.0947 226.883C85.5708 216.304 94.8204 205.812 96.2837 192.055C100.04 197.765 103.038 203.937 105.202 210.416C102.552 211.395 100.12 212.882 98.0431 214.793C97.4682 215.331 96.8585 216.113 97.1547 216.86C97.4333 217.485 98.1998 217.694 98.8791 217.833C100.517 218.146 102.154 218.458 103.791 218.754C105.08 219.014 106.387 219.257 107.693 219.5C108.842 224.847 109.472 230.292 109.575 235.76Z" fill="#F2F2F2"/>
<path d="M152.652 230.13C144.43 235.116 139.205 242.828 134.937 251.462C131.223 252.306 127.795 254.102 124.991 256.673C124.398 257.211 123.789 257.993 124.102 258.74C124.364 259.365 125.147 259.574 125.827 259.713C127.447 260.025 129.102 260.338 130.721 260.633C130.565 260.998 130.408 261.38 130.251 261.745H75.9031C78.3702 258.427 81.1023 255.313 84.0727 252.434C84.7172 251.792 85.3792 251.184 86.0586 250.558C92.9866 244.315 100.942 239.308 109.575 235.758C123.175 230.089 138.047 228.146 152.652 230.13Z" fill="#F2F2F2"/>
<path d="M84.9611 261.745H36.5703C36.3061 257.881 36.3294 254.002 36.6401 250.141C38.5736 226.291 51.5857 203.57 71.2173 189.812C68.7089 198.724 69.9979 207.583 72.6108 216.477C72.2451 216.598 71.8792 216.703 71.5483 216.841C68.8981 217.82 66.4659 219.308 64.389 221.219C63.8141 221.757 63.2045 222.539 63.5006 223.286C63.7618 223.911 64.5457 224.12 65.225 224.259C66.8624 224.571 68.4999 224.884 70.1198 225.179C71.4263 225.44 72.7328 225.683 74.0392 225.944C74.6488 226.048 75.2586 226.17 75.8682 226.291C75.9553 226.5 76.0076 226.691 76.0947 226.882C79.1605 235.307 82.5049 243.801 84.0727 252.434C84.4608 254.601 84.7283 256.787 84.874 258.983C84.9263 259.904 84.9611 260.824 84.9611 261.745Z" fill="#F2F2F2"/>
<path d="M265.113 241.486L308.351 245.314L308.814 245.356V61.374C308.66 61.2667 308.505 61.1593 308.351 61.052C299.339 54.7664 289.592 49.6028 279.324 45.6758L277.115 76.064L276.913 78.8461L274.727 108.982L274.053 118.253L265.192 240.413L265.113 241.486Z" fill="#E6E6E6"/>
<path d="M158.185 57.947C157.876 58.1431 157.567 58.3391 157.259 58.5445V245.355L158.185 245.271L200.955 241.485L200.876 240.412L192.015 118.252L191.341 108.982L189.155 78.8454L188.953 76.0633L186.636 44.1953C176.644 47.6493 167.095 52.265 158.185 57.947Z" fill="#E6E6E6"/>
<path d="M157.258 58.5448C156.636 58.9462 156.013 59.357 155.4 59.7724V247.904C155.4 252.605 158.195 256.544 161.93 257.548C162.54 257.713 163.17 257.796 163.802 257.795H302.734C303.364 257.796 303.993 257.713 304.601 257.548C305.99 257.164 307.248 256.412 308.243 255.373C310.14 253.35 311.177 250.673 311.136 247.904V63.0446C310.368 62.4798 309.596 61.9197 308.814 61.3735C308.66 61.2662 308.505 61.1588 308.351 61.0514V247.904C308.352 248.51 308.279 249.113 308.135 249.701C307.475 252.479 305.299 254.514 302.734 254.514H163.802C160.704 254.514 158.185 251.55 158.185 247.904V57.9473C157.876 58.1433 157.567 58.3394 157.258 58.5448Z" fill="#E6E6E6"/>
<path d="M126.804 252.927C126.804 254.523 127.11 256.105 127.708 257.585C127.937 258.16 128.211 258.715 128.527 259.247C128.935 259.941 129.408 260.594 129.94 261.198C131.116 262.535 132.565 263.605 134.189 264.339C135.813 265.072 137.576 265.451 139.359 265.451H322.529C325.859 265.451 329.052 264.132 331.407 261.784C333.761 259.436 335.084 256.252 335.084 252.932C335.084 249.611 333.761 246.427 331.407 244.079C329.052 241.731 325.859 240.412 322.529 240.412H139.359C136.031 240.415 132.84 241.735 130.487 244.081C128.133 246.427 126.809 249.608 126.804 252.927Z" fill="#E6E6E6"/>
<path d="M156.792 118.254L308.813 118.254V108.982L156.792 108.982V118.254Z" fill="#E6E6E6"/>
<path d="M29 260.078C33.0665 264.883 37.4648 269.399 42.1629 273.592H419.72C424.418 269.399 428.817 264.883 432.883 260.078H29Z" fill="#3F3D56"/>
<path d="M214.689 214.889V262.763H248.322V214.889C248.323 214.544 248.212 214.209 248.008 213.932C247.803 213.654 247.514 213.45 247.184 213.348C247.029 213.297 246.866 213.272 246.702 213.274H216.313C216.1 213.273 215.889 213.315 215.692 213.396C215.496 213.477 215.317 213.595 215.166 213.745C215.015 213.895 214.895 214.074 214.813 214.27C214.732 214.466 214.689 214.676 214.689 214.889ZM227.815 231.338C227.824 230.395 228.206 229.493 228.878 228.828C229.55 228.164 230.459 227.792 231.405 227.792C232.351 227.792 233.259 228.164 233.932 228.828C234.604 229.493 234.986 230.395 234.995 231.338V236.893C234.99 237.84 234.61 238.746 233.937 239.413C233.264 240.081 232.354 240.455 231.405 240.455C230.456 240.455 229.545 240.081 228.873 239.413C228.2 238.746 227.819 237.84 227.815 236.893V231.338Z" fill="#2F2E41"/>
<path d="M214.586 261.23V265.847C214.587 266.086 214.682 266.315 214.852 266.485C215.021 266.654 215.25 266.751 215.49 266.753H247.522C247.762 266.751 247.992 266.655 248.161 266.486C248.33 266.316 248.425 266.086 248.425 265.847V261.23H214.586Z" fill="#3F3D56"/>
<path d="M161.78 142.759V230.171C161.781 231.285 162.225 232.353 163.015 233.14C163.805 233.928 164.876 234.371 165.993 234.372H295.89C297.007 234.371 298.078 233.928 298.868 233.14C299.658 232.353 300.102 231.285 300.103 230.171V142.759C300.1 141.646 299.655 140.579 298.866 139.793C298.076 139.006 297.006 138.564 295.89 138.562H165.993C164.877 138.564 163.807 139.006 163.017 139.793C162.228 140.579 161.783 141.646 161.78 142.759Z" fill="#3F3D56"/>
<path d="M164.828 143.846V229.091C164.829 229.687 165.066 230.257 165.488 230.678C165.91 231.099 166.482 231.336 167.079 231.337H294.809C295.406 231.336 295.978 231.099 296.4 230.678C296.822 230.257 297.059 229.687 297.06 229.091V143.846C297.06 143.25 296.823 142.678 296.401 142.256C295.979 141.835 295.406 141.597 294.809 141.596H167.079C166.482 141.597 165.909 141.835 165.487 142.256C165.065 142.678 164.828 143.25 164.828 143.846Z" fill="#FFCB47"/>
<path d="M190.872 267.841C191.002 268.003 191.168 268.134 191.356 268.224C191.544 268.314 191.75 268.36 191.958 268.359H267.949C268.157 268.358 268.362 268.312 268.55 268.223C268.737 268.133 268.903 268.004 269.034 267.843C269.164 267.682 269.258 267.494 269.307 267.292C269.356 267.091 269.359 266.881 269.316 266.678L268.137 261.091C268.088 260.863 267.982 260.651 267.83 260.474C267.678 260.297 267.484 260.161 267.266 260.078C267.108 260.016 266.939 259.984 266.77 259.984H193.133C192.964 259.984 192.795 260.016 192.637 260.078C192.419 260.161 192.225 260.297 192.073 260.474C191.921 260.651 191.815 260.863 191.767 261.091L190.587 266.678C190.545 266.881 190.549 267.09 190.598 267.291C190.648 267.493 190.741 267.68 190.872 267.841Z" fill="#2F2E41"/>
<path d="M264.118 262.391H266.001C266.128 262.391 266.23 262.289 266.23 262.163V261.218C266.23 261.092 266.128 260.99 266.001 260.99H264.118C263.992 260.99 263.889 261.092 263.889 261.218V262.163C263.889 262.289 263.992 262.391 264.118 262.391Z" fill="#3F3D56"/>
<path d="M259.437 262.391H261.321C261.447 262.391 261.549 262.289 261.549 262.163V261.218C261.549 261.092 261.447 260.99 261.321 260.99H259.437C259.311 260.99 259.209 261.092 259.209 261.218V262.163C259.209 262.289 259.311 262.391 259.437 262.391Z" fill="#3F3D56"/>
<path d="M254.756 262.391H256.64C256.766 262.391 256.868 262.289 256.868 262.163V261.218C256.868 261.092 256.766 260.99 256.64 260.99H254.756C254.63 260.99 254.528 261.092 254.528 261.218V262.163C254.528 262.289 254.63 262.391 254.756 262.391Z" fill="#3F3D56"/>
<path d="M250.075 262.391H251.958C252.085 262.391 252.187 262.289 252.187 262.163V261.218C252.187 261.092 252.085 260.99 251.958 260.99H250.075C249.949 260.99 249.847 261.092 249.847 261.218V262.163C249.847 262.289 249.949 262.391 250.075 262.391Z" fill="#3F3D56"/>
<path d="M245.394 262.391H247.278C247.404 262.391 247.506 262.289 247.506 262.163V261.218C247.506 261.092 247.404 260.99 247.278 260.99H245.394C245.268 260.99 245.166 261.092 245.166 261.218V262.163C245.166 262.289 245.268 262.391 245.394 262.391Z" fill="#3F3D56"/>
<path d="M240.713 262.391H242.597C242.723 262.391 242.825 262.289 242.825 262.163V261.218C242.825 261.092 242.723 260.99 242.597 260.99H240.713C240.587 260.99 240.485 261.092 240.485 261.218V262.163C240.485 262.289 240.587 262.391 240.713 262.391Z" fill="#3F3D56"/>
<path d="M236.032 262.391H237.916C238.042 262.391 238.144 262.289 238.144 262.163V261.218C238.144 261.092 238.042 260.99 237.916 260.99H236.032C235.906 260.99 235.804 261.092 235.804 261.218V262.163C235.804 262.289 235.906 262.391 236.032 262.391Z" fill="#3F3D56"/>
<path d="M231.351 262.391H233.235C233.361 262.391 233.463 262.289 233.463 262.163V261.218C233.463 261.092 233.361 260.99 233.235 260.99H231.351C231.225 260.99 231.123 261.092 231.123 261.218V262.163C231.123 262.289 231.225 262.391 231.351 262.391Z" fill="#3F3D56"/>
<path d="M226.67 262.391H228.554C228.68 262.391 228.782 262.289 228.782 262.163V261.218C228.782 261.092 228.68 260.99 228.554 260.99H226.67C226.544 260.99 226.442 261.092 226.442 261.218V262.163C226.442 262.289 226.544 262.391 226.67 262.391Z" fill="#3F3D56"/>
<path d="M221.989 262.391H223.873C223.999 262.391 224.101 262.289 224.101 262.163V261.218C224.101 261.092 223.999 260.99 223.873 260.99H221.989C221.863 260.99 221.761 261.092 221.761 261.218V262.163C221.761 262.289 221.863 262.391 221.989 262.391Z" fill="#3F3D56"/>
<path d="M217.308 262.391H219.192C219.318 262.391 219.42 262.289 219.42 262.163V261.218C219.42 261.092 219.318 260.99 219.192 260.99H217.308C217.182 260.99 217.08 261.092 217.08 261.218V262.163C217.08 262.289 217.182 262.391 217.308 262.391Z" fill="#3F3D56"/>
<path d="M212.627 262.391H214.511C214.637 262.391 214.739 262.289 214.739 262.163V261.218C214.739 261.092 214.637 260.99 214.511 260.99H212.627C212.501 260.99 212.399 261.092 212.399 261.218V262.163C212.399 262.289 212.501 262.391 212.627 262.391Z" fill="#3F3D56"/>
<path d="M207.946 262.391H209.83C209.956 262.391 210.058 262.289 210.058 262.163V261.218C210.058 261.092 209.956 260.99 209.83 260.99H207.946C207.82 260.99 207.718 261.092 207.718 261.218V262.163C207.718 262.289 207.82 262.391 207.946 262.391Z" fill="#3F3D56"/>
<path d="M203.265 262.391H205.149C205.275 262.391 205.377 262.289 205.377 262.163V261.218C205.377 261.092 205.275 260.99 205.149 260.99H203.265C203.139 260.99 203.037 261.092 203.037 261.218V262.163C203.037 262.289 203.139 262.391 203.265 262.391Z" fill="#3F3D56"/>
<path d="M198.585 262.391H200.468C200.594 262.391 200.697 262.289 200.697 262.163V261.218C200.697 261.092 200.594 260.99 200.468 260.99H198.585C198.458 260.99 198.356 261.092 198.356 261.218V262.163C198.356 262.289 198.458 262.391 198.585 262.391Z" fill="#3F3D56"/>
<path d="M193.903 262.391H195.787C195.913 262.391 196.015 262.289 196.015 262.163V261.218C196.015 261.092 195.913 260.99 195.787 260.99H193.903C193.777 260.99 193.675 261.092 193.675 261.218V262.163C193.675 262.289 193.777 262.391 193.903 262.391Z" fill="#3F3D56"/>
<path d="M264.173 264.725H266.057C266.183 264.725 266.285 264.623 266.285 264.497V263.552C266.285 263.426 266.183 263.324 266.057 263.324H264.173C264.047 263.324 263.945 263.426 263.945 263.552V264.497C263.945 264.623 264.047 264.725 264.173 264.725Z" fill="#3F3D56"/>
<path d="M259.492 264.725H261.376C261.502 264.725 261.604 264.623 261.604 264.497V263.552C261.604 263.426 261.502 263.324 261.376 263.324H259.492C259.366 263.324 259.264 263.426 259.264 263.552V264.497C259.264 264.623 259.366 264.725 259.492 264.725Z" fill="#3F3D56"/>
<path d="M254.811 264.725H256.695C256.821 264.725 256.923 264.623 256.923 264.497V263.552C256.923 263.426 256.821 263.324 256.695 263.324H254.811C254.685 263.324 254.583 263.426 254.583 263.552V264.497C254.583 264.623 254.685 264.725 254.811 264.725Z" fill="#3F3D56"/>
<path d="M250.13 264.725H252.014C252.14 264.725 252.242 264.623 252.242 264.497V263.552C252.242 263.426 252.14 263.324 252.014 263.324H250.13C250.004 263.324 249.902 263.426 249.902 263.552V264.497C249.902 264.623 250.004 264.725 250.13 264.725Z" fill="#3F3D56"/>
<path d="M245.45 264.725H247.333C247.459 264.725 247.562 264.623 247.562 264.497V263.552C247.562 263.426 247.459 263.324 247.333 263.324H245.45C245.323 263.324 245.221 263.426 245.221 263.552V264.497C245.221 264.623 245.323 264.725 245.45 264.725Z" fill="#3F3D56"/>
<path d="M240.768 264.725H242.652C242.778 264.725 242.88 264.623 242.88 264.497V263.552C242.88 263.426 242.778 263.324 242.652 263.324H240.768C240.642 263.324 240.54 263.426 240.54 263.552V264.497C240.54 264.623 240.642 264.725 240.768 264.725Z" fill="#3F3D56"/>
<path d="M236.087 264.725H237.971C238.097 264.725 238.199 264.623 238.199 264.497V263.552C238.199 263.426 238.097 263.324 237.971 263.324H236.087C235.961 263.324 235.859 263.426 235.859 263.552V264.497C235.859 264.623 235.961 264.725 236.087 264.725Z" fill="#3F3D56"/>
<path d="M231.407 264.725H233.29C233.416 264.725 233.519 264.623 233.519 264.497V263.552C233.519 263.426 233.416 263.324 233.29 263.324H231.407C231.28 263.324 231.178 263.426 231.178 263.552V264.497C231.178 264.623 231.28 264.725 231.407 264.725Z" fill="#3F3D56"/>
<path d="M226.726 264.725H228.609C228.735 264.725 228.838 264.623 228.838 264.497V263.552C228.838 263.426 228.735 263.324 228.609 263.324H226.726C226.599 263.324 226.497 263.426 226.497 263.552V264.497C226.497 264.623 226.599 264.725 226.726 264.725Z" fill="#3F3D56"/>
<path d="M222.045 264.725H223.928C224.054 264.725 224.156 264.623 224.156 264.497V263.552C224.156 263.426 224.054 263.324 223.928 263.324H222.045C221.918 263.324 221.816 263.426 221.816 263.552V264.497C221.816 264.623 221.918 264.725 222.045 264.725Z" fill="#3F3D56"/>
<path d="M217.364 264.725H219.247C219.373 264.725 219.476 264.623 219.476 264.497V263.552C219.476 263.426 219.373 263.324 219.247 263.324H217.364C217.237 263.324 217.135 263.426 217.135 263.552V264.497C217.135 264.623 217.237 264.725 217.364 264.725Z" fill="#3F3D56"/>
<path d="M212.683 264.725H214.566C214.692 264.725 214.795 264.623 214.795 264.497V263.552C214.795 263.426 214.692 263.324 214.566 263.324H212.683C212.556 263.324 212.454 263.426 212.454 263.552V264.497C212.454 264.623 212.556 264.725 212.683 264.725Z" fill="#3F3D56"/>
<path d="M208.002 264.725H209.885C210.011 264.725 210.114 264.623 210.114 264.497V263.552C210.114 263.426 210.011 263.324 209.885 263.324H208.002C207.876 263.324 207.773 263.426 207.773 263.552V264.497C207.773 264.623 207.876 264.725 208.002 264.725Z" fill="#3F3D56"/>
<path d="M203.321 264.725H205.204C205.33 264.725 205.433 264.623 205.433 264.497V263.552C205.433 263.426 205.33 263.324 205.204 263.324H203.321C203.194 263.324 203.092 263.426 203.092 263.552V264.497C203.092 264.623 203.194 264.725 203.321 264.725Z" fill="#3F3D56"/>
<path d="M198.64 264.725H200.523C200.649 264.725 200.752 264.623 200.752 264.497V263.552C200.752 263.426 200.649 263.324 200.523 263.324H198.64C198.514 263.324 198.411 263.426 198.411 263.552V264.497C198.411 264.623 198.514 264.725 198.64 264.725Z" fill="#3F3D56"/>
<path d="M193.959 264.725H195.842C195.968 264.725 196.071 264.623 196.071 264.497V263.552C196.071 263.426 195.968 263.324 195.842 263.324H193.959C193.833 263.324 193.73 263.426 193.73 263.552V264.497C193.73 264.623 193.833 264.725 193.959 264.725Z" fill="#3F3D56"/>
<path d="M225.321 267.525H243.588C243.714 267.525 243.817 267.423 243.817 267.298V266.353C243.817 266.227 243.714 266.125 243.588 266.125H225.321C225.195 266.125 225.093 266.227 225.093 266.353V267.298C225.093 267.423 225.195 267.525 225.321 267.525Z" fill="#3F3D56"/>
<path d="M173.498 153.339H293.014C293.138 153.336 293.256 153.285 293.343 153.196C293.43 153.108 293.479 152.989 293.479 152.865C293.479 152.741 293.43 152.622 293.343 152.533C293.256 152.444 293.138 152.393 293.014 152.391H173.498C173.373 152.393 173.255 152.444 173.168 152.533C173.081 152.622 173.033 152.741 173.033 152.865C173.033 152.989 173.081 153.108 173.168 153.196C173.255 153.285 173.373 153.336 173.498 153.339Z" fill="#3F3D56"/>
<path d="M284.878 149.972C286.416 149.972 287.664 148.701 287.664 147.132C287.664 145.564 286.416 144.293 284.878 144.293C283.34 144.293 282.093 145.564 282.093 147.132C282.093 148.701 283.34 149.972 284.878 149.972Z" fill="#3F3D56"/>
<path d="M275.256 149.972C276.794 149.972 278.041 148.701 278.041 147.132C278.041 145.564 276.794 144.293 275.256 144.293C273.718 144.293 272.47 145.564 272.47 147.132C272.47 148.701 273.718 149.972 275.256 149.972Z" fill="#3F3D56"/>
<path d="M265.634 149.972C267.172 149.972 268.419 148.701 268.419 147.132C268.419 145.564 267.172 144.293 265.634 144.293C264.095 144.293 262.848 145.564 262.848 147.132C262.848 148.701 264.095 149.972 265.634 149.972Z" fill="#3F3D56"/>
<path d="M178.782 145.512C178.781 145.579 178.794 145.646 178.82 145.708C178.845 145.77 178.883 145.827 178.93 145.874C178.977 145.922 179.034 145.96 179.096 145.986C179.158 146.012 179.224 146.025 179.292 146.026H186.126C186.261 146.023 186.39 145.967 186.484 145.871C186.578 145.774 186.631 145.645 186.631 145.51C186.631 145.375 186.578 145.246 186.484 145.149C186.39 145.053 186.261 144.997 186.126 144.994H179.292C179.155 144.996 179.025 145.051 178.929 145.148C178.834 145.245 178.781 145.376 178.782 145.512Z" fill="#3F3D56"/>
<path d="M178.782 147.45C178.781 147.517 178.794 147.583 178.82 147.646C178.845 147.708 178.883 147.764 178.93 147.812C178.977 147.86 179.034 147.898 179.096 147.923C179.158 147.949 179.224 147.963 179.292 147.963H186.126C186.261 147.96 186.39 147.905 186.484 147.808C186.579 147.712 186.632 147.582 186.632 147.447C186.632 147.313 186.579 147.183 186.484 147.087C186.39 146.99 186.261 146.935 186.126 146.932H179.292C179.155 146.933 179.025 146.989 178.929 147.086C178.834 147.183 178.781 147.314 178.782 147.45Z" fill="#3F3D56"/>
<path d="M178.782 149.383C178.781 149.519 178.834 149.65 178.929 149.747C179.025 149.844 179.155 149.899 179.292 149.901H186.126C186.261 149.898 186.39 149.842 186.484 149.746C186.578 149.649 186.631 149.52 186.631 149.385C186.631 149.25 186.578 149.121 186.484 149.024C186.39 148.928 186.261 148.872 186.126 148.869H179.292C179.224 148.869 179.158 148.883 179.096 148.909C179.034 148.935 178.977 148.973 178.93 149.02C178.883 149.068 178.845 149.125 178.82 149.187C178.794 149.249 178.781 149.315 178.782 149.383Z" fill="#3F3D56"/>
<path d="M180.894 164.354H178.438C177.693 164.354 177.09 164.955 177.09 165.698C177.09 166.44 177.693 167.042 178.438 167.042H180.894C181.638 167.042 182.242 166.44 182.242 165.698C182.242 164.955 181.638 164.354 180.894 164.354Z" fill="#E6E6E6"/>
<path d="M208.979 164.354H206.524C205.779 164.354 205.176 164.955 205.176 165.698C205.176 166.44 205.779 167.042 206.524 167.042H208.979C209.724 167.042 210.327 166.44 210.327 165.698C210.327 164.955 209.724 164.354 208.979 164.354Z" fill="#E6E6E6"/>
<path d="M216.937 164.354H214.481C213.737 164.354 213.133 164.955 213.133 165.698C213.133 166.44 213.737 167.042 214.481 167.042H216.937C217.682 167.042 218.285 166.44 218.285 165.698C218.285 164.955 217.682 164.354 216.937 164.354Z" fill="#E6E6E6"/>
<path d="M201.34 164.131H186.077C185.333 164.131 184.729 164.733 184.729 165.475C184.729 166.218 185.333 166.82 186.077 166.82H201.34C202.085 166.82 202.688 166.218 202.688 165.475C202.688 164.733 202.085 164.131 201.34 164.131Z" fill="#E6E6E6"/>
<path d="M238.788 164.131H223.525C222.781 164.131 222.177 164.733 222.177 165.475C222.177 166.218 222.781 166.82 223.525 166.82H238.788C239.532 166.82 240.136 166.218 240.136 165.475C240.136 164.733 239.532 164.131 238.788 164.131Z" fill="#E6E6E6"/>
<path d="M188.383 170.422H185.927C185.183 170.422 184.579 171.024 184.579 171.766C184.579 172.509 185.183 173.111 185.927 173.111H188.383C189.128 173.111 189.731 172.509 189.731 171.766C189.731 171.024 189.128 170.422 188.383 170.422Z" fill="#E6E6E6"/>
<path d="M216.469 170.422H214.013C213.269 170.422 212.665 171.024 212.665 171.766C212.665 172.509 213.269 173.111 214.013 173.111H216.469C217.214 173.111 217.817 172.509 217.817 171.766C217.817 171.024 217.214 170.422 216.469 170.422Z" fill="#E6E6E6"/>
<path d="M224.427 170.422H221.971C221.226 170.422 220.623 171.024 220.623 171.766C220.623 172.509 221.226 173.111 221.971 173.111H224.427C225.171 173.111 225.775 172.509 225.775 171.766C225.775 171.024 225.171 170.422 224.427 170.422Z" fill="#E6E6E6"/>
<path d="M208.829 170.199H193.567C192.822 170.199 192.219 170.801 192.219 171.544C192.219 172.286 192.822 172.888 193.567 172.888H208.829C209.574 172.888 210.178 172.286 210.178 171.544C210.178 170.801 209.574 170.199 208.829 170.199Z" fill="#E6E6E6"/>
<path d="M246.277 170.199H231.015C230.27 170.199 229.667 170.801 229.667 171.544C229.667 172.286 230.27 172.888 231.015 172.888H246.277C247.022 172.888 247.625 172.286 247.625 171.544C247.625 170.801 247.022 170.199 246.277 170.199Z" fill="#E6E6E6"/>
<path d="M195.873 176.49H193.417C192.672 176.49 192.069 177.092 192.069 177.835C192.069 178.577 192.672 179.179 193.417 179.179H195.873C196.617 179.179 197.221 178.577 197.221 177.835C197.221 177.092 196.617 176.49 195.873 176.49Z" fill="#E6E6E6"/>
<path d="M223.959 176.49H221.503C220.758 176.49 220.155 177.092 220.155 177.835C220.155 178.577 220.758 179.179 221.503 179.179H223.959C224.703 179.179 225.307 178.577 225.307 177.835C225.307 177.092 224.703 176.49 223.959 176.49Z" fill="#E6E6E6"/>
<path d="M231.916 176.49H229.46C228.716 176.49 228.112 177.092 228.112 177.835C228.112 178.577 228.716 179.179 229.46 179.179H231.916C232.661 179.179 233.264 178.577 233.264 177.835C233.264 177.092 232.661 176.49 231.916 176.49Z" fill="#E6E6E6"/>
<path d="M216.319 176.268H201.057C200.312 176.268 199.708 176.869 199.708 177.612C199.708 178.354 200.312 178.956 201.057 178.956H216.319C217.064 178.956 217.667 178.354 217.667 177.612C217.667 176.869 217.064 176.268 216.319 176.268Z" fill="#E6E6E6"/>
<path d="M253.767 176.268H238.504C237.76 176.268 237.156 176.869 237.156 177.612C237.156 178.354 237.76 178.956 238.504 178.956H253.767C254.511 178.956 255.115 178.354 255.115 177.612C255.115 176.869 254.511 176.268 253.767 176.268Z" fill="#E6E6E6"/>
<path d="M203.362 182.559H200.907C200.162 182.559 199.559 183.16 199.559 183.903C199.559 184.645 200.162 185.247 200.907 185.247H203.362C204.107 185.247 204.71 184.645 204.71 183.903C204.71 183.16 204.107 182.559 203.362 182.559Z" fill="#E6E6E6"/>
<path d="M231.448 182.559H228.992C228.248 182.559 227.644 183.16 227.644 183.903C227.644 184.645 228.248 185.247 228.992 185.247H231.448C232.193 185.247 232.796 184.645 232.796 183.903C232.796 183.16 232.193 182.559 231.448 182.559Z" fill="#E6E6E6"/>
<path d="M239.406 182.559H236.95C236.206 182.559 235.602 183.16 235.602 183.903C235.602 184.645 236.206 185.247 236.95 185.247H239.406C240.15 185.247 240.754 184.645 240.754 183.903C240.754 183.16 240.15 182.559 239.406 182.559Z" fill="#E6E6E6"/>
<path d="M223.809 182.336H208.546C207.802 182.336 207.198 182.938 207.198 183.68C207.198 184.423 207.802 185.025 208.546 185.025H223.809C224.553 185.025 225.157 184.423 225.157 183.68C225.157 182.938 224.553 182.336 223.809 182.336Z" fill="#E6E6E6"/>
<path d="M208.979 206.689H206.524C205.779 206.689 205.176 207.291 205.176 208.034C205.176 208.776 205.779 209.378 206.524 209.378H208.979C209.724 209.378 210.327 208.776 210.327 208.034C210.327 207.291 209.724 206.689 208.979 206.689Z" fill="#E6E6E6"/>
<path d="M216.937 206.689H214.481C213.737 206.689 213.133 207.291 213.133 208.034C213.133 208.776 213.737 209.378 214.481 209.378H216.937C217.682 209.378 218.285 208.776 218.285 208.034C218.285 207.291 217.682 206.689 216.937 206.689Z" fill="#E6E6E6"/>
<path d="M238.788 206.914H223.525C222.781 206.914 222.177 207.516 222.177 208.258C222.177 209.001 222.781 209.603 223.525 209.603H238.788C239.532 209.603 240.136 209.001 240.136 208.258C240.136 207.516 239.532 206.914 238.788 206.914Z" fill="#E6E6E6"/>
<path d="M180.894 206.689H178.438C177.693 206.689 177.09 207.291 177.09 208.034C177.09 208.776 177.693 209.378 178.438 209.378H180.894C181.638 209.378 182.242 208.776 182.242 208.034C182.242 207.291 181.638 206.689 180.894 206.689Z" fill="#E6E6E6"/>
<path d="M201.34 206.914H186.077C185.333 206.914 184.729 207.516 184.729 208.258C184.729 209.001 185.333 209.603 186.077 209.603H201.34C202.085 209.603 202.688 209.001 202.688 208.258C202.688 207.516 202.085 206.914 201.34 206.914Z" fill="#E6E6E6"/>
<path d="M188.383 200.621H185.927C185.183 200.621 184.579 201.223 184.579 201.965C184.579 202.708 185.183 203.31 185.927 203.31H188.383C189.128 203.31 189.731 202.708 189.731 201.965C189.731 201.223 189.128 200.621 188.383 200.621Z" fill="#E6E6E6"/>
<path d="M216.469 200.621H214.013C213.269 200.621 212.665 201.223 212.665 201.965C212.665 202.708 213.269 203.31 214.013 203.31H216.469C217.214 203.31 217.817 202.708 217.817 201.965C217.817 201.223 217.214 200.621 216.469 200.621Z" fill="#E6E6E6"/>
<path d="M224.427 200.621H221.971C221.226 200.621 220.623 201.223 220.623 201.965C220.623 202.708 221.226 203.31 221.971 203.31H224.427C225.171 203.31 225.775 202.708 225.775 201.965C225.775 201.223 225.171 200.621 224.427 200.621Z" fill="#E6E6E6"/>
<path d="M208.829 200.846H193.567C192.822 200.846 192.219 201.448 192.219 202.19C192.219 202.933 192.822 203.534 193.567 203.534H208.829C209.574 203.534 210.178 202.933 210.178 202.19C210.178 201.448 209.574 200.846 208.829 200.846Z" fill="#E6E6E6"/>
<path d="M195.873 194.553H193.417C192.672 194.553 192.069 195.155 192.069 195.897C192.069 196.64 192.672 197.241 193.417 197.241H195.873C196.617 197.241 197.221 196.64 197.221 195.897C197.221 195.155 196.617 194.553 195.873 194.553Z" fill="#E6E6E6"/>
<path d="M223.959 194.553H221.503C220.758 194.553 220.155 195.155 220.155 195.897C220.155 196.64 220.758 197.241 221.503 197.241H223.959C224.703 197.241 225.307 196.64 225.307 195.897C225.307 195.155 224.703 194.553 223.959 194.553Z" fill="#E6E6E6"/>
<path d="M231.916 194.553H229.46C228.716 194.553 228.112 195.155 228.112 195.897C228.112 196.64 228.716 197.241 229.46 197.241H231.916C232.661 197.241 233.264 196.64 233.264 195.897C233.264 195.155 232.661 194.553 231.916 194.553Z" fill="#E6E6E6"/>
<path d="M216.319 194.777H201.057C200.312 194.777 199.708 195.379 199.708 196.122C199.708 196.864 200.312 197.466 201.057 197.466H216.319C217.064 197.466 217.667 196.864 217.667 196.122C217.667 195.379 217.064 194.777 216.319 194.777Z" fill="#E6E6E6"/>
<path d="M203.362 188.484H200.907C200.162 188.484 199.559 189.086 199.559 189.829C199.559 190.571 200.162 191.173 200.907 191.173H203.362C204.107 191.173 204.71 190.571 204.71 189.829C204.71 189.086 204.107 188.484 203.362 188.484Z" fill="#E6E6E6"/>
<path d="M231.448 188.484H228.992C228.248 188.484 227.644 189.086 227.644 189.829C227.644 190.571 228.248 191.173 228.992 191.173H231.448C232.193 191.173 232.796 190.571 232.796 189.829C232.796 189.086 232.193 188.484 231.448 188.484Z" fill="#E6E6E6"/>
<path d="M239.406 188.484H236.95C236.206 188.484 235.602 189.086 235.602 189.829C235.602 190.571 236.206 191.173 236.95 191.173H239.406C240.15 191.173 240.754 190.571 240.754 189.829C240.754 189.086 240.15 188.484 239.406 188.484Z" fill="#E6E6E6"/>
<path d="M223.809 188.709H208.546C207.802 188.709 207.198 189.311 207.198 190.053C207.198 190.796 207.802 191.398 208.546 191.398H223.809C224.553 191.398 225.157 190.796 225.157 190.053C225.157 189.311 224.553 188.709 223.809 188.709Z" fill="#E6E6E6"/>
<path d="M192.793 293.848C192.69 293.899 192.587 293.95 192.484 293.997C191.833 294.319 191.178 294.637 190.518 294.949C188.542 295.888 186.542 296.779 184.517 297.624C179.188 299.847 173.72 301.723 168.147 303.24C167.211 297.419 166.303 283.69 165.432 273.594C165.269 271.694 165.105 269.925 164.941 268.361C164.785 266.308 164.49 264.268 164.056 262.255C164.014 262.098 163.952 261.945 163.874 261.802C163.963 262.61 164.056 265.019 164.145 268.361C164.192 269.925 164.234 271.694 164.281 273.594C164.501 283.312 164.73 296.537 164.96 304.066C164.309 304.225 163.654 304.383 162.998 304.533C162.586 304.631 162.17 304.724 161.753 304.813C161.248 304.925 160.742 305.037 160.237 305.139C159.708 305.252 159.179 305.359 158.65 305.462C150.006 307.155 141.217 308.005 132.408 308.001C131.823 308.001 131.243 307.996 130.657 307.992C130.48 307.992 130.302 307.987 130.119 307.982C129.604 307.973 129.071 307.964 128.528 307.95C118.118 307.663 107.776 306.176 97.7082 303.52L98.1154 273.594L98.1856 268.361L98.2137 266.377C97.9818 267.015 97.8431 267.683 97.8018 268.361C97.6379 269.635 97.4694 271.442 97.3009 273.594C96.6596 281.884 95.9996 295.257 95.3162 302.866C87.2228 300.57 81.3061 298.474 73.9101 294.786C73.6246 294.646 73.3344 294.501 73.0488 294.357C73.1003 293.997 73.1565 293.638 73.208 293.269C74.0459 287.462 73.0582 279.905 73.985 273.594C74.6919 268.725 75.4221 264.048 76.157 260.08C77.0464 255.305 77.9498 251.552 78.8439 249.726C79.8737 247.621 80.9035 245.549 81.9005 243.565C82.3312 242.711 82.7541 241.872 83.1691 241.049C83.3938 240.605 83.6185 240.167 83.8385 239.737C84.8402 237.781 85.7857 235.975 86.6517 234.374C87.2602 233.249 87.822 232.231 88.3369 231.339C88.9407 230.289 89.4743 229.421 89.9144 228.763C93.1644 223.85 98.0001 220.192 103.62 218.395L103.761 218.358L103.896 218.414L104.051 218.484L112.973 215.23L116.956 205.666L137.417 204.41L140.722 206.917L142.411 208.201L144.214 209.568L147.528 212.084L148.469 212.374L149.868 212.803L159.441 215.735L159.539 215.693L159.679 215.73C164.794 217.362 169.27 220.544 172.487 224.832C172.805 225.243 173.1 225.668 173.385 226.097C174.162 227.246 175.211 229.062 176.447 231.339C176.957 232.278 177.495 233.295 178.062 234.374C178.403 235.022 181.352 244.2 184.222 253.573C186.904 262.349 189.516 271.297 189.858 273.594C189.919 274.018 189.984 274.448 190.045 274.873C190.433 277.529 190.817 280.203 191.187 282.813C191.735 286.682 192.268 290.417 192.779 293.754C192.783 293.787 192.788 293.815 192.793 293.848Z" fill="#3F3D56"/>
<path opacity="0.2" d="M171.109 260.057L167.132 244.75L163.62 257.958L171.109 260.057Z" fill="black"/>
<path d="M36.4096 259.88C36.6158 260.479 37.007 260.997 37.527 261.36C38.047 261.724 38.6691 261.913 39.3038 261.902L51.7046 261.584C52.344 261.571 52.9622 261.353 53.4669 260.961C53.9715 260.569 54.3354 260.025 54.5042 259.41L56.259 240.697C56.8816 240.979 57.5594 241.118 58.2428 241.104C59.4418 241.074 60.5798 240.57 61.4064 239.703C62.233 238.837 62.6804 237.678 62.6503 236.482C62.6202 235.287 62.115 234.152 61.2459 233.327C60.3768 232.503 59.2149 232.057 58.0158 232.087C57.7427 232.086 57.4702 232.114 57.2031 232.171C56.9126 231.858 56.5595 231.609 56.1666 231.44C55.7736 231.27 55.3495 231.185 54.9216 231.19L35.8464 231.681C35.6882 231.687 35.5307 231.706 35.3759 231.739C34.9576 231.817 34.5608 231.983 34.2123 232.227C33.8638 232.47 33.5717 232.785 33.3555 233.151C33.1394 233.516 33.0043 233.924 32.9593 234.346C32.9143 234.768 32.9605 235.194 33.0948 235.597L36.4096 259.88ZM56.6189 239.427L57.8676 234.968C58.0097 234.453 58.013 233.909 57.8771 233.392C57.9377 233.392 57.9912 233.364 58.0518 233.363C58.908 233.346 59.7363 233.667 60.355 234.258C60.9738 234.848 61.3325 235.659 61.3526 236.513C61.3726 237.367 61.0523 238.194 60.462 238.812C59.8716 239.431 59.0593 239.791 58.2032 239.813C57.6497 239.83 57.102 239.697 56.6189 239.427Z" fill="#2F2E41"/>
<path d="M35.376 231.74C35.7824 234.057 40.3514 235.686 45.8454 235.403C50.8974 235.171 55.0282 233.402 55.785 231.305C55.5049 231.222 55.2137 231.184 54.9217 231.19L35.8465 231.681C35.6883 231.687 35.5308 231.707 35.376 231.74Z" fill="#3F3D56"/>
<path d="M46.8522 249.597C46.8773 249.591 46.9012 249.58 46.9228 249.566L49.6158 247.808C49.6484 247.787 49.6751 247.758 49.6937 247.724C49.7122 247.69 49.7219 247.652 49.7219 247.613C49.7219 247.574 49.7122 247.536 49.6937 247.502C49.6752 247.468 49.6485 247.439 49.616 247.418L46.8169 245.59C46.7912 245.573 46.7624 245.561 46.7321 245.555C46.7019 245.549 46.6708 245.549 46.6406 245.556C46.6105 245.562 46.5818 245.574 46.5563 245.591C46.5308 245.608 46.509 245.63 46.4921 245.656C46.4753 245.682 46.4636 245.711 46.4579 245.741C46.4522 245.771 46.4525 245.802 46.4589 245.832C46.4652 245.862 46.4774 245.891 46.4949 245.916C46.5123 245.941 46.5345 245.963 46.5604 245.98L49.0604 247.613L46.6666 249.175C46.6202 249.206 46.5861 249.251 46.5704 249.304C46.5546 249.357 46.5581 249.414 46.5804 249.465C46.6026 249.515 46.6422 249.556 46.6919 249.58C46.7417 249.605 46.7985 249.61 46.8522 249.597Z" fill="#FFCB47"/>
<path d="M42.5988 249.794C42.644 249.782 42.6847 249.758 42.7158 249.723C42.7469 249.688 42.7668 249.645 42.7732 249.599C42.7795 249.553 42.7719 249.506 42.7514 249.464C42.7308 249.423 42.6982 249.388 42.6578 249.365L40.1754 247.946L42.5747 246.168C42.5994 246.15 42.6202 246.127 42.6359 246.101C42.6517 246.075 42.6621 246.046 42.6666 246.015C42.6711 245.985 42.6695 245.954 42.662 245.924C42.6545 245.895 42.6413 245.867 42.6229 245.842C42.6046 245.818 42.5816 245.797 42.5553 245.781C42.5289 245.765 42.4997 245.755 42.4693 245.751C42.4389 245.746 42.408 245.748 42.3782 245.755C42.3484 245.763 42.3204 245.776 42.2957 245.794L39.6095 247.784C39.5783 247.807 39.5533 247.837 39.5369 247.872C39.5204 247.908 39.513 247.946 39.5153 247.985C39.5176 248.024 39.5295 248.061 39.55 248.094C39.5704 248.127 39.5988 248.154 39.6325 248.174L42.4248 249.77C42.4775 249.8 42.5399 249.808 42.5988 249.794Z" fill="#FFCB47"/>
<path d="M46.5844 251.138C46.6071 251.132 46.6287 251.123 46.6486 251.111C46.6749 251.095 46.6977 251.074 46.7159 251.049C46.7341 251.024 46.7472 250.996 46.7545 250.967C46.7617 250.937 46.7631 250.906 46.7583 250.876C46.7536 250.845 46.743 250.816 46.727 250.79L42.9094 244.531C42.877 244.478 42.8249 244.441 42.7647 244.426C42.7045 244.412 42.641 244.422 42.5882 244.454C42.5353 244.486 42.4973 244.538 42.4826 244.598C42.4678 244.658 42.4775 244.721 42.5095 244.774L46.327 251.033C46.3531 251.076 46.3921 251.109 46.4385 251.128C46.4848 251.146 46.5359 251.15 46.5844 251.138Z" fill="#FFCB47"/>
<path d="M396.526 294.355C396.24 294.499 395.95 294.644 395.664 294.784C388.268 298.472 382.352 300.568 374.258 302.864C373.575 295.256 372.915 281.882 372.273 273.592C372.105 271.44 371.936 269.633 371.773 268.359C371.731 267.681 371.593 267.013 371.361 266.375L371.389 268.359L371.459 273.592L371.866 303.518C361.799 306.174 351.457 307.661 341.047 307.948C340.504 307.962 339.97 307.971 339.455 307.98C339.273 307.985 339.095 307.99 338.917 307.99C338.332 307.994 337.751 307.999 337.166 307.999C326.196 308.007 315.265 306.686 304.615 304.064C304.844 296.535 305.074 283.31 305.293 273.592C305.34 271.692 305.382 269.923 305.429 268.359C305.518 265.017 305.612 262.608 305.701 261.8C305.622 261.944 305.561 262.096 305.518 262.253C305.085 264.266 304.789 266.306 304.633 268.359C304.47 269.923 304.306 271.692 304.142 273.592C303.271 283.688 302.363 297.417 301.427 303.238C295.855 301.721 290.387 299.845 285.058 297.622C282.249 296.455 279.49 295.196 276.782 293.846C277.297 290.485 277.835 286.718 278.387 282.811C278.818 279.781 279.263 276.668 279.717 273.592C280.419 268.84 304.273 217.525 309.895 215.728L310.035 215.691L310.134 215.733L319.706 212.801L321.106 212.372L322.047 212.082L325.361 209.566L327.163 208.199L328.853 206.915L332.158 204.408L352.618 205.664L356.602 215.228L365.523 218.482L365.678 218.412L365.814 218.356L365.954 218.393C371.574 220.19 376.41 223.848 379.66 228.761C380.1 229.419 380.634 230.287 381.237 231.338C381.752 232.229 382.314 233.247 382.923 234.372C383.789 235.973 384.734 237.779 385.736 239.735C385.956 240.165 386.181 240.603 386.405 241.047C386.822 241.868 387.245 242.707 387.674 243.563C388.671 245.547 389.701 247.619 390.73 249.724C391.625 251.55 392.528 255.303 393.417 260.078C394.152 264.046 394.883 268.723 395.589 273.592C396.516 279.903 395.528 287.46 396.366 293.267C396.418 293.636 396.474 293.995 396.526 294.355Z" fill="#3F3D56"/>
<path d="M336.518 200.974C349.66 200.974 360.314 190.35 360.314 177.244C360.314 164.138 349.66 153.514 336.518 153.514C323.376 153.514 312.722 164.138 312.722 177.244C312.722 190.35 323.376 200.974 336.518 200.974Z" fill="#FFB6B6"/>
<path opacity="0.2" d="M298.464 260.057L302.442 244.75L305.954 257.958L298.464 260.057Z" fill="black"/>
<path d="M404.305 250.085C402.882 269.634 404.357 278.241 396.502 294.36C389.356 297.848 381.911 300.694 374.258 302.865C373.462 303.089 372.665 303.307 371.866 303.518C361.799 306.175 351.457 307.661 341.047 307.948C340.504 307.962 339.97 307.972 339.455 307.981C339.273 307.986 339.095 307.99 338.917 307.99C338.332 307.995 337.751 308 337.166 308C326.196 308.008 315.265 306.686 304.615 304.064C303.548 303.803 302.485 303.528 301.427 303.238C295.855 301.721 290.387 299.845 285.058 297.623C282.249 296.456 279.491 295.197 276.782 293.846C276.169 293.538 275.555 293.23 274.952 292.913C271.848 287.47 270.083 280.851 270.046 272.897C272.194 259.192 399.559 238.265 404.305 250.085Z" fill="#2F2E41"/>
<path opacity="0.2" d="M404.302 253.433C404.374 252.222 404.456 250.972 404.55 249.67C399.804 237.851 272.44 258.778 270.291 272.483C270.297 273.739 270.351 274.959 270.441 276.149C275.645 262.622 396.642 242.733 404.302 253.433Z" fill="black"/>
<path d="M266.878 251.005L277.333 245.793L268.621 222.336L266.325 210.506C266.027 208.97 265.329 207.538 264.302 206.354C263.275 205.17 261.954 204.276 260.472 203.76C258.99 203.245 257.398 203.127 255.855 203.417C254.313 203.707 252.874 204.396 251.682 205.415C249.916 206.925 248.807 209.06 248.589 211.369C248.371 213.679 249.062 215.982 250.515 217.794L259.038 228.417L266.878 251.005Z" fill="#FFB6B6"/>
<path d="M277.333 241.449L263.394 248.399L273.972 281.452C274.732 283.826 276.093 285.964 277.925 287.658C279.757 289.352 281.997 290.546 284.427 291.123C287.424 291.834 290.571 291.576 293.41 290.384C296.25 289.192 298.635 287.13 300.22 284.496L328.27 236.549C330.258 233.246 330.872 229.298 329.98 225.549C329.088 221.8 326.762 218.547 323.498 216.486C321.742 215.377 319.772 214.649 317.716 214.35C315.66 214.051 313.564 214.187 311.563 214.749C309.563 215.311 307.704 216.287 306.107 217.612C304.511 218.938 303.211 220.585 302.295 222.444L285.174 258.825L277.333 241.449Z" fill="#3F3D56"/>
<path d="M127.07 199.337C141.53 199.337 153.253 187.647 153.253 173.227C153.253 158.807 141.53 147.117 127.07 147.117C112.609 147.117 100.887 158.807 100.887 173.227C100.887 187.647 112.609 199.337 127.07 199.337Z" fill="#A0616A"/>
<path d="M101.201 155.234C103.33 152.372 106.39 150.338 108.73 147.646C110.015 146.169 111.081 144.496 112.525 143.173C115.207 140.716 118.958 139.71 122.598 139.585C126.587 139.482 130.544 140.318 134.15 142.024C137.755 143.73 140.906 146.259 143.349 149.405C145.252 148.293 147.155 147.18 149.057 146.068C149.809 148.041 150.561 150.014 151.312 151.987C151.929 151.452 152.716 151.152 153.533 151.141C154.35 151.129 155.145 151.407 155.777 151.924C156.409 152.441 156.836 153.165 156.984 153.966C157.132 154.768 156.991 155.596 156.585 156.304C157.037 154.908 159.112 154.612 160.256 155.534C161.399 156.456 161.706 158.096 161.519 159.55C161.285 161.146 160.577 162.636 159.488 163.827C158.398 165.019 156.976 165.858 155.404 166.238C152.921 166.789 150.031 166.21 148.044 167.793C146.451 169.063 145.97 171.374 144.344 172.602C142.34 174.114 139.509 173.415 137.018 173.749C132.661 174.334 129.211 178.778 129.735 183.131C129.341 181.757 128.926 180.344 128.032 179.228C127.137 178.113 125.63 177.358 124.258 177.768C121.989 178.446 121.618 181.529 122.168 183.826C123.626 189.918 129.152 199.764 129.152 199.764C121.977 202.587 113.429 199.918 107.893 194.563C102.357 189.207 99.474 181.624 98.2181 174.035C97.1531 167.6 97.304 160.472 101.201 155.234Z" fill="#2F2E41"/>
<path d="M366.339 190.326C371.321 178.937 368.499 168.456 362.426 162.897V162.892C360.039 157.557 356.865 153.44 353.233 152.473C351.477 151.348 349.773 150.027 347.882 149.355C347.001 149.026 346.063 148.879 345.123 148.921C344.184 148.964 343.262 149.195 342.415 149.603L341.451 149.346C340.631 147.259 339.672 147.217 338.605 148.59C334.495 146.68 330.792 145.826 327.497 145.826C316.749 145.826 310.392 154.901 308.707 165.87L317.69 168.256L320.812 163.294L319.371 168.704L324.328 170.015C331.873 179.813 322.844 202.416 311.399 214.991C314.123 214.239 316.837 213.605 319.539 213.086L329.36 198.728L323.274 211.798C326.434 211.336 330.464 211.779 334.869 212.671C336.353 210.738 337.135 208.162 336.367 205.865C337.622 208.287 338.488 210.891 338.932 213.581C348.229 215.845 360.909 217.007 367.744 217.866C373.265 216.069 373.28 195.768 366.339 190.326Z" fill="#2F2E41"/>
<path d="M369.58 151.587C373.229 159.734 365.867 163.238 359.122 163.139C353.028 163.05 347.849 158.78 347.538 152.71C347.388 149.795 348.406 146.941 350.367 144.774C352.329 142.608 355.072 141.307 357.996 141.158C364.082 140.848 367.095 146.037 369.58 151.587Z" fill="#2F2E41"/>
<path d="M200.315 284.21L194.305 274.213L214.288 259.095L222.597 250.346C223.676 249.21 225.036 248.376 226.54 247.927C228.044 247.479 229.64 247.432 231.168 247.791C232.696 248.151 234.102 248.904 235.247 249.975C236.391 251.046 237.234 252.398 237.691 253.896C238.367 256.115 238.153 258.51 237.092 260.575C236.032 262.639 234.208 264.212 232.007 264.962L219.096 269.357L200.315 284.21Z" fill="#A0616A"/>
<path d="M204.659 283.88L195.302 291.657L192.778 293.753L192.484 293.996C191.833 294.318 191.178 294.635 190.518 294.948C188.542 295.886 186.542 296.778 184.517 297.623C179.188 299.845 173.72 301.721 168.147 303.238C167.089 303.528 166.027 303.803 164.96 304.065C164.309 304.223 163.654 304.382 162.998 304.531C162.586 304.629 162.17 304.723 161.753 304.811C161.248 304.923 160.742 305.035 160.236 305.138C159.707 305.25 159.179 305.358 158.65 305.46C157.226 304.11 156.093 302.485 155.319 300.684C154.545 298.883 154.146 296.945 154.146 294.985C154.146 294.859 154.146 294.729 154.151 294.598L155.654 256.167L156.318 239.134C156.421 235.282 158.03 231.622 160.802 228.938C163.574 226.253 167.288 224.756 171.152 224.766C171.602 224.766 172.047 224.789 172.487 224.831C172.805 225.242 173.1 225.667 173.385 226.096C174.162 227.244 175.211 229.06 176.447 231.338C176.957 232.276 177.495 233.294 178.062 234.372C178.403 235.021 181.352 244.198 184.222 253.572L182.958 263.36L180.674 281.005L190.045 274.871L196.645 270.549L197.427 271.851L199.463 275.24L203.395 281.775L204.659 283.88Z" fill="#3F3D56"/>
<path d="M199.529 272.898C199.524 273.692 199.505 274.471 199.463 275.241C199.365 277.366 199.118 279.481 198.723 281.571C198.077 285.081 196.925 288.478 195.302 291.658C195.086 292.083 194.857 292.503 194.623 292.914C194.019 293.232 193.406 293.54 192.793 293.848C192.69 293.899 192.587 293.95 192.484 293.997C189.876 295.29 187.221 296.499 184.517 297.624C179.188 299.847 173.72 301.723 168.147 303.24C167.089 303.529 166.027 303.804 164.96 304.066C162.877 304.579 160.773 305.045 158.65 305.462C150.006 307.155 141.217 308.005 132.408 308.001C131.823 308.001 131.243 307.996 130.657 307.992C130.48 307.992 130.302 307.987 130.119 307.982C129.604 307.973 129.071 307.964 128.528 307.95C118.118 307.663 107.776 306.176 97.7081 303.52C96.9077 303.31 96.1104 303.092 95.3162 302.866C87.6629 300.696 80.2188 297.849 73.0722 294.361C65.2176 278.243 66.6921 269.635 65.269 250.086C68.19 242.809 117.607 247.948 155.654 256.168C165.98 258.399 175.464 260.859 182.958 263.361C190.7 265.943 196.313 268.566 198.513 271.031C199.027 271.541 199.38 272.19 199.529 272.898Z" fill="#2F2E41"/>
<path opacity="0.2" d="M65.2719 253.433C65.1992 252.222 65.118 250.972 65.0232 249.67C69.7697 237.851 197.134 258.778 199.283 272.483C199.277 273.739 199.223 274.959 199.132 276.149C193.929 262.622 72.9312 242.733 65.2719 253.433Z" fill="black"/>
<g clip-path="url(#clip1_1675_16034)">
<path d="M285.695 175.725H291.981V169.416L285.695 175.725ZM291.981 156.855H285.695V163.137L279.409 169.416V175.727L285.695 175.725V169.416L291.981 163.136V156.855ZM285.695 156.855H279.409V163.137L285.695 156.855ZM276.699 169.416H264.127L276.699 156.855H270.413L257.841 169.416V174.526H270.413V180.806H276.699V169.416Z" fill="#E6E6E6"/>
</g>
</g>
<defs>
<clipPath id="clip0_1675_16034">
<rect width="412" height="269" fill="white" transform="translate(29 39)"/>
</clipPath>
<clipPath id="clip1_1675_16034">
<rect width="34.1406" height="34.1094" fill="white" transform="translate(257.841 151.775)"/>
</clipPath>
</defs>
</svg>
