<svg width="470" height="348" viewBox="0 0 470 348" fill="none" xmlns="http://www.w3.org/2000/svg">
<g clip-path="url(#clip0_1689_17035)">
<path d="M391.446 319.867C393.381 319.989 394.451 317.585 392.987 316.184L392.841 315.605C392.86 315.558 392.88 315.512 392.899 315.466C394.856 310.8 401.489 310.832 403.43 315.505C405.152 319.652 407.345 323.806 407.885 328.191C408.127 330.127 408.018 332.099 407.588 333.998C411.624 325.185 413.747 315.561 413.747 305.882C413.747 303.45 413.614 301.019 413.342 298.593C413.118 296.609 412.81 294.637 412.41 292.683C410.25 282.121 405.573 272.062 398.827 263.66C395.584 261.887 392.88 259.117 391.246 255.796C390.659 254.598 390.199 253.31 389.981 251.997C390.351 252.045 391.373 246.426 391.095 246.081C391.609 245.301 392.53 244.913 393.091 244.151C395.885 240.365 399.734 241.026 401.743 246.172C406.036 248.338 406.077 251.93 403.444 255.385C401.768 257.582 401.538 260.557 400.067 262.91C400.219 263.103 400.376 263.291 400.527 263.484C403.301 267.041 405.7 270.864 407.723 274.881C407.151 270.417 407.995 265.039 409.434 261.573C411.071 257.623 414.141 254.297 416.844 250.882C420.091 246.781 426.748 248.571 427.321 253.77C427.326 253.82 427.331 253.87 427.337 253.921C426.935 254.147 426.542 254.388 426.158 254.642C423.966 256.091 424.724 259.487 427.32 259.888L427.379 259.897C427.234 261.343 426.986 262.776 426.623 264.186C430.09 277.593 422.604 282.477 411.914 282.696C411.678 282.817 411.448 282.938 411.212 283.053C412.295 286.102 413.161 289.229 413.802 292.399C414.377 295.2 414.776 298.031 415 300.874C415.278 304.461 415.254 308.066 414.952 311.647L414.97 311.52C415.738 307.576 417.88 303.892 420.99 301.339C425.623 297.535 432.168 296.133 437.166 293.075C439.572 291.603 442.655 293.505 442.235 296.294L442.215 296.428C441.47 296.73 440.744 297.081 440.043 297.474C439.641 297.701 439.248 297.941 438.864 298.195C436.672 299.644 437.429 303.041 440.026 303.442L440.085 303.451C440.127 303.457 440.164 303.463 440.206 303.469C438.929 306.499 437.151 309.312 434.924 311.738C432.756 323.442 423.443 324.553 413.481 321.144H413.475C412.386 325.887 410.795 330.52 408.75 334.936H391.869C391.809 334.749 391.754 334.555 391.7 334.367C393.261 334.464 394.834 334.373 396.371 334.089C395.118 332.553 393.866 331.004 392.613 329.468C392.583 329.437 392.559 329.407 392.535 329.377C391.899 328.591 391.258 327.81 390.623 327.024L390.622 327.023C390.583 324.609 390.873 322.202 391.446 319.867Z" fill="#F2F2F2"/>
<path d="M159.419 334.886C159.419 335.504 159.915 336 160.534 336H455.885C456.503 336 457 335.504 457 334.886C457 334.268 456.503 333.771 455.885 333.771H160.534C159.915 333.771 159.419 334.268 159.419 334.886Z" fill="#CCCCCC"/>
<path d="M299.693 23.8457H31.8172C21.9906 23.8457 14 31.8345 14 41.6589V317.905C14 327.729 21.9906 335.718 31.8172 335.718H299.693C309.52 335.718 317.511 327.729 317.511 317.905V41.6589C317.511 31.8345 309.52 23.8457 299.693 23.8457ZM315.637 317.905C315.637 326.699 308.49 333.845 299.693 333.845H31.8172C23.021 333.845 15.8735 326.699 15.8735 317.905V41.6589C15.8735 32.8647 23.021 25.7188 31.8172 25.7188H299.693C308.49 25.7188 315.637 32.8647 315.637 41.6589V317.905Z" fill="#3F3D56"/>
<path d="M134.87 41.9688H108.585C107.264 41.9688 106.187 43.0458 106.187 44.3663C106.187 45.6962 107.264 46.7733 108.585 46.7733H134.87C136.191 46.7733 137.269 45.6962 137.269 44.3663C137.269 43.0458 136.191 41.9688 134.87 41.9688Z" fill="#E6E6E6"/>
<path d="M178.898 41.9688H152.613C151.292 41.9688 150.215 43.0458 150.215 44.3663C150.215 45.6962 151.292 46.7733 152.613 46.7733H178.898C180.219 46.7733 181.296 45.6962 181.296 44.3663C181.296 43.0458 180.219 41.9688 178.898 41.9688Z" fill="#E6E6E6"/>
<path d="M222.926 41.9688H196.641C195.32 41.9688 194.242 43.0458 194.242 44.3663C194.242 45.6962 195.32 46.7733 196.641 46.7733H222.926C224.247 46.7733 225.324 45.6962 225.324 44.3663C225.324 43.0458 224.247 41.9688 222.926 41.9688Z" fill="#E6E6E6"/>
<path d="M96.0602 89.873H63.0862C59.0019 89.873 55.6858 93.1884 55.6858 97.2718V116.19C55.6858 120.274 59.0019 123.589 63.0862 123.589H96.0602C100.145 123.589 103.461 120.274 103.461 116.19V97.2718C103.461 93.1884 100.145 89.873 96.0602 89.873Z" fill="#F2F2F2"/>
<path d="M96.0602 139.51H63.0862C59.0019 139.51 55.6858 142.825 55.6858 146.909V165.827C55.6858 169.91 59.0019 173.226 63.0862 173.226H96.0602C100.145 173.226 103.461 169.91 103.461 165.827V146.909C103.461 142.825 100.145 139.51 96.0602 139.51Z" fill="#E6E6E6"/>
<path d="M96.0602 189.148H63.0862C59.0019 189.148 55.6858 192.464 55.6858 196.547V215.466C55.6858 219.549 59.0019 222.864 63.0862 222.864H96.0602C100.145 222.864 103.461 219.549 103.461 215.466V196.547C103.461 192.464 100.145 189.148 96.0602 189.148Z" fill="#E6E6E6"/>
<path d="M169.128 89.873H136.154C132.069 89.873 128.753 93.1884 128.753 97.2718V116.19C128.753 120.274 132.069 123.589 136.154 123.589H169.128C173.212 123.589 176.528 120.274 176.528 116.19V97.2718C176.528 93.1884 173.212 89.873 169.128 89.873Z" fill="#E6E6E6"/>
<path d="M169.128 139.51H136.154C132.069 139.51 128.753 142.825 128.753 146.909V165.827C128.753 169.91 132.069 173.226 136.154 173.226H169.128C173.212 173.226 176.528 169.91 176.528 165.827V146.909C176.528 142.825 173.212 139.51 169.128 139.51Z" fill="#F2F2F2"/>
<path d="M242.195 139.51H209.221C205.137 139.51 201.821 142.825 201.821 146.909V165.827C201.821 169.91 205.137 173.226 209.221 173.226H242.195C246.28 173.226 249.596 169.91 249.596 165.827V146.909C249.596 142.825 246.28 139.51 242.195 139.51Z" fill="#E6E6E6"/>
<path d="M266.279 280.93H65.2316C56.8663 280.93 50.0654 287.729 50.0654 296.092V309.785C50.0654 318.148 56.8663 324.948 65.2316 324.948H266.279C274.645 324.948 281.445 318.148 281.445 309.785V296.092C281.445 287.729 274.645 280.93 266.279 280.93Z" fill="#F2F2F2"/>
<path d="M303.488 109.844L258.651 140.65L253.123 134.675L294.37 100.123L303.488 109.844Z" fill="#A0616A"/>
<path d="M255.195 145.899C259.608 142.355 261.48 137.359 259.375 134.739C257.271 132.119 251.987 132.868 247.574 136.412C243.161 139.956 241.29 144.952 243.394 147.571C245.499 150.191 250.782 149.442 255.195 145.899Z" fill="#A0616A"/>
<path d="M326.51 330.613L317.99 330.613L313.937 297.758L326.512 297.759L326.51 330.613Z" fill="#A0616A"/>
<path d="M297.32 330.421C297.055 330.867 296.915 332.309 296.915 332.828C296.915 334.425 298.21 335.719 299.807 335.719H326.191C327.281 335.719 328.164 334.836 328.164 333.747V332.649C328.164 332.649 329.469 329.348 326.782 325.28C326.782 325.28 323.442 328.465 318.451 323.476L316.98 320.811L306.327 328.6L300.422 329.326C299.13 329.485 297.985 329.302 297.32 330.421Z" fill="#2F2E41"/>
<path d="M355.302 330.613L346.782 330.613L342.729 297.758L355.303 297.759L355.302 330.613Z" fill="#A0616A"/>
<path d="M326.112 330.421C325.847 330.867 325.707 332.309 325.707 332.828C325.707 334.425 327.001 335.719 328.598 335.719H354.983C356.072 335.719 356.956 334.836 356.956 333.747V332.649C356.956 332.649 358.261 329.348 355.574 325.28C355.574 325.28 352.234 328.465 347.243 323.476L345.771 320.811L335.118 328.6L329.214 329.326C327.922 329.485 326.777 329.302 326.112 330.421Z" fill="#2F2E41"/>
<path d="M311.846 147.488L302.086 241.162C302.086 241.162 308.918 305.076 310.382 305.076C311.846 305.076 313.31 306.282 311.846 307.63C310.382 308.979 308.43 309.954 310.382 309.954C312.334 309.954 312.571 309.359 312.452 311.364C312.334 313.37 310.87 314.833 310.87 314.833L330.878 313.37L328.438 247.993L337.71 195.789C337.71 195.789 340.638 304.588 341.614 305.563C342.59 306.539 342.59 304.1 342.59 306.539C342.59 308.979 341.614 309.954 341.614 309.954L341.568 314.833H356.092L376.749 179.201L373.333 145.049L311.846 147.488Z" fill="#2F2E41"/>
<path d="M359.669 46.4961H342.102L331.562 49.1333C325.87 52.5122 315.666 62.5682 315.923 69.1815L318.19 127.485C318.19 127.485 310.426 145.779 311.89 145.779C313.354 145.779 306.234 151.636 306.234 155.051C306.234 158.466 303.794 157.978 305.258 159.442C306.722 160.905 376.749 159.442 376.749 159.442C376.749 159.442 377.481 157.978 377.481 155.539C377.481 153.099 378.934 151.647 378.934 151.647V147.066L374.553 131.144L382.361 59.913L359.669 46.4961Z" fill="#FFCB47"/>
<path d="M271.988 117.653L277.97 128.008C281.237 126.03 297.016 116.553 299.745 116.333C300.773 116.25 301.003 116.057 301.049 115.999C301.094 115.942 301.081 115.815 301.054 115.612C301.011 115.298 300.947 114.822 301.316 114.416C301.856 113.82 302.331 114.179 302.56 114.351C302.915 114.619 303.51 115.067 305.428 114.795C305.919 114.726 306.228 114.666 306.422 114.62L306.4 114.6C305.982 114.206 305.282 113.546 305.231 112.487C305.185 111.539 305.173 111.284 305.519 111.121C305.838 110.971 306.087 111.196 306.235 111.329C306.485 111.557 306.897 111.929 307.744 111.897C309.912 111.188 330.058 82.1066 333.991 70.5213C334.971 67.6367 334.85 64.9578 333.632 62.5606C331.296 57.9643 325.578 55.6618 324.167 55.1523L295.568 95.2806L271.988 117.653Z" fill="#FFCB47"/>
<path d="M351.196 42.7424C361.647 42.7424 370.119 34.2721 370.119 23.8234C370.119 13.3746 361.647 4.9043 351.196 4.9043C340.745 4.9043 332.272 13.3746 332.272 23.8234C332.272 34.2721 340.745 42.7424 351.196 42.7424Z" fill="#A0616A"/>
<path d="M374.09 12.3245C372.427 8.75906 368.741 5.98867 364.812 6.1908C365.048 5.20114 364.61 4.14203 363.904 3.40904C363.198 2.6761 362.258 2.21742 361.316 1.83227C356.659 -0.0713646 351.415 -0.508089 346.508 0.599095C346.016 -0.0828282 339.012 1.63826 339.849 2.00364C340.687 2.36908 337.625 3.24184 337.48 4.14392C337.322 5.13227 336.274 5.73819 335.285 5.89236C334.296 6.04658 333.275 5.89647 332.291 6.08385C330.309 6.46142 332.527 8.89786 332.499 10.9151C332.471 12.9323 330.198 14.3148 332.169 14.748C334.203 15.1951 331.39 18.7962 333.436 18.4075C338.065 17.5283 358.278 15.6539 360.077 20.0076C360.576 21.2164 360.889 22.5862 361.871 23.4508C363.207 24.6278 365.433 24.5332 366.526 25.9388C367.407 27.072 367.155 28.7356 366.503 30.0145C365.852 31.2934 364.861 32.3827 364.27 33.691C363.479 35.445 363.483 37.3989 363.709 39.3385C363.884 39.2473 364.153 39.1561 364.556 39.0649L364.382 39.0868C369.432 35.4091 373.142 29.9324 374.685 23.8795C375.656 20.0672 375.753 15.89 374.09 12.3245Z" fill="#2F2E41"/>
<path d="M387.395 169.949H354.417C350.59 169.949 347.487 173.051 347.487 176.878V195.8C347.487 199.627 350.59 202.729 354.417 202.729H387.395C391.223 202.729 394.325 199.627 394.325 195.8V176.878C394.325 173.051 391.223 169.949 387.395 169.949Z" fill="#FFCB47"/>
<path d="M393.97 117.049L375.263 168.124L367.296 166.455L380.905 114.404L393.97 117.049Z" fill="#A0616A"/>
<path d="M375.486 174.405C377.031 168.961 375.663 163.805 372.43 162.887C369.196 161.97 365.323 165.64 363.778 171.084C362.233 176.528 363.602 181.685 366.835 182.602C370.068 183.519 373.941 179.849 375.486 174.405Z" fill="#A0616A"/>
<path d="M363.412 49.1328C363.412 49.1328 383.825 52.5942 388.705 63.8156C393.585 75.037 398.465 111.141 397.001 112.604C395.537 114.068 394.073 112.604 395.537 114.068C397.001 115.532 399.481 113.603 397.265 116.275C395.049 118.947 394.073 117.483 394.073 118.459C394.073 119.435 396.025 119.17 394.073 121.254C392.121 123.338 385.777 144.805 385.777 144.805L373.577 140.902L376.017 108.213L363.412 49.1328Z" fill="#FFCB47"/>
<path d="M265.616 142.789H232.638C228.811 142.789 225.708 145.891 225.708 149.717V168.64C225.708 172.467 228.811 175.568 232.638 175.568H265.616C269.443 175.568 272.546 172.467 272.546 168.64V149.717C272.546 145.891 269.443 142.789 265.616 142.789Z" fill="#3F3D56"/>
</g>
<defs>
<clipPath id="clip0_1689_17035">
<rect width="443" height="336" fill="white" transform="translate(14)"/>
</clipPath>
</defs>
</svg>
