<svg width="32" height="27" viewBox="0 0 32 27" fill="none" xmlns="http://www.w3.org/2000/svg">
<path d="M19.7702 2.25V13.5C19.7702 14.7375 18.5838 15.75 17.1337 15.75H2.63281V6.75C2.63281 4.26375 4.9925 2.25 7.90585 2.25H19.7702Z" stroke="white" stroke-width="1.5" stroke-linecap="round" stroke-linejoin="round"/>
<path d="M28.998 15.75V19.125C28.998 20.9925 27.2315 22.5 25.0432 22.5H23.725C23.725 21.2625 22.5385 20.25 21.0884 20.25C19.6384 20.25 18.4519 21.2625 18.4519 22.5H13.1789C13.1789 21.2625 11.9925 20.25 10.5424 20.25C9.09229 20.25 7.90585 21.2625 7.90585 22.5H6.58759C4.39928 22.5 2.63281 20.9925 2.63281 19.125V15.75H17.1337C18.5838 15.75 19.7702 14.7375 19.7702 13.5V5.625H22.1958C23.1449 5.625 24.015 6.06376 24.4895 6.76126L26.7438 10.125H25.0432C24.3182 10.125 23.725 10.6312 23.725 11.25V14.625C23.725 15.2438 24.3182 15.75 25.0432 15.75H28.998Z" stroke="white" stroke-width="1.5" stroke-linecap="round" stroke-linejoin="round"/>
<path d="M10.5428 24.75C11.9989 24.75 13.1793 23.7426 13.1793 22.5C13.1793 21.2574 11.9989 20.25 10.5428 20.25C9.08666 20.25 7.90625 21.2574 7.90625 22.5C7.90625 23.7426 9.08666 24.75 10.5428 24.75Z" stroke="white" stroke-width="1.5" stroke-linecap="round" stroke-linejoin="round"/>
<path d="M21.0896 24.75C22.5458 24.75 23.7262 23.7426 23.7262 22.5C23.7262 21.2574 22.5458 20.25 21.0896 20.25C19.6335 20.25 18.4531 21.2574 18.4531 22.5C18.4531 23.7426 19.6335 24.75 21.0896 24.75Z" stroke="white" stroke-width="1.5" stroke-linecap="round" stroke-linejoin="round"/>
<path d="M28.9996 13.5V15.75H25.0448C24.3198 15.75 23.7266 15.2438 23.7266 14.625V11.25C23.7266 10.6312 24.3198 10.125 25.0448 10.125H26.7454L28.9996 13.5Z" stroke="white" stroke-width="1.5" stroke-linecap="round" stroke-linejoin="round"/>
</svg>
