<svg width="32" height="32" viewBox="0 0 32 32" fill="none" xmlns="http://www.w3.org/2000/svg">
<path d="M24 25.1463H22.9867C21.92 25.1463 20.9067 25.5596 20.16 26.3063L17.88 28.5597C16.84 29.5863 15.1466 29.5863 14.1066 28.5597L11.8267 26.3063C11.08 25.5596 10.0533 25.1463 9 25.1463H8C5.78667 25.1463 4 23.373 4 21.1864V6.63965C4 4.45298 5.78667 2.67969 8 2.67969H24C26.2133 2.67969 28 4.45298 28 6.63965V21.1864C28 23.3597 26.2133 25.1463 24 25.1463Z" stroke="white" stroke-width="1.5" stroke-miterlimit="10" stroke-linecap="round" stroke-linejoin="round"/>
<path d="M16.3733 19.9473C16.1733 20.014 15.84 20.014 15.6267 19.9473C13.8933 19.3473 10 16.8807 10 12.6807C10 10.8273 11.4933 9.33398 13.3333 9.33398C14.4267 9.33398 15.3867 9.85398 16 10.6673C16.6133 9.85398 17.5733 9.33398 18.6667 9.33398C20.5067 9.33398 22 10.8273 22 12.6807C21.9867 16.8807 18.1067 19.3473 16.3733 19.9473Z" stroke="white" stroke-width="1.5" stroke-linecap="round" stroke-linejoin="round"/>
</svg>
