<svg width="32" height="32" viewBox="0 0 32 32" fill="none" xmlns="http://www.w3.org/2000/svg">
<path d="M19.75 5.33203V16.9987C19.75 18.282 18.625 19.332 17.25 19.332H3.5V9.9987C3.5 7.42036 5.7375 5.33203 8.5 5.33203H19.75Z" stroke="white" stroke-width="1.5" stroke-linecap="round" stroke-linejoin="round"/>
<path d="M28.5 19.332V22.832C28.5 24.7687 26.825 26.332 24.75 26.332H23.5C23.5 25.0487 22.375 23.9987 21 23.9987C19.625 23.9987 18.5 25.0487 18.5 26.332H13.5C13.5 25.0487 12.375 23.9987 11 23.9987C9.625 23.9987 8.5 25.0487 8.5 26.332H7.25C5.175 26.332 3.5 24.7687 3.5 22.832V19.332H17.25C18.625 19.332 19.75 18.282 19.75 16.9987V8.83203H22.05C22.95 8.83203 23.775 9.28704 24.225 10.0104L26.3625 13.4987H24.75C24.0625 13.4987 23.5 14.0237 23.5 14.6654V18.1654C23.5 18.807 24.0625 19.332 24.75 19.332H28.5Z" stroke="white" stroke-width="1.5" stroke-linecap="round" stroke-linejoin="round"/>
<path d="M11 28.6667C12.3807 28.6667 13.5 27.622 13.5 26.3333C13.5 25.0447 12.3807 24 11 24C9.61929 24 8.5 25.0447 8.5 26.3333C8.5 27.622 9.61929 28.6667 11 28.6667Z" stroke="white" stroke-width="1.5" stroke-linecap="round" stroke-linejoin="round"/>
<path d="M21 28.6667C22.3807 28.6667 23.5 27.622 23.5 26.3333C23.5 25.0447 22.3807 24 21 24C19.6193 24 18.5 25.0447 18.5 26.3333C18.5 27.622 19.6193 28.6667 21 28.6667Z" stroke="white" stroke-width="1.5" stroke-linecap="round" stroke-linejoin="round"/>
<path d="M28.5 17V19.3333H24.75C24.0625 19.3333 23.5 18.8083 23.5 18.1667V14.6667C23.5 14.025 24.0625 13.5 24.75 13.5H26.3625L28.5 17Z" stroke="white" stroke-width="1.5" stroke-linecap="round" stroke-linejoin="round"/>
</svg>
