<svg width="32" height="32" viewBox="0 0 32 32" fill="none" xmlns="http://www.w3.org/2000/svg">
<path d="M23.5 24.4807H22.55C21.55 24.4807 20.6 24.8575 19.9 25.5382L17.7625 28.2981C16.7875 29.234 15.1999 29.234 14.2249 28.2981L12.0875 25.5382C11.3875 24.8575 10.425 24.4807 9.4375 24.4807H8.5C6.425 24.4807 3 22.8642 3 20.8708V7.60992C3 5.61654 4.925 4 7 4H24.5C26.575 4 29 5.61654 29 7.60992V20.8708C29 22.852 25.575 24.4807 23.5 24.4807Z" stroke="white" stroke-width="1.5" stroke-miterlimit="10" stroke-linecap="round" stroke-linejoin="round"/>
<path d="M16.35 19.7C16.1625 19.7625 15.85 19.7625 15.65 19.7C14.025 19.1375 10.375 16.8251 10.375 12.8876C10.375 11.15 11.775 9.75 13.5 9.75C14.525 9.75 15.425 10.2375 16 11C16.575 10.2375 17.475 9.75 18.5 9.75C20.225 9.75 21.625 11.15 21.625 12.8876C21.6125 16.8251 17.975 19.1375 16.35 19.7Z" stroke="white" stroke-width="1.5" stroke-linecap="round" stroke-linejoin="round"/>
</svg>
