<svg width="85" height="85" viewBox="0 0 138 138" fill="none" xmlns="http://www.w3.org/2000/svg">
<path d="M68.9437 0C30.867 0 0 30.8667 0 68.943C0 107.02 30.867 137.887 68.9437 137.887C107.021 137.887 137.888 107.02 137.888 68.943C137.888 30.8667 107.021 0 68.9437 0Z" fill="#DE5A00"/>
<path d="M68.9437 0C30.867 0 0 30.8667 0 68.943C0 107.02 30.867 137.887 68.9437 137.887C107.021 137.887 137.888 107.02 137.888 68.943C137.888 30.8667 107.021 0 68.9437 0Z" fill="#EF7B00"/>
<path d="M68.9437 0C30.867 0 0 30.8667 0 68.943C0 107.02 30.867 137.887 68.9437 137.887C107.021 137.887 137.888 107.02 137.888 68.943C137.888 30.8667 107.021 0 68.9437 0ZM68.9437 119.946C40.7752 119.946 17.9403 97.1112 17.9403 68.943C17.9403 40.7748 40.7752 17.9402 68.9437 17.9402C97.1121 17.9402 119.947 40.7748 119.947 68.943C119.947 97.1112 97.1121 119.946 68.9437 119.946Z" fill="#DE5A00"/>
<path d="M81.815 65.3767C79.2891 64.3855 76.2635 63.4818 72.7461 62.6625V47.1469C73.9152 47.581 74.8822 48.2102 75.6433 49.0387C76.214 49.66 76.6826 50.3401 77.0496 51.0795C78.4075 53.8158 81.2587 55.6448 84.5025 55.6448H84.9619C91.3648 55.6448 95.4301 49.1425 92.1131 44.0554C91.0092 42.3623 89.6239 40.8115 87.9572 39.4034C83.965 36.0319 78.8943 34.0249 72.7461 33.3808V29.7792C72.7461 27.6899 71.0526 25.9961 68.9636 25.9961C66.8743 25.9961 65.1805 27.6899 65.1805 29.7792V33.2677C58.8511 33.751 53.6188 35.7836 49.4886 39.371C44.7146 43.5179 42.3281 48.6842 42.3281 54.8715C42.3281 65.4202 49.9472 72.4433 65.1805 75.9457V91.9296C63.1903 91.5298 61.5036 90.7587 60.1244 89.6102C59.0654 88.7296 58.2519 87.656 57.6823 86.3888C56.4707 83.691 53.5424 82.0051 50.3959 82.0051C44.329 82.0051 40.4142 88.0737 43.3906 92.9839C43.5494 93.246 43.7148 93.5075 43.886 93.7668C46.2828 97.3983 49.5877 100.255 53.8028 102.339C57.1993 104.018 60.9925 105.02 65.1805 105.345V108.124C65.1805 110.213 66.8743 111.907 68.9636 111.907C71.0526 111.907 72.7461 110.213 72.7461 108.124V105.244C78.7698 104.633 83.8306 102.742 87.9272 99.5672C92.9994 95.636 95.5371 90.4912 95.5371 84.1318C95.5371 75.2374 90.9621 68.9861 81.815 65.3767ZM61.7122 58.9639C59.8943 57.697 58.9859 56.0314 58.9859 53.9692C58.9859 51.7779 59.7845 49.9731 61.3827 48.5554C62.3874 47.6634 63.6539 47.0531 65.1805 46.7222V60.6648C63.7399 60.137 62.5814 59.5706 61.7122 58.9639ZM76.153 90.2219C75.2488 90.9427 74.1086 91.4648 72.7461 91.8023V78.1442C73.8507 78.5854 74.7876 79.0451 75.5534 79.5238C77.651 80.8349 78.6996 82.6278 78.6996 84.9051C78.6996 87.0961 77.8503 88.8683 76.153 90.2219Z" fill="#DE5A00"/>
<path d="M68.9437 0C30.867 0 0 30.8667 0 68.943C0 107.02 30.867 137.887 68.9437 137.887C107.021 137.887 137.888 107.02 137.888 68.943C137.888 30.8667 107.021 0 68.9437 0ZM68.9437 119.946C40.7752 119.946 17.9403 97.1112 17.9403 68.943C17.9403 40.7748 40.7752 17.9402 68.9437 17.9402C97.1121 17.9402 119.947 40.7748 119.947 68.943C119.947 97.1112 97.1121 119.946 68.9437 119.946Z" fill="#FFC711"/>
<path d="M81.815 65.3767C79.2891 64.3855 76.2635 63.4818 72.7461 62.6625V47.1469C73.9152 47.581 74.8822 48.2102 75.6433 49.0387C76.214 49.66 76.6826 50.3401 77.0496 51.0795C78.4075 53.8158 81.2587 55.6448 84.5025 55.6448H84.9619C91.3648 55.6448 95.4301 49.1425 92.1131 44.0554C91.0092 42.3623 89.6239 40.8115 87.9572 39.4034C83.965 36.0319 78.8943 34.0249 72.7461 33.3808V29.7792C72.7461 27.6899 71.0526 25.9961 68.9636 25.9961C66.8743 25.9961 65.1805 27.6899 65.1805 29.7792V33.2677C58.8511 33.751 53.6188 35.7836 49.4886 39.371C44.7146 43.5179 42.3281 48.6842 42.3281 54.8715C42.3281 65.4202 49.9472 72.4433 65.1805 75.9457V91.9296C63.1903 91.5298 61.5036 90.7587 60.1244 89.6102C59.0654 88.7296 58.2519 87.656 57.6823 86.3888C56.4707 83.691 53.5424 82.0051 50.3959 82.0051C44.329 82.0051 40.4142 88.0737 43.3906 92.9839C43.5494 93.246 43.7148 93.5075 43.886 93.7668C46.2828 97.3983 49.5877 100.255 53.8028 102.339C57.1993 104.018 60.9925 105.02 65.1805 105.345V108.124C65.1805 110.213 66.8743 111.907 68.9636 111.907C71.0526 111.907 72.7461 110.213 72.7461 108.124V105.244C78.7698 104.633 83.8306 102.742 87.9272 99.5672C92.9994 95.636 95.5371 90.4912 95.5371 84.1318C95.5371 75.2374 90.9621 68.9861 81.815 65.3767ZM61.7122 58.9639C59.8943 57.697 58.9859 56.0314 58.9859 53.9692C58.9859 51.7779 59.7845 49.9731 61.3827 48.5554C62.3874 47.6634 63.6539 47.0531 65.1805 46.7222V60.6648C63.7399 60.137 62.5814 59.5706 61.7122 58.9639ZM76.153 90.2219C75.2488 90.9427 74.1086 91.4648 72.7461 91.8023V78.1442C73.8507 78.5854 74.7876 79.0451 75.5534 79.5238C77.651 80.8349 78.6996 82.6278 78.6996 84.9051C78.6996 87.0961 77.8503 88.8683 76.153 90.2219Z" fill="#FFC711"/>
</svg>
