<svg width="32" height="32" viewBox="0 0 32 32" fill="none" xmlns="http://www.w3.org/2000/svg">
<path d="M22.4985 6H9.49564C4.51555 6 3.11703 7.35667 3 12.0554C5.50955 12.0554 7.54521 13.9668 7.54521 16.4999C7.54521 19.0331 5.51677 21.0806 3.00722 21.0938C3.12425 25.7925 4.51555 27 9.49564 27H22.4985C27.6997 27 29 26.0455 29 20.7955V12.9205C29 7.67051 27.6997 6 22.4985 6Z" stroke="white" stroke-width="1.5" stroke-linecap="round" stroke-linejoin="round"/>
<path d="M12.6172 6.16797V10.6888" stroke="white" stroke-width="1.5" stroke-linecap="round" stroke-linejoin="round"/>
<path d="M12.6172 22.3125V26.8333" stroke="white" stroke-width="1.5" stroke-linecap="round" stroke-linejoin="round"/>
<path d="M20.4065 13.0503L21.2074 14.6649C21.2849 14.8199 21.4399 14.9361 21.6078 14.962L23.3903 15.2203C23.8295 15.2849 24.0103 15.8274 23.6874 16.1374L22.3957 17.3903C22.2665 17.5066 22.2149 17.6874 22.2407 17.8682L22.5507 19.6378C22.6282 20.077 22.1632 20.4128 21.7757 20.2061L20.187 19.3666C20.032 19.2891 19.8382 19.2891 19.6832 19.3666L18.0945 20.2061C17.694 20.4128 17.242 20.077 17.3195 19.6378L17.6295 17.8682C17.6553 17.6874 17.6036 17.5195 17.4745 17.3903L16.1957 16.1374C15.8728 15.8274 16.0536 15.2849 16.4928 15.2203L18.2753 14.962C18.4561 14.9361 18.5982 14.8328 18.6757 14.6649L19.4636 13.0503C19.6445 12.6499 20.2128 12.6499 20.4065 13.0503Z" stroke="white" stroke-width="1.5" stroke-linecap="round" stroke-linejoin="round"/>
</svg>
