<svg width="32" height="32" viewBox="0 0 32 32" fill="none" xmlns="http://www.w3.org/2000/svg">
<path d="M4.01562 14.9609V20.9476C4.01562 26.9343 6.41563 29.3343 12.4023 29.3343H19.589C25.5756 29.3343 27.9756 26.9343 27.9756 20.9476V14.9609" stroke="current" stroke-width="1.5" stroke-linecap="round" stroke-linejoin="round"/>
<path d="M15.998 15.9993C18.438 15.9993 20.238 14.0127 19.998 11.5727L19.118 2.66602H12.8914L11.998 11.5727C11.758 14.0127 13.558 15.9993 15.998 15.9993Z" stroke="current" stroke-width="1.5" stroke-linecap="round" stroke-linejoin="round"/>
<path d="M24.417 15.9993C27.1103 15.9993 29.0836 13.8127 28.817 11.1327L28.4436 7.46602C27.9636 3.99935 26.6303 2.66602 23.137 2.66602H19.0703L20.0036 12.0127C20.2303 14.2127 22.217 15.9993 24.417 15.9993Z" stroke="current" stroke-width="1.5" stroke-linecap="round" stroke-linejoin="round"/>
<path d="M7.51789 15.9993C9.71789 15.9993 11.7046 14.2127 11.9179 12.0127L12.2112 9.06602L12.8512 2.66602H8.78456C5.29122 2.66602 3.95789 3.99935 3.47789 7.46602L3.11789 11.1327C2.85122 13.8127 4.82456 15.9993 7.51789 15.9993Z" stroke="current" stroke-width="1.5" stroke-linecap="round" stroke-linejoin="round"/>
<path d="M15.9974 22.666C13.7707 22.666 12.6641 23.7727 12.6641 25.9993V29.3327H19.3307V25.9993C19.3307 23.7727 18.2241 22.666 15.9974 22.666Z" stroke="current" stroke-width="1.5" stroke-linecap="round" stroke-linejoin="round"/>
</svg>
