<svg width="51" height="51" viewBox="0 0 51 51" fill="none" xmlns="http://www.w3.org/2000/svg">
<circle cx="25.5" cy="25.5" r="23.5" fill="white" stroke="#9747FF" stroke-width="3"/>
<circle cx="25.5" cy="25.5" r="19.5" fill="white" stroke="#9747FF" stroke-dasharray="4 4"/>
<path d="M30.1821 16.084C28.952 16.2736 27.7678 16.837 26.9056 17.6532L26.555 17.9809L26.0893 17.8257C25.8307 17.7395 25.4225 17.6245 25.1811 17.5785C24.6063 17.4578 23.5026 17.4578 23.0083 17.5785L22.6347 17.6647L22.0886 17.3773C21.7897 17.2221 21.3125 17.0209 21.0251 16.9347C20.548 16.7852 20.4273 16.7737 19.5306 16.7737C18.3694 16.768 17.9268 16.86 17.0013 17.3141C15.4321 18.0729 14.3226 19.4065 14.018 20.8895C13.6444 22.6945 14.5123 24.4707 15.57 24.0683C15.708 24.0165 15.8747 23.9073 15.9379 23.8269C16.1851 23.5164 16.1334 22.9531 15.8402 22.7175C15.7425 22.6427 15.662 22.4933 15.616 22.3036C15.1274 20.4182 17.1738 18.3488 19.5191 18.3488C19.9387 18.3488 20.8354 18.5155 20.9274 18.6074C20.9447 18.6247 20.8297 18.7684 20.6745 18.9351C19.933 19.7226 19.611 20.4814 19.611 21.4184C19.611 22.2174 19.9042 22.9244 20.4791 23.5395C20.9676 24.0625 21.4045 24.2867 22.0023 24.3155C22.6347 24.3442 23.014 24.2005 23.4624 23.7579C23.8475 23.3785 24.0602 23.0336 24.2499 22.476C24.589 21.4701 24.5546 20.4067 24.1522 19.5042C24.0602 19.303 23.9855 19.1305 23.9855 19.119C23.9855 19.0156 25.388 19.2283 25.6008 19.3547C25.6237 19.372 25.5835 19.5502 25.5088 19.7456C24.8765 21.4356 25.2156 23.0163 26.3308 23.5624C27.5839 24.1775 28.9922 22.9876 28.9865 21.3149C28.9807 20.6366 28.6243 19.6881 28.176 19.188L27.9288 18.9064L28.2105 18.6534C28.5726 18.3315 29.4003 17.9234 29.9924 17.7682C30.7684 17.567 31.7686 17.613 32.2228 17.8717C32.2457 17.8832 32.1135 18.0096 31.9353 18.1418C30.8604 18.9351 30.1476 20.217 30.0901 21.4816C30.0384 22.6427 30.4408 23.4705 31.2628 23.8729C31.6019 24.0396 31.6594 24.051 32.102 24.0281C32.5159 24.0051 32.6366 23.9763 32.9873 23.7866C33.6886 23.4188 34.3611 22.66 34.7635 21.7747C35.0509 21.1424 35.1544 20.6538 35.1601 19.9123C35.1601 19.5617 35.1774 19.2685 35.1946 19.2685C35.2176 19.2685 35.3728 19.3087 35.5452 19.3605C36.3155 19.5904 36.9765 20.079 37.241 20.6193C37.3732 20.8895 37.3904 20.9872 37.3674 21.3494C37.333 22.0162 37.0168 22.6083 36.1718 23.5797C35.7062 24.1143 35.6545 24.2062 35.6545 24.4994C35.6545 24.965 35.9821 25.3042 36.4305 25.3042C36.7524 25.3042 36.9191 25.1835 37.4537 24.5626C38.5746 23.2578 38.9942 22.361 39 21.2804C39 20.5734 38.8562 20.102 38.4539 19.5099C37.7296 18.4522 36.419 17.7567 34.7577 17.5498C34.3381 17.498 34.3151 17.4865 33.9932 17.1819C33.3437 16.5611 32.5446 16.1759 31.6651 16.0552C31.1133 15.9747 30.8144 15.9805 30.1821 16.084ZM33.5219 19.5846C33.6483 20.2859 33.3839 21.1654 32.8493 21.838C32.5964 22.1541 32.1595 22.453 31.9928 22.4186C31.8319 22.3898 31.6882 22.0392 31.6882 21.677C31.6882 20.8493 32.2515 19.8548 32.9815 19.3892C33.3954 19.1248 33.4471 19.142 33.5219 19.5846ZM22.6347 20.079C22.9968 20.7803 22.8991 21.9357 22.4277 22.5048C22.2035 22.7807 22.0426 22.7807 21.7321 22.499C21.2493 22.0622 21.1056 21.4298 21.347 20.7918C21.439 20.5503 21.5769 20.3492 21.8931 20.0273C22.3817 19.5272 22.353 19.5272 22.6347 20.079ZM27.2045 20.6596C27.3827 21.062 27.3942 21.631 27.2332 21.8954C27.1758 21.9989 27.0895 22.0851 27.0435 22.0851C26.9343 22.0851 26.8021 21.7288 26.8021 21.4241C26.8021 21.1137 26.9631 20.3607 27.0321 20.3607C27.0551 20.3607 27.1355 20.4986 27.2045 20.6596Z" fill="black"/>
<path d="M13.8682 25.252C13.1497 25.3727 12.5058 25.8728 12.1839 26.5511C12.0172 26.9075 12 26.9937 12 27.4881C12.0057 27.9192 12.0287 28.1031 12.138 28.3676C12.3966 29.0229 13.1784 29.6609 13.8394 29.7644L14.0924 29.7989L14.351 30.4715C14.4947 30.8393 14.8281 31.7016 15.0983 32.3914C15.3627 33.0812 15.6386 33.7135 15.7134 33.7882C16.1905 34.294 17.0929 33.9032 17.0872 33.1961C17.0815 33.1099 16.7653 32.2074 16.3687 31.1957L15.6616 29.3563L15.9146 29.0804C16.0583 28.9309 16.248 28.6435 16.34 28.448C17.116 26.7925 15.6846 24.9473 13.8682 25.252ZM14.7189 27.0282C14.9316 27.2352 14.9833 27.4421 14.9029 27.695C14.7074 28.2756 13.9257 28.3446 13.667 27.7985C13.5578 27.5686 13.5578 27.4133 13.667 27.2007C13.7935 26.9593 13.9717 26.8558 14.2763 26.8558C14.5005 26.8558 14.581 26.8845 14.7189 27.0282Z" fill="black"/>
<path d="M35.4899 26.9132C34.5759 27.1029 33.8861 27.7984 33.6964 28.7182C33.5757 29.3045 33.7424 29.9943 34.1276 30.5001L34.3288 30.7588L33.0354 32.1728C32.3226 32.9489 31.6731 33.6731 31.5984 33.7881C31.2075 34.3629 31.6558 35.0815 32.3456 35.0068C32.6733 34.9665 32.61 35.0297 34.553 32.9144L35.967 31.3681L36.2774 31.3279C36.9442 31.2302 37.634 30.6956 37.9272 30.0517C38.1341 29.6034 38.1859 28.9021 38.0364 28.448C37.703 27.3903 36.5418 26.6948 35.4899 26.9132ZM36.3866 28.7239C36.4671 28.8216 36.5131 28.9481 36.5131 29.0746C36.5131 29.4712 36.2774 29.7241 35.9038 29.7299C35.1738 29.7299 35.0415 28.7239 35.7486 28.5285C35.967 28.4652 36.2257 28.5457 36.3866 28.7239Z" fill="black"/>
<path d="M23.0807 27.4868C22.891 27.573 22.8106 27.6535 22.7244 27.8431C22.6611 27.9811 22.6094 28.1421 22.6094 28.1996C22.6094 28.395 22.8278 28.7801 23.006 28.8836C23.2302 29.0158 23.6268 29.0101 23.8567 28.8664C24.4258 28.5215 24.2936 27.6075 23.6498 27.4293C23.3797 27.3546 23.3681 27.3546 23.0807 27.4868Z" fill="black"/>
<path d="M27.4998 28.6943C27.2699 28.838 27.0859 29.1254 27.0859 29.3554C27.0859 29.6083 27.2584 29.9072 27.4883 30.0624C27.655 30.1774 27.7412 30.1946 27.9999 30.1716C28.2701 30.1544 28.3391 30.1199 28.5 29.9417C28.7185 29.7003 28.7817 29.5221 28.7299 29.2462C28.6265 28.7001 27.9712 28.4069 27.4998 28.6943Z" fill="black"/>
<path d="M20.9937 31.0418C20.4764 31.2717 20.3557 31.7143 20.6201 32.4156C21.603 35.031 24.845 36.3187 27.3973 35.1057C28.4607 34.6056 29.3517 33.6342 29.2425 33.1054C29.1562 32.7087 28.8343 32.4328 28.4492 32.4328C28.1503 32.4328 28.0526 32.496 27.5525 33.0077C26.8914 33.6802 26.2879 33.9274 25.3106 33.9274C24.6669 33.9274 24.207 33.8182 23.6724 33.5365C22.9251 33.1456 22.3388 32.4731 22.0859 31.72C22.0226 31.5188 21.9077 31.3062 21.8387 31.2372C21.6145 31.0245 21.2294 30.9383 20.9937 31.0418Z" fill="black"/>
</svg>
