<svg width="35" height="35" viewBox="0 0 35 35" fill="none" xmlns="http://www.w3.org/2000/svg">
<path d="M26.9818 18.5332V23.8109C26.9818 28.2613 22.738 31.8701 17.5026 31.8701C12.2672 31.8701 8.02344 28.2613 8.02344 23.8109V18.5332C8.02344 22.9836 12.2672 26.1645 17.5026 26.1645C22.738 26.1645 26.9818 22.9836 26.9818 18.5332Z" stroke="#7B7B7B" stroke-width="1.4" stroke-linecap="round" stroke-linejoin="round"/>
<path d="M26.9818 11.401C26.9818 12.699 26.6172 13.8972 25.9755 14.9242C24.4151 17.4347 21.2068 19.0323 17.5026 19.0323C13.7984 19.0323 10.5901 17.4347 9.02969 14.9242C8.38802 13.8972 8.02344 12.699 8.02344 11.401C8.02344 9.17581 9.08801 7.16457 10.7943 5.70963C12.5151 4.24043 14.8776 3.3418 17.5026 3.3418C20.1276 3.3418 22.4901 4.24044 24.2109 5.69537C25.9172 7.16457 26.9818 9.17581 26.9818 11.401Z" stroke="#7B7B7B" stroke-width="1.4" stroke-linecap="round" stroke-linejoin="round"/>
<path d="M26.9818 11.401V18.533C26.9818 22.9834 22.738 26.1643 17.5026 26.1643C12.2672 26.1643 8.02344 22.9834 8.02344 18.533V11.401C8.02344 6.95061 12.2672 3.3418 17.5026 3.3418C20.1276 3.3418 22.4901 4.24044 24.2109 5.69537C25.9172 7.16457 26.9818 9.17581 26.9818 11.401Z" stroke="#7B7B7B" stroke-width="1.4" stroke-linecap="round" stroke-linejoin="round"/>
</svg>
