<svg width="33" height="32" viewBox="0 0 33 32" fill="none" xmlns="http://www.w3.org/2000/svg">
<path d="M25.513 16.8672V21.8005C25.513 25.9605 21.633 29.3339 16.8464 29.3339C12.0597 29.3339 8.17969 25.9605 8.17969 21.8005V16.8672C8.17969 21.0272 12.0597 24.0005 16.8464 24.0005C21.633 24.0005 25.513 21.0272 25.513 16.8672Z" stroke="#7B7B7B" stroke-width="1.5" stroke-linecap="round" stroke-linejoin="round"/>
<path d="M25.513 10.1994C25.513 11.4127 25.1797 12.5327 24.593 13.4927C23.1664 15.8393 20.233 17.3327 16.8464 17.3327C13.4597 17.3327 10.5264 15.8393 9.09969 13.4927C8.51302 12.5327 8.17969 11.4127 8.17969 10.1994C8.17969 8.11935 9.15301 6.23935 10.713 4.87935C12.2863 3.50602 14.4464 2.66602 16.8464 2.66602C19.2464 2.66602 21.4064 3.50602 22.9797 4.86602C24.5397 6.23935 25.513 8.11935 25.513 10.1994Z" stroke="#7B7B7B" stroke-width="1.5" stroke-linecap="round" stroke-linejoin="round"/>
<path d="M25.513 10.1994V16.866C25.513 21.026 21.633 23.9993 16.8464 23.9993C12.0597 23.9993 8.17969 21.026 8.17969 16.866V10.1994C8.17969 6.03935 12.0597 2.66602 16.8464 2.66602C19.2464 2.66602 21.4064 3.50602 22.9797 4.86602C24.5397 6.23935 25.513 8.11935 25.513 10.1994Z" stroke="#7B7B7B" stroke-width="1.5" stroke-linecap="round" stroke-linejoin="round"/>
</svg>
