<svg viewBox="0 0 30 30" fill="none" xmlns="http://www.w3.org/2000/svg">
<path d="M21.948 5.16602H9.03135C4.08427 5.16602 2.70219 6.35435 2.58594 10.9785C5.07885 10.9785 7.09385 13.0064 7.09385 15.4993C7.09385 17.9923 5.07885 20.0073 2.58594 20.0202C2.70219 24.6444 4.08427 25.8327 9.03135 25.8327H21.948C27.1147 25.8327 28.4064 24.541 28.4064 19.3743V11.6243C28.4064 6.45768 27.1147 5.16602 21.948 5.16602Z" stroke="white" stroke-width="1.5" stroke-linecap="round" stroke-linejoin="round"/>
<path d="M11.6172 5.16602V9.68685" stroke="white" stroke-width="1.5" stroke-linecap="round" stroke-linejoin="round"/>
<path d="M11.6172 21.3125V25.8333" stroke="white" stroke-width="1.5" stroke-linecap="round" stroke-linejoin="round"/>
<path d="M19.4065 12.0503L20.2074 13.6649C20.2849 13.8199 20.4399 13.9361 20.6078 13.962L22.3903 14.2203C22.8295 14.2849 23.0103 14.8274 22.6874 15.1374L21.3957 16.3903C21.2665 16.5066 21.2149 16.6874 21.2407 16.8682L21.5507 18.6378C21.6282 19.077 21.1632 19.4128 20.7757 19.2061L19.187 18.3666C19.032 18.2891 18.8382 18.2891 18.6832 18.3666L17.0945 19.2061C16.694 19.4128 16.242 19.077 16.3195 18.6378L16.6295 16.8682C16.6553 16.6874 16.6036 16.5195 16.4745 16.3903L15.1957 15.1374C14.8728 14.8274 15.0536 14.2849 15.4928 14.2203L17.2753 13.962C17.4561 13.9361 17.5982 13.8328 17.6757 13.6649L18.4636 12.0503C18.6445 11.6499 19.2128 11.6499 19.4065 12.0503Z" stroke="white" stroke-width="1.5" stroke-linecap="round" stroke-linejoin="round"/>
</svg>
