<svg width="40" height="40" viewBox="0 0 25 30" fill="none" xmlns="http://www.w3.org/2000/svg">
<path d="M14.2196 22.4583C18.4077 22.4583 21.8029 19.0631 21.8029 14.875C21.8029 10.6868 18.4077 7.29163 14.2196 7.29163C10.0314 7.29163 6.63623 10.6868 6.63623 14.875C6.63623 19.0631 10.0314 22.4583 14.2196 22.4583Z" stroke="#ffffff" stroke-width="2" stroke-linecap="round" stroke-linejoin="round"/>
<path d="M22.5499 23.205L22.3982 23.0534M22.3982 6.69671L22.5499 6.54504L22.3982 6.69671ZM5.88989 23.205L6.04156 23.0534L5.88989 23.205ZM14.2199 3.30171V3.20837V3.30171ZM14.2199 26.5417V26.4484V26.5417ZM2.64656 14.875H2.55322H2.64656ZM25.8866 14.875H25.7932H25.8866ZM6.04156 6.69671L5.88989 6.54504L6.04156 6.69671Z" stroke="#ffffff" stroke-width="3" stroke-linecap="round" stroke-linejoin="round"/>
</svg>
