<svg width="60" height="60" viewBox="0 0 60 60" fill="none" xmlns="http://www.w3.org/2000/svg">
<path d="M17.5128 10H42.5128C52.0878 10 54.7628 12.3 54.9878 21.25C50.1628 21.25 46.2628 25.175 46.2628 30C46.2628 34.825 50.1628 38.725 54.9878 38.75C54.7628 47.7 52.0878 50 42.5128 50H17.5128C7.51279 50 5.01279 47.5 5.01279 37.5V22.5C5.01279 12.5 7.51279 10 17.5128 10Z" stroke="#333333" stroke-width="3.75" stroke-linecap="round" stroke-linejoin="round"/>
<path d="M37.5171 10V18.75" stroke="#333333" stroke-width="3.75" stroke-linecap="round" stroke-linejoin="round"/>
<path d="M37.5171 41.25V50" stroke="#333333" stroke-width="3.75" stroke-linecap="round" stroke-linejoin="round"/>
<path d="M22.4375 23.3254L20.8875 26.4504C20.7375 26.7504 20.4375 26.9754 20.1125 27.0254L16.6625 27.5254C15.8125 27.6504 15.4625 28.7004 16.0875 29.3004L18.5875 31.7254C18.8375 31.9504 18.9375 32.3004 18.8875 32.6504L18.2875 36.0754C18.1375 36.9254 19.0375 37.5754 19.7875 37.1754L22.8625 35.5504C23.1625 35.4004 23.5375 35.4004 23.8375 35.5504L26.9125 37.1754C27.6875 37.5754 28.5625 36.9254 28.4125 36.0754L27.8125 32.6504C27.7625 32.3004 27.8625 31.9754 28.1125 31.7254L30.5875 29.3004C31.2125 28.7004 30.8625 27.6504 30.0125 27.5254L26.5625 27.0254C26.2125 26.9754 25.9375 26.7754 25.7875 26.4504L24.2625 23.3254C23.9125 22.5504 22.8125 22.5504 22.4375 23.3254Z" stroke="#333333" stroke-width="3.75" stroke-linecap="round" stroke-linejoin="round"/>
</svg>
