
<svg width="30" height="30" viewBox="0 0 30 30" fill="none" xmlns="http://www.w3.org/2000/svg">
<g clip-path="url(#clip0_1220_10438)">
<path class="hair" d="M19.5684 5.48798C18.2851 5.68587 17.0498 6.27356 16.1502 7.12511L15.7844 7.46692L15.2987 7.30501C15.0289 7.21506 14.6031 7.09512 14.3512 7.04715C13.7515 6.92122 12.6001 6.92122 12.0844 7.04715L11.6946 7.1371L11.1249 6.83726C10.8131 6.67535 10.3154 6.46546 10.0155 6.3755C9.5178 6.21959 9.39186 6.20759 8.45636 6.20759C7.24498 6.2016 6.78325 6.29755 5.81775 6.77129C4.18062 7.56287 3.02323 8.95414 2.70541 10.5013C2.31561 12.3843 3.22113 14.2373 4.32454 13.8175C4.46847 13.7636 4.64237 13.6496 4.70834 13.5657C4.9662 13.2418 4.91223 12.6542 4.60639 12.4083C4.50445 12.3304 4.42049 12.1744 4.37252 11.9765C3.86279 10.0096 5.99765 7.85072 8.44435 7.85072C8.8821 7.85072 9.81761 8.02463 9.91359 8.12058C9.93158 8.13857 9.81163 8.28849 9.64971 8.46239C8.87612 9.28396 8.54029 10.0755 8.54029 11.053C8.54029 11.8866 8.84612 12.6242 9.44584 13.2659C9.95555 13.8116 10.4113 14.0454 11.035 14.0754C11.6946 14.1054 12.0904 13.9555 12.5582 13.4937C12.96 13.0979 13.1818 12.7381 13.3797 12.1564C13.7335 11.107 13.6976 9.99758 13.2778 9.05608C13.1818 8.84619 13.1039 8.66629 13.1039 8.65429C13.1039 8.54635 14.5671 8.76823 14.789 8.90016C14.813 8.91815 14.771 9.10405 14.693 9.30794C14.0334 11.071 14.3872 12.7201 15.5506 13.2898C16.8579 13.9315 18.3271 12.6902 18.3211 10.9451C18.3151 10.2374 17.9433 9.24798 17.4755 8.72626L17.2177 8.43241L17.5115 8.16855C17.8893 7.83273 18.7529 7.40696 19.3705 7.24504C20.1801 7.03515 21.2235 7.08313 21.6973 7.35299C21.7213 7.36498 21.5833 7.49691 21.3975 7.63483C20.2761 8.46239 19.5324 9.79969 19.4725 11.119C19.4185 12.3304 19.8383 13.1939 20.6958 13.6137C21.0497 13.7876 21.1096 13.7995 21.5714 13.7756C22.0032 13.7516 22.1291 13.7216 22.4949 13.5237C23.2265 13.1399 23.9281 12.3483 24.3479 11.4248C24.6477 10.7652 24.7557 10.2554 24.7617 9.48185C24.7617 9.11605 24.7797 8.81021 24.7977 8.81021C24.8216 8.81021 24.9835 8.85219 25.1634 8.90616C25.967 9.14603 26.6567 9.65576 26.9325 10.2194C27.0704 10.5013 27.0884 10.6033 27.0645 10.9811C27.0285 11.6767 26.6987 12.2944 25.8171 13.3078C25.3314 13.8655 25.2774 13.9615 25.2774 14.2673C25.2774 14.753 25.6192 15.1069 26.087 15.1069C26.4228 15.1069 26.5967 14.9809 27.1544 14.3333C28.3238 12.972 28.7615 12.0365 28.7676 10.9091C28.7676 10.1715 28.6176 9.67975 28.1978 9.06208C27.4422 7.95866 26.075 7.23305 24.3419 7.01716C23.9041 6.96319 23.8801 6.9512 23.5443 6.63337C22.8667 5.98571 22.0331 5.58393 21.1156 5.45799C20.5399 5.37404 20.2281 5.38004 19.5684 5.48798ZM23.0526 9.14003C23.1845 9.87165 22.9087 10.7892 22.351 11.4908C22.0871 11.8206 21.6313 12.1325 21.4574 12.0965C21.2895 12.0665 21.1396 11.7007 21.1396 11.3229C21.1396 10.4593 21.7273 9.42189 22.4889 8.93614C22.9207 8.66029 22.9746 8.67828 23.0526 9.14003ZM11.6946 9.65576C12.0724 10.3874 11.9705 11.5927 11.4788 12.1864C11.2449 12.4743 11.0769 12.4743 10.7531 12.1804C10.2494 11.7247 10.0995 11.065 10.3513 10.3994C10.4473 10.1475 10.5912 9.93763 10.9211 9.60179C11.4308 9.08007 11.4008 9.08007 11.6946 9.65576ZM16.4621 10.2615C16.648 10.6812 16.66 11.2749 16.4921 11.5507C16.4321 11.6587 16.3422 11.7486 16.2942 11.7486C16.1802 11.7486 16.0423 11.3769 16.0423 11.059C16.0423 10.7352 16.2102 9.94959 16.2822 9.94959C16.3062 9.94959 16.3901 10.0935 16.4621 10.2615Z" fill="black"/>
<path class="leftArm" d="M2.54857 15.0523C1.79897 15.1782 1.12733 15.6999 0.791507 16.4075C0.6176 16.7794 0.599609 16.8693 0.599609 17.3851C0.605606 17.8348 0.629593 18.0267 0.743533 18.3026C1.01339 18.9862 1.82895 19.6519 2.51859 19.7598L2.78245 19.7958L3.0523 20.4974C3.20223 20.8812 3.55004 21.7807 3.83189 22.5003C4.10774 23.2199 4.39559 23.8796 4.47355 23.9575C4.97128 24.4853 5.91277 24.0775 5.90679 23.3399C5.9008 23.2499 5.57095 22.3084 5.15717 21.253L4.41958 19.334L4.68344 19.0462C4.83336 18.8902 5.03125 18.5904 5.12722 18.3865C5.93679 16.6594 4.44357 14.7344 2.54857 15.0523ZM3.4361 16.9053C3.65798 17.1212 3.71195 17.3371 3.628 17.6009C3.42411 18.2066 2.60854 18.2786 2.33869 17.7089C2.22474 17.469 2.22474 17.3071 2.33869 17.0852C2.47061 16.8333 2.65651 16.7254 2.97435 16.7254C3.20822 16.7254 3.29218 16.7554 3.4361 16.9053Z" fill="black"/>
<path class="rightArm" d="M25.1098 16.786C24.1563 16.9839 23.4367 17.7096 23.2388 18.669C23.1128 19.2807 23.2867 20.0003 23.6885 20.528L23.8984 20.7979L22.5491 22.2731C21.8055 23.0827 21.1279 23.8383 21.05 23.9582C20.6422 24.5579 21.1099 25.3075 21.8295 25.2296C22.1713 25.1875 22.1054 25.2535 24.1323 23.0467L25.6075 21.4336L25.9313 21.3916C26.627 21.2897 27.3466 20.7319 27.6524 20.0603C27.8683 19.5925 27.9223 18.8609 27.7664 18.3872C27.4186 17.2838 26.2072 16.5582 25.1098 16.786ZM26.0453 18.675C26.1292 18.777 26.1772 18.9089 26.1772 19.0408C26.1772 19.4546 25.9313 19.7185 25.5415 19.7245C24.78 19.7245 24.642 18.675 25.3796 18.4711C25.6075 18.4052 25.8774 18.4891 26.0453 18.675Z" fill="black"/>
<path class="leftEye" d="M12.1558 17.385C11.9579 17.475 11.874 17.5589 11.784 17.7568C11.718 17.9007 11.6641 18.0686 11.6641 18.1286C11.6641 18.3325 11.892 18.7343 12.0778 18.8422C12.3117 18.9801 12.7255 18.9741 12.9654 18.8242C13.559 18.4644 13.4211 17.5109 12.7495 17.325C12.4676 17.2471 12.4556 17.2471 12.1558 17.385Z" fill="black"/>
<path class="rightEye" d="M16.7736 18.6445C16.5337 18.7944 16.3418 19.0943 16.3418 19.3341C16.3418 19.598 16.5217 19.9098 16.7616 20.0717C16.9355 20.1917 17.0254 20.2097 17.2953 20.1856C17.5772 20.1677 17.6491 20.1317 17.817 19.9458C18.0449 19.6939 18.1108 19.508 18.0569 19.2202C17.9489 18.6505 17.2653 18.3446 16.7736 18.6445Z" fill="black"/>
<path class="mouth" d="M9.98448 21.0915C9.44477 21.3314 9.31884 21.7931 9.59468 22.5247C10.6201 25.2533 14.0023 26.5966 16.6649 25.3312C17.7743 24.8095 18.7038 23.796 18.5899 23.2443C18.4999 22.8305 18.1641 22.5427 17.7623 22.5427C17.4505 22.5427 17.3486 22.6087 16.8268 23.1424C16.1372 23.844 15.5075 24.1019 14.4881 24.1019C13.8164 24.1019 13.3367 23.988 12.779 23.6941C11.9994 23.2863 11.3877 22.5847 11.1239 21.7991C11.0579 21.5892 10.938 21.3673 10.866 21.2954C10.6321 21.0735 10.2303 20.9836 9.98448 21.0915Z" fill="black"/>
</g>
<defs>
<clipPath id="clip0_1220_10438">
<rect width="28.2" height="20.4191" fill="white" transform="translate(0.599609 5.40039)"/>
</clipPath>
</defs>
</svg>
