<svg width="35" height="35" viewBox="0 0 35 35" fill="none" xmlns="http://www.w3.org/2000/svg">
<path d="M3.3396 11.3458V25.5354C3.3396 28.3062 5.30835 29.4437 7.70002 28.0729L11.1271 26.1187C11.8708 25.6958 13.1104 25.6521 13.8833 26.0458L21.5396 29.8812C22.3125 30.2604 23.5521 30.2312 24.2958 29.8083L30.6104 26.1917C31.4125 25.725 32.0833 24.5875 32.0833 23.6542V9.46458C32.0833 6.69375 30.1146 5.55625 27.7229 6.92708L24.2958 8.88125C23.5521 9.30416 22.3125 9.34791 21.5396 8.95416L13.8833 5.13333C13.1104 4.75416 11.8708 4.78333 11.1271 5.20625L4.81252 8.82291C3.99585 9.28958 3.3396 10.4271 3.3396 11.3458Z" stroke="white" stroke-width="1.5" stroke-linecap="round" stroke-linejoin="round"/>
<path d="M12.4833 5.83334V24.7917" stroke="white" stroke-width="1.5" stroke-linecap="round" stroke-linejoin="round"/>
<path d="M22.9396 9.65417V29.1667" stroke="white" stroke-width="1.5" stroke-linecap="round" stroke-linejoin="round"/>
</svg>
