<svg width="35" height="35" viewBox="0 0 35 35" fill="none" xmlns="http://www.w3.org/2000/svg">
<path d="M17.675 18.6375C17.5729 18.6229 17.4417 18.6229 17.325 18.6375C14.7583 18.55 12.7167 16.45 12.7167 13.8688C12.7167 11.2292 14.8458 9.08545 17.5 9.08545C20.1396 9.08545 22.2833 11.2292 22.2833 13.8688C22.2688 16.45 20.2417 18.55 17.675 18.6375Z" stroke="#7B7B7B" stroke-width="1.5" stroke-linecap="round" stroke-linejoin="round"/>
<path d="M27.3292 28.2624C24.7333 30.6395 21.2917 32.0832 17.5 32.0832C13.7083 32.0832 10.2667 30.6395 7.67084 28.2624C7.81667 26.8916 8.69167 25.5499 10.2521 24.4999C14.2479 21.8457 20.7813 21.8457 24.7479 24.4999C26.3083 25.5499 27.1833 26.8916 27.3292 28.2624Z" stroke="#7B7B7B" stroke-width="1.5" stroke-linecap="round" stroke-linejoin="round"/>
<path d="M17.5 32.0834C25.5542 32.0834 32.0834 25.5542 32.0834 17.5001C32.0834 9.44593 25.5542 2.91675 17.5 2.91675C9.44587 2.91675 2.91669 9.44593 2.91669 17.5001C2.91669 25.5542 9.44587 32.0834 17.5 32.0834Z" stroke="#7B7B7B" stroke-width="1.5" stroke-linecap="round" stroke-linejoin="round"/>
</svg>
