<svg width="150" height="150" viewBox="0 0 150 150" fill="none" xmlns="http://www.w3.org/2000/svg">
<path d="M137.5 51.6895V26.4395C137.5 16.502 133.5 12.502 123.562 12.502H98.3125C88.375 12.502 84.375 16.502 84.375 26.4395V51.6895C84.375 61.627 88.375 65.627 98.3125 65.627H123.562C133.5 65.627 137.5 61.627 137.5 51.6895Z" stroke="#292D32" stroke-width="5.01818" stroke-linecap="round" stroke-linejoin="round"/>
<path d="M65.625 53.252V24.877C65.625 16.0645 61.625 12.502 51.6875 12.502H26.4375C16.5 12.502 12.5 16.0645 12.5 24.877V53.1895C12.5 62.0645 16.5 65.5644 26.4375 65.5644H51.6875C61.625 65.6269 65.625 62.0645 65.625 53.252Z" stroke="#292D32" stroke-width="5.01818" stroke-linecap="round" stroke-linejoin="round"/>
<path d="M65.625 123.562V98.3125C65.625 88.375 61.625 84.375 51.6875 84.375H26.4375C16.5 84.375 12.5 88.375 12.5 98.3125V123.562C12.5 133.5 16.5 137.5 26.4375 137.5H51.6875C61.625 137.5 65.625 133.5 65.625 123.562Z" stroke="#292D32" stroke-width="5.01818" stroke-linecap="round" stroke-linejoin="round"/>
<path d="M90.626 109.375H128.126" stroke="#292D32" stroke-width="5.01818" stroke-linecap="round"/>
<path d="M109.374 128.125V90.625" stroke="#292D32" stroke-width="5.01818" stroke-linecap="round"/>
</svg>
