<svg width="118" height="12" viewBox="0 0 118 121" fill="none" xmlns="http://www.w3.org/2000/svg">
<path fill-rule="evenodd" clip-rule="evenodd" d="M93.2438 34.4183C93.2438 53.3315 77.9125 68.6627 58.9993 68.6627C40.0861 68.6627 24.7549 53.3315 24.7549 34.4183C24.7549 15.5051 40.0861 0.173828 58.9993 0.173828C77.9125 0.173828 93.2438 15.5051 93.2438 34.4183ZM86.3949 34.4183C86.3949 41.684 83.5086 48.6522 78.3709 53.7899C73.2333 58.9275 66.2651 61.8138 58.9993 61.8138C51.7336 61.8138 44.7654 58.9275 39.6277 53.7899C34.4901 48.6522 31.6038 41.684 31.6038 34.4183C31.6038 27.1525 34.4901 20.1844 39.6277 15.0467C44.7654 9.90903 51.7336 7.02272 58.9993 7.02272C66.2651 7.02272 73.2333 9.90903 78.3709 15.0467C83.5086 20.1844 86.3949 27.1525 86.3949 34.4183Z" fill="black"/>
<path d="M81.2586 75.5117C80.8943 75.4288 80.5126 75.4725 80.1765 75.6356C79.8403 75.7987 79.5698 76.0714 79.4094 76.4089L65.8486 115.139V102.907L63.8796 89.1375C64.5082 89.0051 65.0868 88.6985 65.5495 88.2528C66.0121 87.8072 66.34 87.2403 66.4958 86.6171L68.2081 79.7682C68.3345 79.2636 68.3443 78.7368 68.2366 78.2278C68.129 77.7188 67.9069 77.241 67.587 76.8307C67.2672 76.4204 66.858 76.0884 66.3907 75.8598C65.9233 75.6313 65.41 75.5122 64.8898 75.5117H53.1165C52.5964 75.5118 52.0831 75.6304 51.6156 75.8586C51.1481 76.0867 50.7388 76.4183 50.4186 76.8283C50.0984 77.2382 49.8759 77.7157 49.7678 78.2246C49.6597 78.7334 49.6689 79.2601 49.7948 79.7648L51.5071 86.6137C51.6623 87.2375 51.99 87.8051 52.4527 88.2514C52.9153 88.6977 53.4943 89.0048 54.1233 89.1375L52.1508 102.907V112.14L38.59 76.4089C38.4297 76.0714 38.1591 75.7987 37.823 75.6356C37.4868 75.4725 37.1052 75.4288 36.7408 75.5117C35.4317 75.8277 34.1213 76.1382 32.8096 76.4431C25.0635 78.2581 15.4887 80.4976 10.4 83.8399C4.36272 87.802 0.78418 92.4729 0.78418 97.7705V120.029H117.215V97.7705C117.215 92.4729 113.637 87.8054 107.599 83.8399C102.511 80.4976 92.936 78.2581 85.1899 76.4431C83.8098 76.1212 82.4846 75.813 81.2586 75.5117Z" fill="black"/>
</svg>
