<svg width="470" height="348" viewBox="0 0 470 348" fill="none" xmlns="http://www.w3.org/2000/svg">
<g clip-path="url(#clip0_1663_23708)">
<path d="M225.994 205.63C204.072 205.63 178.878 181.334 156.588 192.878C89.0989 227.829 98.3891 169.343 79 147.592L79.6365 146.316C101.03 165.475 127.741 181.063 156.881 191.394C183.215 200.732 209.746 205.058 233.597 203.916L233.638 205.449C231.119 205.57 228.571 205.631 225.994 205.63Z" fill="#F2F2F2"/>
<path d="M386.016 64.4154C368.541 77.6345 333.77 73.4584 322.979 96.1019C290.308 164.66 262.358 112.435 233.752 106.788L233.489 105.387C262.125 107.759 292.841 104.079 322.316 94.7428C348.953 86.3067 372.718 73.757 391.04 58.4648L392 59.6617C390.066 61.2773 388.071 62.8619 386.016 64.4154Z" fill="#F2F2F2"/>
<path d="M127.574 103.664C130.105 103.664 132.156 100.917 132.156 97.5275C132.156 94.1382 130.105 91.3906 127.574 91.3906C125.043 91.3906 122.992 94.1382 122.992 97.5275C122.992 100.917 125.043 103.664 127.574 103.664Z" fill="#E6E6E6"/>
<path d="M320.145 161.092C322.675 161.092 324.727 158.345 324.727 154.955C324.727 151.566 322.675 148.818 320.145 148.818C317.614 148.818 315.562 151.566 315.562 154.955C315.562 158.345 317.614 161.092 320.145 161.092Z" fill="#E6E6E6"/>
<path d="M194.296 27.2738C196.826 27.2738 198.878 24.5262 198.878 21.1369C198.878 17.7476 196.826 15 194.296 15C191.765 15 189.713 17.7476 189.713 21.1369C189.713 24.5262 191.765 27.2738 194.296 27.2738Z" fill="#E6E6E6"/>
<path d="M276.447 241.531L271.118 209.525C271.011 208.877 271.166 208.213 271.548 207.679C271.93 207.145 272.509 206.784 273.158 206.676L297.359 202.656C298.008 202.549 298.673 202.704 299.208 203.085C299.743 203.467 300.104 204.046 300.213 204.693L305.541 236.699C305.649 237.347 305.494 238.01 305.112 238.545C304.729 239.079 304.15 239.44 303.502 239.548L279.3 243.568C278.651 243.675 277.987 243.52 277.452 243.138C276.917 242.757 276.556 242.178 276.447 241.531Z" fill="#3F3D56"/>
<path d="M276.694 231.556L273.268 210.98C273.168 210.373 273.312 209.752 273.67 209.251C274.029 208.751 274.571 208.413 275.178 208.312L295.977 204.857C296.585 204.757 297.207 204.902 297.708 205.259C298.209 205.617 298.548 206.158 298.65 206.765L303.391 235.245C303.492 235.852 303.347 236.474 302.989 236.974C302.631 237.475 302.089 237.813 301.481 237.914L288.596 240.054C285.89 240.5 283.117 239.856 280.886 238.263C278.654 236.67 277.147 234.258 276.694 231.556Z" fill="white"/>
<path d="M277.591 216.162C277.493 215.569 277.635 214.961 277.985 214.472C278.335 213.983 278.865 213.653 279.458 213.554L293.886 211.158C294.18 211.109 294.481 211.118 294.772 211.186C295.062 211.253 295.336 211.377 295.579 211.55C295.821 211.723 296.027 211.942 296.185 212.195C296.342 212.447 296.449 212.728 296.498 213.022C296.546 213.316 296.537 213.616 296.47 213.906C296.402 214.196 296.278 214.47 296.105 214.712C295.932 214.954 295.712 215.16 295.459 215.317C295.207 215.475 294.925 215.581 294.631 215.63L280.203 218.026C279.609 218.124 279.001 217.983 278.511 217.633C278.021 217.284 277.691 216.755 277.591 216.162Z" fill="#FDD70F"/>
<path d="M278.75 223.119C278.652 222.526 278.793 221.918 279.143 221.429C279.493 220.94 280.023 220.61 280.616 220.511L295.045 218.115C295.339 218.066 295.639 218.075 295.93 218.143C296.22 218.21 296.494 218.334 296.737 218.507C296.979 218.68 297.185 218.899 297.343 219.152C297.501 219.404 297.607 219.685 297.656 219.979C297.705 220.273 297.695 220.573 297.628 220.863C297.561 221.153 297.437 221.427 297.263 221.669C297.09 221.911 296.871 222.117 296.618 222.274C296.365 222.432 296.083 222.538 295.789 222.587L281.361 224.983C280.767 225.081 280.159 224.94 279.669 224.59C279.18 224.241 278.849 223.712 278.75 223.119Z" fill="#FDD70F"/>
<path d="M279.908 230.076C279.81 229.483 279.951 228.875 280.301 228.386C280.651 227.898 281.181 227.567 281.775 227.468L296.203 225.072C296.797 224.973 297.406 225.114 297.895 225.464C298.385 225.813 298.716 226.343 298.814 226.936C298.913 227.529 298.772 228.137 298.422 228.626C298.072 229.115 297.541 229.445 296.948 229.544L282.519 231.94C281.926 232.038 281.317 231.897 280.828 231.547C280.338 231.198 280.007 230.669 279.908 230.076Z" fill="#FDD70F"/>
<path d="M265.519 211.366C264.889 210.658 264.422 209.82 264.151 208.911C263.88 208.003 263.812 207.046 263.951 206.109C264.09 205.171 264.433 204.276 264.956 203.485C265.48 202.694 266.17 202.028 266.979 201.532L258.538 161.387L269.726 165.683L276.204 204.036C276.947 205.449 277.145 207.085 276.762 208.634C276.378 210.183 275.438 211.537 274.121 212.441C272.804 213.344 271.201 213.734 269.616 213.536C268.031 213.338 266.573 212.566 265.519 211.366Z" fill="#FFB8B8"/>
<path d="M261.795 338.338L271.004 338.338L275.385 302.859L261.793 302.86L261.795 338.338Z" fill="#FFB6B6"/>
<path d="M259.445 335.333L262.038 335.333L272.158 331.223L277.582 335.333H277.583C280.649 335.333 283.588 336.549 285.756 338.714C287.923 340.879 289.141 343.815 289.141 346.876V347.251L259.446 347.252L259.445 335.333Z" fill="#2F2E41"/>
<path d="M178.58 326.378L186.822 330.48L206.59 300.68L194.425 294.625L178.58 326.378Z" fill="#FFB6B6"/>
<path d="M177.818 322.645L180.138 323.799L191.032 324.629L194.051 330.725L194.052 330.725C196.795 332.091 198.883 334.489 199.856 337.392C200.829 340.295 200.608 343.466 199.24 346.206L199.073 346.542L172.495 333.312L177.818 322.645Z" fill="#2F2E41"/>
<path d="M265.875 177.207L207.318 178.733L208.336 207.212C208.336 207.212 207.318 214.84 209.354 216.874C211.391 218.908 212.41 218.908 211.391 222.468C210.373 226.028 207.74 260.042 207.74 260.042C207.74 260.042 183.706 302.484 184.725 303.501C185.743 304.518 186.762 303.501 185.743 306.044C184.725 308.586 183.706 307.569 184.725 308.586C185.627 309.558 186.477 310.576 187.271 311.638H203.869C203.869 311.638 204.797 306.552 204.797 306.044C204.797 305.535 205.815 302.484 205.815 301.975C205.815 301.467 234.814 270.781 234.814 270.781L240.924 219.926L255.691 269.764C255.691 269.764 255.691 313.499 256.709 314.517C257.728 315.534 257.728 315.025 257.219 317.059C256.709 319.094 254.673 318.585 256.2 320.111C257.728 321.636 258.237 319.094 257.728 321.636L257.219 324.179L276.781 324.397C276.781 324.397 278.818 320.111 277.8 318.585C276.781 317.059 276.843 317.476 278.085 314.979C279.327 312.482 279.837 311.974 279.327 311.465C278.818 310.957 278.818 308.252 278.818 308.252C278.818 308.252 271.476 208.229 271.476 206.703C271.438 205.918 271.582 205.135 271.899 204.415V202.344L269.949 195.006L265.875 177.207Z" fill="#2F2E41"/>
<path d="M318.662 319.224L319.167 307.878C324.434 305.066 330.309 303.58 336.281 303.551C328.061 310.263 329.089 323.2 323.516 332.226C321.756 335.028 319.388 337.398 316.586 339.161C313.785 340.925 310.622 342.036 307.332 342.412L300.453 346.618C299.509 341.363 299.717 335.966 301.063 330.799C302.409 325.632 304.86 320.818 308.248 316.688C310.172 314.39 312.377 312.343 314.813 310.595C316.461 314.934 318.662 319.224 318.662 319.224Z" fill="#F2F2F2"/>
<path d="M235.554 77.332L264.885 136.576L259.147 208.475L221.666 205.055L214.945 85.9841L235.554 77.332Z" fill="#2F2E41"/>
<path d="M276.74 200.537L259.601 198.972L259.574 198.755L248.073 103.642L250.647 96.5145C251.262 94.8223 252.306 93.3181 253.676 92.1479C255.046 90.9777 256.696 90.1813 258.465 89.8363C259.813 89.577 261.199 89.5863 262.543 89.8644C263.888 90.1424 265.163 90.6833 266.297 91.456C267.431 92.2286 268.401 93.2177 269.15 94.3663C269.9 95.5149 270.414 96.8002 270.664 98.1483L273.742 114.753L278.109 170.882L276.74 200.537Z" fill="#2F2E41"/>
<path d="M232.117 86.117L235.573 77.8574L246.271 78.045L257.427 93.8049L269.136 142.983C269.136 142.983 273.341 178.908 269.136 180.804C264.93 182.701 250.676 180.359 250.676 180.359L232.117 86.117Z" fill="#FDD70F"/>
<path d="M246.271 78.0449C246.271 78.0449 269.316 91.3496 270.218 98.2947C271.119 105.24 274.137 190.243 274.137 190.243L265.988 184.984L263.76 154.003L253.814 90.5733L246.271 78.0449Z" fill="#2F2E41"/>
<path d="M240.831 74.1752C249.506 74.1752 256.537 67.1523 256.537 58.489C256.537 49.8257 249.506 42.8027 240.831 42.8027C232.157 42.8027 225.125 49.8257 225.125 58.489C225.125 67.1523 232.157 74.1752 240.831 74.1752Z" fill="#FFB8B8"/>
<path d="M223.016 48.1819C224.78 45.4569 228.09 43.6408 231.298 44.1512C231.597 42.1062 232.451 40.1823 233.769 38.5889C235.086 36.9954 236.816 35.7936 238.771 35.1142C240.725 34.4348 242.828 34.3038 244.852 34.7357C246.875 35.1675 248.741 36.1455 250.247 37.5632C250.742 37.215 251.319 37.0004 251.921 36.9402C252.524 36.88 253.131 36.9762 253.686 37.2194C254.79 37.7209 255.751 38.491 256.48 39.4593C258.321 41.7522 259.505 44.5009 259.906 47.4126C260.307 50.3243 259.91 53.2901 258.757 55.9943C259.149 54.5706 257.721 53.2313 256.277 52.9119C254.834 52.5924 253.32 52.8946 251.856 52.6866C249.98 52.42 248.294 51.3331 246.415 51.0885C244.836 50.8829 243.248 51.2873 241.708 51.6926C240.168 52.0978 238.585 52.5111 237.003 52.3236C235.422 52.1361 233.385 58.1214 233.412 62.3372C233.417 63.1361 233.253 64.1618 232.471 64.3313C231.508 64.5401 230.95 63.213 230.034 62.8514C229.612 62.7306 229.159 62.7781 228.771 62.9841C228.383 63.1901 228.091 63.5385 227.955 63.9557C227.839 64.38 227.827 64.8256 227.919 65.2555C228.011 65.6855 228.204 66.0873 228.482 66.4276C229.046 67.1022 229.714 67.6815 230.463 68.1431L230.085 68.4566C229.457 69.2848 228.155 69.3207 227.25 68.8083C226.385 68.223 225.685 67.4262 225.215 66.4938C223.541 63.7131 222.073 60.7503 221.482 57.5598C220.891 54.3693 221.253 50.9069 223.016 48.1819Z" fill="#2F2E41"/>
<path d="M188.806 164.354L220.185 130.732C220.821 130.052 221.701 129.652 222.631 129.619C223.562 129.587 224.468 129.924 225.15 130.558L250.574 154.226C251.255 154.861 251.656 155.739 251.688 156.669C251.721 157.599 251.383 158.504 250.749 159.185L219.371 192.807C218.735 193.487 217.855 193.887 216.924 193.92C215.993 193.952 215.087 193.615 214.405 192.981L188.981 169.313C188.3 168.678 187.9 167.8 187.867 166.87C187.834 165.94 188.172 165.035 188.806 164.354Z" fill="#E6E6E6"/>
<path d="M200.234 156.015L220.407 134.4C221.002 133.763 221.827 133.388 222.698 133.358C223.57 133.327 224.419 133.643 225.057 134.236L246.907 154.577C247.545 155.172 247.92 155.995 247.951 156.865C247.981 157.736 247.665 158.583 247.071 159.221L219.148 189.141C218.553 189.777 217.729 190.152 216.857 190.183C215.985 190.213 215.137 189.897 214.498 189.304L200.962 176.703C198.123 174.054 196.451 170.388 196.315 166.509C196.178 162.631 197.588 158.857 200.234 156.015Z" fill="white"/>
<path d="M218.316 143.723C218.898 143.101 219.703 142.735 220.555 142.705C221.407 142.675 222.236 142.984 222.86 143.564L238.018 157.674C238.641 158.255 239.009 159.059 239.039 159.91C239.069 160.761 238.759 161.59 238.177 162.213C237.596 162.836 236.791 163.202 235.938 163.232C235.086 163.262 234.257 162.953 233.633 162.372L218.476 148.262C217.853 147.681 217.486 146.877 217.456 146.026C217.426 145.175 217.736 144.347 218.316 143.723Z" fill="#E6E6E6"/>
<path d="M211.496 151.032C212.078 150.41 212.883 150.044 213.735 150.014C214.587 149.984 215.416 150.293 216.04 150.872L231.197 164.983C231.506 165.27 231.755 165.616 231.931 165.999C232.106 166.383 232.204 166.797 232.218 167.219C232.233 167.64 232.165 168.061 232.017 168.456C231.869 168.851 231.645 169.213 231.357 169.521C231.069 169.83 230.723 170.078 230.339 170.253C229.955 170.428 229.54 170.526 229.118 170.541C228.696 170.556 228.275 170.487 227.88 170.34C227.484 170.192 227.122 169.968 226.813 169.681L211.656 155.571C211.033 154.989 210.666 154.185 210.636 153.334C210.606 152.483 210.915 151.655 211.496 151.032Z" fill="#E6E6E6"/>
<path d="M204.675 158.339C205.257 157.716 206.063 157.35 206.914 157.32C207.766 157.29 208.595 157.599 209.22 158.179L224.377 172.289C225.001 172.87 225.368 173.674 225.398 174.526C225.428 175.377 225.118 176.205 224.537 176.828C223.955 177.451 223.15 177.818 222.298 177.848C221.445 177.877 220.616 177.568 219.992 176.987L204.835 162.877C204.212 162.296 203.845 161.492 203.815 160.641C203.786 159.79 204.095 158.962 204.675 158.339Z" fill="#E6E6E6"/>
<path d="M241.555 198.414L230.706 213.928L230.201 214.537C229.322 215.592 228.109 216.316 226.761 216.587C226.571 216.626 226.379 216.654 226.187 216.673C225.949 216.698 225.71 216.707 225.471 216.703C225.335 216.7 225.198 216.693 225.062 216.681C224.27 216.613 223.5 216.389 222.796 216.022L218.168 212.793C217.799 212.537 217.536 212.155 217.428 211.72C217.374 211.505 217.359 211.281 217.383 211.061C217.417 210.752 217.528 210.456 217.707 210.201L231.065 191.098C231.348 190.693 231.781 190.418 232.268 190.331C232.754 190.245 233.255 190.355 233.661 190.637L241.094 195.822C241.112 195.834 241.129 195.846 241.146 195.859C241.157 195.867 241.168 195.876 241.179 195.885C241.194 195.896 241.208 195.908 241.222 195.92C241.24 195.934 241.258 195.949 241.275 195.965C241.29 195.979 241.306 195.993 241.321 196.008L241.33 196.017C241.35 196.035 241.369 196.055 241.387 196.074C241.406 196.094 241.424 196.114 241.441 196.134C241.454 196.149 241.466 196.164 241.479 196.179L241.48 196.18C241.516 196.225 241.55 196.271 241.581 196.319C241.591 196.334 241.601 196.349 241.61 196.365L241.614 196.371C241.622 196.383 241.629 196.395 241.636 196.408C241.658 196.444 241.678 196.482 241.697 196.521C241.728 196.584 241.756 196.649 241.78 196.716C241.788 196.737 241.795 196.758 241.801 196.78C241.807 196.797 241.813 196.815 241.817 196.833L241.819 196.837L241.821 196.845C241.825 196.86 241.83 196.876 241.833 196.891C241.841 196.921 241.848 196.951 241.854 196.982C241.856 196.99 241.858 196.998 241.859 197.007C241.861 197.015 241.862 197.023 241.864 197.032C241.865 197.04 241.867 197.049 241.868 197.056L241.87 197.07C241.874 197.094 241.877 197.119 241.88 197.144C241.883 197.175 241.886 197.206 241.887 197.236C241.889 197.262 241.89 197.287 241.89 197.312C241.891 197.335 241.891 197.358 241.891 197.381C241.891 197.387 241.891 197.393 241.89 197.398C241.89 197.422 241.888 197.446 241.887 197.469C241.884 197.528 241.877 197.587 241.867 197.645C241.864 197.667 241.86 197.688 241.856 197.71C241.851 197.736 241.845 197.762 241.839 197.787C241.837 197.797 241.834 197.806 241.832 197.816C241.828 197.83 241.824 197.844 241.82 197.858C241.816 197.873 241.811 197.889 241.806 197.905L241.794 197.942C241.787 197.964 241.779 197.985 241.771 198.007C241.766 198.019 241.761 198.032 241.755 198.045C241.718 198.138 241.673 198.227 241.621 198.313C241.615 198.323 241.609 198.333 241.602 198.344C241.587 198.368 241.571 198.391 241.555 198.414Z" fill="white"/>
<path d="M234.208 199.003C235.088 199.003 235.801 198.291 235.801 197.413C235.801 196.534 235.088 195.822 234.208 195.822C233.329 195.822 232.616 196.534 232.616 197.413C232.616 198.291 233.329 199.003 234.208 199.003Z" fill="#FDD70F"/>
<path d="M216.219 214.22C215.588 213.511 215.121 212.673 214.85 211.765C214.579 210.857 214.511 209.9 214.65 208.962C214.789 208.025 215.132 207.129 215.656 206.338C216.179 205.548 216.869 204.881 217.679 204.386L209.237 164.24L220.426 168.537L226.903 206.89C227.646 208.303 227.845 209.938 227.461 211.487C227.077 213.036 226.138 214.391 224.821 215.294C223.504 216.198 221.9 216.588 220.315 216.389C218.73 216.191 217.272 215.419 216.219 214.22Z" fill="#FFB8B8"/>
<path d="M210.02 197.929L205.466 168.626L203.755 112.349L205.027 95.4813C205.13 94.1143 205.503 92.7811 206.124 91.5587C206.746 90.3362 207.603 89.2487 208.647 88.3586C209.691 87.4686 210.901 86.7937 212.208 86.3729C213.514 85.952 214.891 85.7935 216.259 85.9064C218.055 86.0593 219.781 86.6737 221.269 87.6898C222.758 88.7059 223.957 90.0892 224.752 91.7053L228.079 98.5148L226.891 194.53L210.02 197.929Z" fill="#2F2E41"/>
<path d="M353.248 347.158C353.248 347.269 353.226 347.378 353.184 347.48C353.142 347.583 353.08 347.675 353.002 347.754C352.923 347.832 352.83 347.894 352.728 347.936C352.626 347.978 352.516 348 352.405 347.999H125.633C125.409 347.999 125.195 347.911 125.037 347.753C124.879 347.595 124.79 347.381 124.79 347.158C124.79 346.935 124.879 346.721 125.037 346.563C125.195 346.405 125.409 346.316 125.633 346.316H352.405C352.516 346.316 352.626 346.338 352.728 346.38C352.83 346.422 352.923 346.484 353.002 346.562C353.08 346.64 353.142 346.733 353.184 346.835C353.226 346.938 353.248 347.047 353.248 347.158Z" fill="#CCCCCC"/>
<path d="M228.532 64.8477C228.542 64.6701 228.596 64.4976 228.688 64.3456C228.781 64.1935 228.909 64.0665 229.062 63.9757C229.215 63.885 229.389 63.8333 229.567 63.8253C229.745 63.8173 229.922 63.8532 230.083 63.9297C230.243 64.0063 230.383 64.1212 230.489 64.2644C230.594 64.4075 230.663 64.5745 230.689 64.7505C230.715 64.9265 230.697 65.1062 230.637 65.2736C230.577 65.4411 230.476 65.5912 230.344 65.7106L232.168 68.7033C232.242 68.8261 232.265 68.9735 232.231 69.1131C232.197 69.2527 232.109 69.3731 231.986 69.4478C231.863 69.5225 231.716 69.5454 231.576 69.5114C231.436 69.4774 231.316 69.3894 231.241 69.2666L229.191 65.9017C228.986 65.815 228.813 65.6672 228.695 65.4786C228.577 65.29 228.52 65.0697 228.532 64.8477Z" fill="white"/>
<path d="M229.812 66.883C229.879 67.0165 230.043 67.0702 230.176 67.0028C230.31 66.9355 230.364 66.7726 230.296 66.639L229.808 65.6715C229.74 65.5379 229.577 65.4843 229.443 65.5516C229.31 65.619 229.256 65.7819 229.323 65.9155L229.812 66.883Z" fill="#2F2E41"/>
</g>
<defs>
<clipPath id="clip0_1663_23708">
<rect width="313" height="333" fill="white" transform="translate(79 15)"/>
</clipPath>
</defs>
</svg>
