<svg width="150" height="126" viewBox="0 0 150 126" fill="none" xmlns="http://www.w3.org/2000/svg">
<path d="M62.8125 13.2832L25.1875 33.9157C13.125 40.5307 13.125 55.3357 25.1875 61.9507L62.8125 82.5832C69.5625 86.3107 80.6875 86.3107 87.4375 82.5832L124.875 61.9507C136.875 55.3357 136.875 40.5832 124.875 33.9682L87.4375 13.3357C80.6875 9.55574 69.5625 9.55574 62.8125 13.2832Z" stroke="#292D32" stroke-width="6" stroke-linecap="round" stroke-linejoin="round"/>
<path d="M35.1875 68.668L35.125 93.2905C35.125 99.958 41.25 107.098 48.75 109.198L68.6875 114.763C72.125 115.708 77.8125 115.708 81.3125 114.763L101.25 109.198C108.75 107.098 114.875 99.958 114.875 93.2905V68.9305" stroke="#292D32" stroke-width="6" stroke-linecap="round" stroke-linejoin="round"/>
<path d="M133.75 78.75V47.25" stroke="#292D32" stroke-width="6" stroke-linecap="round" stroke-linejoin="round"/>
</svg>
