<svg width="470" height="348" viewBox="0 0 470 348" fill="none" xmlns="http://www.w3.org/2000/svg">
<g clip-path="url(#clip0_1663_21735)">
<path d="M425.586 346.389H325.93V343.332C325.93 340.678 326.984 338.133 328.862 336.256C330.739 334.379 333.286 333.325 335.941 333.325H415.574C418.229 333.325 420.776 334.379 422.653 336.256C424.531 338.133 425.586 340.678 425.586 343.332V346.389Z" fill="#E6E6E6"/>
<path d="M373.426 333.934L376.456 332.715C344.746 254.042 347.801 154.79 374.606 69.6494C377.79 59.7846 378.02 49.2047 375.267 39.2112C372.514 29.2177 366.898 20.2465 359.111 13.4015C343.552 -0.47617 322.103 -3.85689 303.129 4.57776C284.401 12.9048 281.82 27.4092 281.82 41.843H285.087C285.087 26.4356 288.381 14.7095 304.457 7.5618C322.24 -0.343013 342.348 2.82761 356.935 15.8386C364.249 22.2675 369.524 30.6935 372.11 40.0798C374.696 49.4661 374.48 59.4033 371.49 68.6686C344.375 154.792 341.499 254.726 373.426 333.934Z" fill="#E6E6E6"/>
<path d="M284.27 90.0156C290.586 90.0156 295.706 84.8979 295.706 78.5849C295.706 72.272 290.586 67.1543 284.27 67.1543C277.954 67.1543 272.834 72.272 272.834 78.5849C272.834 84.8979 277.954 90.0156 284.27 90.0156Z" fill="#E6E6E6"/>
<path d="M266.658 98.5119V76.8535H270.027V98.5119C270.993 98.9026 271.794 99.6172 272.291 100.533C272.788 101.449 272.951 102.509 272.752 103.532C272.553 104.555 272.004 105.477 271.199 106.14C270.395 106.802 269.385 107.165 268.342 107.165C267.3 107.165 266.29 106.802 265.485 106.14C264.681 105.477 264.132 104.555 263.933 103.532C263.733 102.509 263.896 101.449 264.394 100.533C264.891 99.6172 265.691 98.9026 266.658 98.5119Z" fill="#E6E6E6"/>
<path d="M250.371 60.2145C250.376 55.2357 252.357 50.4625 255.88 46.942C259.402 43.4215 264.177 41.4412 269.158 41.4355H300.199C305.181 41.4355 309.96 43.414 313.484 46.9358C317.007 50.4575 318.986 55.234 318.986 60.2145C318.986 65.195 317.007 69.9715 313.484 73.4932C309.96 77.0149 305.181 78.9934 300.199 78.9934H269.158C264.177 78.9878 259.402 77.0075 255.88 73.4869C252.357 69.9664 250.376 65.1932 250.371 60.2145Z" fill="#FFCB47"/>
<path d="M206.636 176.505C209.752 136.65 225.687 117.662 215.484 105.754C205.71 94.3473 178.18 96.7036 160.5 107.649C112.812 137.171 95.3413 254.833 156.708 312.321C215.022 366.949 325.539 349.452 350.099 304.74C355.83 294.308 360.382 276.019 351.995 264.943C331.172 237.445 255.464 287.252 221.804 256.099C201.855 237.637 204.925 198.376 206.636 176.505Z" fill="#3F3D56"/>
<path d="M243.089 156.704C241.931 157.237 241.026 158.2 240.567 159.389C240.109 160.578 240.133 161.899 240.634 163.071C240.739 163.307 240.864 163.535 241.007 163.751L230.772 177.411L235.879 185.042L247.877 164.813C248.727 164.151 249.333 163.225 249.602 162.182C249.871 161.139 249.786 160.036 249.362 159.045C249.115 158.484 248.76 157.977 248.317 157.553C247.874 157.129 247.351 156.796 246.78 156.574C246.208 156.351 245.598 156.244 244.985 156.257C244.372 156.27 243.767 156.404 243.206 156.651C243.166 156.668 243.128 156.686 243.089 156.704Z" fill="#FFB6B6"/>
<path d="M243.081 180.258C243.751 180.852 241.893 181.585 239.927 180.429C239.365 180.094 239.124 179.955 239.061 180.043C238.903 180.264 239.826 181.894 239.58 185.514C239.428 187.674 235.838 191.736 231.762 195.697C226.251 201.054 219.842 206.221 219.842 206.221L217.592 204.421L194 185.514L190.018 180.005C190.383 177.83 190.93 175.69 191.655 173.606C192.654 170.723 193.84 167.908 195.207 165.179C195.94 163.695 196.692 162.28 197.413 160.979L210.053 174.901L220.645 186.563C220.645 186.563 223.729 181.597 226.118 180.246C226.423 180.051 226.769 179.932 227.129 179.898C229.543 179.784 229.689 178.47 226.889 175.609C224.089 172.747 227.622 175.419 230.112 174.649C232.602 173.878 230.112 174.649 230.637 172.722C231.161 170.795 238.145 166.929 238.145 166.929L238.436 167.188L243.713 171.844L245.223 173.177C245.223 173.177 243.574 177.7 243.119 178.654C242.664 179.607 242.417 179.658 243.081 180.258Z" fill="#FFCB47"/>
<path d="M382.194 268.012L382.451 261.044L355.685 256.736L355.305 267.02L382.194 268.012Z" fill="#FFB6B6"/>
<path d="M377.335 270.109L377.082 258.953L381.853 259.129L389.556 248.815C389.937 248.306 390.47 247.931 391.079 247.746C391.687 247.561 392.339 247.575 392.939 247.787C393.538 247.998 394.055 248.396 394.413 248.921C394.77 249.447 394.951 250.073 394.927 250.708L394.438 263.961L389.634 266.072L394.321 267.138L394.136 272.135L377.335 270.109Z" fill="#2F2E41"/>
<path d="M231.552 270.724L316.33 272.872C316.33 272.872 352.94 274.986 361.529 269.401L370.587 268.258L371.078 254.959C371.078 254.959 365.539 254.999 362.355 253.516C359.17 252.033 361.383 250.219 358.347 252.003C355.311 253.787 355.632 254.002 353.284 253.182C350.936 252.362 243.285 235.961 243.285 235.961L231.552 270.724Z" fill="#2F2E41"/>
<path d="M343.266 264.953L348.197 260.02L331.505 238.666L324.229 245.947L343.266 264.953Z" fill="#FFB6B6"/>
<path d="M338.277 260.662L345.683 252.311L349.061 255.683L361.726 253.359C362.351 253.244 362.997 253.332 363.569 253.61C364.141 253.888 364.609 254.342 364.905 254.905C365.201 255.467 365.309 256.11 365.214 256.738C365.118 257.367 364.824 257.948 364.375 258.398L354.998 267.781L350.041 266.062L352.751 270.03L349.216 273.568L338.277 260.662Z" fill="#2F2E41"/>
<path d="M198.104 224.315L198.947 243.898C199.939 266.951 225.339 280.904 245.034 268.867C245.397 268.645 245.761 268.415 246.127 268.178C246.127 268.178 253.593 266.173 253.367 262.999C253.14 259.825 254.964 258.281 256.578 259.146C258.193 260.012 279.328 230.031 279.328 230.031C279.328 230.031 323.24 251.925 332.927 257.079C332.927 257.079 342.035 242.845 341.375 242.994C340.715 243.143 287.05 205.6 287.05 205.6C287.05 205.6 278.308 196.756 267.463 202.596C267.237 203.453 267.43 203.483 267.43 203.483L231.606 232.661L226.544 223.052L198.104 224.315Z" fill="#2F2E41"/>
<path d="M231.882 199.834C231.814 200.738 231.685 201.637 231.496 202.525C231.238 203.809 230.822 205.057 230.258 206.239C230.258 206.239 230.258 207.559 227.73 211.981C225.202 216.403 228.362 214.508 230.258 217.793C232.154 221.072 230.258 219.562 228.153 221.672C227.547 222.286 227.117 223.051 226.907 223.887C226.697 224.724 226.715 225.601 226.959 226.428C226.959 226.428 199.808 226.447 194.752 224.552C189.696 222.657 188.546 211.981 193.077 210.926C197.602 209.871 191.706 208.823 189.045 206.391C186.384 203.959 191.706 199.979 191.706 199.979C191.706 199.979 189.513 196.195 189.696 183.492C189.722 182.323 189.83 181.158 190.018 180.004C190.383 177.829 190.93 175.689 191.655 173.605C192.653 170.722 193.84 167.907 195.207 165.178C195.94 163.694 196.692 162.279 197.413 160.978C197.526 160.775 197.634 160.58 197.748 160.384C199.119 157.958 200.37 155.974 201.198 154.705C201.837 153.719 202.222 153.163 202.222 153.163L206.823 145.166L222.181 152.361L221.308 164.13L223.957 173.005L225.176 177.092L226.118 180.245L227.572 185.128C227.572 185.128 227.173 185.147 227.647 185.797C229.83 188.698 231.245 192.103 231.762 195.696C231.944 197.067 231.984 198.454 231.882 199.834Z" fill="#FFCB47"/>
<path d="M276.232 201.102L275.944 201.009L239.187 189.178L252.732 144.761C253.001 143.877 253.468 143.065 254.098 142.387C254.727 141.71 255.502 141.183 256.364 140.848C257.226 140.514 258.153 140.379 259.075 140.454C259.997 140.529 260.89 140.813 261.687 141.283L285.176 155.154C287.036 156.251 288.45 157.966 289.173 160C289.896 162.033 289.88 164.256 289.13 166.28L276.232 201.102Z" fill="#2F2E41"/>
<path d="M276.382 203.926L239.328 192L252.873 147.584C253.143 146.699 253.61 145.888 254.239 145.21C254.869 144.532 255.644 144.006 256.506 143.671C257.368 143.336 258.295 143.201 259.217 143.276C260.139 143.351 261.032 143.635 261.828 144.105L286.44 156.387C290.137 158.57 290.05 164.22 288.334 168.855L276.382 203.926Z" fill="#FFCB47"/>
<path d="M272.672 207.14C271.819 207.622 270.875 207.92 269.9 208.017C268.925 208.114 267.941 208.007 267.009 207.703L243.326 200.08C241.509 199.487 239.996 198.207 239.11 196.513C238.224 194.82 238.036 192.848 238.586 191.018L250.46 152.081C250.697 151.303 251.087 150.581 251.608 149.956C252.128 149.33 252.768 148.815 253.49 148.441C254.212 148.066 255.002 147.839 255.813 147.774C256.624 147.708 257.44 147.805 258.213 148.059L282.756 156.114C283.926 156.498 285.006 157.112 285.934 157.92C286.862 158.728 287.619 159.714 288.159 160.819C288.7 161.925 289.013 163.127 289.081 164.355C289.148 165.584 288.969 166.813 288.554 167.971L275.858 203.349C275.288 204.955 274.157 206.302 272.672 207.14Z" fill="#3F3D56"/>
<path d="M221.312 145.304C230.681 145.304 238.276 137.712 238.276 128.348C238.276 118.984 230.681 111.393 221.312 111.393C211.944 111.393 204.349 118.984 204.349 128.348C204.349 137.712 211.944 145.304 221.312 145.304Z" fill="#FFB6B6"/>
<path d="M163.95 145.559C165.507 148.575 168.059 150.96 171.175 152.31C172.418 152.876 173.725 153.289 175.068 153.541C175.448 152.037 176.055 150.599 176.87 149.278C176.598 150.767 176.598 152.293 176.87 153.781C178.915 153.949 180.973 153.693 182.916 153.031C184.824 152.382 186.554 151.298 187.97 149.865C189.386 148.431 190.448 146.688 191.071 144.773C192.423 140.278 190.967 135.478 190.853 130.787C190.735 126.095 192.963 120.483 197.623 119.903C201.172 119.46 200.733 119.804 203.283 122.31C199.716 126.27 208.411 143.81 213.077 143.035C215.715 142.597 217.656 140.504 218.178 140.576C220.849 147.116 212.813 156.391 219.187 159.435L218.714 158.81C215.378 153.301 225.25 143.996 221.913 138.487C220.983 136.946 220.016 135.139 220.592 133.434C221.138 131.813 223.904 131.3 224.487 132.776C223.539 129.394 226.187 125.425 229.704 125.08C232.829 124.772 232.649 125.662 235.628 126.475C236.009 125.192 236.558 123.965 237.26 122.825C237.022 124.125 236.993 125.454 237.173 126.763C238.248 126.892 239.335 126.662 240.265 126.109C243.017 124.461 243.098 120.205 241.208 117.615C239.315 115.025 236.143 113.745 233.083 112.778C233.055 106.31 215.643 103.213 212.441 109.227C212.112 104.358 206.528 101.078 201.718 101.905C196.907 102.732 193.112 106.587 190.799 110.884C188.486 115.178 187.337 119.986 185.644 124.559C183.95 129.133 181.53 133.693 177.475 136.407C173.42 139.117 167.395 139.363 164.009 135.851C163.237 137.35 162.83 139.011 162.819 140.698C162.809 142.384 163.196 144.05 163.95 145.559Z" fill="#2F2E41"/>
<path d="M181.356 223.095C181.707 222.814 182.088 222.573 182.492 222.376C188.984 219.146 209.176 210.762 224.964 211.106C255.341 211.768 294.001 245.278 285.004 267.781C278.157 284.904 244.121 294.646 219.276 286.854C184.47 275.939 170.731 231.563 181.356 223.095Z" fill="#3F3D56"/>
<path d="M0.745032 347.439L469.255 347.631C469.453 347.631 469.642 347.552 469.782 347.413C469.921 347.273 470 347.084 470 346.886C470 346.689 469.921 346.499 469.782 346.36C469.642 346.22 469.453 346.141 469.255 346.141L0.745032 345.949C0.547436 345.949 0.357936 346.028 0.218214 346.167C0.0784931 346.307 0 346.496 0 346.694C0 346.891 0.0784931 347.081 0.218214 347.221C0.357936 347.36 0.547436 347.439 0.745032 347.439Z" fill="#CACACA"/>
<path d="M263.518 181.009C262.244 181.056 261.038 181.597 260.157 182.519C259.277 183.44 258.79 184.669 258.802 185.943C258.809 186.202 258.836 186.46 258.885 186.714L244.182 195.391L245.962 204.397L264.818 190.335C265.858 190.05 266.774 189.429 267.423 188.569C268.072 187.709 268.419 186.658 268.408 185.581C268.396 184.968 268.263 184.363 268.017 183.802C267.771 183.24 267.417 182.732 266.975 182.307C266.533 181.882 266.011 181.548 265.44 181.325C264.869 181.102 264.259 180.993 263.646 181.005C263.603 181.006 263.56 181.007 263.518 181.009Z" fill="#FFB6B6"/>
<path d="M251.473 201.693C251.079 201.166 250.91 200.946 250.821 201.006C250.591 201.145 250.812 203.006 249.193 206.249C246.913 210.806 223.01 217.784 223.01 217.784L220.067 212.398L207.122 188.732L202.661 169.763C202.505 169.102 202.429 168.424 202.435 167.744C206.413 164.946 210.638 162.515 215.057 160.482C216.822 161.484 218.168 163.087 218.849 164.998L227.76 189.971L231.315 199.942C231.315 199.942 237.588 195.459 239.863 196.282C242.134 197.11 242.78 195.949 241.295 192.232C239.81 188.516 242.039 192.341 244.632 192.585C247.231 192.831 244.632 192.585 245.86 191.007C247.087 189.43 255.023 188.543 255.023 188.543L255.192 188.895L258.267 195.218L259.148 197.035C259.148 197.035 255.887 200.571 255.101 201.275C254.31 201.985 254.066 201.936 254.453 202.745C254.835 203.55 252.839 203.513 251.473 201.693Z" fill="#FFCB47"/>
</g>
<defs>
<clipPath id="clip0_1663_21735">
<rect width="470" height="348" fill="white"/>
</clipPath>
</defs>
</svg>
