<svg width="100%" height="100%" viewBox="0 0 512 380" fill="none" xmlns="http://www.w3.org/2000/svg">
<g clip-path="url(#clip0_1689_17409)">
<path d="M400.172 348.281C398.345 348.925 396.384 349.086 394.477 348.749C392.57 348.413 390.782 347.589 389.285 346.359C385.472 343.15 384.275 337.864 383.303 332.969L380.426 318.492L386.45 322.651C390.782 325.641 395.211 328.727 398.211 333.058C401.211 337.39 402.52 343.303 400.11 347.989" fill="#E6E6E6"/>
<path d="M399.657 365.808C400.267 361.356 400.894 356.847 400.466 352.347C400.086 348.351 398.871 344.447 396.394 341.247C395.08 339.551 393.481 338.098 391.668 336.954C391.195 336.655 390.761 337.406 391.231 337.703C394.367 339.69 396.792 342.623 398.158 346.081C399.666 349.926 399.908 354.118 399.646 358.202C399.489 360.672 399.156 363.125 398.82 365.577C398.793 365.688 398.809 365.805 398.865 365.904C398.922 366.004 399.014 366.078 399.123 366.111C399.233 366.141 399.351 366.126 399.451 366.069C399.551 366.012 399.624 365.918 399.655 365.808L399.657 365.808Z" fill="#F2F2F2"/>
<path d="M377.825 291.86H125.806V39.2168H377.825V291.86Z" fill="white"/>
<path d="M377.825 291.86H125.806V39.2168H377.825V291.86ZM129.529 288.127H374.101V42.9496H129.529V288.127Z" fill="#E5E5E5"/>
<path d="M333.179 78.7422H224.044V82.1502H333.179V78.7422Z" fill="#E5E5E5"/>
<path d="M333.179 87.6035H224.044V91.0115H333.179V87.6035Z" fill="#E5E5E5"/>
<path d="M333.179 96.4668H224.044V99.8748H333.179V96.4668Z" fill="#E5E5E5"/>
<path d="M333.179 154.83H224.044V158.238H333.179V154.83Z" fill="#E5E5E5"/>
<path d="M333.179 163.691H224.044V167.099H333.179V163.691Z" fill="#E5E5E5"/>
<path d="M333.179 172.551H224.044V175.959H333.179V172.551Z" fill="#E5E5E5"/>
<path d="M333.179 230.918H224.044V234.326H333.179V230.918Z" fill="#E5E5E5"/>
<path d="M333.179 239.777H224.044V243.185H333.179V239.777Z" fill="#E5E5E5"/>
<path d="M333.179 248.639H224.044V252.047H333.179V248.639Z" fill="#E5E5E5"/>
<path d="M180.355 105.895C178.49 104.91 176.544 104.089 174.538 103.441L174.283 100.605L163.91 99.4844L162.591 103.11L158.869 104.51C158.735 104.561 158.609 104.627 158.491 104.707H158.487C158.279 104.848 158.102 105.03 157.967 105.242C157.831 105.453 157.741 105.69 157.7 105.938C157.66 106.185 157.669 106.437 157.727 106.68L157.924 107.489C158.207 107.658 158.499 107.82 158.79 107.974L158.975 108.069C159.4 108.289 159.833 108.499 160.277 108.692C160.368 108.731 160.466 108.771 160.557 108.81C160.565 108.814 160.568 108.814 160.576 108.818C160.785 108.905 160.993 108.988 161.206 109.067C161.904 109.334 162.616 109.563 163.339 109.753C165.184 110.246 167.085 110.495 168.994 110.495C169.69 110.495 170.379 110.463 171.06 110.396C172.615 110.252 174.151 109.941 175.64 109.469C175.644 109.469 175.648 109.465 175.652 109.465C176.593 109.165 177.512 108.799 178.403 108.372C178.407 108.368 178.415 108.368 178.419 108.364C178.619 108.27 178.812 108.167 179.009 108.069L179.103 108.021C179.261 107.938 179.418 107.856 179.576 107.769C179.969 107.552 180.355 107.323 180.736 107.078C180.843 107.015 180.945 106.948 181.051 106.877C181.201 106.779 181.35 106.676 181.496 106.569C181.13 106.333 180.748 106.108 180.355 105.895Z" fill="#3F3D56"/>
<path d="M160.887 107.644L160.238 104.705H158.542C158.525 104.705 158.508 104.707 158.491 104.709H158.487C157.877 104.761 157.29 104.964 156.779 105.301C156.432 105.523 156.124 105.8 155.866 106.121C156.37 106.504 156.893 106.859 157.432 107.198L157.456 107.21C157.609 107.305 157.767 107.399 157.924 107.49C158.208 107.66 158.499 107.822 158.79 107.975L158.975 108.07C159.4 108.291 159.833 108.5 160.278 108.693C160.368 108.733 160.466 108.772 160.557 108.812C160.565 108.816 160.569 108.816 160.577 108.82C160.785 108.906 160.994 108.989 161.206 109.068L160.887 107.644Z" fill="#3F3D56"/>
<path d="M168.689 97.6935C172.815 97.6935 176.16 94.3404 176.16 90.2042C176.16 86.0679 172.815 82.7148 168.689 82.7148C164.563 82.7148 161.218 86.0679 161.218 90.2042C161.218 94.3404 164.563 97.6935 168.689 97.6935Z" fill="#FFB8B8"/>
<path d="M163.673 86.5547C164.447 87.4722 165.755 87.7311 166.963 87.8373C169.785 87.9936 172.616 87.7619 175.376 87.1486C175.547 88.8102 175.081 90.6019 176.057 91.9688C176.515 90.314 176.781 88.6118 176.85 86.896C176.923 86.1598 176.827 85.4167 176.57 84.7233C176.432 84.3758 176.2 84.074 175.9 83.8522C175.6 83.6303 175.244 83.4973 174.872 83.4683C175.428 83.045 176.08 82.7656 176.77 82.6547L174.398 81.4597L175.007 80.8327L170.713 80.5693L171.956 79.7771C170.084 79.5192 168.19 79.4593 166.306 79.5983C165.425 79.5987 164.561 79.8394 163.806 80.2947C163.097 80.803 162.688 81.8133 163.128 82.5597C162.577 82.6504 162.058 82.8807 161.62 83.2287C161.183 83.5767 160.841 84.0309 160.628 84.5483C160.358 85.3707 160.293 86.2468 160.438 87.1002C160.6 88.4694 160.917 89.8157 161.384 91.1126L163.673 86.5547Z" fill="#2F2E41"/>
<path d="M189.697 82.0842C188.649 79.0655 186.956 76.3123 184.737 74.0166C182.519 71.721 179.827 69.9381 176.851 68.7924C173.874 67.6467 170.684 67.1656 167.503 67.3828C164.322 67.6 161.226 68.5103 158.432 70.05C155.638 71.5898 153.212 73.7221 151.325 76.2981C149.437 78.8741 148.133 81.8319 147.502 84.9653C146.872 88.0986 146.931 91.3321 147.676 94.4401C148.42 97.5482 149.832 100.456 151.813 102.961C152.009 103.209 152.214 103.458 152.423 103.699C152.438 103.714 152.45 103.73 152.466 103.746C152.979 104.338 153.524 104.902 154.099 105.434C154.249 105.572 154.406 105.714 154.563 105.849C154.862 106.117 155.169 106.373 155.488 106.618C155.614 106.717 155.736 106.815 155.866 106.91C156.37 107.292 156.893 107.648 157.432 107.987L157.456 107.999C157.609 108.093 157.767 108.188 157.924 108.279C158.207 108.448 158.499 108.61 158.79 108.764L158.975 108.859C159.4 109.08 159.833 109.289 160.277 109.482C160.368 109.521 160.466 109.561 160.557 109.6C160.565 109.604 160.568 109.604 160.576 109.608C160.785 109.695 160.993 109.778 161.206 109.857C161.904 110.124 162.616 110.353 163.339 110.543C165.184 111.036 167.085 111.285 168.994 111.285C169.69 111.285 170.379 111.253 171.06 111.186C172.615 111.042 174.151 110.731 175.64 110.259C175.644 110.259 175.648 110.255 175.652 110.255C176.593 109.955 177.512 109.59 178.403 109.162C178.407 109.158 178.415 109.158 178.419 109.155C178.619 109.06 178.812 108.957 179.009 108.859L179.103 108.811C179.261 108.728 179.418 108.646 179.576 108.559C179.969 108.342 180.355 108.113 180.736 107.868C180.843 107.805 180.945 107.738 181.051 107.667C181.201 107.569 181.35 107.466 181.496 107.36C181.689 107.225 181.881 107.087 182.07 106.945C182.129 106.902 182.192 106.859 182.251 106.811C185.938 104.006 188.644 100.102 189.982 95.6604C191.319 91.2184 191.219 86.4659 189.697 82.0842ZM181.527 105.853C181.397 105.955 181.264 106.054 181.13 106.145C181 106.243 180.87 106.338 180.736 106.425C180.622 106.507 180.508 106.586 180.39 106.661L180.355 106.685C180.268 106.744 180.182 106.799 180.095 106.855C179.768 107.06 179.438 107.257 179.103 107.446L178.997 107.506C178.847 107.588 178.698 107.667 178.548 107.746C178.529 107.758 178.505 107.766 178.485 107.778L178.462 107.79C178.273 107.888 178.08 107.983 177.887 108.074C177.143 108.433 176.377 108.744 175.593 109.005C175.491 109.04 175.388 109.076 175.286 109.107C173.876 109.557 172.423 109.853 170.95 109.991C170.304 110.05 169.651 110.082 168.994 110.082C167.188 110.085 165.39 109.849 163.646 109.379C162.751 109.145 161.874 108.847 161.021 108.488C160.978 108.468 160.93 108.452 160.887 108.433C160.84 108.413 160.797 108.397 160.753 108.377C160.706 108.358 160.663 108.338 160.616 108.314C160.246 108.152 159.88 107.975 159.522 107.79L159.349 107.699C158.912 107.47 158.483 107.225 158.066 106.965C157.944 106.89 157.818 106.811 157.7 106.728C157.668 106.709 157.641 106.689 157.609 106.669C157.33 106.484 157.05 106.29 156.779 106.089C156.594 105.951 156.409 105.813 156.228 105.671C155.925 105.442 155.634 105.198 155.35 104.945C155.201 104.819 155.055 104.681 154.914 104.551C154.356 104.034 153.827 103.486 153.332 102.91C153.166 102.72 153.005 102.531 152.851 102.334C152.817 102.295 152.784 102.254 152.753 102.211C150.196 98.977 148.658 95.0524 148.336 90.9383C148.013 86.8241 148.92 82.7068 150.94 79.1114C152.961 75.5159 156.005 72.6054 159.682 70.7509C163.36 68.8964 167.505 68.1821 171.589 68.6989C175.674 69.2157 179.512 70.9404 182.614 73.6528C185.717 76.3653 187.943 79.9427 189.009 83.9288C190.076 87.9148 189.933 92.1289 188.601 96.0336C187.268 99.9383 184.806 103.357 181.527 105.853Z" fill="#3F3D56"/>
<path d="M189.697 158.172C188.649 155.153 186.957 152.4 184.738 150.105C182.519 147.809 179.828 146.026 176.851 144.88C173.874 143.735 170.684 143.254 167.503 143.471C164.322 143.688 161.227 144.598 158.432 146.138C155.638 147.678 153.213 149.81 151.325 152.386C149.437 154.962 148.133 157.92 147.503 161.053C146.873 164.186 146.932 167.42 147.676 170.528C148.421 173.636 149.832 176.544 151.813 179.049C152.01 179.297 152.214 179.546 152.423 179.786C152.439 179.802 152.45 179.818 152.466 179.834C152.979 180.426 153.524 180.99 154.099 181.522C154.249 181.66 154.406 181.802 154.564 181.936C154.863 182.205 155.17 182.461 155.488 182.706C156.111 183.198 156.76 183.655 157.432 184.075L157.456 184.086C157.893 184.359 158.337 184.611 158.79 184.852L158.975 184.947C159.4 185.167 159.833 185.376 160.278 185.57C160.368 185.609 160.466 185.649 160.557 185.688C160.565 185.692 160.569 185.692 160.577 185.696C161.475 186.071 162.398 186.383 163.339 186.631C165.184 187.124 167.085 187.373 168.994 187.373C169.691 187.373 170.379 187.341 171.06 187.274C172.615 187.13 174.151 186.819 175.641 186.347C175.645 186.347 175.648 186.343 175.652 186.343C176.593 186.043 177.512 185.677 178.403 185.25C178.407 185.246 178.415 185.246 178.419 185.242C178.619 185.148 178.812 185.045 179.009 184.946L179.104 184.899C179.261 184.816 179.418 184.733 179.576 184.647C179.969 184.43 180.355 184.201 180.737 183.956C180.843 183.893 180.945 183.826 181.051 183.755C181.398 183.526 181.74 183.282 182.071 183.033C182.13 182.99 182.193 182.946 182.252 182.899C185.938 180.094 188.644 176.19 189.982 171.748C191.319 167.306 191.22 162.554 189.697 158.172Z" fill="white"/>
<path d="M176.228 174.453C178.043 174.453 179.514 172.978 179.514 171.159C179.514 169.34 178.043 167.865 176.228 167.865C174.414 167.865 172.943 169.34 172.943 171.159C172.943 172.978 174.414 174.453 176.228 174.453Z" fill="#2F2E41"/>
<path d="M177.144 167.958C177.712 167.958 178.271 168.106 178.766 168.387C179.26 168.669 179.673 169.074 179.965 169.564C180.256 170.053 180.416 170.61 180.429 171.18C180.441 171.75 180.306 172.313 180.036 172.815C180.321 172.458 180.528 172.045 180.645 171.603C180.762 171.161 180.785 170.699 180.715 170.248C180.644 169.796 180.48 169.364 180.233 168.979C179.986 168.594 179.662 168.265 179.282 168.013C178.901 167.761 178.473 167.591 178.023 167.514C177.573 167.437 177.112 167.455 176.67 167.566C176.228 167.677 175.813 167.88 175.453 168.161C175.093 168.441 174.795 168.794 174.579 169.197C174.886 168.81 175.276 168.498 175.72 168.284C176.164 168.069 176.651 167.958 177.144 167.958Z" fill="#2F2E41"/>
<path d="M170.089 171.154C175.419 171.154 179.74 166.822 179.74 161.478C179.74 156.135 175.419 151.803 170.089 151.803C164.758 151.803 160.437 156.135 160.437 161.478C160.437 166.822 164.758 171.154 170.089 171.154Z" fill="#2F2E41"/>
<path d="M162.514 155.473C164.177 153.598 166.501 152.444 168.997 152.255C171.493 152.066 173.964 152.856 175.889 154.459C175.811 154.383 175.732 154.307 175.651 154.235C173.744 152.522 171.237 151.639 168.681 151.78C166.125 151.921 163.73 153.074 162.022 154.985C160.314 156.896 159.433 159.41 159.574 161.972C159.714 164.534 160.864 166.935 162.771 168.648C162.789 168.664 162.807 168.68 162.826 168.697C162.908 168.77 162.992 168.839 163.076 168.909C161.262 167.179 160.19 164.811 160.085 162.305C159.981 159.798 160.851 157.349 162.514 155.473Z" fill="#2F2E41"/>
<path d="M170.007 171.072C173.44 171.072 176.223 168.282 176.223 164.841C176.223 161.399 173.44 158.609 170.007 158.609C166.574 158.609 163.791 161.399 163.791 164.841C163.791 168.282 166.574 171.072 170.007 171.072Z" fill="#A0616A"/>
<path d="M181.13 181.075V183.166C180.748 183.41 180.363 183.639 179.969 183.856C179.812 183.943 179.655 184.026 179.497 184.109L179.403 184.156C179.206 184.255 179.013 184.357 178.812 184.452C178.809 184.456 178.8 184.456 178.797 184.46C177.906 184.887 176.987 185.252 176.046 185.553C176.042 185.553 176.038 185.557 176.034 185.557C174.545 186.029 173.009 186.34 171.453 186.484C170.773 186.551 170.084 186.582 169.387 186.582C167.478 186.583 165.577 186.333 163.733 185.841C162.792 185.593 161.869 185.28 160.97 184.906C160.962 184.902 160.958 184.902 160.95 184.898C160.86 184.858 160.762 184.819 160.671 184.779C160.226 184.586 159.793 184.377 159.368 184.156L159.184 184.061C158.731 183.821 158.286 183.568 157.85 183.296L157.826 183.284C157.153 182.864 156.504 182.407 155.882 181.915C155.563 181.671 155.256 181.414 154.957 181.146C154.8 181.012 154.642 180.87 154.493 180.732C153.918 180.2 153.373 179.636 152.86 179.043C152.928 178.633 153.028 178.228 153.159 177.832L153.163 177.828C153.186 177.761 153.214 177.695 153.245 177.631C153.267 177.575 153.292 177.519 153.32 177.465C154.024 176.144 155.3 175.816 156.881 175.745C157.775 175.706 158.762 175.749 159.805 175.738C160.356 175.734 160.927 175.714 161.497 175.663C165.098 175.335 164.445 173.205 164.606 172.057C164.768 170.944 165.767 171.907 165.834 171.97L165.838 171.974C167.876 172.93 170.13 173.326 172.37 173.122C172.756 173.075 173.142 173.047 173.527 173.035C174.543 173.023 174.322 173.315 173.972 173.556C173.802 173.668 173.625 173.768 173.441 173.856C173.441 173.856 173.279 174.842 173.114 176.317C172.957 177.73 175.656 178.393 175.881 178.444C175.885 178.447 175.891 178.448 175.896 178.448C176.882 178.191 177.92 178.219 178.891 178.527H178.895C179.45 178.731 179.945 179.071 180.335 179.516C180.726 179.962 180.999 180.497 181.13 181.075Z" fill="#FFCB47"/>
<path d="M161.009 183.614C161.009 183.906 161.002 184.186 160.99 184.45C160.986 184.608 160.978 184.762 160.97 184.908C160.962 184.904 160.958 184.904 160.95 184.9C160.86 184.86 160.762 184.821 160.671 184.781C160.226 184.588 159.794 184.379 159.368 184.158L159.184 184.063C158.731 183.823 158.286 183.57 157.85 183.298C157.861 183.16 157.881 183.022 157.901 182.884C157.944 182.58 157.979 182.272 158.003 181.969C158.158 179.835 157.772 177.696 156.881 175.751V175.747C156.803 175.59 156.756 175.503 156.756 175.503C156.756 175.503 157.901 174.517 159.534 175.503C159.638 175.564 159.73 175.644 159.805 175.739C160.789 176.903 161.057 180.817 161.009 183.614Z" fill="#2F2E41"/>
<path d="M178.879 183.076C178.863 183.517 178.84 183.979 178.812 184.448V184.452C178.808 184.456 178.8 184.456 178.797 184.46C177.906 184.887 176.987 185.253 176.046 185.553C176.042 185.553 176.038 185.557 176.034 185.557L175.991 184.448L175.987 184.302L175.778 178.906C175.773 178.784 175.792 178.662 175.835 178.547C175.877 178.432 175.943 178.328 176.027 178.239C176.111 178.151 176.213 178.08 176.325 178.032C176.437 177.984 176.557 177.959 176.679 177.959H178.675C178.773 177.959 178.844 178.16 178.891 178.523V178.527C178.988 180.042 178.984 181.561 178.879 183.076Z" fill="#2F2E41"/>
<path d="M164.69 157.051V163.284H166.13L167.962 161.316L167.716 163.284H174.08L173.686 161.316L174.473 163.284H175.488V157.051H164.69Z" fill="#2F2E41"/>
<path d="M163.709 164.429C163.98 164.429 164.199 164.025 164.199 163.527C164.199 163.029 163.98 162.625 163.709 162.625C163.438 162.625 163.218 163.029 163.218 163.527C163.218 164.025 163.438 164.429 163.709 164.429Z" fill="#A0616A"/>
<path d="M176.305 164.429C176.576 164.429 176.796 164.025 176.796 163.527C176.796 163.029 176.576 162.625 176.305 162.625C176.034 162.625 175.814 163.029 175.814 163.527C175.814 164.025 176.034 164.429 176.305 164.429Z" fill="#A0616A"/>
<path d="M182.464 182.243C182.134 182.492 181.791 182.736 181.445 182.965C181.339 183.036 181.236 183.103 181.13 183.166C180.748 183.411 180.363 183.64 179.969 183.857C179.812 183.943 179.654 184.026 179.497 184.109V179.762C179.497 179.762 180.127 180.267 181.13 181.107C181.256 181.213 181.386 181.324 181.524 181.442C181.815 181.687 182.13 181.955 182.464 182.243Z" fill="#FFCB47"/>
<path d="M189.697 158.172C188.649 155.153 186.957 152.4 184.738 150.105C182.519 147.809 179.828 146.026 176.851 144.88C173.874 143.735 170.684 143.254 167.503 143.471C164.322 143.688 161.227 144.598 158.432 146.138C155.638 147.678 153.213 149.81 151.325 152.386C149.437 154.962 148.133 157.92 147.503 161.053C146.873 164.186 146.932 167.42 147.676 170.528C148.421 173.636 149.832 176.544 151.813 179.049C152.01 179.297 152.214 179.546 152.423 179.786C152.439 179.802 152.45 179.818 152.466 179.834C152.979 180.426 153.524 180.99 154.099 181.522C154.249 181.66 154.406 181.802 154.564 181.936C154.863 182.205 155.17 182.461 155.488 182.706C156.111 183.198 156.76 183.655 157.432 184.075L157.456 184.086C157.893 184.359 158.337 184.611 158.79 184.852L158.975 184.947C159.4 185.167 159.833 185.376 160.278 185.57C160.368 185.609 160.466 185.649 160.557 185.688C160.565 185.692 160.569 185.692 160.577 185.696C161.475 186.071 162.398 186.383 163.339 186.631C165.184 187.124 167.085 187.373 168.994 187.373C169.691 187.373 170.379 187.341 171.06 187.274C172.615 187.13 174.151 186.819 175.641 186.347C175.645 186.347 175.648 186.343 175.652 186.343C176.593 186.043 177.512 185.677 178.403 185.25C178.407 185.246 178.415 185.246 178.419 185.242C178.619 185.148 178.812 185.045 179.009 184.946L179.104 184.899C179.261 184.816 179.418 184.733 179.576 184.647C179.969 184.43 180.355 184.201 180.737 183.956C180.843 183.893 180.945 183.826 181.051 183.755C181.398 183.526 181.74 183.282 182.071 183.033C182.13 182.99 182.193 182.946 182.252 182.899C185.938 180.094 188.644 176.19 189.982 171.748C191.319 167.306 191.22 162.554 189.697 158.172ZM181.528 181.94C181.398 182.043 181.264 182.142 181.13 182.232C181 182.331 180.87 182.426 180.737 182.512C180.623 182.595 180.508 182.674 180.39 182.749C180.292 182.816 180.194 182.879 180.095 182.942C179.769 183.148 179.438 183.345 179.104 183.534L178.997 183.593C178.848 183.676 178.698 183.755 178.549 183.834C178.529 183.846 178.505 183.854 178.486 183.866L178.462 183.877C178.273 183.976 178.08 184.071 177.888 184.161C177.143 184.521 176.377 184.832 175.593 185.092C175.491 185.128 175.389 185.163 175.286 185.195C173.877 185.644 172.423 185.941 170.95 186.079C170.304 186.138 169.651 186.169 168.994 186.169C167.188 186.173 165.39 185.937 163.646 185.467C162.751 185.233 161.874 184.935 161.021 184.576C160.931 184.54 160.84 184.501 160.754 184.465C160.707 184.445 160.663 184.426 160.616 184.402C160.246 184.24 159.88 184.063 159.522 183.877L159.349 183.787C158.912 183.558 158.483 183.313 158.066 183.053C157.913 182.958 157.759 182.86 157.61 182.757C157.137 182.445 156.677 182.11 156.228 181.759C155.925 181.53 155.634 181.286 155.351 181.033C155.201 180.907 155.056 180.769 154.914 180.639C154.356 180.122 153.828 179.574 153.332 178.997C153.167 178.808 153.005 178.619 152.852 178.422C152.817 178.383 152.784 178.342 152.753 178.299C150.197 175.065 148.659 171.14 148.336 167.026C148.013 162.912 148.92 158.795 150.941 155.199C152.962 151.604 156.005 148.693 159.682 146.839C163.36 144.984 167.505 144.27 171.59 144.787C175.674 145.304 179.512 147.028 182.615 149.741C185.717 152.453 187.943 156.031 189.01 160.017C190.076 164.003 189.934 168.217 188.601 172.121C187.268 176.026 184.806 179.444 181.528 181.94Z" fill="#3F3D56"/>
<path d="M169.118 251.36C173.861 251.36 177.707 247.505 177.707 242.749C177.707 237.994 173.861 234.139 169.118 234.139C164.374 234.139 160.529 237.994 160.529 242.749C160.529 247.505 164.374 251.36 169.118 251.36Z" fill="#2F2E41"/>
<path d="M162.413 238.107C163.801 236.716 164.083 234.742 163.042 233.698C162.001 232.655 160.032 232.937 158.644 234.328C157.256 235.72 156.974 237.694 158.015 238.737C159.056 239.781 161.026 239.499 162.413 238.107Z" fill="#2F2E41"/>
<path d="M178.07 235.371C178.648 234.014 177.654 232.287 175.849 231.514C174.043 230.741 172.111 231.215 171.533 232.572C170.955 233.929 171.949 235.656 173.754 236.429C175.559 237.202 177.492 236.728 178.07 235.371Z" fill="#2F2E41"/>
<path d="M179.392 259.451L178.38 257.855C177.95 256.893 177.158 256.142 176.177 255.764C175.196 255.387 174.105 255.415 173.145 255.842C172.184 256.269 171.431 257.06 171.051 258.042C170.671 259.025 170.695 260.118 171.117 261.082L171.405 262.117L171.732 263.29C173.058 263.123 174.366 262.836 175.641 262.435C175.645 262.435 175.649 262.433 175.651 262.43C176.594 262.131 177.514 261.766 178.405 261.336C178.409 261.331 178.414 261.331 178.419 261.326C178.618 261.232 178.811 261.132 179.01 261.033C179.042 261.018 179.074 261.002 179.104 260.983C179.263 260.903 179.421 260.819 179.575 260.734C179.734 260.65 179.888 260.56 180.036 260.466L179.392 259.451Z" fill="#CACACA"/>
<path d="M169.39 252.111C173.416 252.111 176.68 248.84 176.68 244.804C176.68 240.768 173.416 237.496 169.39 237.496C165.364 237.496 162.101 240.768 162.101 244.804C162.101 248.84 165.364 252.111 169.39 252.111Z" fill="#FFB6B6"/>
<path d="M179.918 259.136C179.113 257.796 178.115 256.582 176.956 255.536C176.162 254.824 175.134 254.431 174.069 254.432H163.8C163.209 254.431 162.623 254.553 162.08 254.788C161.537 255.024 161.048 255.369 160.643 255.801C160.238 256.234 159.926 256.745 159.726 257.303C159.526 257.861 159.442 258.455 159.479 259.047C159.502 259.38 159.562 259.711 159.658 260.031C159.731 260.263 159.823 260.49 159.931 260.708L160.437 261.722C160.477 261.737 160.516 261.757 160.556 261.772C160.566 261.777 160.571 261.777 160.576 261.782C160.784 261.866 160.993 261.951 161.206 262.03C161.904 262.298 162.616 262.527 163.339 262.717C164.503 263.03 165.691 263.244 166.891 263.358C167.59 263.423 168.29 263.458 168.994 263.458C169.694 263.458 170.378 263.423 171.063 263.358C171.286 263.338 171.509 263.313 171.732 263.288C173.058 263.121 174.366 262.834 175.641 262.433C175.645 262.433 175.649 262.431 175.651 262.428C176.594 262.129 177.514 261.764 178.405 261.334C178.409 261.329 178.414 261.329 178.419 261.324C178.618 261.23 178.811 261.13 179.01 261.031C179.042 261.016 179.074 261 179.104 260.981C179.263 260.901 179.421 260.817 179.575 260.732C179.734 260.648 179.888 260.558 180.036 260.464C180.195 260.379 180.344 260.285 180.498 260.19C180.309 259.817 180.116 259.469 179.918 259.136Z" fill="#CACACA"/>
<path d="M165.66 255.765C164.71 255.32 163.622 255.27 162.635 255.625C161.648 255.981 160.842 256.715 160.392 257.665L159.479 259.048L159.043 259.709L158.378 260.713C158.517 260.788 158.651 260.863 158.79 260.937L158.973 261.032C159.4 261.251 159.832 261.459 160.278 261.653C160.328 261.678 160.382 261.698 160.437 261.723C160.477 261.738 160.516 261.758 160.556 261.773C160.566 261.778 160.571 261.778 160.576 261.783C160.784 261.867 160.992 261.952 161.206 262.031C161.904 262.299 162.616 262.528 163.339 262.718C164.503 263.031 165.691 263.245 166.89 263.359L167.238 262.181L167.575 261.057C168.02 260.1 168.068 259.006 167.709 258.014C167.35 257.022 166.613 256.213 165.66 255.765Z" fill="#CACACA"/>
<path d="M161.73 240.206C163.396 241.357 165.373 241.97 167.396 241.962C166.675 242.463 165.853 242.802 164.988 242.955C167.678 243.533 170.458 243.549 173.154 243.001C173.754 242.904 174.332 242.705 174.864 242.412C175.129 242.264 175.36 242.061 175.542 241.817C175.723 241.574 175.852 241.294 175.919 240.997C176.098 239.971 175.301 239.039 174.472 238.411C173.203 237.464 171.74 236.811 170.188 236.5C168.637 236.19 167.036 236.228 165.501 236.614C164.479 236.82 163.548 237.347 162.845 238.119C162.504 238.512 162.299 239.004 162.258 239.523C162.218 240.041 162.345 240.559 162.621 241L161.73 240.206Z" fill="#2F2E41"/>
<path d="M189.7 234.256C188.652 231.237 186.959 228.484 184.741 226.188C182.522 223.892 179.83 222.109 176.854 220.963C173.877 219.817 170.687 219.336 167.505 219.553C164.324 219.77 161.228 220.68 158.434 222.22C155.639 223.76 153.214 225.892 151.326 228.468C149.438 231.045 148.134 234.003 147.504 237.136C146.873 240.27 146.933 243.504 147.677 246.612C148.422 249.72 149.834 252.628 151.815 255.133C152.009 255.382 152.217 255.63 152.425 255.869C152.437 255.887 152.451 255.903 152.465 255.919C152.979 256.511 153.525 257.074 154.102 257.604C154.251 257.744 154.405 257.888 154.563 258.022C154.861 258.291 155.169 258.544 155.491 258.788C155.615 258.887 155.739 258.987 155.868 259.081C156.369 259.464 156.895 259.817 157.431 260.161C157.44 260.161 157.449 260.164 157.455 260.171C157.609 260.265 157.768 260.36 157.927 260.449C158.075 260.539 158.229 260.628 158.378 260.713C158.517 260.787 158.651 260.862 158.79 260.936L158.973 261.031C159.4 261.25 159.832 261.459 160.278 261.652C160.328 261.677 160.382 261.697 160.437 261.722C160.477 261.737 160.516 261.757 160.556 261.772C160.566 261.777 160.571 261.777 160.576 261.782C160.784 261.866 160.992 261.951 161.206 262.03C161.904 262.298 162.616 262.527 163.339 262.717C164.503 263.03 165.691 263.245 166.891 263.358C167.59 263.423 168.29 263.458 168.994 263.458C169.693 263.458 170.378 263.423 171.063 263.358C171.286 263.338 171.509 263.313 171.732 263.289C173.058 263.121 174.366 262.835 175.641 262.433C175.645 262.433 175.648 262.431 175.651 262.428C176.594 262.129 177.514 261.764 178.404 261.334C178.409 261.329 178.414 261.329 178.419 261.324C178.618 261.23 178.811 261.13 179.009 261.031C179.042 261.016 179.073 261 179.104 260.981C179.262 260.902 179.421 260.817 179.575 260.732C179.734 260.648 179.887 260.558 180.036 260.464C180.195 260.379 180.344 260.285 180.498 260.19C180.577 260.141 180.657 260.091 180.736 260.041C180.845 259.977 180.944 259.912 181.053 259.837C181.202 259.743 181.351 259.638 181.495 259.534C181.688 259.4 181.882 259.26 182.07 259.116C182.134 259.075 182.195 259.03 182.254 258.982C185.938 256.175 188.642 252.271 189.979 247.83C191.316 243.389 191.219 238.638 189.7 234.256ZM181.53 258.022C181.4 258.127 181.267 258.226 181.133 258.316C180.999 258.415 180.87 258.51 180.736 258.599C180.622 258.679 180.508 258.758 180.389 258.833C180.378 258.842 180.366 258.851 180.354 258.858C180.27 258.917 180.18 258.972 180.096 259.027C180.036 259.062 179.977 259.101 179.917 259.136C179.744 259.246 179.57 259.35 179.392 259.449C179.297 259.509 179.198 259.564 179.104 259.619C179.069 259.638 179.034 259.658 179 259.678C178.846 259.763 178.697 259.837 178.548 259.917C178.528 259.932 178.504 259.937 178.489 259.952C178.479 259.952 178.471 259.955 178.464 259.962C178.275 260.061 178.082 260.156 177.889 260.245C177.144 260.604 176.376 260.915 175.592 261.175C175.492 261.21 175.388 261.25 175.289 261.28C174.024 261.682 172.723 261.962 171.405 262.115C171.256 262.135 171.102 262.15 170.948 262.165C170.304 262.224 169.654 262.254 168.994 262.254C168.409 262.254 167.818 262.229 167.238 262.18C166.025 262.078 164.823 261.869 163.646 261.553C162.751 261.319 161.874 261.02 161.022 260.658C160.977 260.638 160.933 260.623 160.888 260.603C160.839 260.583 160.799 260.568 160.754 260.548C160.705 260.529 160.665 260.509 160.615 260.484C160.293 260.345 159.971 260.19 159.658 260.031C159.613 260.006 159.569 259.987 159.524 259.962L159.351 259.872C159.246 259.817 159.142 259.763 159.043 259.708C158.711 259.529 158.383 259.335 158.066 259.136C157.947 259.062 157.818 258.982 157.699 258.902L157.609 258.843C157.331 258.654 157.054 258.465 156.781 258.261C156.597 258.122 156.409 257.987 156.23 257.843C155.928 257.614 155.635 257.371 155.352 257.117C155.203 256.993 155.055 256.854 154.916 256.724C154.357 256.208 153.829 255.66 153.333 255.083C153.17 254.894 153.006 254.705 152.852 254.506C152.817 254.467 152.788 254.427 152.753 254.382C150.195 251.147 148.657 247.222 148.334 243.108C148.011 238.993 148.917 234.875 150.938 231.279C152.959 227.683 156.003 224.772 159.681 222.917C163.359 221.062 167.504 220.347 171.589 220.864C175.674 221.381 179.513 223.106 182.616 225.818C185.719 228.531 187.946 232.109 189.012 236.095C190.079 240.082 189.937 244.297 188.604 248.202C187.271 252.107 184.808 255.526 181.53 258.022Z" fill="#3F3D56"/>
<path d="M205.67 126.885C198.037 120.428 188.696 116.334 178.784 115.102C168.872 113.869 158.816 115.552 149.841 119.944C140.865 124.337 133.357 131.25 128.229 139.842C123.101 148.434 120.575 158.336 120.958 168.341C121.341 178.346 124.617 188.024 130.387 196.197C136.157 204.37 144.172 210.686 153.457 214.375C162.742 218.065 172.896 218.97 182.685 216.979C192.474 214.989 201.474 210.189 208.591 203.164L271.79 256.623C272.752 257.434 273.996 257.829 275.248 257.722C276.5 257.615 277.659 257.015 278.471 256.053C279.282 255.091 279.68 253.845 279.577 252.59C279.474 251.334 278.878 250.17 277.921 249.354L277.914 249.348L214.715 195.889C222.057 185.326 225.199 172.395 223.526 159.631C221.853 146.866 215.485 135.188 205.67 126.885ZM201.596 190.741C196.672 196.591 190.129 200.845 182.794 202.967C175.458 205.088 167.66 204.981 160.385 202.66C153.11 200.338 146.685 195.906 141.923 189.924C137.161 183.942 134.275 176.679 133.63 169.053C132.986 161.427 134.612 153.78 138.302 147.08C141.993 140.38 147.582 134.928 154.364 131.412C161.146 127.897 168.815 126.477 176.402 127.331C183.989 128.185 191.153 131.275 196.987 136.211C204.812 142.83 209.693 152.293 210.557 162.519C211.422 172.746 208.198 182.897 201.596 190.741Z" fill="#3F3D56"/>
<path opacity="0.3" d="M147.201 195.361C139.795 189.097 135.011 180.269 133.797 170.632C132.584 160.995 135.03 151.253 140.65 143.34C139.912 144.085 139.199 144.865 138.51 145.681C135.241 149.565 132.767 154.056 131.229 158.898C129.691 163.741 129.12 168.839 129.548 173.903C129.976 178.967 131.395 183.896 133.723 188.41C136.051 192.924 139.244 196.934 143.118 200.211C146.992 203.488 151.473 205.969 156.303 207.51C161.133 209.051 166.219 209.624 171.27 209.195C176.321 208.766 181.239 207.344 185.742 205.01C190.244 202.676 194.245 199.475 197.514 195.592C198.201 194.775 198.848 193.938 199.456 193.082C192.62 199.967 183.452 204.024 173.772 204.446C164.091 204.868 154.606 201.625 147.201 195.361Z" fill="black"/>
<path d="M333.079 258.623C333.573 258.018 333.928 257.313 334.121 256.556C334.313 255.799 334.337 255.009 334.192 254.242C334.047 253.475 333.736 252.749 333.281 252.115C332.825 251.481 332.237 250.955 331.557 250.574L320.037 203.307L311.634 205.996L324.073 252.941C323.51 254.129 323.401 255.482 323.767 256.745C324.133 258.007 324.948 259.092 326.059 259.792C327.169 260.492 328.497 260.76 329.79 260.545C331.084 260.329 332.255 259.645 333.079 258.623Z" fill="#FFB6B6"/>
<path d="M327.125 228.389L320.984 233.7L312.392 241.125L308.597 221.661L308.2 219.637L307.887 218.03L316.593 202.828L323.851 203.245L324.347 203.275L324.357 203.385L324.471 204.405L325.959 217.821L325.994 218.145L327.125 228.389Z" fill="#3F3D56"/>
<path d="M286.984 360.507L280.903 360.506L278.009 336.99L286.985 336.991L286.984 360.507Z" fill="#FFB6B6"/>
<path d="M288.535 366.417L268.925 366.416V366.167C268.925 364.138 269.73 362.192 271.161 360.757C272.592 359.322 274.534 358.516 276.558 358.516H276.559L288.536 358.516L288.535 366.417Z" fill="#2F2E41"/>
<path d="M350.48 361.003L344.399 361.002L341.506 337.486L350.482 337.487L350.48 361.003Z" fill="#FFB6B6"/>
<path d="M352.032 366.915L332.422 366.914V366.665C332.422 364.636 333.226 362.69 334.657 361.255C336.089 359.82 338.03 359.014 340.054 359.014H340.055L352.032 359.014L352.032 366.915Z" fill="#2F2E41"/>
<path d="M355.341 351.643L338.971 354.129L315.155 273.329L289.861 354.627L271.506 352.14L295.317 257.654V250.195L298.542 239.005L298.204 235.977L295.858 214.797L294.841 205.612L294.775 205.019C294.72 204.521 294.851 204.02 295.144 203.614C295.437 203.208 295.87 202.926 296.359 202.822L303.998 201.211H316.484L323.851 203.245L324.357 203.384L324.585 203.449L324.471 204.404L322.745 218.915L322.651 219.71L320.984 233.699L320.617 236.768C335.003 247.211 335.499 257.654 335.499 257.654L355.341 351.643Z" fill="#2F2E41"/>
<path d="M308.732 194.92C315.461 194.92 320.916 189.452 320.916 182.706C320.916 175.961 315.461 170.492 308.732 170.492C302.003 170.492 296.549 175.961 296.549 182.706C296.549 189.452 302.003 194.92 308.732 194.92Z" fill="#FFB6B6"/>
<path d="M321.53 233.961L297.427 237.121L297.878 240.573L321.98 237.413L321.53 233.961Z" fill="#3F3D56"/>
<path d="M265.098 238.161C265.329 238.311 265.547 238.478 265.751 238.662L289.59 232.57L291.217 226.805L300.217 228.128L298.327 238.615C298.174 239.462 297.752 240.237 297.123 240.823C296.493 241.409 295.691 241.774 294.837 241.864L267.003 244.803C266.549 245.76 265.815 246.557 264.899 247.086C263.983 247.615 262.928 247.852 261.874 247.766C260.82 247.679 259.817 247.273 258.999 246.601C258.181 245.93 257.586 245.024 257.294 244.005C257.002 242.987 257.026 241.903 257.364 240.898C257.701 239.893 258.335 239.015 259.182 238.381C260.03 237.747 261.049 237.386 262.106 237.347C263.163 237.307 264.206 237.592 265.098 238.161Z" fill="#FFB6B6"/>
<path d="M301.766 205.936L297.55 202.704C296.41 202.271 294.847 203.502 294.573 204.693L288.62 229.061L301.022 238.012L302.758 235.277L301.766 205.936Z" fill="#3F3D56"/>
<g opacity="0.2">
<path d="M325.959 217.821C324.907 218.239 323.834 218.605 322.745 218.915C322.397 219.019 322.04 219.119 321.688 219.213C319.366 219.859 316.981 220.246 314.574 220.367C313.539 220.411 312.501 220.382 311.469 220.282C310.361 220.172 309.267 219.955 308.2 219.636C308.165 219.626 308.126 219.616 308.091 219.606C305.873 218.975 303.839 217.816 302.163 216.229C301.788 215.864 301.439 215.473 301.116 215.061C300.19 213.923 299.51 212.605 299.121 211.189C298.731 209.774 298.641 208.293 298.854 206.84C298.896 206.577 298.952 206.316 299.023 206.06C299.21 205.36 299.457 204.677 299.762 204.021C299.896 203.712 300.045 203.409 300.204 203.111L305.809 201.211H316.484L323.851 203.245L324.347 203.275L324.357 203.384L324.585 203.449L324.471 204.404L325.959 217.821Z" fill="black"/>
</g>
<path d="M299.396 172.593C297.118 172.313 294.617 172.511 292.841 173.969C291.065 175.427 290.492 178.459 292.174 180.025C293.662 181.412 295.99 181.086 297.984 181.481C299.702 181.867 301.24 182.819 302.354 184.186C303.468 185.552 304.092 187.254 304.127 189.018C304.097 194.078 299.254 197.909 298.384 202.893C297.79 206.294 299.221 209.874 301.695 212.277C304.169 214.679 307.57 215.978 310.996 216.33C314.423 216.681 317.888 216.144 321.218 215.262C324.562 214.375 327.855 213.118 330.661 211.09C333.467 209.063 335.767 206.204 336.668 202.856C337.568 199.508 336.922 195.67 334.6 193.099C331.942 190.156 327.519 189.144 325.22 185.911C322.642 182.286 323.596 177.125 321.509 173.196C320.116 170.573 317.479 168.783 314.668 167.841C311.856 166.898 308.854 166.712 305.891 166.621C304.334 166.573 302.729 166.557 301.278 167.126C299.827 167.695 298.551 168.993 298.476 170.553C298.401 172.113 299.396 172.593 299.396 172.593Z" fill="#2F2E41"/>
<path d="M413.461 367.116H224.46C224.329 367.116 224.202 367.063 224.109 366.97C224.016 366.877 223.964 366.75 223.964 366.618C223.964 366.486 224.016 366.36 224.109 366.267C224.202 366.173 224.329 366.121 224.46 366.121H413.461C413.593 366.121 413.719 366.173 413.812 366.267C413.905 366.36 413.958 366.486 413.958 366.618C413.958 366.75 413.905 366.877 413.812 366.97C413.719 367.063 413.593 367.116 413.461 367.116Z" fill="#CACACA"/>
</g>
<defs>
<clipPath id="clip0_1689_17409">
<rect width="293.038" height="327.898" fill="white" transform="translate(120.919 39.2168)"/>
</clipPath>
</defs>
</svg>
