<svg width="114" height="114" viewBox="0 0 114 114" fill="none" xmlns="http://www.w3.org/2000/svg">
<g filter="url(#filter0_d_171_25970)">
<path d="M56.9998 82.8334C76.79 82.8334 92.8332 66.7903 92.8332 47.0001C92.8332 27.2099 76.79 11.1667 56.9998 11.1667C37.2096 11.1667 21.1665 27.2099 21.1665 47.0001C21.1665 66.7903 37.2096 82.8334 56.9998 82.8334Z" fill="#9747FF"/>
<path d="M56.9998 82.8334C76.79 82.8334 92.8332 66.7903 92.8332 47.0001C92.8332 27.2099 76.79 11.1667 56.9998 11.1667C37.2096 11.1667 21.1665 27.2099 21.1665 47.0001C21.1665 66.7903 37.2096 82.8334 56.9998 82.8334Z" stroke="white" stroke-width="1.5" stroke-linecap="round" stroke-linejoin="round"/>
</g>
<path d="M44.4585 47H65.9585" stroke="white" stroke-width="1.5" stroke-linecap="round" stroke-linejoin="round"/>
<path d="M58.7915 57.75L69.5415 47L58.7915 36.25" stroke="white" stroke-width="1.5" stroke-linecap="round" stroke-linejoin="round"/>
<defs>
<filter id="filter0_d_171_25970" x="0.416504" y="0.416748" width="113.167" height="113.167" filterUnits="userSpaceOnUse" color-interpolation-filters="sRGB">
<feFlood flood-opacity="0" result="BackgroundImageFix"/>
<feColorMatrix in="SourceAlpha" type="matrix" values="0 0 0 0 0 0 0 0 0 0 0 0 0 0 0 0 0 0 127 0" result="hardAlpha"/>
<feOffset dy="10"/>
<feGaussianBlur stdDeviation="10"/>
<feComposite in2="hardAlpha" operator="out"/>
<feColorMatrix type="matrix" values="0 0 0 0 0 0 0 0 0 0 0 0 0 0 0 0 0 0 0.25 0"/>
<feBlend mode="normal" in2="BackgroundImageFix" result="effect1_dropShadow_171_25970"/>
<feBlend mode="normal" in="SourceGraphic" in2="effect1_dropShadow_171_25970" result="shape"/>
</filter>
</defs>
</svg>
