<svg width="100%" height="100%" viewBox="0 0 50 40" fill="none" xmlns="http://www.w3.org/2000/svg">
<path d="M12.822 0.21917C8.7277 1.28585 6.42196 5.24009 7.47786 9.3775C7.90884 11.0476 9.00784 12.6745 10.0314 13.1378C10.9904 13.5796 11.9493 13.321 12.3156 12.5452C12.6927 11.7694 12.391 10.9614 11.5722 10.5088C10.6779 10.0024 10.0637 8.12766 10.3223 6.64078C10.6025 4.9384 11.6691 3.74243 13.3607 3.21448C14.5675 2.83737 16.2483 3.03132 17.1103 3.64546L17.4335 3.8825L17.0133 4.44278C14.9769 7.12563 14.9015 11.123 16.8517 12.9008C19.4699 15.3035 23.1656 11.7587 22.6161 7.37344C22.5083 6.48993 22.1635 5.30474 21.8187 4.64749C21.6356 4.30271 21.6356 4.30271 21.9804 4.09799C22.1635 3.97947 22.6484 3.78553 23.0578 3.65624C24.0275 3.34378 25.579 3.38688 26.5272 3.75321L27.1521 4.00102L26.4949 4.65827C24.6848 6.46838 23.7689 8.90342 24.1029 11.0476C24.34 12.5237 24.9218 13.4718 25.9023 13.9567C26.7427 14.3661 27.7555 14.3122 28.8114 13.7951C29.9427 13.2456 31.3757 11.7694 31.9791 10.5519C32.8087 8.86033 32.938 7.2226 32.3778 5.55255C32.2269 5.13235 32.13 4.76601 32.1515 4.75524C32.27 4.63672 33.1428 4.5182 33.9939 4.5182C35.1684 4.5182 36.2458 4.80911 36.7522 5.26164L37.0862 5.55255L36.6122 5.83269C35.3515 6.57613 33.9724 8.24618 33.5091 9.59299C33.1966 10.4873 33.1104 11.6509 33.2828 12.3836C33.466 13.1378 34.1987 13.9243 34.8882 14.1075C35.9765 14.3984 37.2048 13.8597 38.5085 12.556C39.7691 11.2846 40.4694 9.79771 40.6526 8.05224L40.728 7.33035L41.3422 7.25492C43.4971 6.95324 45.5981 7.41654 46.417 8.34315C46.8479 8.83878 46.9988 9.45292 46.9449 10.5519C46.891 11.6617 46.557 12.4482 45.6412 13.6658C44.9732 14.5385 44.8331 14.9695 45.0271 15.5513C45.2533 16.2409 46.1045 16.7149 46.8048 16.5426C47.3974 16.3917 48.5503 15.0233 49.2183 13.6873C49.9833 12.1789 50.2204 9.93778 49.7786 8.37547C49.2291 6.37141 47.6453 5.00305 45.1671 4.3889C44.0573 4.11954 41.7408 4.06567 40.6634 4.28116C40.0384 4.41045 40.0061 4.41045 39.8553 4.17341C38.2499 1.73837 34.5111 0.800993 30.9663 1.94309L29.9966 2.25555L29.5656 1.94309C27.9602 0.800993 25.6976 0.208395 23.7689 0.423885C22.6807 0.553179 21.7541 0.844091 20.6443 1.40437C20.181 1.64141 19.7393 1.79225 19.6746 1.74915C19.5992 1.70605 19.3514 1.52289 19.1143 1.33972C18.5648 0.930287 17.3581 0.370012 16.5285 0.154522C15.6234 -0.071743 13.8348 -0.0501938 12.822 0.21917ZM29.6626 7.58893C29.6626 8.21385 29.6087 8.46167 29.3394 9.05427C28.8653 10.0563 27.4107 11.4462 27.1952 11.0906C27.0228 10.8213 27.0228 9.90545 27.1844 9.25898C27.4215 8.35392 27.9063 7.54584 28.6929 6.73775L29.3394 6.09128L29.501 6.46838C29.5872 6.66233 29.6626 7.16873 29.6626 7.58893ZM19.4807 7.03943C19.7608 8.14921 19.5776 9.5068 19.0497 10.2502C18.7696 10.6381 18.6941 10.5519 18.511 9.71151C18.4248 9.28053 18.4248 8.94652 18.5217 8.41857C18.6403 7.70745 19.1036 6.56536 19.276 6.56536C19.3191 6.56536 19.416 6.78085 19.4807 7.03943ZM36.9785 9.70074C36.8707 9.8839 36.7199 10.0886 36.6337 10.1533C36.4505 10.3041 36.5152 10.164 36.86 9.65764C37.1401 9.25898 37.2155 9.29131 36.9785 9.70074Z" fill="black"/>
<path d="M20.9254 20.5292C19.9234 21.0249 19.8587 22.5549 20.8177 23.1475C21.5719 23.6108 22.7248 23.3414 23.1019 22.6195C23.3281 22.1777 23.3066 21.4666 23.048 21.0572C22.6493 20.4107 21.6689 20.1629 20.9254 20.5292Z" fill="black"/>
<path d="M10.107 20.9495C8.67402 21.3051 7.24101 22.1994 6.3144 23.3199C5.65716 24.1172 4.7521 25.6688 4.05176 27.1987L3.55613 28.2654L2.98508 28.3839C1.83221 28.621 0.894823 29.3429 0.356097 30.3988C-0.053335 31.2069 -0.117982 32.349 0.205253 33.2001C0.50694 34.0082 1.23961 34.8163 2.01537 35.1934C2.5541 35.4628 2.74804 35.4951 3.6531 35.4951C4.53661 35.4951 4.76287 35.452 5.3016 35.2042C7.4565 34.1914 8.1353 31.5409 6.71306 29.6769L6.42215 29.2998L6.83158 28.4055C8.30769 25.1408 9.48211 23.9879 11.4862 23.8156C12.7683 23.7078 13.2855 23.2661 13.2855 22.2963C13.2855 21.7037 13.0593 21.3051 12.5636 21.0034C12.1542 20.7448 11.0444 20.7233 10.107 20.9495ZM4.27802 31.4762C4.49351 31.6917 4.42886 32.1766 4.17028 32.3597C3.70697 32.6937 3.00663 32.4567 3.00663 31.9719C3.00663 31.487 3.92246 31.1207 4.27802 31.4762Z" fill="black"/>
<path d="M40.6418 21.8221C39.9737 22.1561 39.6613 23.0827 39.963 23.8477C40.0168 24.0094 40.4586 24.5481 40.9434 25.0653C42.7859 27.0154 44.0465 29.5367 44.0896 31.3252L44.1112 32.1226L43.4539 32.3596C42.2579 32.8014 41.5037 33.4909 40.9542 34.6653C40.6956 35.2041 40.6633 35.4088 40.6633 36.3569C40.6633 37.3159 40.6956 37.499 40.9542 37.9839C41.5576 39.1368 42.6135 39.7725 43.9064 39.7725C45.3825 39.7725 46.6863 38.8997 47.4189 37.4021C47.7422 36.7556 47.7745 36.594 47.7745 35.7105C47.7745 34.7839 47.7529 34.6761 47.3758 33.9219C46.988 33.1461 46.9772 33.103 47.0957 32.532C47.322 31.3252 46.9987 29.3966 46.2876 27.7266C45.5765 26.0781 44.0896 23.8154 43.1415 22.9427C42.9798 22.7918 42.7859 22.5332 42.6997 22.3716C42.3549 21.7144 41.3852 21.4558 40.6418 21.8221ZM44.7684 35.5058C44.9192 36.0768 44.262 36.8741 43.7987 36.7017C43.5832 36.6155 43.5832 36.1738 43.7879 35.7643C44.0896 35.1933 44.6499 35.0425 44.7684 35.5058Z" fill="black"/>
<path d="M29.3726 21.9726C28.8339 22.2743 28.543 22.7592 28.543 23.3949C28.543 24.3646 29.5342 25.0757 30.4716 24.7848C31.6676 24.4292 32.0555 23.0285 31.1827 22.1881C30.7086 21.7248 29.9868 21.6386 29.3726 21.9726Z" fill="black"/>
<path d="M22.3901 29.6233C21.5712 29.7526 20.5369 30.1081 19.815 30.5068C18.5759 31.1964 17.2829 32.4354 16.755 33.4482C16.1408 34.6226 17.3045 35.9695 18.5651 35.5493C18.8345 35.4631 19.1362 35.1937 19.5671 34.655C21.3449 32.4677 24.0386 31.9398 25.7302 33.459C26.4413 34.0947 26.7214 34.7304 26.8292 35.9156C26.9154 36.9284 27.0447 37.2193 27.6049 37.6395C27.982 37.9196 28.7794 37.9196 29.1565 37.6395C29.7706 37.1762 29.8891 36.8961 29.8784 35.9479C29.8245 32.4785 27.2925 29.8064 23.8554 29.5909C23.3813 29.5586 22.7241 29.5694 22.3901 29.6233Z" fill="black"/>
</svg>
