<svg width="27" height="24" viewBox="0 0 27 24" fill="none" xmlns="http://www.w3.org/2000/svg">
<path d="M13.0441 15C14.845 15 16.3049 13.6569 16.3049 12C16.3049 10.3431 14.845 9 13.0441 9C11.2431 9 9.7832 10.3431 9.7832 12C9.7832 13.6569 11.2431 15 13.0441 15Z" stroke="#292D32" stroke-width="1.5" stroke-miterlimit="10" stroke-linecap="round" stroke-linejoin="round"/>
<path d="M2.17383 12.8794V11.1194C2.17383 10.0794 3.09774 9.21945 4.23905 9.21945C6.20644 9.21945 7.01079 7.93945 6.02165 6.36945C5.45644 5.46945 5.79339 4.29945 6.78252 3.77945L8.66296 2.78945C9.52165 2.31945 10.6304 2.59945 11.1412 3.38945L11.2608 3.57945C12.239 5.14945 13.8477 5.14945 14.8369 3.57945L14.9564 3.38945C15.4673 2.59945 16.576 2.31945 17.4347 2.78945L19.3151 3.77945C20.3043 4.29945 20.6412 5.46945 20.076 6.36945C19.0869 7.93945 19.8912 9.21945 21.8586 9.21945C22.989 9.21945 23.9238 10.0694 23.9238 11.1194V12.8794C23.9238 13.9194 22.9999 14.7794 21.8586 14.7794C19.8912 14.7794 19.0869 16.0594 20.076 17.6294C20.6412 18.5394 20.3043 19.6994 19.3151 20.2194L17.4347 21.2094C16.576 21.6794 15.4673 21.3994 14.9564 20.6094L14.8369 20.4194C13.8586 18.8494 12.2499 18.8494 11.2608 20.4194L11.1412 20.6094C10.6304 21.3994 9.52165 21.6794 8.66296 21.2094L6.78252 20.2194C5.79339 19.6994 5.45644 18.5294 6.02165 17.6294C7.01079 16.0594 6.20644 14.7794 4.23905 14.7794C3.09774 14.7794 2.17383 13.9194 2.17383 12.8794Z" stroke="#292D32" stroke-width="1.5" stroke-miterlimit="10" stroke-linecap="round" stroke-linejoin="round"/>
</svg>
