<svg width="24" height="24" viewBox="0 0 24 24" fill="none" xmlns="http://www.w3.org/2000/svg">
<path d="M14.4996 2.30005C13.4996 2.30005 12.5996 3.10005 12.5996 4.20005V8.80005C12.5996 9.80005 13.3996 10.7 14.4996 10.7C15.4996 10.7 16.3996 9.90005 16.3996 8.80005V4.10005C16.3996 3.10005 15.5996 2.30005 14.4996 2.30005Z" stroke="#7B7B7B" stroke-width="1.5" stroke-miterlimit="10" stroke-linecap="round" stroke-linejoin="round"/>
<path d="M18.5996 10.6H20.1996C21.0996 10.6 21.7996 9.90002 21.7996 9.00002C21.7996 8.10002 21.0996 7.40002 20.1996 7.40002C19.2996 7.40002 18.5996 8.10002 18.5996 9.00002V10.6Z" stroke="#7B7B7B" stroke-width="1.5" stroke-miterlimit="10" stroke-linecap="round" stroke-linejoin="round"/>
<path d="M2 9.20005C2 10.2 2.8 11.1 3.9 11.1H8.5C9.5 11.1 10.4 10.3 10.4 9.20005C10.4 8.20005 9.6 7.30005 8.5 7.30005H3.9C2.8 7.40005 2 8.20005 2 9.20005Z" stroke="#7B7B7B" stroke-width="1.5" stroke-miterlimit="10" stroke-linecap="round" stroke-linejoin="round"/>
<path d="M10.4002 5.1V3.6C10.4002 2.7 9.7002 2 8.8002 2C7.9002 2 7.2002 2.7 7.2002 3.6C7.2002 4.5 7.9002 5.2 8.8002 5.2H10.4002V5.1Z" stroke="#7B7B7B" stroke-width="1.5" stroke-miterlimit="10" stroke-linecap="round" stroke-linejoin="round"/>
<path d="M9.4 21.8C10.4 21.8 11.3 21 11.3 19.9V15.3C11.3 14.3 10.5 13.4 9.4 13.4C8.4 13.4 7.5 14.2 7.5 15.3V19.9C7.6 20.9 8.4 21.8 9.4 21.8Z" stroke="#7B7B7B" stroke-width="1.5" stroke-miterlimit="10" stroke-linecap="round" stroke-linejoin="round"/>
<path d="M5.4002 13.4H3.8002C2.9002 13.4 2.2002 14.1 2.2002 15C2.2002 15.9 2.9002 16.6 3.8002 16.6C4.7002 16.6 5.4002 15.9 5.4002 15V13.4Z" stroke="#7B7B7B" stroke-width="1.5" stroke-miterlimit="10" stroke-linecap="round" stroke-linejoin="round"/>
<path d="M21.9996 14.8C21.9996 13.8 21.1996 12.9 20.0996 12.9H15.4996C14.4996 12.9 13.5996 13.7 13.5996 14.8C13.5996 15.8 14.3996 16.7 15.4996 16.7H20.0996C21.0996 16.7 21.9996 15.8 21.9996 14.8Z" stroke="#7B7B7B" stroke-width="1.5" stroke-miterlimit="10" stroke-linecap="round" stroke-linejoin="round"/>
<path d="M13.5996 18.8V20.4C13.5996 21.3 14.2996 22 15.1996 22C16.0996 22 16.7996 21.3 16.7996 20.4C16.7996 19.5 16.0996 18.8 15.1996 18.8H13.5996Z" stroke="#7B7B7B" stroke-width="1.5" stroke-miterlimit="10" stroke-linecap="round" stroke-linejoin="round"/>
</svg>
