<svg width="100%" height="100%" viewBox="0 0 81 70" fill="none" xmlns="http://www.w3.org/2000/svg">
<path d="M29.5133 11.2868C33.3699 11.2868 37.0685 12.8189 39.7956 15.5459C42.5226 18.2729 44.0546 21.9716 44.0546 25.8282C44.0546 29.6848 42.5226 33.3834 39.7956 36.1104C37.0685 38.8375 33.3699 40.3695 29.5133 40.3695C25.6567 40.3695 21.9581 38.8375 19.231 36.1104C16.504 33.3834 14.972 29.6848 14.972 25.8282C14.972 21.9716 16.504 18.2729 19.231 15.5459C21.9581 12.8189 25.6567 11.2868 29.5133 11.2868ZM29.5133 47.6401C39.2196 47.6401 58.5959 52.5115 58.5959 62.1815V69.4521H0.430664V62.1815C0.430664 52.5115 19.807 47.6401 29.5133 47.6401ZM57.7235 12.5956C65.0668 20.5933 65.0668 31.681 57.7235 39.0244L51.6161 32.8807C54.6698 28.591 54.6698 23.029 51.6161 18.7393L57.7235 12.5956ZM69.7564 0.380859C84.0432 15.1039 83.9342 37.134 69.7564 51.2755L63.8308 45.3499C73.9007 33.7895 73.9007 17.2851 63.8308 6.30645L69.7564 0.380859Z" fill="#6B6B6B"/>
</svg>
