<svg viewBox="0 0 457 38" fill="none" xmlns="http://www.w3.org/2000/svg">
  <path d="M0.73 9.732C0.73 5.028 4.048 2.046 8.5 2.046H26.56C31.012 2.046 34.33 5.028 34.33 9.732C34.33 14.436 31.012 17.418 26.56 17.418H8.5C4.048 17.418 0.73 14.436 0.73 9.732ZM3.25 9.732C3.25 12.798 5.182 15.234 8.5 15.234H26.56C29.878 15.234 31.81 12.798 31.81 9.732C31.81 6.666 29.878 4.23 26.56 4.23H8.5C5.182 4.23 3.25 6.666 3.25 9.732ZM17.53 14.142C17.362 10.824 16.144 9.858 13.414 9.732C16.144 9.606 17.362 8.64 17.53 5.322C17.698 8.64 18.874 9.606 21.646 9.732C18.874 9.858 17.698 10.824 17.53 14.142ZM0.94 22.794H34.12V24.978H18.79V37.578H16.27V24.978H0.94V22.794ZM70.2269 37.578V2.046H72.7469V37.578H70.2269ZM40.4069 17.586H59.6849V4.23H40.4069V2.046H62.2049V19.77H42.9269V35.394H52.0829C56.7029 35.394 60.8609 35.226 64.5149 34.47V36.654C60.8609 37.41 56.7029 37.578 52.0829 37.578H40.4069V17.586ZM81.9738 2.046V13.134H112.004V15.318H79.4538V2.046H81.9738ZM79.0338 20.904H112.214V23.088H79.0338V20.904ZM82.3938 28.254V35.394H112.214V37.578H79.8738V28.254H82.3938ZM130.618 2.046V10.404H160.648V12.588H128.098V2.046H130.618ZM127.678 16.914H160.858V19.098H127.678V16.914ZM128.098 37.578V29.094H157.918V25.356H128.098V23.172H160.438V31.278H130.618V35.394H160.858V37.578H128.098ZM206.773 24.978H204.169C205.513 17.586 206.395 10.488 206.605 4.23H176.533V2.046H209.293C208.999 10.488 208.117 17.586 206.773 24.978ZM176.323 35.394H189.133V17.166H191.653V35.394H209.503V37.578H176.323V35.394ZM237.21 2.046V20.358H215.79V2.046H237.21ZM245.61 27.918V2.046H248.13V27.918H245.61ZM218.31 4.23V18.174H234.69V4.23H218.31ZM218.73 25.734V35.394H248.55V37.578H216.21V25.734H218.73ZM253.997 4.986H261.977V0.785999H264.497V4.986H272.477V7.17H253.997V4.986ZM276.257 37.578V2.046H278.777V17.796H284.657V2.046H287.177V37.578H284.657V19.98H278.777V37.578H276.257ZM254.627 18.636C254.627 13.764 257.483 10.026 263.237 10.026C268.991 10.026 271.847 13.764 271.847 18.636V29.388C271.847 34.26 268.991 37.998 263.237 37.998C257.483 37.998 254.627 34.26 254.627 29.388V18.636ZM263.237 35.814C267.353 35.814 269.327 33.126 269.327 29.388V18.636C269.327 14.898 267.353 12.21 263.237 12.21C259.121 12.21 257.147 14.898 257.147 18.636V29.388C257.147 33.126 259.121 35.814 263.237 35.814ZM263.237 28.086C263.069 24.768 261.851 23.802 259.121 23.676C261.851 23.55 263.069 22.584 263.237 19.266C263.405 22.584 264.581 23.55 267.353 23.676C264.581 23.802 263.405 24.768 263.237 28.086ZM310.159 2.046H318.391C322.171 2.046 325.447 4.272 325.447 8.766C325.447 13.26 322.171 15.486 318.391 15.486H315.661V19.434H326.581V21.618H303.061V19.434H313.141V15.486H310.159C306.379 15.486 303.103 13.26 303.103 8.766C303.103 4.272 306.379 2.046 310.159 2.046ZM331.621 23.634V2.046H334.141V10.866H339.601V13.05H334.141V23.634H331.621ZM305.623 8.766C305.623 11.832 307.639 13.302 310.159 13.302H318.391C320.911 13.302 322.927 11.832 322.927 8.766C322.927 5.7 320.911 4.23 318.391 4.23H310.159C307.639 4.23 305.623 5.7 305.623 8.766ZM302.095 37.578L309.655 26.154H312.427L319.651 37.074L326.875 26.154H329.647L337.207 37.578H334.561L328.261 27.96L321.961 37.578H317.341L311.041 27.96L304.741 37.578H302.095ZM342.192 14.478L357.312 2.046H360.084L375.204 14.478H371.844L358.698 3.936L345.552 14.478H342.192ZM342.108 17.754H375.288V19.938H342.108V17.754ZM345.048 23.634V27.834H372.348V23.634H374.868V37.578H342.528V23.634H345.048ZM372.348 35.394V30.018H345.048V35.394H372.348ZM411.395 37.578V2.046H413.915V37.578H411.395ZM381.575 2.046H384.095V35.394H393.671C398.291 35.394 402.449 35.226 406.103 34.47V36.654C402.449 37.41 398.291 37.578 393.671 37.578H381.575V2.046ZM420.622 2.046H442V4.23H423.142V35.394H431.878C436.498 35.394 440.656 35.226 444.31 34.47V36.654C440.656 37.41 436.498 37.578 431.878 37.578H420.622V2.046ZM448.762 37.578V2.046H451.282V16.956H456.742V19.14H451.282V37.578H448.762Z" fill="black"/>
</svg>
