<svg viewBox="0 0 404 24" fill="none" xmlns="http://www.w3.org/2000/svg">
  <path d="M0.872 11.874L10.232 1.838H11.948L21.308 11.874H19.332L11.09 3.008L2.848 11.874H0.872ZM0.82 14.162H21.36V15.514H11.87V23.834H10.31V15.514H0.82V14.162ZM24.8619 8.156C24.8619 4.464 27.1759 1.838 30.7119 1.838H39.8119C43.3479 1.838 45.6619 4.464 45.6619 8.156C45.6619 11.536 43.7379 14.006 40.7219 14.422V22.482H45.5319V23.834H24.9919V22.482H29.8019V14.422C26.7859 14.006 24.8619 11.536 24.8619 8.156ZM26.4219 8.156C26.4219 10.834 27.8779 13.122 30.7119 13.122H39.8119C42.6459 13.122 44.1019 10.834 44.1019 8.156C44.1019 5.478 42.6459 3.19 39.8119 3.19H30.7119C27.8779 3.19 26.4219 5.478 26.4219 8.156ZM35.2619 10.886C35.1579 8.832 34.4039 8.234 32.7139 8.156C34.4039 8.078 35.1579 7.48 35.2619 5.426C35.3659 7.48 36.0939 8.078 37.8099 8.156C36.0939 8.234 35.3659 8.832 35.2619 10.886ZM31.3619 14.474V22.482H39.1619V14.474H31.3619ZM49.1638 23.834L54.7018 3.19H49.1638V1.838H63.7238V3.19H57.8998L63.4638 23.834H61.8518L56.3138 3.242L50.7757 23.834H49.1638ZM67.8838 23.834V1.838H69.4438V23.834H67.8838ZM81.7856 1.838L88.0256 13.174H86.4136L80.7456 2.878L75.0776 13.174H73.4656L79.7056 1.838H81.7856ZM92.0556 13.642V1.838H93.6156V13.642H92.0556ZM92.0556 23.834V16.554H73.5956V15.202H93.6156V23.834H92.0556ZM97.2475 3.138H104.008V1.058H105.568V3.138H112.328V4.49H97.2475V3.138ZM116.228 23.834V1.838H117.788V23.834H116.228ZM97.8975 12.368C97.8975 8.572 100.446 5.738 104.788 5.738C109.13 5.738 111.678 8.572 111.678 12.368V13.304C111.678 16.866 109.415 19.57 105.568 19.908V22.482H112.588V23.834H97.5075V22.482H104.008V19.908C100.134 19.57 97.8975 16.866 97.8975 13.304V12.368ZM104.788 18.582C108.116 18.582 110.118 16.398 110.118 13.304V12.368C110.118 9.274 108.116 7.09 104.788 7.09C101.46 7.09 99.4575 9.274 99.4575 12.368V13.304C99.4575 16.398 101.46 18.582 104.788 18.582ZM121.809 8.208C121.809 4.412 124.097 1.578 128.959 1.578C133.821 1.578 136.109 4.412 136.109 8.208V10.704C136.109 14.5 133.821 17.334 128.959 17.334C124.097 17.334 121.809 14.5 121.809 10.704V8.208ZM140.399 23.834V1.838H141.959V23.834H140.399ZM128.959 15.982C132.807 15.982 134.549 13.798 134.549 10.704V8.208C134.549 5.114 132.807 2.93 128.959 2.93C125.111 2.93 123.369 5.114 123.369 8.208V10.704C123.369 13.798 125.111 15.982 128.959 15.982ZM128.959 12.108C128.855 10.054 128.101 9.456 126.411 9.378C128.101 9.3 128.855 8.702 128.959 6.648C129.063 8.702 129.791 9.3 131.507 9.378C129.791 9.456 129.063 10.054 128.959 12.108ZM121.679 23.834V22.482H136.759V23.834H121.679ZM151.845 11.874L160.165 3.19H151.793V1.838H172.333V3.19H163.961L172.281 11.874H170.305L162.063 3.268L153.821 11.874H151.845ZM151.793 14.422H172.333V15.774H162.843V23.834H161.283V15.774H151.793V14.422ZM175.835 8.156C175.835 4.464 178.149 1.838 181.685 1.838H190.785C194.321 1.838 196.635 4.464 196.635 8.156C196.635 11.536 194.711 14.006 191.695 14.422V22.482H196.505V23.834H175.965V22.482H180.775V14.422C177.759 14.006 175.835 11.536 175.835 8.156ZM177.395 8.156C177.395 10.834 178.851 13.122 181.685 13.122H190.785C193.619 13.122 195.075 10.834 195.075 8.156C195.075 5.478 193.619 3.19 190.785 3.19H181.685C178.851 3.19 177.395 5.478 177.395 8.156ZM186.235 10.886C186.131 8.832 185.377 8.234 183.687 8.156C185.377 8.078 186.131 7.48 186.235 5.426C186.339 7.48 187.067 8.078 188.783 8.156C187.067 8.234 186.339 8.832 186.235 10.886ZM182.335 14.474V22.482H190.135V14.474H182.335ZM224.798 23.834V1.838H226.358V23.834H224.798ZM218.038 23.834H216.426C217.388 16.658 218.064 9.664 218.194 3.19H206.208V1.838H219.858C219.676 9.664 219 16.658 218.038 23.834ZM232.07 1.838V7.662H250.66V9.014H230.51V1.838H232.07ZM230.25 11.952H250.79V13.304H230.25V11.952ZM230.12 20.168C230.12 17.776 231.654 16.502 234.15 16.502H246.89C249.386 16.502 250.92 17.776 250.92 20.168C250.92 22.56 249.386 23.834 246.89 23.834H234.15C231.654 23.834 230.12 22.56 230.12 20.168ZM231.68 20.168C231.68 21.546 232.356 22.482 234.15 22.482H246.89C248.684 22.482 249.36 21.546 249.36 20.168C249.36 18.79 248.684 17.854 246.89 17.854H234.15C232.356 17.854 231.68 18.79 231.68 20.168ZM254.292 5.244C254.292 3.112 255.826 1.838 258.062 1.838H271.322C273.558 1.838 275.092 3.112 275.092 5.244C275.092 7.376 273.558 8.65 271.322 8.65H258.062C255.826 8.65 254.292 7.376 254.292 5.244ZM255.852 5.244C255.852 6.362 256.528 7.298 258.062 7.298H271.322C272.856 7.298 273.532 6.362 273.532 5.244C273.532 4.126 272.856 3.19 271.322 3.19H258.062C256.528 3.19 255.852 4.126 255.852 5.244ZM254.422 11.042H274.962V12.394H254.422V11.042ZM254.682 23.834V18.582H273.142V16.268H254.682V14.916H274.702V19.934H256.242V22.482H274.962V23.834H254.682ZM284.587 14.994L293.947 1.838H295.663L305.023 14.994H303.359L294.805 3.086L286.251 14.994H284.587ZM284.535 22.482H294.025V15.098H295.585V22.482H305.075V23.834H284.535V22.482ZM322.227 23.834V1.838H323.787V11.068H327.427V1.838H328.987V23.834H327.427V12.42H323.787V23.834H322.227ZM317.547 23.834H315.935C316.897 16.658 317.573 9.664 317.703 3.19H308.837V1.838H319.367C319.185 9.664 318.509 16.658 317.547 23.834ZM332.619 2.878H339.119V0.798H340.679V2.878H347.179V4.23H332.619V2.878ZM350.559 14.162V1.838H352.119V7.298H355.499V8.65H352.119V14.162H350.559ZM333.009 9.716C333.009 7.064 334.803 5.608 337.559 5.608H342.239C344.995 5.608 346.789 7.064 346.789 9.716C346.789 12.368 344.995 13.824 342.239 13.824H337.559C334.803 13.824 333.009 12.368 333.009 9.716ZM334.569 9.716C334.569 11.354 335.505 12.472 337.559 12.472H342.239C344.293 12.472 345.229 11.354 345.229 9.716C345.229 8.078 344.293 6.96 342.239 6.96H337.559C335.505 6.96 334.569 8.078 334.569 9.716ZM334.959 15.462V18.062H350.559V15.462H352.119V23.834H333.399V15.462H334.959ZM350.559 22.482V19.414H334.959V22.482H350.559ZM375.77 23.834V1.838H377.33V23.834H375.77ZM357.31 1.838H358.87V22.482H364.798C367.658 22.482 370.232 22.378 372.494 21.91V23.262C370.232 23.73 367.658 23.834 364.798 23.834H357.31V1.838ZM381.482 1.838H394.716V3.19H383.042V22.482H388.45C391.31 22.482 393.884 22.378 396.146 21.91V23.262C393.884 23.73 391.31 23.834 388.45 23.834H381.482V1.838ZM398.902 23.834V1.838H400.462V11.068H403.842V12.42H400.462V23.834H398.902Z" fill="black"/>
</svg>
