<svg viewBox="0 0 37 37" fill="none" xmlns="http://www.w3.org/2000/svg">
<path d="M18.5 20.6V9.4L9.75 5.2V16.4L18.5 20.6Z" fill="#3F69FD"/>
<path d="M9.75 36V24.8L1 20.6V31.8L9.75 36Z" fill="#3F69FD"/>
<path d="M9.75 24.8V36L18.5 31.8V20.6L9.75 16.4L5.375 18.5L1 20.6L9.75 24.8Z" fill="white"/>
<path d="M9.75 36V24.8L1 20.6M9.75 36L1 31.8V20.6M9.75 36L18.5 31.8V20.6M1 20.6L5.375 18.5L9.75 16.4M1 20.6L9.75 16.4M18.5 20.6L9.75 16.4M18.5 20.6V9.4M9.75 16.4V5.2M18.5 9.4L9.75 5.2M18.5 9.4L22.875 7.3L27.25 5.2L18.5 1L14.125 3.1L9.75 5.2" stroke="#222222" stroke-width="1.5" stroke-linecap="round" stroke-linejoin="round"/>
<path d="M27.25 35.9992V24.7992C27.25 24.7992 21.9171 22.2394 18.5 20.5992C18.5 24.9731 18.5 31.7992 18.5 31.7992L27.25 35.9992Z" fill="#3F69FD"/>
<path d="M31.625 22.6992L36 20.5992L27.25 16.3992V5.19922L22.875 7.29922L18.5 9.39922C18.5 9.39922 18.5 16.2253 18.5 20.5992C21.9171 22.2394 27.25 24.7992 27.25 24.7992L31.625 22.6992Z" fill="white"/>
<path d="M27.25 24.7992V35.9992L36 31.7992V20.5992L31.625 22.6992L27.25 24.7992Z" fill="white"/>
<path d="M27.25 35.9992V24.7992M27.25 35.9992L18.5 31.7992C18.5 31.7992 18.5 24.9731 18.5 20.5992M27.25 35.9992L36 31.7992V20.5992M27.25 24.7992L31.625 22.6992L36 20.5992M27.25 24.7992C27.25 24.7992 21.9171 22.2394 18.5 20.5992M18.5 20.5992C18.5 16.2253 18.5 9.39922 18.5 9.39922L22.875 7.29922L27.25 5.19922V16.3992L36 20.5992" stroke="#222222" stroke-width="1.5" stroke-linecap="round" stroke-linejoin="round"/>
</svg>
