<svg viewBox="0 0 16 16" fill="none" xmlns="http://www.w3.org/2000/svg">
<path d="M8 8.84V4.36L4.5 2.68V7.16L8 8.84Z" fill="#3F69FD"/>
<path d="M4.5 15V10.52L1 8.84V13.32L4.5 15Z" fill="#3F69FD"/>
<path d="M4.5 10.52V15L8 13.32V8.84L4.5 7.16L2.75 8L1 8.84L4.5 10.52Z" fill="white"/>
<path d="M11.5 14.9997V10.5197C11.5 10.5197 9.36684 9.49608 8 8.84C8 10.5895 8 13.32 8 13.32L11.5 14.9997Z" fill="#3F69FD"/>
<path d="M13.25 9.67969L15 8.83969L11.5 7.15969V2.68L9.75 3.52L8 4.36C8 4.36 8 7.09045 8 8.84C9.36684 9.49608 11.5 10.5197 11.5 10.5197L13.25 9.67969Z" fill="white"/>
<path d="M4.5 2.68L8 4.36L9.75 3.52L11.5 2.68L8 1L6.25 1.84L4.5 2.68Z" fill="white"/>
<path d="M11.5 10.5197V14.9997L15 13.3197V8.83969L13.25 9.67969L11.5 10.5197Z" fill="white"/>
<path d="M4.5 15V10.52L1 8.84M4.5 15L1 13.32V8.84M4.5 15L8 13.32M1 8.84L2.75 8L4.5 7.16M1 8.84L4.5 7.16M8 8.84V13.32M8 8.84L4.5 7.16M8 8.84V4.36M8 8.84C8 10.5895 8 13.32 8 13.32M8 8.84C9.36684 9.49608 11.5 10.5197 11.5 10.5197M8 8.84C8 7.09045 8 4.36 8 4.36M8 13.32L11.5 14.9997M4.5 7.16V2.68M8 4.36L4.5 2.68M8 4.36L9.75 3.52L11.5 2.68M4.5 2.68L6.25 1.84L8 1L11.5 2.68M11.5 2.68V7.15969L15 8.83969M11.5 14.9997V10.5197M11.5 14.9997L15 13.3197V8.83969M11.5 10.5197L13.25 9.67969L15 8.83969" stroke="#222222" stroke-width="0.6" stroke-linecap="round" stroke-linejoin="round"/>
</svg>
