<svg width="149" height="31" viewBox="0 0 149 31" fill="none" xmlns="http://www.w3.org/2000/svg">
<path d="M44.456 15.008L42.68 12.536C45.416 11.416 47.36 10.304 48.512 9.2C49.664 8.096 50.24 6.872 50.24 5.528V4.64H53.528V5.624C53.528 7.384 53.024 8.888 52.016 10.136L52.208 10.208L53.264 9.44C53.632 9.168 53.992 9.032 54.344 9.032C54.664 9.032 54.976 9.128 55.28 9.32L60.728 12.44L58.928 14.936L52.616 11.096C52.376 10.952 52.128 10.88 51.872 10.88C51.6 10.88 51.328 10.968 51.056 11.144H51.032C50.312 11.8 49.424 12.432 48.368 13.04C47.312 13.648 46.008 14.304 44.456 15.008ZM61.616 19.088H53.312V26.408H50.096V19.088H41.792V16.376H61.616V19.088ZM65.3024 10.856C65.3024 9.752 65.5904 8.768 66.1664 7.904C66.7584 7.024 67.6384 6.336 68.8064 5.84C69.9904 5.328 71.4224 5.072 73.1024 5.072C74.7824 5.072 76.2064 5.328 77.3744 5.84C78.5584 6.336 79.4384 7.024 80.0144 7.904C80.6064 8.768 80.9024 9.752 80.9024 10.856C80.9024 11.96 80.6064 12.952 80.0144 13.832C79.4384 14.712 78.5664 15.408 77.3984 15.92C76.2304 16.416 74.7984 16.664 73.1024 16.664C71.4064 16.664 69.9744 16.416 68.8064 15.92C67.6384 15.408 66.7584 14.712 66.1664 13.832C65.5904 12.952 65.3024 11.96 65.3024 10.856ZM68.7824 11.168C68.7824 12.048 69.1424 12.76 69.8624 13.304C70.5984 13.832 71.6784 14.096 73.1024 14.096C74.5264 14.096 75.5984 13.832 76.3184 13.304C77.0544 12.76 77.4224 12.048 77.4224 11.168V10.568C77.4224 9.688 77.0544 8.976 76.3184 8.432C75.5984 7.888 74.5264 7.616 73.1024 7.616C71.6784 7.616 70.5984 7.888 69.8624 8.432C69.1424 8.976 68.7824 9.688 68.7824 10.568V11.168ZM83.0144 20.648V23.336H63.1904V20.648H67.7264V17.144H70.8944V20.648H75.3104V17.144H78.4784V20.648H83.0144ZM102.973 4.304V25.616H99.7329V4.304H102.973ZM93.5889 13.688C93.9089 13.688 94.2049 13.824 94.4769 14.096L98.2449 18.44L95.7969 20.504L91.8609 15.752C91.7489 15.64 91.6449 15.584 91.5489 15.584C91.4529 15.584 91.3649 15.632 91.2849 15.728C90.4209 17.168 89.0289 18.888 87.1089 20.888L84.6609 18.872C86.4529 17.176 87.7489 15.584 88.5489 14.096C89.3649 12.592 89.7729 10.992 89.7729 9.296V8.84H85.5729V6.152H97.1649V8.84H93.0129V9.416C93.0129 11.224 92.6689 12.888 91.9809 14.408L92.1009 14.48L92.7489 14C93.0369 13.792 93.3169 13.688 93.5889 13.688ZM124.443 4.304V17.048H121.203V4.304H124.443ZM108.219 17.072L105.819 14.984C107.595 13.544 108.867 12.208 109.635 10.976C110.419 9.728 110.811 8.376 110.811 6.92V5.336H114.051V7.112C114.051 8.712 113.731 10.16 113.091 11.456L113.211 11.528L113.907 10.952C114.195 10.712 114.475 10.592 114.747 10.592C115.019 10.592 115.275 10.712 115.515 10.952L119.211 14.432L116.883 16.688L112.971 12.704C112.875 12.608 112.763 12.56 112.635 12.56C112.539 12.56 112.443 12.608 112.347 12.704C111.483 14 110.107 15.456 108.219 17.072ZM110.139 18.104H124.443V26.744H121.275V20.816H110.139V18.104ZM145.818 4.304V25.616H142.602V4.304H145.818ZM137.73 7.808H131.202V5.192H137.73V7.808ZM141.426 19.4L141.714 21.92C139.986 22.176 137.85 22.384 135.306 22.544C132.762 22.688 130.194 22.76 127.602 22.76L127.338 20.072C129.21 20.072 131.042 20.048 132.834 20V17.912C131.65 17.704 130.722 17.288 130.05 16.664C129.394 16.04 129.066 15.328 129.066 14.528C129.066 13.28 129.674 12.392 130.89 11.864V11.696H127.77V9.152H141.066V11.696H137.994V11.864C139.21 12.392 139.818 13.28 139.818 14.528C139.818 15.344 139.474 16.072 138.786 16.712C138.098 17.336 137.146 17.744 135.93 17.936V19.856C137.994 19.76 139.826 19.608 141.426 19.4ZM134.178 15.464H134.706C135.346 15.464 135.866 15.312 136.266 15.008C136.682 14.688 136.89 14.264 136.89 13.736C136.89 13.224 136.682 12.808 136.266 12.488C135.866 12.168 135.346 12.008 134.706 12.008H134.178C133.538 12.008 133.01 12.168 132.594 12.488C132.194 12.808 131.994 13.224 131.994 13.736C131.994 14.264 132.194 14.688 132.594 15.008C133.01 15.312 133.538 15.464 134.178 15.464Z" fill="#373642"/>
<path d="M15.5 17.24V7.96L8.25 4.48V13.76L15.5 17.24Z" fill="#3F69FD"/>
<path d="M8.25 30V20.72L1 17.24V26.52L8.25 30Z" fill="#3F69FD"/>
<path d="M8.25 20.72V30L15.5 26.52V17.24L8.25 13.76L4.625 15.5L1 17.24L8.25 20.72Z" fill="white"/>
<path d="M8.25 30V20.72L1 17.24M8.25 30L1 26.52V17.24M8.25 30L15.5 26.52V17.24M1 17.24L4.625 15.5L8.25 13.76M1 17.24L8.25 13.76M15.5 17.24L8.25 13.76M15.5 17.24V7.96M8.25 13.76V4.48M15.5 7.96L8.25 4.48M15.5 7.96L19.125 6.22L22.75 4.48L15.5 1L11.875 2.74L8.25 4.48" stroke="#222222" stroke-width="1.24286" stroke-linecap="round" stroke-linejoin="round"/>
<path d="M22.75 29.9993V20.7193C22.75 20.7193 18.3313 18.5984 15.5 17.2393C15.5 20.8634 15.5 26.5193 15.5 26.5193L22.75 29.9993Z" fill="#3F69FD"/>
<path d="M26.375 18.9793L30 17.2393L22.75 13.7593V4.47934L19.125 6.21934L15.5 7.95934C15.5 7.95934 15.5 13.6153 15.5 17.2393C18.3313 18.5984 22.75 20.7193 22.75 20.7193L26.375 18.9793Z" fill="white"/>
<path d="M22.75 29.9993V20.7193M22.75 29.9993L15.5 26.5193C15.5 26.5193 15.5 20.8634 15.5 17.2393M22.75 29.9993L30 26.5193V17.2393M22.75 20.7193L26.375 18.9793L30 17.2393M22.75 20.7193C22.75 20.7193 18.3313 18.5984 15.5 17.2393M15.5 17.2393C15.5 13.6153 15.5 7.95934 15.5 7.95934L19.125 6.21934L22.75 4.47934V13.7593L30 17.2393" stroke="#222222" stroke-width="1.24286" stroke-linecap="round" stroke-linejoin="round"/>
</svg>
