<svg viewBox="0 0 1600 300" fill="none" xmlns="http://www.w3.org/2000/svg">
<g clip-path="url(#clip0_3298_16919)">
<path d="M1600 0H0V300H1600V0Z" fill="#2B4490"/>
<path d="M250 66C253.314 66 256 63.3137 256 60C256 56.6863 253.314 54 250 54C246.686 54 244 56.6863 244 60C244 63.3137 246.686 66 250 66Z" fill="white" fill-opacity="0.1"/>
<path d="M1361 248C1365.42 248 1369 244.418 1369 240C1369 235.582 1365.42 232 1361 232C1356.58 232 1353 235.582 1353 240C1353 244.418 1356.58 248 1361 248Z" fill="white" fill-opacity="0.1"/>
<path d="M1411 104C1413.21 104 1415 102.209 1415 100C1415 97.7909 1413.21 96 1411 96C1408.79 96 1407 97.7909 1407 100C1407 102.209 1408.79 104 1411 104Z" fill="white" fill-opacity="0.1"/>
<path d="M200 205C202.761 205 205 202.761 205 200C205 197.239 202.761 195 200 195C197.239 195 195 197.239 195 200C195 202.761 197.239 205 200 205Z" fill="white" fill-opacity="0.1"/>
<path d="M394 88.15H397V127.85H407.4C412.9 127.85 417.85 127.65 422.2 126.75V129.35C417.85 130.25 412.9 130.45 407.4 130.45H394V88.15ZM427.5 130.45V88.15H430.5V105.9H437V108.5H430.5V130.45H427.5ZM440.234 100.4C440.234 93.1 444.634 87.65 453.984 87.65C463.334 87.65 467.734 93.1 467.734 100.4V105.2C467.734 112.5 463.334 117.95 453.984 117.95C444.634 117.95 440.234 112.5 440.234 105.2V100.4ZM475.984 130.45V88.15H478.984V130.45H475.984ZM453.984 115.35C461.384 115.35 464.734 111.15 464.734 105.2V100.4C464.734 94.45 461.384 90.25 453.984 90.25C446.584 90.25 443.234 94.45 443.234 100.4V105.2C443.234 111.15 446.584 115.35 453.984 115.35ZM453.984 107.9C453.784 103.95 452.334 102.8 449.084 102.65C452.334 102.5 453.784 101.35 453.984 97.4C454.184 101.35 455.584 102.5 458.884 102.65C455.584 102.8 454.184 103.95 453.984 107.9ZM439.984 130.45V127.85H468.984V130.45H439.984ZM497.395 90.15H509.895V86.15H512.895V90.15H525.395V92.75H497.395V90.15ZM531.895 113.35V88.15H534.895V99.9H541.395V102.5H534.895V113.35H531.895ZM498.145 104.05C498.145 98.95 501.595 95.65 506.895 95.65H515.895C521.195 95.65 524.645 98.95 524.645 104.05C524.645 109.15 521.195 112.45 515.895 112.45H506.895C501.595 112.45 498.145 109.15 498.145 104.05ZM501.145 104.05C501.145 107.2 502.945 109.85 506.895 109.85H515.895C519.845 109.85 521.645 107.2 521.645 104.05C521.645 100.9 519.845 98.25 515.895 98.25H506.895C502.945 98.25 501.145 100.9 501.145 104.05ZM531.895 130.45V118.95H498.395V116.35H534.895V130.45H531.895ZM544.479 102.95L562.479 88.15H565.779L583.779 102.95H579.779L564.129 90.4L548.479 102.95H544.479ZM544.379 106.85H583.879V109.45H544.379V106.85ZM547.879 113.85V118.85H580.379V113.85H583.379V130.45H544.879V113.85H547.879ZM580.379 127.85V121.45H547.879V127.85H580.379ZM602.539 100.4C602.539 93.1 605.939 87.65 615.289 87.65C623.539 87.65 627.139 91.9 627.889 97.9H638.289V88.15H641.289V130.45H638.289V119H628.039C627.789 125.9 624.289 130.95 615.289 130.95C605.939 130.95 602.539 125.5 602.539 118.2V100.4ZM615.289 128.35C622.689 128.35 625.039 124.15 625.039 118.2V100.4C625.039 94.45 622.689 90.25 615.289 90.25C607.889 90.25 605.539 94.45 605.539 100.4V118.2C605.539 124.15 607.889 128.35 615.289 128.35ZM628.039 100.5V116.4H638.289V100.5H628.039ZM615.289 114.15C615.089 110.2 613.639 109.05 610.389 108.9C613.639 108.75 615.089 107.6 615.289 103.65C615.489 107.6 616.889 108.75 620.189 108.9C616.889 109.05 615.489 110.2 615.289 114.15ZM649.023 109.45L659.373 90.75H649.023V88.15H675.523V90.75H665.123L675.523 109.45H672.423L662.273 91.15L652.123 109.45H649.023ZM684.773 110.35V99H674.873V96.35H684.773V88.15H687.773V110.35H684.773ZM649.023 121.9C649.023 116.3 652.473 113.35 658.273 113.35H679.273C685.073 113.35 688.523 116.3 688.523 121.9C688.523 127.5 685.073 130.45 679.273 130.45H658.273C652.473 130.45 649.023 127.5 649.023 121.9ZM652.023 121.9C652.023 125.55 653.823 127.85 658.273 127.85H679.273C683.723 127.85 685.523 125.55 685.523 121.9C685.523 118.25 683.723 115.95 679.273 115.95H658.273C653.823 115.95 652.023 118.25 652.023 121.9Z" fill="white"/>
<path d="M397.488 156.69H398.802V157.608C398.802 158.232 398.682 158.82 398.442 159.372C398.202 159.912 397.872 160.41 397.452 160.866C397.044 161.322 396.564 161.73 396.012 162.09C395.46 162.45 394.86 162.75 394.212 162.99C393.576 163.23 392.922 163.404 392.25 163.512L391.638 162.306C392.238 162.222 392.82 162.078 393.384 161.874C393.96 161.67 394.494 161.424 394.986 161.136C395.478 160.836 395.91 160.5 396.282 160.128C396.666 159.756 396.96 159.36 397.164 158.94C397.38 158.508 397.488 158.064 397.488 157.608V156.69ZM397.74 156.69H399.036V157.608C399.036 158.064 399.144 158.502 399.36 158.922C399.576 159.342 399.87 159.738 400.242 160.11C400.626 160.482 401.064 160.818 401.556 161.118C402.048 161.418 402.576 161.67 403.14 161.874C403.716 162.078 404.298 162.222 404.886 162.306L404.292 163.512C403.62 163.404 402.966 163.23 402.33 162.99C401.694 162.738 401.094 162.432 400.53 162.072C399.978 161.712 399.492 161.304 399.072 160.848C398.664 160.392 398.34 159.894 398.1 159.354C397.86 158.802 397.74 158.22 397.74 157.608V156.69ZM397.488 166.212H398.964V172.404H397.488V166.212ZM390.9 165.276H405.606V166.518H390.9V165.276ZM411.077 164.502H412.553V169.362H411.077V164.502ZM417.089 164.502H418.583V169.362H417.089V164.502ZM407.459 169.074H422.219V170.316H407.459V169.074ZM414.803 157.14C415.955 157.14 416.975 157.314 417.863 157.662C418.751 158.01 419.447 158.496 419.951 159.12C420.467 159.744 420.725 160.482 420.725 161.334C420.725 162.174 420.467 162.912 419.951 163.548C419.447 164.172 418.751 164.658 417.863 165.006C416.975 165.342 415.955 165.51 414.803 165.51C413.663 165.51 412.643 165.342 411.743 165.006C410.855 164.658 410.159 164.172 409.655 163.548C409.151 162.912 408.899 162.174 408.899 161.334C408.899 160.482 409.151 159.744 409.655 159.12C410.159 158.496 410.855 158.01 411.743 157.662C412.643 157.314 413.663 157.14 414.803 157.14ZM414.803 158.328C413.939 158.328 413.171 158.454 412.499 158.706C411.827 158.958 411.299 159.312 410.915 159.768C410.531 160.212 410.339 160.734 410.339 161.334C410.339 161.934 410.531 162.462 410.915 162.918C411.299 163.362 411.827 163.71 412.499 163.962C413.171 164.214 413.939 164.34 414.803 164.34C415.679 164.34 416.453 164.214 417.125 163.962C417.797 163.71 418.325 163.362 418.709 162.918C419.093 162.462 419.285 161.934 419.285 161.334C419.285 160.734 419.093 160.212 418.709 159.768C418.325 159.312 417.797 158.958 417.125 158.706C416.453 158.454 415.679 158.328 414.803 158.328ZM428.319 158.454H429.543V161.082C429.543 161.946 429.423 162.798 429.183 163.638C428.943 164.466 428.607 165.252 428.175 165.996C427.755 166.728 427.263 167.376 426.699 167.94C426.135 168.504 425.529 168.948 424.881 169.272L424.017 168.084C424.605 167.796 425.157 167.406 425.673 166.914C426.201 166.422 426.663 165.858 427.059 165.222C427.455 164.586 427.761 163.914 427.977 163.206C428.205 162.498 428.319 161.79 428.319 161.082V158.454ZM428.625 158.454H429.831V161.082C429.831 161.766 429.939 162.45 430.155 163.134C430.383 163.806 430.695 164.442 431.091 165.042C431.499 165.63 431.961 166.152 432.477 166.608C433.005 167.064 433.569 167.424 434.169 167.688L433.341 168.876C432.681 168.564 432.063 168.144 431.487 167.616C430.911 167.088 430.407 166.482 429.975 165.798C429.555 165.102 429.225 164.358 428.985 163.566C428.745 162.762 428.625 161.934 428.625 161.082V158.454ZM424.539 157.788H433.629V159.03H424.539V157.788ZM435.843 156.114H437.337V172.404H435.843V156.114ZM444.806 156.888H446.048V158.472C446.048 159.504 445.856 160.47 445.472 161.37C445.1 162.27 444.566 163.056 443.87 163.728C443.186 164.388 442.388 164.892 441.476 165.24L440.72 164.052C441.332 163.824 441.884 163.524 442.376 163.152C442.88 162.768 443.312 162.33 443.672 161.838C444.044 161.346 444.326 160.812 444.518 160.236C444.71 159.66 444.806 159.072 444.806 158.472V156.888ZM445.076 156.888H446.318V158.472C446.318 159.06 446.414 159.624 446.606 160.164C446.81 160.704 447.092 161.208 447.452 161.676C447.812 162.144 448.238 162.558 448.73 162.918C449.234 163.278 449.786 163.56 450.386 163.764L449.648 164.952C448.748 164.616 447.95 164.136 447.254 163.512C446.57 162.876 446.036 162.126 445.652 161.262C445.268 160.398 445.076 159.468 445.076 158.472V156.888ZM443.042 166.734H453.914V172.404H452.42V167.958H443.042V166.734ZM452.42 156.114H453.914V165.906H452.42V156.114ZM461.778 165.888H463.272V168.57H461.778V165.888ZM468.906 156.114H470.4V172.404H468.906V156.114ZM457.44 169.308L457.224 168.048C458.256 168.036 459.372 168.024 460.572 168.012C461.772 168 462.996 167.958 464.244 167.886C465.492 167.814 466.698 167.7 467.862 167.544L467.97 168.66C466.77 168.852 465.552 168.996 464.316 169.092C463.08 169.176 461.874 169.236 460.698 169.272C459.522 169.296 458.436 169.308 457.44 169.308ZM457.566 158.112H467.448V159.318H457.566V158.112ZM462.498 160.236C463.278 160.236 463.962 160.362 464.55 160.614C465.138 160.866 465.594 161.22 465.918 161.676C466.254 162.12 466.422 162.648 466.422 163.26C466.422 163.86 466.254 164.388 465.918 164.844C465.594 165.3 465.138 165.654 464.55 165.906C463.962 166.146 463.278 166.266 462.498 166.266C461.73 166.266 461.052 166.146 460.464 165.906C459.876 165.654 459.42 165.3 459.096 164.844C458.772 164.388 458.61 163.86 458.61 163.26C458.61 162.648 458.772 162.12 459.096 161.676C459.42 161.22 459.876 160.866 460.464 160.614C461.052 160.362 461.73 160.236 462.498 160.236ZM462.498 161.406C461.778 161.406 461.184 161.574 460.716 161.91C460.248 162.246 460.014 162.696 460.014 163.26C460.014 163.812 460.248 164.256 460.716 164.592C461.184 164.928 461.778 165.096 462.498 165.096C463.242 165.096 463.842 164.928 464.298 164.592C464.766 164.256 465 163.812 465 163.26C465 162.696 464.766 162.246 464.298 161.91C463.842 161.574 463.242 161.406 462.498 161.406ZM461.778 156.132H463.272V158.76H461.778V156.132ZM477.815 164.34H479.309V168.21H477.815V164.34ZM478.553 157.176C479.381 157.176 480.119 157.338 480.767 157.662C481.415 157.974 481.925 158.418 482.297 158.994C482.669 159.57 482.855 160.242 482.855 161.01C482.855 161.754 482.669 162.42 482.297 163.008C481.925 163.584 481.415 164.034 480.767 164.358C480.119 164.67 479.381 164.826 478.553 164.826C477.713 164.826 476.969 164.67 476.321 164.358C475.673 164.034 475.163 163.584 474.791 163.008C474.419 162.42 474.233 161.754 474.233 161.01C474.233 160.242 474.419 159.57 474.791 158.994C475.163 158.418 475.673 157.974 476.321 157.662C476.969 157.338 477.713 157.176 478.553 157.176ZM478.553 158.454C478.001 158.454 477.509 158.562 477.077 158.778C476.645 158.982 476.303 159.276 476.051 159.66C475.811 160.044 475.691 160.494 475.691 161.01C475.691 161.514 475.811 161.958 476.051 162.342C476.303 162.726 476.645 163.026 477.077 163.242C477.509 163.458 478.001 163.566 478.553 163.566C479.105 163.566 479.591 163.458 480.011 163.242C480.443 163.026 480.779 162.726 481.019 162.342C481.271 161.958 481.397 161.514 481.397 161.01C481.397 160.494 481.271 160.044 481.019 159.66C480.779 159.276 480.443 158.982 480.011 158.778C479.591 158.562 479.105 158.454 478.553 158.454ZM484.709 156.114H486.185V172.404H484.709V156.114ZM485.771 162.828H488.777V164.088H485.771V162.828ZM473.729 168.876L473.495 167.634C474.479 167.622 475.547 167.61 476.699 167.598C477.863 167.586 479.039 167.544 480.227 167.472C481.427 167.4 482.579 167.292 483.683 167.148L483.791 168.264C482.651 168.456 481.487 168.6 480.299 168.696C479.111 168.78 477.953 168.834 476.825 168.858C475.709 168.87 474.677 168.876 473.729 168.876ZM505.419 156.114H506.913V165.924H505.419V156.114ZM506.499 160.434H509.307V161.694H506.499V160.434ZM496.689 166.842H506.913V172.188H496.689V166.842ZM505.437 168.048H498.147V170.964H505.437V168.048ZM494.313 157.842H503.925V159.048H494.313V157.842ZM499.119 159.858C499.899 159.858 500.577 159.978 501.153 160.218C501.741 160.458 502.197 160.8 502.521 161.244C502.845 161.676 503.007 162.18 503.007 162.756C503.007 163.344 502.845 163.854 502.521 164.286C502.197 164.718 501.741 165.054 501.153 165.294C500.577 165.534 499.899 165.654 499.119 165.654C498.339 165.654 497.655 165.534 497.067 165.294C496.491 165.054 496.035 164.718 495.699 164.286C495.375 163.854 495.213 163.344 495.213 162.756C495.213 162.18 495.375 161.676 495.699 161.244C496.035 160.8 496.491 160.458 497.067 160.218C497.655 159.978 498.339 159.858 499.119 159.858ZM499.119 161.01C498.375 161.01 497.775 161.166 497.319 161.478C496.875 161.79 496.653 162.216 496.653 162.756C496.653 163.296 496.875 163.728 497.319 164.052C497.775 164.364 498.375 164.52 499.119 164.52C499.851 164.52 500.445 164.364 500.901 164.052C501.357 163.728 501.585 163.296 501.585 162.756C501.585 162.216 501.357 161.79 500.901 161.478C500.457 161.166 499.863 161.01 499.119 161.01ZM498.381 155.988H499.875V158.454H498.381V155.988ZM513.554 158.076H514.832C514.832 158.94 514.79 159.828 514.706 160.74C514.634 161.64 514.496 162.54 514.292 163.44C514.1 164.328 513.818 165.204 513.446 166.068C513.086 166.932 512.612 167.76 512.024 168.552L510.854 167.868C511.418 167.148 511.874 166.398 512.222 165.618C512.582 164.838 512.858 164.04 513.05 163.224C513.242 162.396 513.374 161.562 513.446 160.722C513.518 159.87 513.554 159.024 513.554 158.184V158.076ZM511.196 158.076H514.292V159.3H511.196V158.076ZM517.136 158.076H518.414C518.414 158.928 518.384 159.84 518.324 160.812C518.276 161.784 518.162 162.78 517.982 163.8C517.814 164.82 517.544 165.822 517.172 166.806C516.8 167.79 516.29 168.72 515.642 169.596L514.472 168.912C514.964 168.264 515.372 167.586 515.696 166.878C516.032 166.158 516.296 165.426 516.488 164.682C516.68 163.926 516.824 163.182 516.92 162.45C517.016 161.706 517.076 160.974 517.1 160.254C517.124 159.534 517.136 158.844 517.136 158.184V158.076ZM515.354 158.076H517.928V159.3H515.354V158.076ZM523.292 156.114H524.732V172.404H523.292V156.114ZM517.658 162.504H520.592V163.746H517.658V162.504ZM520.286 156.546H521.69V171.576H520.286V156.546ZM538.536 156.132H540.03V168.336H538.536V156.132ZM539.562 161.478H542.424V162.72H539.562V161.478ZM527.43 158.112H537.042V159.318H527.43V158.112ZM532.236 160.2C533.004 160.2 533.682 160.332 534.27 160.596C534.858 160.848 535.314 161.202 535.638 161.658C535.962 162.102 536.124 162.63 536.124 163.242C536.124 163.854 535.962 164.388 535.638 164.844C535.314 165.288 534.858 165.636 534.27 165.888C533.682 166.14 533.004 166.266 532.236 166.266C531.468 166.266 530.79 166.14 530.202 165.888C529.614 165.636 529.152 165.288 528.816 164.844C528.492 164.388 528.33 163.854 528.33 163.242C528.33 162.63 528.492 162.102 528.816 161.658C529.152 161.202 529.614 160.848 530.202 160.596C530.79 160.332 531.468 160.2 532.236 160.2ZM532.236 161.37C531.504 161.37 530.91 161.544 530.454 161.892C529.998 162.228 529.77 162.678 529.77 163.242C529.77 163.806 529.998 164.256 530.454 164.592C530.91 164.928 531.504 165.096 532.236 165.096C532.98 165.096 533.574 164.928 534.018 164.592C534.474 164.256 534.702 163.806 534.702 163.242C534.702 162.678 534.474 162.228 534.018 161.892C533.574 161.544 532.98 161.37 532.236 161.37ZM531.498 156.132H532.992V158.724H531.498V156.132ZM529.896 170.82H540.75V172.044H529.896V170.82ZM529.896 167.364H531.372V171.324H529.896V167.364ZM552.082 157.032H553.324V158.706C553.324 159.762 553.132 160.734 552.748 161.622C552.376 162.51 551.848 163.29 551.164 163.962C550.492 164.622 549.688 165.126 548.752 165.474L547.96 164.268C548.8 163.968 549.526 163.542 550.138 162.99C550.75 162.438 551.224 161.796 551.56 161.064C551.908 160.32 552.082 159.534 552.082 158.706V157.032ZM552.352 157.032H553.558V158.652C553.558 159.42 553.726 160.146 554.062 160.83C554.398 161.514 554.86 162.12 555.448 162.648C556.048 163.164 556.744 163.554 557.536 163.818L556.726 164.988C555.85 164.652 555.082 164.178 554.422 163.566C553.762 162.954 553.252 162.228 552.892 161.388C552.532 160.548 552.352 159.636 552.352 158.652V157.032ZM559.876 156.114H561.37V165.744H559.876V156.114ZM556.006 166.23C557.686 166.23 559.006 166.5 559.966 167.04C560.938 167.58 561.424 168.336 561.424 169.308C561.424 170.268 560.938 171.018 559.966 171.558C559.006 172.098 557.686 172.368 556.006 172.368C554.326 172.368 553 172.098 552.028 171.558C551.068 171.018 550.588 170.268 550.588 169.308C550.588 168.336 551.068 167.58 552.028 167.04C553 166.5 554.326 166.23 556.006 166.23ZM556.006 167.418C555.19 167.418 554.488 167.496 553.9 167.652C553.312 167.796 552.856 168.012 552.532 168.3C552.22 168.576 552.064 168.912 552.064 169.308C552.064 169.692 552.22 170.028 552.532 170.316C552.856 170.592 553.312 170.808 553.9 170.964C554.488 171.108 555.19 171.18 556.006 171.18C556.834 171.18 557.536 171.108 558.112 170.964C558.7 170.808 559.15 170.592 559.462 170.316C559.786 170.028 559.948 169.692 559.948 169.308C559.948 168.912 559.786 168.576 559.462 168.3C559.15 168.012 558.7 167.796 558.112 167.652C557.536 167.496 556.834 167.418 556.006 167.418ZM556.33 159.552H560.182V160.794H556.33V159.552ZM568.551 157.86H569.775V159.174C569.775 160.182 569.583 161.112 569.199 161.964C568.827 162.816 568.299 163.56 567.615 164.196C566.943 164.832 566.145 165.318 565.221 165.654L564.465 164.466C565.281 164.178 565.995 163.77 566.607 163.242C567.219 162.702 567.693 162.084 568.029 161.388C568.377 160.692 568.551 159.954 568.551 159.174V157.86ZM568.821 157.86H570.045V159.174C570.045 159.882 570.207 160.554 570.531 161.19C570.855 161.826 571.311 162.384 571.899 162.864C572.487 163.344 573.177 163.722 573.969 163.998L573.267 165.168C572.355 164.856 571.569 164.406 570.909 163.818C570.249 163.23 569.733 162.54 569.361 161.748C569.001 160.944 568.821 160.086 568.821 159.174V157.86ZM564.915 157.32H573.627V158.544H564.915V157.32ZM575.679 156.114H577.173V165.924H575.679V156.114ZM576.759 160.254H579.567V161.496H576.759V160.254ZM571.989 166.374C573.093 166.374 574.041 166.494 574.833 166.734C575.637 166.962 576.255 167.298 576.687 167.742C577.119 168.186 577.335 168.726 577.335 169.362C577.335 169.998 577.119 170.538 576.687 170.982C576.255 171.426 575.637 171.768 574.833 172.008C574.041 172.248 573.093 172.368 571.989 172.368C570.885 172.368 569.931 172.248 569.127 172.008C568.323 171.768 567.705 171.426 567.273 170.982C566.841 170.538 566.625 169.998 566.625 169.362C566.625 168.726 566.841 168.186 567.273 167.742C567.705 167.298 568.323 166.962 569.127 166.734C569.931 166.494 570.885 166.374 571.989 166.374ZM571.989 167.562C571.185 167.562 570.489 167.634 569.901 167.778C569.325 167.922 568.881 168.126 568.569 168.39C568.257 168.654 568.101 168.978 568.101 169.362C568.101 169.746 568.257 170.076 568.569 170.352C568.881 170.616 569.325 170.82 569.901 170.964C570.489 171.108 571.185 171.18 571.989 171.18C572.793 171.18 573.483 171.108 574.059 170.964C574.635 170.82 575.079 170.616 575.391 170.352C575.703 170.076 575.859 169.746 575.859 169.362C575.859 168.978 575.703 168.654 575.391 168.39C575.079 168.126 574.635 167.922 574.059 167.778C573.483 167.634 572.793 167.562 571.989 167.562ZM586.369 157.302C587.221 157.302 587.971 157.464 588.619 157.788C589.279 158.1 589.795 158.544 590.167 159.12C590.539 159.696 590.725 160.368 590.725 161.136C590.725 161.892 590.539 162.564 590.167 163.152C589.795 163.728 589.279 164.178 588.619 164.502C587.971 164.814 587.221 164.97 586.369 164.97C585.529 164.97 584.779 164.814 584.119 164.502C583.459 164.178 582.937 163.728 582.553 163.152C582.181 162.564 581.995 161.892 581.995 161.136C581.995 160.368 582.181 159.696 582.553 159.12C582.937 158.544 583.459 158.1 584.119 157.788C584.779 157.464 585.529 157.302 586.369 157.302ZM586.369 158.598C585.817 158.598 585.319 158.706 584.875 158.922C584.443 159.126 584.101 159.42 583.849 159.804C583.597 160.188 583.471 160.632 583.471 161.136C583.471 161.64 583.597 162.084 583.849 162.468C584.101 162.852 584.443 163.152 584.875 163.368C585.319 163.572 585.817 163.674 586.369 163.674C586.933 163.674 587.431 163.572 587.863 163.368C588.295 163.152 588.637 162.852 588.889 162.468C589.141 162.084 589.267 161.64 589.267 161.136C589.267 160.632 589.141 160.188 588.889 159.804C588.637 159.42 588.295 159.126 587.863 158.922C587.431 158.706 586.933 158.598 586.369 158.598ZM592.867 156.114H594.361V172.422H592.867V156.114ZM581.383 168.858L581.185 167.598C582.181 167.598 583.273 167.592 584.461 167.58C585.649 167.556 586.873 167.508 588.133 167.436C589.405 167.352 590.629 167.22 591.805 167.04L591.931 168.138C590.707 168.366 589.465 168.534 588.205 168.642C586.957 168.738 585.751 168.798 584.587 168.822C583.423 168.846 582.355 168.858 581.383 168.858ZM613.541 156.114H615.035V172.404H613.541V156.114ZM608.771 157.878H610.247C610.247 159.054 610.103 160.188 609.815 161.28C609.539 162.372 609.101 163.41 608.501 164.394C607.901 165.366 607.121 166.272 606.161 167.112C605.201 167.952 604.037 168.702 602.669 169.362L601.877 168.156C603.449 167.4 604.745 166.518 605.765 165.51C606.785 164.502 607.541 163.38 608.033 162.144C608.525 160.896 608.771 159.552 608.771 158.112V157.878ZM602.633 157.878H609.401V159.084H602.633V157.878ZM618.22 165.078H632.98V166.302H618.22V165.078ZM620.092 156.528H631.09V160.488H621.604V162.666H620.128V159.372H629.614V157.716H620.092V156.528ZM620.128 162.18H631.432V163.368H620.128V162.18ZM624.862 162.792H626.338V165.672H624.862V162.792ZM619.876 167.544H631.18V172.242H629.686V168.75H619.876V167.544Z" fill="#B8C0E0"/>
<path d="M398.226 189.75H403.158V190.974H398.226V189.75ZM398.226 194.898H403.158V196.122H398.226V194.898ZM395.238 187.374C396.03 187.374 396.732 187.608 397.344 188.076C397.956 188.532 398.43 189.186 398.766 190.038C399.114 190.89 399.288 191.892 399.288 193.044C399.288 194.196 399.114 195.198 398.766 196.05C398.43 196.902 397.956 197.562 397.344 198.03C396.732 198.498 396.03 198.732 395.238 198.732C394.458 198.732 393.756 198.498 393.132 198.03C392.52 197.562 392.04 196.902 391.692 196.05C391.356 195.198 391.188 194.196 391.188 193.044C391.188 191.892 391.356 190.89 391.692 190.038C392.04 189.186 392.52 188.532 393.132 188.076C393.756 187.608 394.458 187.374 395.238 187.374ZM395.238 188.706C394.722 188.706 394.266 188.886 393.87 189.246C393.474 189.594 393.162 190.098 392.934 190.758C392.718 191.406 392.61 192.168 392.61 193.044C392.61 193.92 392.718 194.688 392.934 195.348C393.162 195.996 393.474 196.5 393.87 196.86C394.266 197.22 394.722 197.4 395.238 197.4C395.766 197.4 396.228 197.22 396.624 196.86C397.02 196.5 397.326 195.996 397.542 195.348C397.77 194.688 397.884 193.92 397.884 193.044C397.884 192.168 397.77 191.406 397.542 190.758C397.326 190.098 397.02 189.594 396.624 189.246C396.228 188.886 395.766 188.706 395.238 188.706ZM402.816 186.114H404.292V202.422H402.816V186.114ZM419.321 186.114H420.815V202.404H419.321V186.114ZM414.551 187.878H416.027C416.027 189.054 415.883 190.188 415.595 191.28C415.319 192.372 414.881 193.41 414.281 194.394C413.681 195.366 412.901 196.272 411.941 197.112C410.981 197.952 409.817 198.702 408.449 199.362L407.657 198.156C409.229 197.4 410.525 196.518 411.545 195.51C412.565 194.502 413.321 193.38 413.813 192.144C414.305 190.896 414.551 189.552 414.551 188.112V187.878ZM408.413 187.878H415.181V189.084H408.413V187.878ZM432.153 191.64H436.671V192.864H432.153V191.64ZM428.211 187.518H429.435V190.434C429.435 191.334 429.321 192.222 429.093 193.098C428.877 193.974 428.565 194.79 428.157 195.546C427.749 196.302 427.269 196.974 426.717 197.562C426.177 198.15 425.583 198.618 424.935 198.966L423.999 197.76C424.599 197.472 425.151 197.07 425.655 196.554C426.171 196.038 426.621 195.45 427.005 194.79C427.389 194.118 427.683 193.416 427.887 192.684C428.103 191.94 428.211 191.19 428.211 190.434V187.518ZM428.517 187.518H429.723V190.434C429.723 191.166 429.825 191.892 430.029 192.612C430.245 193.332 430.545 194.01 430.929 194.646C431.313 195.27 431.757 195.828 432.261 196.32C432.777 196.812 433.329 197.196 433.917 197.472L433.017 198.678C432.369 198.342 431.769 197.892 431.217 197.328C430.665 196.764 430.185 196.116 429.777 195.384C429.381 194.652 429.069 193.866 428.841 193.026C428.625 192.186 428.517 191.322 428.517 190.434V187.518ZM435.933 186.114H437.409V202.422H435.933V186.114ZM455.743 186.114H457.255V195.798H455.743V186.114ZM456.823 190.344H459.631V191.586H456.823V190.344ZM452.053 196.14C453.145 196.14 454.087 196.266 454.879 196.518C455.683 196.758 456.301 197.112 456.733 197.58C457.177 198.036 457.399 198.594 457.399 199.254C457.399 199.902 457.177 200.46 456.733 200.928C456.301 201.396 455.683 201.75 454.879 201.99C454.087 202.242 453.145 202.368 452.053 202.368C450.949 202.368 449.995 202.242 449.191 201.99C448.387 201.75 447.769 201.396 447.337 200.928C446.905 200.46 446.689 199.902 446.689 199.254C446.689 198.594 446.905 198.036 447.337 197.58C447.769 197.112 448.387 196.758 449.191 196.518C449.995 196.266 450.949 196.14 452.053 196.14ZM452.053 197.346C451.249 197.346 450.553 197.424 449.965 197.58C449.389 197.724 448.939 197.94 448.615 198.228C448.303 198.504 448.147 198.846 448.147 199.254C448.147 199.65 448.303 199.992 448.615 200.28C448.939 200.568 449.389 200.79 449.965 200.946C450.553 201.09 451.249 201.162 452.053 201.162C452.845 201.162 453.535 201.09 454.123 200.946C454.711 200.79 455.161 200.568 455.473 200.28C455.785 199.992 455.941 199.65 455.941 199.254C455.941 198.846 455.785 198.504 455.473 198.228C455.161 197.94 454.711 197.724 454.123 197.58C453.535 197.424 452.845 197.346 452.053 197.346ZM445.321 193.278H446.581C447.721 193.278 448.711 193.266 449.551 193.242C450.391 193.218 451.165 193.164 451.873 193.08C452.581 192.996 453.301 192.882 454.033 192.738L454.195 193.962C453.451 194.106 452.713 194.22 451.981 194.304C451.261 194.376 450.469 194.43 449.605 194.466C448.741 194.49 447.733 194.502 446.581 194.502H445.321V193.278ZM445.321 187.356H452.503V188.58H446.797V194.088H445.321V187.356ZM473.004 186.132H474.498V198.066H473.004V186.132ZM464.04 200.82H475.002V202.044H464.04V200.82ZM464.04 196.968H465.534V201.396H464.04V196.968ZM465.39 187.032H466.632V188.67C466.632 189.738 466.446 190.74 466.074 191.676C465.702 192.6 465.174 193.416 464.49 194.124C463.818 194.82 463.026 195.354 462.114 195.726L461.322 194.538C462.15 194.214 462.864 193.752 463.464 193.152C464.076 192.552 464.55 191.868 464.886 191.1C465.222 190.32 465.39 189.51 465.39 188.67V187.032ZM465.66 187.032H466.902V188.67C466.902 189.282 466.998 189.876 467.19 190.452C467.382 191.016 467.658 191.544 468.018 192.036C468.378 192.528 468.804 192.966 469.296 193.35C469.8 193.722 470.352 194.016 470.952 194.232L470.178 195.42C469.278 195.072 468.486 194.568 467.802 193.908C467.13 193.236 466.602 192.456 466.218 191.568C465.846 190.668 465.66 189.702 465.66 188.67V187.032ZM482.992 187.302C483.844 187.302 484.594 187.464 485.242 187.788C485.902 188.1 486.418 188.544 486.79 189.12C487.162 189.696 487.348 190.368 487.348 191.136C487.348 191.892 487.162 192.564 486.79 193.152C486.418 193.728 485.902 194.178 485.242 194.502C484.594 194.814 483.844 194.97 482.992 194.97C482.152 194.97 481.402 194.814 480.742 194.502C480.082 194.178 479.56 193.728 479.176 193.152C478.804 192.564 478.618 191.892 478.618 191.136C478.618 190.368 478.804 189.696 479.176 189.12C479.56 188.544 480.082 188.1 480.742 187.788C481.402 187.464 482.152 187.302 482.992 187.302ZM482.992 188.598C482.44 188.598 481.942 188.706 481.498 188.922C481.066 189.126 480.724 189.42 480.472 189.804C480.22 190.188 480.094 190.632 480.094 191.136C480.094 191.64 480.22 192.084 480.472 192.468C480.724 192.852 481.066 193.152 481.498 193.368C481.942 193.572 482.44 193.674 482.992 193.674C483.556 193.674 484.054 193.572 484.486 193.368C484.918 193.152 485.26 192.852 485.512 192.468C485.764 192.084 485.89 191.64 485.89 191.136C485.89 190.632 485.764 190.188 485.512 189.804C485.26 189.42 484.918 189.126 484.486 188.922C484.054 188.706 483.556 188.598 482.992 188.598ZM489.49 186.114H490.984V202.422H489.49V186.114ZM478.006 198.858L477.808 197.598C478.804 197.598 479.896 197.592 481.084 197.58C482.272 197.556 483.496 197.508 484.756 197.436C486.028 197.352 487.252 197.22 488.428 197.04L488.554 198.138C487.33 198.366 486.088 198.534 484.828 198.642C483.58 198.738 482.374 198.798 481.21 198.822C480.046 198.846 478.978 198.858 478.006 198.858ZM498.302 199.074H513.062V200.316H498.302V199.074ZM504.908 194.862H506.384V199.416H504.908V194.862ZM500.03 187.464H511.262V195.132H500.03V187.464ZM509.804 188.67H501.488V193.944H509.804V188.67ZM514.861 194.34H529.585V195.546H514.861V194.34ZM516.715 191.334H527.893V192.558H516.715V191.334ZM516.715 186.816H527.749V188.022H518.209V191.73H516.715V186.816ZM516.751 200.802H528.019V202.026H516.751V200.802ZM516.751 197.274H518.227V201.126H516.751V197.274ZM546.569 186.114H548.063V195.726H546.569V186.114ZM547.433 190.272H550.439V191.532H547.433V190.272ZM537.515 196.464H548.063V199.758H539.027V201.468H537.551V198.768H546.587V197.508H537.515V196.464ZM537.551 201.162H548.675V202.224H537.551V201.162ZM539.711 192.792H541.187V194.862H539.711V192.792ZM535.535 195.348L535.355 194.25C536.315 194.25 537.377 194.244 538.541 194.232C539.705 194.208 540.893 194.166 542.105 194.106C543.317 194.034 544.481 193.92 545.597 193.764L545.705 194.736C544.553 194.928 543.371 195.072 542.159 195.168C540.959 195.252 539.789 195.306 538.649 195.33C537.521 195.342 536.483 195.348 535.535 195.348ZM535.769 187.356H545.111V188.418H535.769V187.356ZM540.431 188.94C541.583 188.94 542.501 189.126 543.185 189.498C543.881 189.87 544.229 190.392 544.229 191.064C544.229 191.748 543.881 192.282 543.185 192.666C542.501 193.038 541.583 193.224 540.431 193.224C539.279 193.224 538.355 193.038 537.659 192.666C536.975 192.282 536.633 191.748 536.633 191.064C536.633 190.392 536.975 189.87 537.659 189.498C538.355 189.126 539.279 188.94 540.431 188.94ZM540.431 189.93C539.699 189.93 539.117 190.032 538.685 190.236C538.265 190.44 538.055 190.716 538.055 191.064C538.055 191.424 538.265 191.712 538.685 191.928C539.117 192.132 539.699 192.234 540.431 192.234C541.163 192.234 541.739 192.132 542.159 191.928C542.591 191.712 542.807 191.424 542.807 191.064C542.807 190.716 542.591 190.44 542.159 190.236C541.739 190.032 541.163 189.93 540.431 189.93ZM539.711 185.97H541.187V187.914H539.711V185.97ZM552.004 194.142H566.728V195.348H552.004V194.142ZM558.628 191.532H560.086V194.646H558.628V191.532ZM553.858 191.064H565V192.27H553.858V191.064ZM553.858 186.87H564.892V188.058H555.334V191.784H553.858V186.87ZM559.348 196.518C561.088 196.518 562.45 196.776 563.434 197.292C564.418 197.796 564.91 198.516 564.91 199.452C564.91 200.388 564.418 201.108 563.434 201.612C562.45 202.128 561.088 202.386 559.348 202.386C557.608 202.386 556.24 202.128 555.244 201.612C554.26 201.108 553.768 200.388 553.768 199.452C553.768 198.516 554.26 197.796 555.244 197.292C556.24 196.776 557.608 196.518 559.348 196.518ZM559.33 197.688C558.49 197.688 557.764 197.76 557.152 197.904C556.552 198.036 556.09 198.234 555.766 198.498C555.442 198.75 555.28 199.068 555.28 199.452C555.28 199.824 555.442 200.142 555.766 200.406C556.09 200.67 556.552 200.868 557.152 201C557.764 201.144 558.49 201.216 559.33 201.216C560.194 201.216 560.926 201.144 561.526 201C562.138 200.868 562.606 200.67 562.93 200.406C563.254 200.142 563.416 199.824 563.416 199.452C563.416 199.068 563.254 198.75 562.93 198.498C562.606 198.234 562.138 198.036 561.526 197.904C560.926 197.76 560.194 197.688 559.33 197.688ZM575.906 186.402C577.706 186.402 579.11 186.648 580.118 187.14C581.126 187.62 581.63 188.31 581.63 189.21C581.63 190.122 581.126 190.824 580.118 191.316C579.11 191.796 577.706 192.036 575.906 192.036C574.118 192.036 572.714 191.796 571.694 191.316C570.686 190.824 570.182 190.122 570.182 189.21C570.182 188.31 570.686 187.62 571.694 187.14C572.714 186.648 574.118 186.402 575.906 186.402ZM575.906 187.518C575.03 187.518 574.28 187.584 573.656 187.716C573.032 187.848 572.552 188.04 572.216 188.292C571.892 188.544 571.73 188.85 571.73 189.21C571.73 189.57 571.892 189.882 572.216 190.146C572.552 190.398 573.032 190.59 573.656 190.722C574.28 190.842 575.03 190.902 575.906 190.902C576.794 190.902 577.55 190.842 578.174 190.722C578.798 190.59 579.272 190.398 579.596 190.146C579.932 189.882 580.1 189.57 580.1 189.21C580.1 188.85 579.932 188.544 579.596 188.292C579.272 188.04 578.798 187.848 578.174 187.716C577.55 187.584 576.794 187.518 575.906 187.518ZM568.562 193.134H583.268V194.34H568.562V193.134ZM570.344 195.726H581.378V199.398H571.838V201.36H570.38V198.3H579.92V196.878H570.344V195.726ZM570.38 201.054H581.864V202.224H570.38V201.054ZM593.412 193.764H594.888V195.834H593.412V193.764ZM600.27 186.132H601.764V197.04H600.27V186.132ZM601.134 191.046H604.14V192.288H601.134V191.046ZM589.236 196.572L589.056 195.366C590.028 195.366 591.09 195.36 592.242 195.348C593.406 195.324 594.594 195.276 595.806 195.204C597.018 195.132 598.182 195.018 599.298 194.862L599.406 195.924C598.254 196.128 597.072 196.278 595.86 196.374C594.66 196.458 593.49 196.512 592.35 196.536C591.222 196.56 590.184 196.572 589.236 196.572ZM591.054 197.868H601.764V202.404H600.27V199.056H591.054V197.868ZM589.47 187.59H598.812V188.724H589.47V187.59ZM594.132 189.336C595.284 189.336 596.202 189.552 596.886 189.984C597.582 190.416 597.93 191.004 597.93 191.748C597.93 192.492 597.582 193.08 596.886 193.512C596.202 193.944 595.284 194.16 594.132 194.16C592.992 194.16 592.074 193.944 591.378 193.512C590.682 193.08 590.334 192.492 590.334 191.748C590.334 191.004 590.682 190.416 591.378 189.984C592.074 189.552 592.992 189.336 594.132 189.336ZM594.132 190.38C593.412 190.38 592.836 190.5 592.404 190.74C591.972 190.98 591.756 191.316 591.756 191.748C591.756 192.156 591.972 192.492 592.404 192.756C592.836 193.008 593.412 193.134 594.132 193.134C594.852 193.134 595.428 193.008 595.86 192.756C596.292 192.492 596.508 192.156 596.508 191.748C596.508 191.316 596.292 190.98 595.86 190.74C595.428 190.5 594.852 190.38 594.132 190.38ZM593.412 185.988H594.888V188.148H593.412V185.988ZM617.549 186.132H619.043V198.012H617.549V186.132ZM608.585 200.82H619.547V202.044H608.585V200.82ZM608.585 196.806H610.079V201.234H608.585V196.806ZM610.313 187.266C611.129 187.266 611.855 187.434 612.491 187.77C613.127 188.106 613.631 188.58 614.003 189.192C614.375 189.792 614.561 190.482 614.561 191.262C614.561 192.042 614.375 192.738 614.003 193.35C613.631 193.95 613.127 194.424 612.491 194.772C611.855 195.108 611.129 195.276 610.313 195.276C609.509 195.276 608.783 195.108 608.135 194.772C607.499 194.424 606.995 193.95 606.623 193.35C606.251 192.738 606.065 192.042 606.065 191.262C606.065 190.482 606.251 189.792 606.623 189.192C606.995 188.58 607.499 188.106 608.135 187.77C608.783 187.434 609.509 187.266 610.313 187.266ZM610.313 188.562C609.785 188.562 609.311 188.676 608.891 188.904C608.471 189.132 608.135 189.45 607.883 189.858C607.643 190.266 607.523 190.734 607.523 191.262C607.523 191.802 607.643 192.276 607.883 192.684C608.135 193.08 608.471 193.392 608.891 193.62C609.311 193.848 609.785 193.962 610.313 193.962C610.841 193.962 611.315 193.848 611.735 193.62C612.167 193.392 612.503 193.08 612.743 192.684C612.983 192.276 613.103 191.802 613.103 191.262C613.103 190.734 612.983 190.266 612.743 189.858C612.503 189.45 612.167 189.132 611.735 188.904C611.315 188.676 610.841 188.562 610.313 188.562ZM633.297 186.114H634.773V202.404H633.297V186.114ZM634.431 192.81H637.437V194.07H634.431V192.81ZM622.173 188.724H631.767V189.948H622.173V188.724ZM627.051 191.28C627.819 191.28 628.497 191.442 629.085 191.766C629.685 192.09 630.153 192.534 630.489 193.098C630.837 193.65 631.011 194.292 631.011 195.024C631.011 195.756 630.837 196.404 630.489 196.968C630.153 197.532 629.685 197.976 629.085 198.3C628.497 198.612 627.819 198.768 627.051 198.768C626.283 198.768 625.599 198.612 624.999 198.3C624.411 197.976 623.943 197.532 623.595 196.968C623.247 196.404 623.073 195.756 623.073 195.024C623.073 194.292 623.247 193.65 623.595 193.098C623.943 192.534 624.411 192.09 624.999 191.766C625.599 191.442 626.283 191.28 627.051 191.28ZM627.051 192.522C626.559 192.522 626.121 192.63 625.737 192.846C625.353 193.062 625.047 193.356 624.819 193.728C624.603 194.1 624.495 194.532 624.495 195.024C624.495 195.516 624.603 195.954 624.819 196.338C625.047 196.71 625.353 197.004 625.737 197.22C626.121 197.424 626.559 197.526 627.051 197.526C627.531 197.526 627.963 197.424 628.347 197.22C628.731 197.004 629.031 196.71 629.247 196.338C629.475 195.954 629.589 195.516 629.589 195.024C629.589 194.532 629.475 194.1 629.247 193.728C629.031 193.356 628.731 193.062 628.347 192.846C627.963 192.63 627.531 192.522 627.051 192.522ZM626.277 186.312H627.771V189.264H626.277V186.312ZM645.23 191.946H648.362V193.188H645.23V191.946ZM642.206 187.644H643.376V190.758C643.376 191.598 643.286 192.426 643.106 193.242C642.938 194.058 642.686 194.826 642.35 195.546C642.026 196.266 641.63 196.914 641.162 197.49C640.694 198.066 640.166 198.534 639.578 198.894L638.642 197.778C639.194 197.442 639.692 197.022 640.136 196.518C640.58 196.014 640.952 195.45 641.252 194.826C641.564 194.19 641.798 193.53 641.954 192.846C642.122 192.15 642.206 191.454 642.206 190.758V187.644ZM642.494 187.644H643.646V190.704C643.646 191.352 643.718 192.006 643.862 192.666C644.018 193.314 644.234 193.938 644.51 194.538C644.798 195.126 645.152 195.666 645.572 196.158C645.992 196.65 646.466 197.058 646.994 197.382L646.148 198.534C645.56 198.174 645.038 197.718 644.582 197.166C644.126 196.602 643.742 195.972 643.43 195.276C643.118 194.568 642.884 193.824 642.728 193.044C642.572 192.264 642.494 191.484 642.494 190.704V187.644ZM651.224 186.114H652.664V202.404H651.224V186.114ZM647.912 186.456H649.316V201.576H647.912V186.456ZM658.998 194.502H660.474V199.362H658.998V194.502ZM665.01 194.502H666.504V199.362H665.01V194.502ZM655.38 199.074H670.14V200.316H655.38V199.074ZM662.724 187.14C663.876 187.14 664.896 187.314 665.784 187.662C666.672 188.01 667.368 188.496 667.872 189.12C668.388 189.744 668.646 190.482 668.646 191.334C668.646 192.174 668.388 192.912 667.872 193.548C667.368 194.172 666.672 194.658 665.784 195.006C664.896 195.342 663.876 195.51 662.724 195.51C661.584 195.51 660.564 195.342 659.664 195.006C658.776 194.658 658.08 194.172 657.576 193.548C657.072 192.912 656.82 192.174 656.82 191.334C656.82 190.482 657.072 189.744 657.576 189.12C658.08 188.496 658.776 188.01 659.664 187.662C660.564 187.314 661.584 187.14 662.724 187.14ZM662.724 188.328C661.86 188.328 661.092 188.454 660.42 188.706C659.748 188.958 659.22 189.312 658.836 189.768C658.452 190.212 658.26 190.734 658.26 191.334C658.26 191.934 658.452 192.462 658.836 192.918C659.22 193.362 659.748 193.71 660.42 193.962C661.092 194.214 661.86 194.34 662.724 194.34C663.6 194.34 664.374 194.214 665.046 193.962C665.718 193.71 666.246 193.362 666.63 192.918C667.014 192.462 667.206 191.934 667.206 191.334C667.206 190.734 667.014 190.212 666.63 189.768C666.246 189.312 665.718 188.958 665.046 188.706C664.374 188.454 663.6 188.328 662.724 188.328Z" fill="#B8C0E0"/>
<path d="M1161 255C1191.38 255 1216 237.091 1216 215C1216 192.909 1191.38 175 1161 175C1130.62 175 1106 192.909 1106 215C1106 237.091 1130.62 255 1161 255Z" fill="#4ECDC4"/>
<path d="M1161 195C1183.09 195 1201 177.091 1201 155C1201 132.909 1183.09 115 1161 115C1138.91 115 1121 132.909 1121 155C1121 177.091 1138.91 195 1161 195Z" fill="#FFCDB2"/>
<path d="M1121 140C1121 120 1126 108.333 1136 105C1146 101.667 1152.67 101.667 1156 105C1159.33 101.667 1162.67 101.667 1166 105C1169.33 108.333 1176 108.333 1186 105C1196 108.333 1201 120 1201 140" fill="#2C3E50"/>
<path d="M1146 153C1147.66 153 1149 151.657 1149 150C1149 148.343 1147.66 147 1146 147C1144.34 147 1143 148.343 1143 150C1143 151.657 1144.34 153 1146 153Z" fill="#333333"/>
<path d="M1176 153C1177.66 153 1179 151.657 1179 150C1179 148.343 1177.66 147 1176 147C1174.34 147 1173 148.343 1173 150C1173 151.657 1174.34 153 1176 153Z" fill="#333333"/>
<path d="M1146 165C1156 169.667 1166 169.667 1176 165" stroke="#333333" stroke-width="2"/>
<path d="M1116 195L1091 185L1096 210" fill="#FFCDB2"/>
<path d="M1206 195L1231 185L1226 210" fill="#FFCDB2"/>
<path d="M1011 115L1001 95H1021L1011 115Z" fill="#FFD93D"/>
<path d="M1021 90H1001C999.895 90 999 90.8954 999 92V93C999 94.1046 999.895 95 1001 95H1021C1022.1 95 1023 94.1046 1023 93V92C1023 90.8954 1022.1 90 1021 90Z" fill="#FFD93D"/>
<path d="M996 101C1000.42 101 1004 97.4183 1004 93C1004 88.5817 1000.42 85 996 85C991.582 85 988 88.5817 988 93C988 97.4183 991.582 101 996 101Z" stroke="#FFD93D" stroke-width="3"/>
<path d="M1026 101C1030.42 101 1034 97.4183 1034 93C1034 88.5817 1030.42 85 1026 85C1021.58 85 1018 88.5817 1018 93C1018 97.4183 1021.58 101 1026 101Z" stroke="#FFD93D" stroke-width="3"/>
<path d="M1014 115H1008V125H1014V115Z" fill="#FFD93D"/>
<path d="M1019 125H1003V129H1019V125Z" fill="#FFD93D"/>
<path d="M1248 125H1214C1212.34 125 1211 126.343 1211 128V172C1211 173.657 1212.34 175 1214 175H1248C1249.66 175 1251 173.657 1251 172V128C1251 126.343 1249.66 125 1248 125Z" fill="#FF6B6B"/>
<path d="M1246 130H1216V170H1246V130Z" fill="#FFE5E5"/>
<path d="M1221 140H1241" stroke="#FF6B6B" stroke-width="2"/>
<path d="M1221 150H1241" stroke="#FF6B6B" stroke-width="2"/>
<path d="M1221 160H1236" stroke="#FF6B6B" stroke-width="2"/>
<path opacity="0.8" d="M961 40L966 50H976L968 57L971 67L961 60L951 67L954 57L946 50H956L961 40Z" fill="#FFD93D"/>
<path opacity="0.9" d="M1261 85C1272.05 85 1281 76.0457 1281 65C1281 53.9543 1272.05 45 1261 45C1249.95 45 1241 53.9543 1241 65C1241 76.0457 1249.95 85 1261 85Z" fill="#FFD93D"/>
<path d="M1267 83H1255C1253.9 83 1253 83.8954 1253 85V89C1253 90.1046 1253.9 91 1255 91H1267C1268.1 91 1269 90.1046 1269 89V85C1269 83.8954 1268.1 83 1267 83Z" fill="#666666"/>
<path d="M1256 87H1266" stroke="#999999"/>
<path d="M1256 89H1266" stroke="#999999"/>
<path opacity="0.6" d="M1253 65C1253 59.6667 1255.67 57 1261 57C1266.33 57 1269 59.6667 1269 65" stroke="white" stroke-width="2"/>
<path d="M1071 260C1073.76 260 1076 257.761 1076 255C1076 252.239 1073.76 250 1071 250C1068.24 250 1066 252.239 1066 255C1066 257.761 1068.24 260 1071 260Z" fill="#4ECDC4"/>
<path d="M1091 260C1093.76 260 1096 257.761 1096 255C1096 252.239 1093.76 250 1091 250C1088.24 250 1086 252.239 1086 255C1086 257.761 1088.24 260 1091 260Z" fill="#4ECDC4"/>
<path d="M1111 260C1113.76 260 1116 257.761 1116 255C1116 252.239 1113.76 250 1111 250C1108.24 250 1106 252.239 1106 255C1106 257.761 1108.24 260 1111 260Z" fill="#FFD93D"/>
<path d="M1131 260C1133.76 260 1136 257.761 1136 255C1136 252.239 1133.76 250 1131 250C1128.24 250 1126 252.239 1126 255C1126 257.761 1128.24 260 1131 260Z" fill="#B8C0E0"/>
<path d="M1151 260C1153.76 260 1156 257.761 1156 255C1156 252.239 1153.76 250 1151 250C1148.24 250 1146 252.239 1146 255C1146 257.761 1148.24 260 1151 260Z" fill="#B8C0E0"/>
<path d="M911 185C977.667 171.667 1044.33 171.667 1111 185C1177.67 198.333 1244.33 198.333 1311 185" stroke="white" stroke-opacity="0.1" stroke-width="2"/>
</g>
<defs>
<clipPath id="clip0_3298_16919">
<rect width="1600" height="300" fill="white"/>
</clipPath>
</defs>
</svg>
