<svg viewBox="0 0 1600 300" fill="none" xmlns="http://www.w3.org/2000/svg">
<g clip-path="url(#clip0_3298_16966)">
<path d="M1600 0H0V300H1600V0Z" fill="#2B4490"/>
<path d="M1200 74C1202.21 74 1204 72.2091 1204 70C1204 67.7909 1202.21 66 1200 66C1197.79 66 1196 67.7909 1196 70C1196 72.2091 1197.79 74 1200 74Z" fill="white" fill-opacity="0.1"/>
<path d="M320 240C325.523 240 330 235.523 330 230C330 224.477 325.523 220 320 220C314.477 220 310 224.477 310 230C310 235.523 314.477 240 320 240Z" fill="white" fill-opacity="0.1"/>
<path d="M451.36 123.578V88.046H453.88V102.956H460.18V88.046H462.7V123.578H460.18V105.14H453.88V123.578H451.36ZM441.07 88.046L448 123.578H445.48L438.97 90.23L432.46 123.578H429.94L436.87 88.046H441.07ZM469.407 110.852V98.168H499.227V90.23H469.407V88.046H501.747V100.352H471.927V108.668H501.957V110.852H486.837V121.394H502.167V123.578H468.987V121.394H484.317V110.852H469.407ZM507.824 94.892C507.824 90.608 510.722 88.046 514.754 88.046H534.494C538.526 88.046 541.424 90.608 541.424 94.892C541.424 99.176 538.526 101.738 534.494 101.738H514.754C510.722 101.738 507.824 99.176 507.824 94.892ZM510.344 94.892C510.344 97.538 511.856 99.554 514.754 99.554H534.494C537.392 99.554 538.904 97.538 538.904 94.892C538.904 92.246 537.392 90.23 534.494 90.23H514.754C511.856 90.23 510.344 92.246 510.344 94.892ZM508.034 107.114H541.214V109.298H526.304V117.32H523.784V109.298H508.034V107.114ZM511.394 114.254V121.394H541.214V123.578H508.874V114.254H511.394ZM557.098 108.458V88.046H589.438V90.23H559.618V106.274H589.648V108.458H574.528V121.394H589.858V123.578H556.678V121.394H572.008V108.458H557.098ZM595.935 107.198L604.671 90.23H595.935V88.046H618.195V90.23H609.417L618.195 107.198H615.591L607.065 90.692L598.539 107.198H595.935ZM625.965 113.918V97.79H617.649V95.564H625.965V88.046H628.485V113.918H625.965ZM599.085 111.734V121.394H628.905V123.578H596.565V111.734H599.085ZM637.628 118.58C638.762 118.58 639.728 119.252 640.022 120.596C640.652 123.536 638.174 127.232 635.276 128.45L634.352 127.19C636.032 126.392 637.418 124.88 637.628 123.116C636.326 123.032 635.402 122.192 635.402 120.848C635.402 119.462 636.494 118.58 637.628 118.58ZM676.782 123.578V88.046H679.302V102.956H685.602V88.046H688.122V123.578H685.602V105.14H679.302V123.578H676.782ZM666.492 88.046L673.422 123.578H670.902L664.392 90.23L657.882 123.578H655.362L662.292 88.046H666.492ZM694.829 110.852V98.168H724.649V90.23H694.829V88.046H727.169V100.352H697.349V108.668H727.379V110.852H712.259V121.394H727.589V123.578H694.409V121.394H709.739V110.852H694.829ZM733.246 94.892C733.246 90.608 736.144 88.046 740.176 88.046H759.916C763.948 88.046 766.846 90.608 766.846 94.892C766.846 99.176 763.948 101.738 759.916 101.738H740.176C736.144 101.738 733.246 99.176 733.246 94.892ZM735.766 94.892C735.766 97.538 737.278 99.554 740.176 99.554H759.916C762.814 99.554 764.326 97.538 764.326 94.892C764.326 92.246 762.814 90.23 759.916 90.23H740.176C737.278 90.23 735.766 92.246 735.766 94.892ZM733.456 107.114H766.636V109.298H751.726V117.32H749.206V109.298H733.456V107.114ZM736.816 114.254V121.394H766.636V123.578H734.296V114.254H736.816ZM812.34 123.578V88.046H814.86V123.578H812.34ZM801.42 123.578H798.816C800.37 111.986 801.462 100.688 801.672 90.23H782.31V88.046H804.36C804.066 100.688 802.974 111.986 801.42 123.578ZM820.727 90.146H831.647V86.786H834.167V90.146H845.087V92.33H820.727V90.146ZM851.387 123.578V88.046H853.907V123.578H851.387ZM821.777 105.056C821.777 98.924 825.893 94.346 832.907 94.346C839.921 94.346 844.037 98.924 844.037 105.056V106.568C844.037 112.322 840.383 116.69 834.167 117.236V121.394H845.507V123.578H821.147V121.394H831.647V117.236C825.389 116.69 821.777 112.322 821.777 106.568V105.056ZM832.907 115.094C838.283 115.094 841.517 111.566 841.517 106.568V105.056C841.517 100.058 838.283 96.53 832.907 96.53C827.531 96.53 824.297 100.058 824.297 105.056V106.568C824.297 111.566 827.531 115.094 832.907 115.094Z" fill="white"/>
<path d="M440.302 155.114H441.742V171.404H440.302V155.114ZM437.71 161.558H440.842V162.8H437.71V161.558ZM436.684 155.456H438.106V170.576H436.684V155.456ZM428.476 157.004H434.686V167.03H428.476V157.004ZM433.282 158.192H429.88V165.842H433.282V158.192ZM450.975 156.734H452.271V157.418C452.271 157.994 452.157 158.54 451.929 159.056C451.701 159.572 451.383 160.052 450.975 160.496C450.567 160.928 450.093 161.312 449.553 161.648C449.013 161.984 448.431 162.272 447.807 162.512C447.195 162.74 446.559 162.908 445.899 163.016L445.323 161.828C445.899 161.756 446.457 161.624 446.997 161.432C447.549 161.228 448.065 160.988 448.545 160.712C449.025 160.436 449.445 160.124 449.805 159.776C450.177 159.428 450.465 159.056 450.669 158.66C450.873 158.252 450.975 157.838 450.975 157.418V156.734ZM451.353 156.734H452.649V157.418C452.649 157.838 452.751 158.252 452.955 158.66C453.159 159.056 453.441 159.428 453.801 159.776C454.173 160.124 454.599 160.436 455.079 160.712C455.559 160.988 456.069 161.228 456.609 161.432C457.161 161.624 457.725 161.756 458.301 161.828L457.743 163.016C457.083 162.908 456.441 162.74 455.817 162.512C455.193 162.272 454.611 161.984 454.071 161.648C453.531 161.312 453.057 160.928 452.649 160.496C452.241 160.052 451.923 159.572 451.695 159.056C451.467 158.54 451.353 157.994 451.353 157.418V156.734ZM451.047 165.194H452.523V171.386H451.047V165.194ZM444.459 164.384H459.165V165.608H444.459V164.384ZM445.845 156.122H457.761V157.328H445.845V156.122ZM471.631 155.69H472.945V156.608C472.945 157.232 472.825 157.82 472.585 158.372C472.345 158.912 472.015 159.41 471.595 159.866C471.187 160.322 470.707 160.73 470.155 161.09C469.603 161.45 469.003 161.75 468.355 161.99C467.719 162.23 467.065 162.404 466.393 162.512L465.781 161.306C466.381 161.222 466.963 161.078 467.527 160.874C468.103 160.67 468.637 160.424 469.129 160.136C469.621 159.836 470.053 159.5 470.425 159.128C470.809 158.756 471.103 158.36 471.307 157.94C471.523 157.508 471.631 157.064 471.631 156.608V155.69ZM471.883 155.69H473.179V156.608C473.179 157.064 473.287 157.502 473.503 157.922C473.719 158.342 474.013 158.738 474.385 159.11C474.769 159.482 475.207 159.818 475.699 160.118C476.191 160.418 476.719 160.67 477.283 160.874C477.859 161.078 478.441 161.222 479.029 161.306L478.435 162.512C477.763 162.404 477.109 162.23 476.473 161.99C475.837 161.738 475.237 161.432 474.673 161.072C474.121 160.712 473.635 160.304 473.215 159.848C472.807 159.392 472.483 158.894 472.243 158.354C472.003 157.802 471.883 157.22 471.883 156.608V155.69ZM471.631 165.212H473.107V171.404H471.631V165.212ZM465.043 164.276H479.749V165.518H465.043V164.276ZM485.219 163.502H486.695V168.362H485.219V163.502ZM491.231 163.502H492.725V168.362H491.231V163.502ZM481.601 168.074H496.361V169.316H481.601V168.074ZM488.945 156.14C490.097 156.14 491.117 156.314 492.005 156.662C492.893 157.01 493.589 157.496 494.093 158.12C494.609 158.744 494.867 159.482 494.867 160.334C494.867 161.174 494.609 161.912 494.093 162.548C493.589 163.172 492.893 163.658 492.005 164.006C491.117 164.342 490.097 164.51 488.945 164.51C487.805 164.51 486.785 164.342 485.885 164.006C484.997 163.658 484.301 163.172 483.797 162.548C483.293 161.912 483.041 161.174 483.041 160.334C483.041 159.482 483.293 158.744 483.797 158.12C484.301 157.496 484.997 157.01 485.885 156.662C486.785 156.314 487.805 156.14 488.945 156.14ZM488.945 157.328C488.081 157.328 487.313 157.454 486.641 157.706C485.969 157.958 485.441 158.312 485.057 158.768C484.673 159.212 484.481 159.734 484.481 160.334C484.481 160.934 484.673 161.462 485.057 161.918C485.441 162.362 485.969 162.71 486.641 162.962C487.313 163.214 488.081 163.34 488.945 163.34C489.821 163.34 490.595 163.214 491.267 162.962C491.939 162.71 492.467 162.362 492.851 161.918C493.235 161.462 493.427 160.934 493.427 160.334C493.427 159.734 493.235 159.212 492.851 158.768C492.467 158.312 491.939 157.958 491.267 157.706C490.595 157.454 489.821 157.328 488.945 157.328ZM502.732 155.708C503.548 155.708 504.268 155.864 504.892 156.176C505.528 156.476 506.026 156.896 506.386 157.436C506.746 157.976 506.926 158.606 506.926 159.326C506.926 160.034 506.746 160.664 506.386 161.216C506.026 161.756 505.528 162.176 504.892 162.476C504.268 162.776 503.548 162.926 502.732 162.926C501.928 162.926 501.208 162.776 500.572 162.476C499.936 162.176 499.432 161.756 499.06 161.216C498.7 160.664 498.52 160.034 498.52 159.326C498.52 158.606 498.7 157.976 499.06 157.436C499.432 156.896 499.936 156.476 500.572 156.176C501.208 155.864 501.928 155.708 502.732 155.708ZM502.732 156.95C502.204 156.95 501.73 157.052 501.31 157.256C500.902 157.448 500.578 157.724 500.338 158.084C500.098 158.444 499.978 158.858 499.978 159.326C499.978 159.794 500.098 160.208 500.338 160.568C500.578 160.916 500.902 161.192 501.31 161.396C501.73 161.6 502.204 161.702 502.732 161.702C503.26 161.702 503.728 161.6 504.136 161.396C504.556 161.192 504.886 160.916 505.126 160.568C505.366 160.208 505.486 159.794 505.486 159.326C505.486 158.858 505.366 158.444 505.126 158.084C504.886 157.724 504.556 157.448 504.136 157.256C503.728 157.052 503.26 156.95 502.732 156.95ZM510.004 155.114H511.498V163.448H510.004V155.114ZM500.968 164.258H511.498V168.2H502.462V170.648H501.022V167.084H510.022V165.446H500.968V164.258ZM501.022 169.982H512.056V171.188H501.022V169.982ZM515.168 173.42L514.772 172.448C515.336 172.196 515.78 171.854 516.104 171.422C516.428 170.99 516.584 170.498 516.572 169.946L516.392 168.47L517.202 169.676C517.082 169.808 516.95 169.904 516.806 169.964C516.674 170.012 516.53 170.036 516.374 170.036C516.05 170.036 515.768 169.934 515.528 169.73C515.288 169.526 515.168 169.244 515.168 168.884C515.168 168.524 515.288 168.242 515.528 168.038C515.78 167.834 516.074 167.732 516.41 167.732C516.842 167.732 517.178 167.906 517.418 168.254C517.67 168.59 517.796 169.058 517.796 169.658C517.796 170.522 517.556 171.278 517.076 171.926C516.608 172.574 515.972 173.072 515.168 173.42ZM534.77 155.114H536.264V171.422H534.77V155.114ZM535.922 161.54H538.928V162.782H535.922V161.54ZM524.456 166.094H525.734C526.73 166.094 527.642 166.082 528.47 166.058C529.31 166.022 530.114 165.962 530.882 165.878C531.662 165.794 532.454 165.68 533.258 165.536L533.438 166.814C532.598 166.958 531.782 167.072 530.99 167.156C530.21 167.24 529.394 167.294 528.542 167.318C527.69 167.342 526.754 167.354 525.734 167.354H524.456V166.094ZM524.456 156.698H531.998V157.922H525.932V166.67H524.456V156.698ZM552.498 157.544H555.306V158.786H552.498V157.544ZM552.498 161.018H555.306V162.26H552.498V161.018ZM544.848 156.086C545.676 156.086 546.408 156.248 547.044 156.572C547.68 156.896 548.178 157.346 548.538 157.922C548.91 158.498 549.096 159.164 549.096 159.92C549.096 160.688 548.91 161.36 548.538 161.936C548.178 162.5 547.68 162.944 547.044 163.268C546.408 163.592 545.676 163.754 544.848 163.754C544.044 163.754 543.318 163.592 542.67 163.268C542.034 162.944 541.53 162.5 541.158 161.936C540.786 161.36 540.6 160.688 540.6 159.92C540.6 159.164 540.786 158.498 541.158 157.922C541.53 157.346 542.034 156.896 542.67 156.572C543.318 156.248 544.044 156.086 544.848 156.086ZM544.848 157.346C544.32 157.346 543.846 157.46 543.426 157.688C543.006 157.904 542.67 158.204 542.418 158.588C542.178 158.972 542.058 159.416 542.058 159.92C542.058 160.436 542.178 160.886 542.418 161.27C542.67 161.654 543.006 161.954 543.426 162.17C543.846 162.386 544.32 162.494 544.848 162.494C545.388 162.494 545.868 162.386 546.288 162.17C546.708 161.954 547.038 161.654 547.278 161.27C547.53 160.886 547.656 160.436 547.656 159.92C547.656 159.416 547.53 158.972 547.278 158.588C547.038 158.204 546.708 157.904 546.288 157.688C545.868 157.46 545.388 157.346 544.848 157.346ZM551.454 155.114H552.948V164.762H551.454V155.114ZM547.764 165.266C548.856 165.266 549.804 165.392 550.608 165.644C551.412 165.884 552.03 166.232 552.462 166.688C552.894 167.132 553.11 167.678 553.11 168.326C553.11 168.962 552.894 169.508 552.462 169.964C552.03 170.408 551.412 170.75 550.608 170.99C549.804 171.242 548.856 171.368 547.764 171.368C546.66 171.368 545.706 171.242 544.902 170.99C544.098 170.75 543.48 170.408 543.048 169.964C542.616 169.508 542.4 168.962 542.4 168.326C542.4 167.678 542.616 167.132 543.048 166.688C543.48 166.232 544.098 165.884 544.902 165.644C545.706 165.392 546.66 165.266 547.764 165.266ZM547.764 166.472C546.96 166.472 546.264 166.544 545.676 166.688C545.1 166.832 544.656 167.042 544.344 167.318C544.032 167.594 543.876 167.93 543.876 168.326C543.876 168.71 544.032 169.04 544.344 169.316C544.656 169.592 545.1 169.802 545.676 169.946C546.264 170.09 546.96 170.162 547.764 170.162C548.568 170.162 549.258 170.09 549.834 169.946C550.41 169.802 550.854 169.592 551.166 169.316C551.478 169.04 551.634 168.71 551.634 168.326C551.634 167.93 551.478 167.594 551.166 167.318C550.854 167.042 550.41 166.832 549.834 166.688C549.258 166.544 548.568 166.472 547.764 166.472ZM568.013 155.132H569.507V167.336H568.013V155.132ZM569.039 160.478H571.901V161.72H569.039V160.478ZM556.907 157.112H566.519V158.318H556.907V157.112ZM561.713 159.2C562.481 159.2 563.159 159.332 563.747 159.596C564.335 159.848 564.791 160.202 565.115 160.658C565.439 161.102 565.601 161.63 565.601 162.242C565.601 162.854 565.439 163.388 565.115 163.844C564.791 164.288 564.335 164.636 563.747 164.888C563.159 165.14 562.481 165.266 561.713 165.266C560.945 165.266 560.267 165.14 559.679 164.888C559.091 164.636 558.629 164.288 558.293 163.844C557.969 163.388 557.807 162.854 557.807 162.242C557.807 161.63 557.969 161.102 558.293 160.658C558.629 160.202 559.091 159.848 559.679 159.596C560.267 159.332 560.945 159.2 561.713 159.2ZM561.713 160.37C560.981 160.37 560.387 160.544 559.931 160.892C559.475 161.228 559.247 161.678 559.247 162.242C559.247 162.806 559.475 163.256 559.931 163.592C560.387 163.928 560.981 164.096 561.713 164.096C562.457 164.096 563.051 163.928 563.495 163.592C563.951 163.256 564.179 162.806 564.179 162.242C564.179 161.678 563.951 161.228 563.495 160.892C563.051 160.544 562.457 160.37 561.713 160.37ZM560.975 155.132H562.469V157.724H560.975V155.132ZM559.373 169.82H570.227V171.044H559.373V169.82ZM559.373 166.364H560.849V170.324H559.373V166.364ZM583.971 156.734H585.267V157.418C585.267 157.994 585.153 158.54 584.925 159.056C584.697 159.572 584.379 160.052 583.971 160.496C583.563 160.928 583.089 161.312 582.549 161.648C582.009 161.984 581.427 162.272 580.803 162.512C580.191 162.74 579.555 162.908 578.895 163.016L578.319 161.828C578.895 161.756 579.453 161.624 579.993 161.432C580.545 161.228 581.061 160.988 581.541 160.712C582.021 160.436 582.441 160.124 582.801 159.776C583.173 159.428 583.461 159.056 583.665 158.66C583.869 158.252 583.971 157.838 583.971 157.418V156.734ZM584.349 156.734H585.645V157.418C585.645 157.838 585.747 158.252 585.951 158.66C586.155 159.056 586.437 159.428 586.797 159.776C587.169 160.124 587.595 160.436 588.075 160.712C588.555 160.988 589.065 161.228 589.605 161.432C590.157 161.624 590.721 161.756 591.297 161.828L590.739 163.016C590.079 162.908 589.437 162.74 588.813 162.512C588.189 162.272 587.607 161.984 587.067 161.648C586.527 161.312 586.053 160.928 585.645 160.496C585.237 160.052 584.919 159.572 584.691 159.056C584.463 158.54 584.349 157.994 584.349 157.418V156.734ZM584.043 165.194H585.519V171.386H584.043V165.194ZM577.455 164.384H592.161V165.608H577.455V164.384ZM578.841 156.122H590.757V157.328H578.841V156.122ZM606.397 155.114H607.819V171.404H606.397V155.114ZM600.457 160.964H603.589V162.188H600.457V160.964ZM603.139 155.492H604.543V170.558H603.139V155.492ZM597.343 157.652H598.495V159.722C598.495 160.61 598.411 161.48 598.243 162.332C598.075 163.172 597.829 163.964 597.505 164.708C597.181 165.44 596.785 166.106 596.317 166.706C595.849 167.294 595.321 167.774 594.733 168.146L593.815 167.03C594.571 166.574 595.207 165.962 595.723 165.194C596.251 164.426 596.653 163.568 596.929 162.62C597.205 161.672 597.343 160.706 597.343 159.722V157.652ZM597.649 157.652H598.783V159.722C598.783 160.658 598.915 161.576 599.179 162.476C599.455 163.376 599.845 164.192 600.349 164.924C600.865 165.644 601.495 166.22 602.239 166.652L601.339 167.768C600.547 167.276 599.875 166.622 599.323 165.806C598.783 164.978 598.369 164.042 598.081 162.998C597.793 161.942 597.649 160.85 597.649 159.722V157.652ZM594.265 157.022H601.699V158.246H594.265V157.022ZM610.572 168.146H625.332V169.388H610.572V168.146ZM617.178 164.672H618.654V168.668H617.178V164.672ZM612.372 156.32H623.496V161.252H613.884V164.51H612.408V160.064H622.02V157.544H612.372V156.32ZM612.408 163.88H623.874V165.104H612.408V163.88ZM643.054 155.114H644.548V163.808H643.054V155.114ZM631.642 156.158H640.21V157.364H631.642V156.158ZM631.354 163.304L631.192 162.044C632.104 162.044 633.106 162.038 634.198 162.026C635.29 162.014 636.394 161.984 637.51 161.936C638.638 161.876 639.706 161.798 640.714 161.702L640.786 162.8C639.754 162.944 638.68 163.052 637.564 163.124C636.448 163.196 635.356 163.244 634.288 163.268C633.232 163.292 632.254 163.304 631.354 163.304ZM633.244 156.95H634.702V162.584H633.244V156.95ZM637.15 156.95H638.59V162.584H637.15V156.95ZM640.39 157.472H643.9V158.678H640.39V157.472ZM640.39 160.19H643.9V161.396H640.39V160.19ZM634.072 164.582H644.548V168.362H635.566V170.72H634.108V167.228H643.072V165.752H634.072V164.582ZM634.108 170.036H645.142V171.224H634.108V170.036ZM659.612 155.114H661.088V171.422H659.612V155.114ZM656.318 160.262H660.53V161.504H656.318V160.262ZM656.318 163.664H660.53V164.888H656.318V163.664ZM651.854 158.984H653.042V160.388C653.042 161.24 652.934 162.074 652.718 162.89C652.502 163.694 652.19 164.444 651.782 165.14C651.374 165.836 650.9 166.454 650.36 166.994C649.82 167.522 649.226 167.942 648.578 168.254L647.75 167.102C648.338 166.814 648.884 166.436 649.388 165.968C649.892 165.5 650.33 164.966 650.702 164.366C651.074 163.766 651.356 163.13 651.548 162.458C651.752 161.774 651.854 161.084 651.854 160.388V158.984ZM652.142 158.984H653.33V160.388C653.33 161.06 653.432 161.72 653.636 162.368C653.852 163.016 654.146 163.628 654.518 164.204C654.89 164.768 655.328 165.278 655.832 165.734C656.348 166.19 656.906 166.556 657.506 166.832L656.66 167.984C656.012 167.684 655.412 167.276 654.86 166.76C654.308 166.244 653.828 165.65 653.42 164.978C653.012 164.306 652.694 163.58 652.466 162.8C652.25 162.02 652.142 161.216 652.142 160.388V158.984ZM648.182 157.94H656.948V159.146H648.182V157.94ZM651.854 155.42H653.348V158.606H651.854V155.42ZM668.575 157.454H669.799V160.082C669.799 160.946 669.679 161.798 669.439 162.638C669.199 163.466 668.863 164.252 668.431 164.996C668.011 165.728 667.519 166.376 666.955 166.94C666.391 167.504 665.785 167.948 665.137 168.272L664.273 167.084C664.861 166.796 665.413 166.406 665.929 165.914C666.457 165.422 666.919 164.858 667.315 164.222C667.711 163.586 668.017 162.914 668.233 162.206C668.461 161.498 668.575 160.79 668.575 160.082V157.454ZM668.881 157.454H670.087V160.082C670.087 160.766 670.195 161.45 670.411 162.134C670.639 162.806 670.951 163.442 671.347 164.042C671.755 164.63 672.217 165.152 672.733 165.608C673.261 166.064 673.825 166.424 674.425 166.688L673.597 167.876C672.937 167.564 672.319 167.144 671.743 166.616C671.167 166.088 670.663 165.482 670.231 164.798C669.811 164.102 669.481 163.358 669.241 162.566C669.001 161.762 668.881 160.934 668.881 160.082V157.454ZM664.795 156.788H673.885V158.03H664.795V156.788ZM676.099 155.114H677.593V171.404H676.099V155.114ZM682.812 160.01H693.882V161.216H682.812V160.01ZM680.814 163.394H695.574V164.618H680.814V163.394ZM682.812 155.708H684.288V160.622H682.812V155.708ZM682.704 169.784H693.972V171.008H682.704V169.784ZM682.704 166.256H684.198V170.108H682.704V166.256ZM705.718 157.454H706.942V160.082C706.942 160.946 706.822 161.798 706.582 162.638C706.342 163.466 706.006 164.252 705.574 164.996C705.154 165.728 704.662 166.376 704.098 166.94C703.534 167.504 702.928 167.948 702.28 168.272L701.416 167.084C702.004 166.796 702.556 166.406 703.072 165.914C703.6 165.422 704.062 164.858 704.458 164.222C704.854 163.586 705.16 162.914 705.376 162.206C705.604 161.498 705.718 160.79 705.718 160.082V157.454ZM706.024 157.454H707.23V160.082C707.23 160.766 707.338 161.45 707.554 162.134C707.782 162.806 708.094 163.442 708.49 164.042C708.898 164.63 709.36 165.152 709.876 165.608C710.404 166.064 710.968 166.424 711.568 166.688L710.74 167.876C710.08 167.564 709.462 167.144 708.886 166.616C708.31 166.088 707.806 165.482 707.374 164.798C706.954 164.102 706.624 163.358 706.384 162.566C706.144 161.762 706.024 160.934 706.024 160.082V157.454ZM701.938 156.788H711.028V158.03H701.938V156.788ZM713.242 155.114H714.736V171.404H713.242V155.114ZM722.204 155.888H723.446V157.472C723.446 158.504 723.254 159.47 722.87 160.37C722.498 161.27 721.964 162.056 721.268 162.728C720.584 163.388 719.786 163.892 718.874 164.24L718.118 163.052C718.73 162.824 719.282 162.524 719.774 162.152C720.278 161.768 720.71 161.33 721.07 160.838C721.442 160.346 721.724 159.812 721.916 159.236C722.108 158.66 722.204 158.072 722.204 157.472V155.888ZM722.474 155.888H723.716V157.472C723.716 158.06 723.812 158.624 724.004 159.164C724.208 159.704 724.49 160.208 724.85 160.676C725.21 161.144 725.636 161.558 726.128 161.918C726.632 162.278 727.184 162.56 727.784 162.764L727.046 163.952C726.146 163.616 725.348 163.136 724.652 162.512C723.968 161.876 723.434 161.126 723.05 160.262C722.666 159.398 722.474 158.468 722.474 157.472V155.888ZM720.44 165.734H731.312V171.404H729.818V166.958H720.44V165.734ZM729.818 155.114H731.312V164.906H729.818V155.114ZM739.807 156.302C740.659 156.302 741.409 156.464 742.057 156.788C742.717 157.1 743.233 157.544 743.605 158.12C743.977 158.696 744.163 159.368 744.163 160.136C744.163 160.892 743.977 161.564 743.605 162.152C743.233 162.728 742.717 163.178 742.057 163.502C741.409 163.814 740.659 163.97 739.807 163.97C738.967 163.97 738.217 163.814 737.557 163.502C736.897 163.178 736.375 162.728 735.991 162.152C735.619 161.564 735.433 160.892 735.433 160.136C735.433 159.368 735.619 158.696 735.991 158.12C736.375 157.544 736.897 157.1 737.557 156.788C738.217 156.464 738.967 156.302 739.807 156.302ZM739.807 157.598C739.255 157.598 738.757 157.706 738.313 157.922C737.881 158.126 737.539 158.42 737.287 158.804C737.035 159.188 736.909 159.632 736.909 160.136C736.909 160.64 737.035 161.084 737.287 161.468C737.539 161.852 737.881 162.152 738.313 162.368C738.757 162.572 739.255 162.674 739.807 162.674C740.371 162.674 740.869 162.572 741.301 162.368C741.733 162.152 742.075 161.852 742.327 161.468C742.579 161.084 742.705 160.64 742.705 160.136C742.705 159.632 742.579 159.188 742.327 158.804C742.075 158.42 741.733 158.126 741.301 157.922C740.869 157.706 740.371 157.598 739.807 157.598ZM746.305 155.114H747.799V171.422H746.305V155.114ZM734.821 167.858L734.623 166.598C735.619 166.598 736.711 166.592 737.899 166.58C739.087 166.556 740.311 166.508 741.571 166.436C742.843 166.352 744.067 166.22 745.243 166.04L745.369 167.138C744.145 167.366 742.903 167.534 741.643 167.642C740.395 167.738 739.189 167.798 738.025 167.822C736.861 167.846 735.793 167.858 734.821 167.858ZM767.303 157.922H770.111V159.164H767.303V157.922ZM767.303 161.396H770.111V162.638H767.303V161.396ZM766.259 155.114H767.753V165.608H766.259V155.114ZM762.641 165.734C763.733 165.734 764.675 165.848 765.467 166.076C766.259 166.292 766.865 166.61 767.285 167.03C767.717 167.45 767.933 167.96 767.933 168.56C767.933 169.148 767.717 169.652 767.285 170.072C766.865 170.492 766.259 170.81 765.467 171.026C764.675 171.254 763.733 171.368 762.641 171.368C761.537 171.368 760.589 171.254 759.797 171.026C759.017 170.81 758.411 170.492 757.979 170.072C757.547 169.652 757.331 169.148 757.331 168.56C757.331 167.96 757.547 167.45 757.979 167.03C758.411 166.61 759.017 166.292 759.797 166.076C760.589 165.848 761.537 165.734 762.641 165.734ZM762.641 166.904C761.441 166.904 760.499 167.048 759.815 167.336C759.143 167.624 758.807 168.032 758.807 168.56C758.807 169.088 759.143 169.496 759.815 169.784C760.499 170.072 761.441 170.216 762.641 170.216C763.829 170.216 764.759 170.072 765.431 169.784C766.115 169.496 766.457 169.088 766.457 168.56C766.457 168.032 766.115 167.624 765.431 167.336C764.759 167.048 763.829 166.904 762.641 166.904ZM755.153 156.95H764.765V158.138H755.153V156.95ZM759.959 158.966C760.739 158.966 761.417 159.086 761.993 159.326C762.581 159.566 763.037 159.902 763.361 160.334C763.685 160.754 763.847 161.258 763.847 161.846C763.847 162.422 763.685 162.926 763.361 163.358C763.037 163.79 762.581 164.126 761.993 164.366C761.417 164.594 760.739 164.708 759.959 164.708C759.179 164.708 758.495 164.594 757.907 164.366C757.331 164.126 756.875 163.79 756.539 163.358C756.215 162.926 756.053 162.422 756.053 161.846C756.053 161.258 756.215 160.754 756.539 160.334C756.875 159.902 757.331 159.566 757.907 159.326C758.495 159.086 759.179 158.966 759.959 158.966ZM759.959 160.1C759.215 160.1 758.615 160.262 758.159 160.586C757.715 160.898 757.493 161.318 757.493 161.846C757.493 162.374 757.715 162.794 758.159 163.106C758.615 163.418 759.215 163.574 759.959 163.574C760.691 163.574 761.285 163.418 761.741 163.106C762.197 162.794 762.425 162.374 762.425 161.846C762.425 161.318 762.197 160.898 761.741 160.586C761.285 160.262 760.691 160.1 759.959 160.1ZM759.221 154.988H760.715V157.616H759.221V154.988ZM779.199 157.67H784.095V158.894H779.199V157.67ZM779.199 161.558H784.095V162.782H779.199V161.558ZM783.573 155.132H785.067V167.156H783.573V155.132ZM774.681 169.82H785.517V171.044H774.681V169.82ZM774.681 165.914H776.157V170.342H774.681V165.914ZM776.121 156.158C776.913 156.158 777.621 156.332 778.245 156.68C778.881 157.028 779.379 157.508 779.739 158.12C780.111 158.732 780.297 159.434 780.297 160.226C780.297 161.03 780.111 161.738 779.739 162.35C779.379 162.962 778.881 163.442 778.245 163.79C777.621 164.138 776.913 164.312 776.121 164.312C775.317 164.312 774.597 164.138 773.961 163.79C773.337 163.442 772.839 162.962 772.467 162.35C772.107 161.738 771.927 161.03 771.927 160.226C771.927 159.434 772.107 158.732 772.467 158.12C772.839 157.508 773.337 157.028 773.961 156.68C774.597 156.332 775.317 156.158 776.121 156.158ZM776.121 157.49C775.593 157.49 775.119 157.61 774.699 157.85C774.279 158.078 773.949 158.402 773.709 158.822C773.469 159.23 773.349 159.704 773.349 160.244C773.349 160.772 773.469 161.246 773.709 161.666C773.949 162.086 774.279 162.416 774.699 162.656C775.119 162.884 775.593 162.998 776.121 162.998C776.637 162.998 777.105 162.884 777.525 162.656C777.945 162.416 778.275 162.086 778.515 161.666C778.755 161.246 778.875 160.772 778.875 160.244C778.875 159.704 778.755 159.23 778.515 158.822C778.275 158.402 777.945 158.078 777.525 157.85C777.105 157.61 776.637 157.49 776.121 157.49Z" fill="#B8C0E0"/>
<path d="M435.226 188.75H440.158V189.974H435.226V188.75ZM435.226 193.898H440.158V195.122H435.226V193.898ZM432.238 186.374C433.03 186.374 433.732 186.608 434.344 187.076C434.956 187.532 435.43 188.186 435.766 189.038C436.114 189.89 436.288 190.892 436.288 192.044C436.288 193.196 436.114 194.198 435.766 195.05C435.43 195.902 434.956 196.562 434.344 197.03C433.732 197.498 433.03 197.732 432.238 197.732C431.458 197.732 430.756 197.498 430.132 197.03C429.52 196.562 429.04 195.902 428.692 195.05C428.356 194.198 428.188 193.196 428.188 192.044C428.188 190.892 428.356 189.89 428.692 189.038C429.04 188.186 429.52 187.532 430.132 187.076C430.756 186.608 431.458 186.374 432.238 186.374ZM432.238 187.706C431.722 187.706 431.266 187.886 430.87 188.246C430.474 188.594 430.162 189.098 429.934 189.758C429.718 190.406 429.61 191.168 429.61 192.044C429.61 192.92 429.718 193.688 429.934 194.348C430.162 194.996 430.474 195.5 430.87 195.86C431.266 196.22 431.722 196.4 432.238 196.4C432.766 196.4 433.228 196.22 433.624 195.86C434.02 195.5 434.326 194.996 434.542 194.348C434.77 193.688 434.884 192.92 434.884 192.044C434.884 191.168 434.77 190.406 434.542 189.758C434.326 189.098 434.02 188.594 433.624 188.246C433.228 187.886 432.766 187.706 432.238 187.706ZM439.816 185.114H441.292V201.422H439.816V185.114ZM456.357 185.114H457.833V201.422H456.357V185.114ZM453.261 191.36H456.717V192.602H453.261V191.36ZM445.071 196.256H446.313C447.273 196.256 448.155 196.244 448.959 196.22C449.763 196.196 450.543 196.148 451.299 196.076C452.055 196.004 452.829 195.89 453.621 195.734L453.747 196.976C452.931 197.12 452.139 197.234 451.371 197.318C450.615 197.39 449.823 197.444 448.995 197.48C448.179 197.504 447.285 197.516 446.313 197.516H445.071V196.256ZM445.017 186.626H452.289V192.332H446.547V196.652H445.071V191.108H450.831V187.85H445.017V186.626ZM460.999 193.718H475.759V194.924H460.999V193.718ZM467.731 194.33H469.225V198.074H467.731V194.33ZM462.871 199.82H474.121V201.044H462.871V199.82ZM462.871 196.616H464.347V200.27H462.871V196.616ZM462.961 185.636H464.437V187.706H472.321V185.636H473.797V192.152H462.961V185.636ZM464.437 188.858V190.946H472.321V188.858H464.437ZM482.85 186.302C483.702 186.302 484.452 186.464 485.1 186.788C485.76 187.1 486.276 187.544 486.648 188.12C487.02 188.696 487.206 189.368 487.206 190.136C487.206 190.892 487.02 191.564 486.648 192.152C486.276 192.728 485.76 193.178 485.1 193.502C484.452 193.814 483.702 193.97 482.85 193.97C482.01 193.97 481.26 193.814 480.6 193.502C479.94 193.178 479.418 192.728 479.034 192.152C478.662 191.564 478.476 190.892 478.476 190.136C478.476 189.368 478.662 188.696 479.034 188.12C479.418 187.544 479.94 187.1 480.6 186.788C481.26 186.464 482.01 186.302 482.85 186.302ZM482.85 187.598C482.298 187.598 481.8 187.706 481.356 187.922C480.924 188.126 480.582 188.42 480.33 188.804C480.078 189.188 479.952 189.632 479.952 190.136C479.952 190.64 480.078 191.084 480.33 191.468C480.582 191.852 480.924 192.152 481.356 192.368C481.8 192.572 482.298 192.674 482.85 192.674C483.414 192.674 483.912 192.572 484.344 192.368C484.776 192.152 485.118 191.852 485.37 191.468C485.622 191.084 485.748 190.64 485.748 190.136C485.748 189.632 485.622 189.188 485.37 188.804C485.118 188.42 484.776 188.126 484.344 187.922C483.912 187.706 483.414 187.598 482.85 187.598ZM489.348 185.114H490.842V201.422H489.348V185.114ZM477.864 197.858L477.666 196.598C478.662 196.598 479.754 196.592 480.942 196.58C482.13 196.556 483.354 196.508 484.614 196.436C485.886 196.352 487.11 196.22 488.286 196.04L488.412 197.138C487.188 197.366 485.946 197.534 484.686 197.642C483.438 197.738 482.232 197.798 481.068 197.822C479.904 197.846 478.836 197.858 477.864 197.858ZM509.986 185.114H511.48V201.422H509.986V185.114ZM502.894 186.374C503.698 186.374 504.406 186.608 505.018 187.076C505.642 187.532 506.128 188.186 506.476 189.038C506.836 189.89 507.016 190.892 507.016 192.044C507.016 193.196 506.836 194.198 506.476 195.05C506.128 195.902 505.642 196.562 505.018 197.03C504.406 197.498 503.698 197.732 502.894 197.732C502.09 197.732 501.376 197.498 500.752 197.03C500.128 196.562 499.636 195.902 499.276 195.05C498.928 194.198 498.754 193.196 498.754 192.044C498.754 190.892 498.928 189.89 499.276 189.038C499.636 188.186 500.128 187.532 500.752 187.076C501.376 186.608 502.09 186.374 502.894 186.374ZM502.894 187.706C502.354 187.706 501.88 187.886 501.472 188.246C501.076 188.594 500.764 189.098 500.536 189.758C500.308 190.406 500.194 191.168 500.194 192.044C500.194 192.92 500.308 193.688 500.536 194.348C500.764 194.996 501.076 195.5 501.472 195.86C501.88 196.22 502.354 196.4 502.894 196.4C503.422 196.4 503.884 196.22 504.28 195.86C504.688 195.5 505.006 194.996 505.234 194.348C505.462 193.688 505.576 192.92 505.576 192.044C505.576 191.168 505.462 190.406 505.234 189.758C505.006 189.098 504.688 188.594 504.28 188.246C503.884 187.886 503.422 187.706 502.894 187.706ZM519.038 186.374C519.842 186.374 520.55 186.608 521.162 187.076C521.774 187.532 522.254 188.186 522.602 189.038C522.95 189.89 523.124 190.892 523.124 192.044C523.124 193.196 522.95 194.198 522.602 195.05C522.254 195.902 521.774 196.562 521.162 197.03C520.55 197.498 519.842 197.732 519.038 197.732C518.246 197.732 517.538 197.498 516.914 197.03C516.302 196.562 515.822 195.902 515.474 195.05C515.126 194.198 514.952 193.196 514.952 192.044C514.952 190.892 515.126 189.89 515.474 189.038C515.822 188.186 516.302 187.532 516.914 187.076C517.538 186.608 518.246 186.374 519.038 186.374ZM519.038 187.706C518.522 187.706 518.06 187.886 517.652 188.246C517.256 188.594 516.944 189.098 516.716 189.758C516.488 190.406 516.374 191.168 516.374 192.044C516.374 192.92 516.488 193.688 516.716 194.348C516.944 194.996 517.256 195.5 517.652 195.86C518.06 196.22 518.528 196.4 519.056 196.4C519.572 196.4 520.028 196.22 520.424 195.86C520.832 195.5 521.144 194.996 521.36 194.348C521.588 193.688 521.702 192.92 521.702 192.044C521.702 191.168 521.588 190.406 521.36 189.758C521.144 189.098 520.832 188.594 520.424 188.246C520.028 187.886 519.566 187.706 519.038 187.706ZM526.814 189.2H529.82V190.46H526.814V189.2ZM526.814 194.06H529.82V195.302H526.814V194.06ZM525.734 185.114H527.228V201.404H525.734V185.114ZM543.139 185.114H544.633V201.404H543.139V185.114ZM538.369 186.878H539.845C539.845 188.054 539.701 189.188 539.413 190.28C539.137 191.372 538.699 192.41 538.099 193.394C537.499 194.366 536.719 195.272 535.759 196.112C534.799 196.952 533.635 197.702 532.267 198.362L531.475 197.156C533.047 196.4 534.343 195.518 535.363 194.51C536.383 193.502 537.139 192.38 537.631 191.144C538.123 189.896 538.369 188.552 538.369 187.112V186.878ZM532.231 186.878H538.999V188.084H532.231V186.878ZM547.818 192.674H562.578V193.826H547.818V192.674ZM549.582 195.122H560.742V198.596H551.094V200.504H549.618V197.57H559.266V196.202H549.582V195.122ZM549.618 200.108H561.264V201.188H549.618V200.108ZM549.69 185.6H560.688V188.984H551.202V190.748H549.726V187.976H559.212V186.662H549.69V185.6ZM549.726 190.388H560.976V191.468H549.726V190.388ZM568.42 191.918H583.144V193.124H568.42V191.918ZM570.382 189.398H581.38V190.604H570.382V189.398ZM570.382 185.654H581.218V186.86H571.858V190.352H570.382V185.654ZM570.202 194.546H581.236V198.362H571.696V200.414H570.238V197.246H579.778V195.716H570.202V194.546ZM570.238 200.018H581.722V201.206H570.238V200.018ZM596.876 185.114H598.352V201.422H596.876V185.114ZM593.672 188.822H597.272V190.064H593.672V188.822ZM585.59 196.382H586.796C587.648 196.382 588.452 196.37 589.208 196.346C589.964 196.31 590.72 196.262 591.476 196.202C592.244 196.13 593.042 196.028 593.87 195.896L593.996 197.138C593.144 197.27 592.328 197.372 591.548 197.444C590.78 197.516 590.012 197.564 589.244 197.588C588.476 197.612 587.66 197.624 586.796 197.624H585.59V196.382ZM585.536 186.59H592.646V192.422H587.066V196.67H585.59V191.198H591.188V187.814H585.536V186.59ZM593.564 193.268H597.164V194.51H593.564V193.268ZM608.053 186.734H609.349V187.418C609.349 187.994 609.235 188.54 609.007 189.056C608.779 189.572 608.461 190.052 608.053 190.496C607.645 190.928 607.171 191.312 606.631 191.648C606.091 191.984 605.509 192.272 604.885 192.512C604.273 192.74 603.637 192.908 602.977 193.016L602.401 191.828C602.977 191.756 603.535 191.624 604.075 191.432C604.627 191.228 605.143 190.988 605.623 190.712C606.103 190.436 606.523 190.124 606.883 189.776C607.255 189.428 607.543 189.056 607.747 188.66C607.951 188.252 608.053 187.838 608.053 187.418V186.734ZM608.431 186.734H609.727V187.418C609.727 187.838 609.829 188.252 610.033 188.66C610.237 189.056 610.519 189.428 610.879 189.776C611.251 190.124 611.677 190.436 612.157 190.712C612.637 190.988 613.147 191.228 613.687 191.432C614.239 191.624 614.803 191.756 615.379 191.828L614.821 193.016C614.161 192.908 613.519 192.74 612.895 192.512C612.271 192.272 611.689 191.984 611.149 191.648C610.609 191.312 610.135 190.928 609.727 190.496C609.319 190.052 609.001 189.572 608.773 189.056C608.545 188.54 608.431 187.994 608.431 187.418V186.734ZM608.125 195.194H609.601V201.386H608.125V195.194ZM601.537 194.384H616.243V195.608H601.537V194.384ZM602.923 186.122H614.839V187.328H602.923V186.122ZM624.503 190.946H627.635V192.188H624.503V190.946ZM621.479 186.644H622.649V189.758C622.649 190.598 622.559 191.426 622.379 192.242C622.211 193.058 621.959 193.826 621.623 194.546C621.299 195.266 620.903 195.914 620.435 196.49C619.967 197.066 619.439 197.534 618.851 197.894L617.915 196.778C618.467 196.442 618.965 196.022 619.409 195.518C619.853 195.014 620.225 194.45 620.525 193.826C620.837 193.19 621.071 192.53 621.227 191.846C621.395 191.15 621.479 190.454 621.479 189.758V186.644ZM621.767 186.644H622.919V189.704C622.919 190.352 622.991 191.006 623.135 191.666C623.291 192.314 623.507 192.938 623.783 193.538C624.071 194.126 624.425 194.666 624.845 195.158C625.265 195.65 625.739 196.058 626.267 196.382L625.421 197.534C624.833 197.174 624.311 196.718 623.855 196.166C623.399 195.602 623.015 194.972 622.703 194.276C622.391 193.568 622.157 192.824 622.001 192.044C621.845 191.264 621.767 190.484 621.767 189.704V186.644ZM630.497 185.114H631.937V201.404H630.497V185.114ZM627.185 185.456H628.589V200.576H627.185V185.456ZM638.272 193.502H639.748V198.362H638.272V193.502ZM644.284 193.502H645.778V198.362H644.284V193.502ZM634.654 198.074H649.414V199.316H634.654V198.074ZM641.998 186.14C643.15 186.14 644.17 186.314 645.058 186.662C645.946 187.01 646.642 187.496 647.146 188.12C647.662 188.744 647.92 189.482 647.92 190.334C647.92 191.174 647.662 191.912 647.146 192.548C646.642 193.172 645.946 193.658 645.058 194.006C644.17 194.342 643.15 194.51 641.998 194.51C640.858 194.51 639.838 194.342 638.938 194.006C638.05 193.658 637.354 193.172 636.85 192.548C636.346 191.912 636.094 191.174 636.094 190.334C636.094 189.482 636.346 188.744 636.85 188.12C637.354 187.496 638.05 187.01 638.938 186.662C639.838 186.314 640.858 186.14 641.998 186.14ZM641.998 187.328C641.134 187.328 640.366 187.454 639.694 187.706C639.022 187.958 638.494 188.312 638.11 188.768C637.726 189.212 637.534 189.734 637.534 190.334C637.534 190.934 637.726 191.462 638.11 191.918C638.494 192.362 639.022 192.71 639.694 192.962C640.366 193.214 641.134 193.34 641.998 193.34C642.874 193.34 643.648 193.214 644.32 192.962C644.992 192.71 645.52 192.362 645.904 191.918C646.288 191.462 646.48 190.934 646.48 190.334C646.48 189.734 646.288 189.212 645.904 188.768C645.52 188.312 644.992 187.958 644.32 187.706C643.648 187.454 642.874 187.328 641.998 187.328Z" fill="#B8C0E0"/>
<path d="M1169.43 199.427C1181.14 187.711 1171.64 159.219 1148.21 135.787C1124.78 112.356 1096.29 102.858 1084.57 114.574C1072.86 126.29 1082.35 154.782 1105.79 178.214C1129.22 201.645 1157.71 211.142 1169.43 199.427Z" fill="#FF6B6B"/>
<path d="M1141.14 171.142C1152.86 159.427 1149.69 137.266 1134.07 121.645C1118.45 106.024 1096.29 102.858 1084.57 114.574C1072.86 126.29 1076.02 148.45 1091.64 164.071C1107.26 179.692 1129.43 182.858 1141.14 171.142Z" fill="#FFD93D"/>
<path d="M1119.93 192.355L1127 213.568L1134.07 192.355H1119.93Z" fill="#4ECDC4"/>
<path d="M1162.35 149.929L1183.57 157L1162.35 164.071V149.929Z" fill="#4ECDC4"/>
<path d="M1123.46 153.464C1129.32 147.606 1129.32 138.109 1123.46 132.251C1117.61 126.393 1108.11 126.393 1102.25 132.251C1096.39 138.109 1096.39 147.606 1102.25 153.464C1108.11 159.322 1117.61 159.322 1123.46 153.464Z" fill="#ECF0F1"/>
<path d="M1119.93 149.928C1123.83 146.023 1123.83 139.692 1119.93 135.786C1116.02 131.881 1109.69 131.881 1105.79 135.786C1101.88 139.692 1101.88 146.023 1105.79 149.928C1109.69 153.834 1116.02 153.834 1119.93 149.928Z" fill="#3498DB"/>
<g opacity="0.8">
<path d="M1007 100C1008.66 100 1010 98.6569 1010 97C1010 95.3431 1008.66 94 1007 94C1005.34 94 1004 95.3431 1004 97C1004 98.6569 1005.34 100 1007 100Z" fill="white"/>
<path d="M1247 81C1249.21 81 1251 79.2091 1251 77C1251 74.7909 1249.21 73 1247 73C1244.79 73 1243 74.7909 1243 77C1243 79.2091 1244.79 81 1247 81Z" fill="white"/>
<path d="M1277 200C1278.66 200 1280 198.657 1280 197C1280 195.343 1278.66 194 1277 194C1275.34 194 1274 195.343 1274 197C1274 198.657 1275.34 200 1277 200Z" fill="white"/>
<path d="M987 189C988.105 189 989 188.105 989 187C989 185.895 988.105 185 987 185C985.895 185 985 185.895 985 187C985 188.105 985.895 189 987 189Z" fill="white"/>
<path d="M1027 59C1028.1 59 1029 58.1046 1029 57C1029 55.8954 1028.1 55 1027 55C1025.9 55 1025 55.8954 1025 57C1025 58.1046 1025.9 59 1027 59Z" fill="white"/>
</g>
<g opacity="0.6">
<path d="M1047 217C1058.05 217 1067 208.046 1067 197C1067 185.954 1058.05 177 1047 177C1035.95 177 1027 185.954 1027 197C1027 208.046 1035.95 217 1047 217Z" fill="white"/>
<path d="M1067 222C1080.81 222 1092 210.807 1092 197C1092 183.193 1080.81 172 1067 172C1053.19 172 1042 183.193 1042 197C1042 210.807 1053.19 222 1067 222Z" fill="white"/>
<path d="M1087 217C1098.05 217 1107 208.046 1107 197C1107 185.954 1098.05 177 1087 177C1075.95 177 1067 185.954 1067 197C1067 208.046 1075.95 217 1087 217Z" fill="white"/>
<path d="M1057 202C1065.28 202 1072 195.284 1072 187C1072 178.716 1065.28 172 1057 172C1048.72 172 1042 178.716 1042 187C1042 195.284 1048.72 202 1057 202Z" fill="white"/>
<path d="M1077 205C1086.94 205 1095 196.941 1095 187C1095 177.059 1086.94 169 1077 169C1067.06 169 1059 177.059 1059 187C1059 196.941 1067.06 205 1077 205Z" fill="white"/>
</g>
</g>
<defs>
<clipPath id="clip0_3298_16966">
<rect width="1600" height="300" fill="white"/>
</clipPath>
</defs>
</svg>
