<svg width="24" height="23" viewBox="0 0 24 23" fill="none" xmlns="http://www.w3.org/2000/svg">
<path d="M15.0301 10.3212L20.6901 6.68912C21.2601 6.32495 21.4101 5.57745 21.0301 5.04078L19.2101 2.44368C18.8301 1.89743 18.0501 1.75368 17.4901 2.11785L11.8301 5.74994L15.0301 10.3212Z" stroke="#7B7B7B" stroke-width="1.5" stroke-linecap="round" stroke-linejoin="round"/>
<path d="M12.1739 6.20921L7.39624 9.27576L9.95614 12.9386L14.7338 9.8721L12.1739 6.20921Z" stroke="#7B7B7B" stroke-width="1.5" stroke-linecap="round" stroke-linejoin="round"/>
<path d="M5.83004 15.2374L9.78004 12.7074L7.54004 9.50659L3.59004 12.0366C3.13004 12.3337 3.01004 12.9278 3.32004 13.3687L4.45004 14.9787C4.75004 15.4099 5.37004 15.5249 5.83004 15.2374Z" stroke="#7B7B7B" stroke-width="1.5" stroke-linecap="round" stroke-linejoin="round"/>
<path d="M12.0501 11.6917L7.56006 21.0833" stroke="#7B7B7B" stroke-width="1.5" stroke-linecap="round" stroke-linejoin="round"/>
<path d="M12 11.6917L16.44 21.0833" stroke="#7B7B7B" stroke-width="1.5" stroke-linecap="round" stroke-linejoin="round"/>
</svg>
