<svg width="58" height="58" viewBox="0 0 58 58" fill="none" xmlns="http://www.w3.org/2000/svg">
<circle cx="29" cy="29" r="29" fill="#712EFF" fill-opacity="0.1"/>
<path d="M32.03 28.3212L37.69 24.6892C38.26 24.325 38.41 23.5775 38.03 23.0408L36.21 20.4437C35.83 19.8975 35.05 19.7537 34.49 20.1179L28.83 23.75L32.03 28.3212Z" stroke="#292D32" stroke-width="1.5" stroke-linecap="round" stroke-linejoin="round"/>
<path d="M29.1739 24.2093L24.3962 27.2758L26.9561 30.9387L31.7338 27.8722L29.1739 24.2093Z" stroke="#292D32" stroke-width="1.5" stroke-linecap="round" stroke-linejoin="round"/>
<path d="M22.83 33.2375L26.78 30.7075L24.54 27.5067L20.59 30.0366C20.13 30.3337 20.01 30.9279 20.32 31.3687L21.45 32.9787C21.75 33.41 22.37 33.525 22.83 33.2375Z" stroke="#292D32" stroke-width="1.5" stroke-linecap="round" stroke-linejoin="round"/>
<path d="M29.05 29.6917L24.56 39.0833" stroke="#292D32" stroke-width="1.5" stroke-linecap="round" stroke-linejoin="round"/>
<path d="M29 29.6917L33.44 39.0833" stroke="#292D32" stroke-width="1.5" stroke-linecap="round" stroke-linejoin="round"/>
</svg>
