<svg width="58" height="58" viewBox="0 0 58 58" fill="none" xmlns="http://www.w3.org/2000/svg">
<circle cx="29" cy="29" r="29" fill="#712EFF" fill-opacity="0.1"/>
<path d="M35 24.16C34.94 24.15 34.87 24.15 34.81 24.16C33.43 24.11 32.33 22.98 32.33 21.58C32.33 20.15 33.48 19 34.91 19C36.34 19 37.49 20.16 37.49 21.58C37.48 22.98 36.38 24.11 35 24.16Z" stroke="#292D32" stroke-width="1.5" stroke-linecap="round" stroke-linejoin="round"/>
<path d="M33.97 31.44C35.34 31.67 36.85 31.43 37.91 30.72C39.32 29.78 39.32 28.24 37.91 27.3C36.84 26.59 35.31 26.35 33.94 26.59" stroke="#292D32" stroke-width="1.5" stroke-linecap="round" stroke-linejoin="round"/>
<path d="M22.97 24.16C23.03 24.15 23.1 24.15 23.16 24.16C24.54 24.11 25.64 22.98 25.64 21.58C25.64 20.15 24.49 19 23.06 19C21.63 19 20.48 20.16 20.48 21.58C20.49 22.98 21.59 24.11 22.97 24.16Z" stroke="#292D32" stroke-width="1.5" stroke-linecap="round" stroke-linejoin="round"/>
<path d="M24 31.44C22.63 31.67 21.12 31.43 20.06 30.72C18.65 29.78 18.65 28.24 20.06 27.3C21.13 26.59 22.66 26.35 24.03 26.59" stroke="#292D32" stroke-width="1.5" stroke-linecap="round" stroke-linejoin="round"/>
<path d="M29 31.63C28.94 31.62 28.87 31.62 28.81 31.63C27.43 31.58 26.33 30.45 26.33 29.05C26.33 27.62 27.48 26.47 28.91 26.47C30.34 26.47 31.49 27.63 31.49 29.05C31.48 30.45 30.38 31.59 29 31.63Z" stroke="#292D32" stroke-width="1.5" stroke-linecap="round" stroke-linejoin="round"/>
<path d="M26.09 34.78C24.68 35.72 24.68 37.26 26.09 38.2C27.69 39.27 30.31 39.27 31.91 38.2C33.32 37.26 33.32 35.72 31.91 34.78C30.32 33.72 27.69 33.72 26.09 34.78Z" stroke="#292D32" stroke-width="1.5" stroke-linecap="round" stroke-linejoin="round"/>
</svg>
