<svg width="446" height="388" viewBox="0 0 446 388" fill="none" xmlns="http://www.w3.org/2000/svg">
<g clip-path="url(#clip0_241_24378)">
<path d="M384.191 98.1576H329.398C324.792 98.1576 321.045 94.4133 321.045 89.8109V35.0563C321.045 30.4538 324.792 26.7095 329.398 26.7095H384.191C388.796 26.7095 392.543 30.4538 392.543 35.0563V89.8109C392.543 94.4133 388.796 98.1576 384.191 98.1576ZM329.398 28.045C325.523 28.045 322.381 31.1841 322.381 35.0563V89.8109C322.381 93.6831 325.523 96.8221 329.398 96.8221H367.779C380.718 96.8221 391.207 86.3404 391.207 73.4105V35.0563C391.207 31.1841 388.066 28.045 384.191 28.045H329.398Z" fill="#F2F2F2"/>
<path d="M384.191 98.1576H329.398C324.792 98.1576 321.045 94.4133 321.045 89.8109V35.0563C321.045 30.4538 324.792 26.7095 329.398 26.7095H384.191C388.796 26.7095 392.543 30.4538 392.543 35.0563V89.8109C392.543 94.4133 388.796 98.1576 384.191 98.1576Z" fill="#9747FF"/>
<path d="M356.46 14.6903C360.519 14.6903 363.81 11.4017 363.81 7.34513C363.81 3.28853 360.519 0 356.46 0C352.401 0 349.11 3.28853 349.11 7.34513C349.11 11.4017 352.401 14.6903 356.46 14.6903Z" fill="#F2F2F2"/>
<path d="M312.377 206.14H257.584C252.978 206.14 249.231 202.396 249.231 197.793V143.039C249.231 138.436 252.978 134.692 257.584 134.692H312.377C316.983 134.692 320.729 138.436 320.729 143.039V197.793C320.729 202.396 316.983 206.14 312.377 206.14ZM257.584 136.028C253.709 136.028 250.568 139.167 250.568 143.039V197.793C250.568 201.666 253.709 204.805 257.584 204.805H257.584C291.72 204.805 319.393 177.151 319.393 143.039V143.039C319.393 139.167 316.252 136.028 312.377 136.028H257.584Z" fill="#F2F2F2"/>
<path d="M284.646 122.673C288.706 122.673 291.996 119.384 291.996 115.328C291.996 111.271 288.706 107.983 284.646 107.983C280.587 107.983 277.296 111.271 277.296 115.328C277.296 119.384 280.587 122.673 284.646 122.673Z" fill="#F2F2F2"/>
<path d="M286.887 166.728C284.423 167.382 281.557 165.714 281.037 163.179C280.496 160.545 282.83 157.682 285.514 157.663C288.238 157.643 290.594 160.386 290.151 163.064C289.87 164.763 288.82 166.244 287.867 167.634C286.805 169.182 285.695 170.697 284.55 172.186C281.961 175.553 279.199 178.782 276.443 182.013C275.857 182.701 276.268 183.642 277.152 183.723L292.831 185.156C294.115 185.274 294.107 183.27 292.831 183.153L277.152 181.72L277.861 183.429C280.897 179.87 283.929 176.305 286.756 172.575C288.108 170.791 289.474 168.98 290.637 167.065C291.66 165.379 292.436 163.456 292.141 161.453C291.631 158 288.196 155.227 284.692 155.73C281.211 156.23 278.527 159.788 279.029 163.267C279.579 167.085 283.754 169.633 287.42 168.66C288.665 168.329 288.137 166.396 286.887 166.728V166.728Z" fill="#F2F2F2"/>
<path d="M437.647 273.105H382.854C378.249 273.105 374.502 269.361 374.502 264.759V210.004C374.502 205.401 378.249 201.657 382.854 201.657H437.647C442.253 201.657 446 205.401 446 210.004V264.759C446 269.361 442.253 273.105 437.647 273.105ZM382.854 202.993C378.979 202.993 375.838 206.132 375.838 210.004V264.759C375.838 268.631 378.979 271.77 382.854 271.77H382.854C416.991 271.77 444.664 244.116 444.664 210.004V210.004C444.664 206.132 441.522 202.993 437.647 202.993H382.854Z" fill="#F2F2F2"/>
<path d="M409.917 189.638C413.976 189.638 417.267 186.349 417.267 182.293C417.267 178.236 413.976 174.948 409.917 174.948C405.857 174.948 402.566 178.236 402.566 182.293C402.566 186.349 405.857 189.638 409.917 189.638Z" fill="#F2F2F2"/>
<path d="M404.164 225.671C407.594 223.928 412.156 225.203 413.409 229.048C413.946 230.696 413.769 232.522 412.686 233.916C411.577 235.345 409.849 236.115 408.052 235.935V237.939C410.295 238.083 412.544 238.892 414.121 240.54C415.555 242.038 416.278 244.313 415.698 246.339C415.135 248.304 413.252 249.764 411.212 249.87C409.18 249.976 407.166 248.674 406.403 246.788C405.926 245.608 403.986 246.124 404.47 247.321C406.177 251.543 411.382 253.27 415.122 250.463C418.937 247.599 418.55 241.963 415.259 238.844C413.31 236.996 410.696 236.106 408.052 235.935C406.751 235.851 406.788 237.812 408.052 237.939C410.439 238.177 412.794 237.02 414.247 235.147C415.707 233.265 416.074 230.773 415.342 228.516C413.681 223.395 407.758 221.6 403.152 223.941C402.002 224.526 403.015 226.254 404.164 225.671Z" fill="#F2F2F2"/>
<path d="M105.548 277.779H50.7545C46.1488 277.779 42.4019 274.035 42.4019 269.433V214.678C42.4019 210.076 46.1488 206.331 50.7545 206.331H105.548C110.153 206.331 113.9 210.076 113.9 214.678V269.433C113.9 274.035 110.153 277.779 105.548 277.779Z" fill="#3F3D56"/>
<path d="M84.8679 215.382C88.2115 213.636 89.5058 209.512 87.7587 206.17C87.5828 205.834 87.377 205.524 87.1563 205.231L96.2381 144.232L82.8122 144.318L77.2097 204.199C74.8884 206.227 74.1592 209.642 75.6501 212.493C77.3972 215.834 81.5242 217.128 84.8679 215.382H84.8679Z" fill="#FFB6B6"/>
<path d="M87.0664 101.656C87.0664 101.656 83.0537 100.565 82.4704 109.35C82.0035 116.383 74.9902 159.236 76.9511 168.824C74.4455 169.978 72.9348 172.71 73.4548 175.546L93.7281 173.726C96.5091 170.049 96.5235 165.931 94.9299 165.071L96.5579 152.444L105.968 111.311L89.9811 102.393L87.0664 101.656Z" fill="#E6E6E6"/>
<path d="M100.363 371.729L108.067 371.728L111.732 342.033L100.362 342.034L100.363 371.729Z" fill="#FFB6B6"/>
<path d="M110.631 372.422V367.203L108.605 367.326L100.361 367.814L98.4527 367.931L96.994 385.411L96.9158 386.348H102.386L102.562 385.418L103.356 381.188L105.408 385.418L105.857 386.348H120.36C121.226 386.348 122.014 386.01 122.594 385.45C123.226 384.858 123.616 384.019 123.616 383.088C124.228 380.231 112.168 374.055 110.631 372.422H110.631Z" fill="#2F2E41"/>
<path d="M66.5361 362.886L75.1441 364.585L83.1626 337.208L74.522 334.284L66.5361 362.886Z" fill="#FFB6B6"/>
<path d="M76.2396 366.312L77.6435 361.284L75.6594 360.86L67.5869 359.115L65.7175 358.716L59.6109 375.16L59.2836 376.042L64.5526 377.511L64.9723 376.662L66.8753 372.801L67.7134 377.426L67.8959 378.444L81.8652 382.339C82.6994 382.572 83.5494 382.457 84.2582 382.074C85.026 381.673 85.6281 380.97 85.8784 380.073C87.2365 377.486 77.2806 368.298 76.2396 366.312Z" fill="#2F2E41"/>
<path d="M138.52 204.375L138.718 202.293L130.149 178.816L93.6313 185.853C93.6313 185.853 74.8102 209.022 78.9955 224.358C80.1306 228.517 82.5566 277.538 81.8262 279.115C65.0047 315.421 69.7041 341.031 69.7041 341.031C69.7041 341.031 75.0206 345.664 84.1275 347.961C86.5036 348.56 104.572 267.111 104.572 267.111C104.572 267.111 103.776 272.194 102.667 279.922C99.2375 303.796 93.8511 351.86 98.6368 354.348C104.972 357.642 111.032 357.031 111.032 357.031C111.032 357.031 130.781 297.73 126.596 283.789" fill="#2F2E41"/>
<path d="M120.582 103.5L109.303 91.3782L100.73 90.88L89.1765 102.832L84.8927 114.905V114.905C80.0974 126.546 79.0005 139.378 81.751 151.662L88.3312 181.051C88.3312 181.051 89.3447 184.514 86.6889 184.93C84.033 185.346 84.3515 190.451 84.3515 190.451C84.3515 190.451 84.8923 194.875 82.3134 195.265C79.7345 195.654 72.8578 195.654 78.8752 203.386C84.8927 211.117 132.487 181.876 132.487 181.876L132.718 145.63C132.718 145.63 146.124 127.636 131.686 117.331L120.582 103.5Z" fill="#E6E6E6"/>
<path d="M148.981 231.038H94.1881C89.5824 231.038 85.8354 227.293 85.8354 222.691V167.936C85.8354 163.334 89.5824 159.59 94.1881 159.59H148.981C153.587 159.59 157.334 163.334 157.334 167.936V222.691C157.334 227.293 153.587 231.038 148.981 231.038Z" fill="#9747FF"/>
<path d="M140.659 204.11C143.184 201.308 142.957 196.992 140.154 194.469C139.872 194.215 139.571 193.997 139.261 193.798L126.483 133.464L113.931 138.224L129.579 196.298C128.111 199.007 128.62 202.463 131.012 204.615C133.816 207.137 138.135 206.911 140.659 204.11H140.659Z" fill="#FFB6B6"/>
<path d="M115.316 103.183C115.316 103.183 119.104 101.469 121.076 110.05C122.654 116.92 136.387 158.116 135.974 167.894C138.631 168.636 140.556 171.094 140.494 173.977L120.188 175.396C116.859 172.207 116.19 168.144 117.627 167.041L114.013 154.833L98.1876 115.715L112.555 104.373L115.316 103.183V103.183Z" fill="#E6E6E6"/>
<path d="M135.807 375.921C137.188 376.007 137.95 374.293 136.906 373.295L136.802 372.882C136.816 372.849 136.83 372.816 136.843 372.783C138.239 369.456 142.971 369.479 144.355 372.811C145.584 375.767 147.148 378.729 147.533 381.856C147.706 383.236 147.628 384.642 147.321 385.996C150.2 379.712 151.715 372.851 151.715 365.95C151.715 364.216 151.62 362.482 151.426 360.753C151.266 359.338 151.046 357.932 150.761 356.539C149.22 349.009 145.884 341.837 141.072 335.846C138.759 334.583 136.83 332.607 135.664 330.24C135.246 329.386 134.918 328.467 134.762 327.531C135.025 327.566 135.755 323.559 135.556 323.313C135.923 322.757 136.58 322.48 136.981 321.938C138.973 319.238 141.719 319.709 143.152 323.378C146.214 324.922 146.244 327.483 144.365 329.946C143.17 331.513 143.006 333.634 141.957 335.312C142.065 335.45 142.177 335.583 142.285 335.721C144.263 338.257 145.975 340.983 147.417 343.847C147.01 340.664 147.612 336.83 148.638 334.358C149.806 331.542 151.995 329.171 153.924 326.736C156.24 323.812 160.989 325.088 161.397 328.795C161.401 328.831 161.405 328.867 161.408 328.903C161.122 329.064 160.841 329.236 160.567 329.417C159.004 330.45 159.544 332.872 161.397 333.157L161.439 333.164C161.335 334.195 161.158 335.217 160.899 336.222C163.373 345.781 158.032 349.262 150.407 349.419C150.239 349.505 150.075 349.591 149.907 349.673C150.679 351.847 151.296 354.077 151.754 356.337C152.164 358.333 152.449 360.352 152.608 362.379C152.807 364.936 152.79 367.507 152.574 370.06L152.587 369.97C153.135 367.158 154.663 364.531 156.881 362.711C160.186 359.998 164.855 358.999 168.42 356.819C170.136 355.769 172.335 357.126 172.036 359.114L172.021 359.209C171.49 359.425 170.972 359.675 170.472 359.955C170.185 360.117 169.905 360.288 169.631 360.469C168.067 361.502 168.608 363.924 170.46 364.21L170.502 364.216C170.532 364.221 170.558 364.225 170.588 364.229C169.678 366.39 168.409 368.395 166.821 370.125C165.274 378.47 158.631 379.261 151.525 376.831H151.521C150.744 380.213 149.609 383.516 148.15 386.665H136.109C136.066 386.531 136.027 386.393 135.988 386.259C137.101 386.328 138.224 386.263 139.32 386.061C138.426 384.965 137.533 383.861 136.64 382.766C136.618 382.744 136.601 382.723 136.584 382.701C136.13 382.14 135.673 381.584 135.22 381.023L135.219 381.023C135.191 379.302 135.398 377.586 135.807 375.921L135.807 375.921Z" fill="#F2F2F2"/>
<path d="M41.1559 377.257C39.7755 377.343 39.0125 375.629 40.0569 374.63L40.1608 374.217C40.1472 374.184 40.1334 374.151 40.1196 374.118C38.7235 370.792 33.9921 370.815 32.608 374.146C31.3794 377.103 29.8152 380.065 29.4301 383.191C29.2574 384.571 29.3351 385.977 29.6416 387.332C26.7629 381.048 25.248 374.186 25.248 367.285C25.248 365.552 25.343 363.818 25.5372 362.089C25.6969 360.674 25.917 359.268 26.2018 357.875C27.7426 350.345 31.0788 343.172 35.8909 337.182C38.2043 335.918 40.1334 333.943 41.2987 331.575C41.7174 330.721 42.0454 329.803 42.2008 328.867C41.9375 328.901 41.2081 324.895 41.4066 324.649C41.0398 324.092 40.3831 323.816 39.9824 323.273C37.9896 320.573 35.244 321.044 33.8107 324.713C30.7488 326.258 30.7192 328.819 32.5979 331.282C33.7932 332.849 33.9574 334.969 35.0062 336.647C34.8983 336.785 34.7861 336.919 34.6782 337.057C32.6996 339.593 30.9883 342.319 29.5456 345.182C29.9534 342 29.3514 338.166 28.3252 335.694C27.1571 332.878 24.9675 330.506 23.0394 328.072C20.7234 325.148 15.9742 326.424 15.5661 330.131C15.5622 330.166 15.5583 330.202 15.5546 330.238C15.8409 330.4 16.1215 330.571 16.3956 330.752C17.9589 331.785 17.4186 334.207 15.5663 334.493L15.5244 334.499C15.6279 335.53 15.8049 336.552 16.0638 337.557C13.5903 347.116 18.9305 350.598 26.5557 350.754C26.724 350.841 26.888 350.927 27.0564 351.009C26.2838 353.182 25.6666 355.412 25.2092 357.672C24.7992 359.669 24.5143 361.687 24.3546 363.714C24.1561 366.272 24.1733 368.842 24.3892 371.396L24.3762 371.305C23.8281 368.493 22.3003 365.867 20.0819 364.046C16.7772 361.334 12.1083 360.335 8.54308 358.154C6.8269 357.105 4.62775 358.461 4.92726 360.449L4.94185 360.545C5.47269 360.76 5.99058 361.01 6.49123 361.291C6.77762 361.452 7.05819 361.624 7.33226 361.805C8.89553 362.838 8.35526 365.26 6.50297 365.545L6.46099 365.552C6.43079 365.556 6.40488 365.56 6.37472 365.565C7.28537 367.725 8.5542 369.731 10.1424 371.46C11.6891 379.805 18.332 380.597 25.4379 378.167H25.4422C26.2191 381.548 27.3542 384.852 28.8129 388H40.8542C40.8974 387.866 40.9362 387.728 40.9751 387.595C39.8616 387.664 38.7394 387.599 37.6432 387.396C38.5366 386.301 39.4299 385.197 40.3233 384.101C40.3449 384.08 40.3622 384.058 40.3794 384.037C40.8326 383.476 41.2901 382.92 41.7433 382.359L41.7435 382.358C41.7719 380.637 41.5654 378.922 41.1563 377.257L41.1559 377.257Z" fill="#F2F2F2"/>
<path d="M0 386.937C0 387.378 0.354171 387.732 0.795209 387.732H170.046C170.487 387.732 170.841 387.378 170.841 386.937C170.841 386.496 170.487 386.142 170.046 386.142H0.795209C0.354171 386.142 0 386.496 0 386.937Z" fill="#CCCCCC"/>
<path d="M109.244 82.9557C118.262 82.9557 125.572 75.6504 125.572 66.6387C125.572 57.6271 118.262 50.3217 109.244 50.3217C100.226 50.3217 92.9152 57.6271 92.9152 66.6387C92.9152 75.6504 100.226 82.9557 109.244 82.9557Z" fill="#FFB6B6"/>
<path d="M124.517 66.0019C124.563 66.0019 124.677 66.0019 124.891 66.0086C125.512 66.0486 124.67 66.0152 124.517 66.0019Z" fill="#2F2E41"/>
<path d="M133.21 64.446C133.09 64.7398 132.696 64.9802 132.141 65.1739C131.085 63.8317 129.715 62.7433 128.152 62.0689C128.853 63.2107 129.428 64.426 129.856 65.6947C128.339 65.9151 126.648 66.0086 125.559 66.0152C125.298 66.0152 125.071 66.0152 124.891 66.0086C124.624 65.5344 124.196 64.7665 123.828 63.9719C123.795 66.1421 120.768 72.539 121.015 77.9477C121.316 84.4181 121.657 91.4761 121.657 91.4761C120.568 91.7499 119.251 91.9435 117.748 92.0637C116.091 89.0255 114.861 85.6267 114.199 82.1812C114.126 81.8139 114.066 81.4467 114.006 81.0794C113.865 81.5001 113.732 81.9274 113.618 82.3615C113.117 84.1643 112.823 86.1075 112.729 88.1241C112.663 89.4528 112.689 90.8017 112.79 92.1706C104.544 93.8465 94.347 93.673 86.97 89.5797C87.2172 88.9053 87.4043 88.2109 87.5246 87.503C87.9255 85.1793 84.6914 84.8521 82.5398 86.2744C80.3881 84.1176 78.7577 81.3799 77.8757 77.9544C91.9348 71.7911 77.134 64.2056 87.9924 53.2748C86.6827 43.7795 112.917 41.0351 117.995 49.4753C119.104 48.634 122.559 48.674 124.029 49.2883C125.499 49.9026 126.635 50.9377 127.744 51.9393C128.486 52.6203 128.138 53.9759 127.664 54.9909C129.996 53.8757 135.201 59.6717 133.21 64.446V64.446Z" fill="#2F2E41"/>
</g>
<defs>
<clipPath id="clip0_241_24378">
<rect width="446" height="388" fill="white"/>
</clipPath>
</defs>
</svg>
